<svg width="104" height="104" viewBox="0 0 104 104" fill="none" xmlns="http://www.w3.org/2000/svg">
<circle cx="52" cy="52" r="52" fill="#F13F00"/>
<g clip-path="url(#clip0)">
<path d="M68.9778 43.25L62.3816 39.2656C62.3816 39.2656 65.23 45.125 66.1295 47.1562C66.5042 48.0156 67.0289 49.0313 67.4037 50.0469C67.6286 50.75 67.7036 51.6875 67.7036 52.0781C67.7036 52.625 67.5536 54.0313 66.1295 54.8906L41.9932 69.2656C42.218 69.5781 43.2674 70.0469 44.2419 70.3594C47.9898 71.5312 51.4378 71.2969 54.8109 69.2656L69.2777 60.5156C72.126 58.7969 73.8501 55.75 74 52.3906C74.1499 48.6406 72.0511 45.125 68.9778 43.25Z" fill="white"/>
<path d="M39.4446 70.6719C38.845 70.5156 38.1704 70.125 37.9455 69.9688C37.4957 69.6562 36.3714 68.875 36.3714 67.1563V38.7188C35.4719 39.1094 34.1976 39.9687 33.598 40.5156C31.6491 42 30 45.125 30 48.7187V69.2656C30 69.7344 30.075 70.2031 30.2998 70.6719C32.3237 74.8906 35.9216 77 39.5196 77C41.1687 77 42.8177 76.5312 44.2419 75.6719L49.1141 72.7812C49.1141 72.7812 43.7922 71.9219 42.0681 71.4531C41.3186 71.2188 40.1193 70.8281 39.4446 70.6719Z" fill="white"/>
<path d="M57.0596 36.1416L44.4668 28.4072C41.6184 26.6885 38.0204 26.4541 35.0971 28.0947C31.8739 29.8135 30 33.1729 30 36.8447V43.0947C30 43.0947 33.3731 38.1729 34.8722 36.5322C35.8467 35.5166 37.121 34.4229 37.7206 34.0322C38.0204 33.876 38.77 33.5635 39.5196 33.5635C39.9693 33.5635 40.494 33.6416 41.0937 34.0322L62.9063 47.3135C62.9813 46.9229 62.9813 46.2979 62.9813 45.5947C62.6065 41.6104 60.3578 38.0947 57.0596 36.1416Z" fill="white"/>
</g>
<defs>
<clipPath id="clip0">
<rect width="44" height="50" fill="white" transform="translate(30 27)"/>
</clipPath>
</defs>
</svg>
