<svg width="143" height="81" viewBox="0 0 143 81" fill="none" xmlns="http://www.w3.org/2000/svg">
<path opacity="0.1" d="M138.697 74.4817C138.563 74.575 138.426 74.6649 138.287 74.7535C137.775 75.0808 137.241 75.375 136.688 75.6339C133.782 77.0166 130.203 77.6914 126.715 78.1499C118.893 79.1805 110.906 79.3802 102.953 79.5764C81.4661 80.1093 59.9225 80.64 38.4905 79.4133C30.0232 78.9287 21.3664 78.1133 13.6918 75.6316C12.5927 75.2762 11.5143 74.8847 10.4565 74.4569C8.31859 73.5883 6.26494 72.5329 4.55686 71.2755C2.94664 70.0937 1.65103 68.7347 0.87317 67.1913C-0.74944 63.9745 0.108933 60.3617 1.96069 57.2099C2.73471 55.9309 3.60399 54.7066 4.56182 53.5464C5.98872 51.7714 7.56303 50.0519 9.00232 48.2792C14.1204 41.9661 17.4597 33.9926 12.7356 27.5259C11.3731 25.6681 9.41478 24.0373 8.30868 22.098C6.8954 19.6162 7.00564 16.8615 7.45527 14.18C7.51224 13.842 7.57913 13.5064 7.63982 13.1708C8.41149 9.20355 9.84831 4.92786 14.2962 2.45085C18.9163 -0.123078 25.4749 0.00691751 31.211 0.927526C40.1292 2.35985 48.3562 5.35094 56.6637 8.0525C64.9712 10.7541 73.6726 13.2216 82.8088 13.4887C90.8747 13.7251 100.285 11.9677 105.638 7.40724C110.84 2.97792 120.613 2.64111 127.661 5.31667C132.492 7.15316 136.102 10.461 137.624 14.18C137.932 14.9247 138.154 15.6989 138.287 16.4892C138.411 17.2089 138.452 17.9391 138.411 18.6673C138.39 19.0218 138.349 19.3822 138.287 19.7309C137.11 27.0733 128.637 32.864 123.487 39.4229C120.97 42.6267 119.192 46.4746 120.923 49.929C123.562 55.1926 132.742 57.0634 138.287 60.9822C139.323 61.6874 140.242 62.5376 141.012 63.5041C143.694 66.9927 142.702 71.701 138.697 74.4817Z" fill="#F13F00"/>
<path opacity="0.1" d="M66.6163 78.306C85.0618 78.306 100.015 77.8214 100.015 77.2235C100.015 76.6257 85.0618 76.141 66.6163 76.141C48.1708 76.141 33.2178 76.6257 33.2178 77.2235C33.2178 77.8214 48.1708 78.306 66.6163 78.306Z" fill="#F13F00"/>
<path d="M93.1514 76.5026C93.1514 76.5026 100.335 67.82 99.7793 59.1895C99.5452 55.5661 100.48 51.9593 102.57 48.9257C103.564 47.4886 104.694 46.1416 105.946 44.9017" stroke="#535461" stroke-width="0.467647" stroke-miterlimit="10"/>
<path d="M105.628 39.4597C105.12 40.6674 105.936 45.0448 105.936 45.0448C105.936 45.0448 109.701 42.4224 110.208 41.2158C110.329 40.9287 110.39 40.6217 110.386 40.3123C110.383 40.0029 110.315 39.6972 110.188 39.4127C110.061 39.1281 109.876 38.8703 109.644 38.6539C109.412 38.4375 109.138 38.2667 108.837 38.1514C108.536 38.0361 108.214 37.9785 107.89 37.9818C107.566 37.9852 107.246 38.0494 106.947 38.1709C106.649 38.2924 106.379 38.4687 106.152 38.6898C105.925 38.911 105.746 39.1725 105.625 39.4597H105.628Z" fill="#F13F00"/>
<path d="M99.0275 44.6937C99.2888 45.9701 102.468 49.2211 102.468 49.2211C102.468 49.2211 104.134 45.0684 103.873 43.792C103.741 43.1852 103.364 42.6524 102.823 42.3093C102.282 41.9661 101.621 41.8402 100.983 41.9589C100.346 42.0775 99.7829 42.4311 99.4168 42.9431C99.0507 43.455 98.9108 44.084 99.0275 44.6937Z" fill="#F13F00"/>
<path d="M94.3836 56.1807C95.284 57.1569 99.7481 58.4261 99.7481 58.4261C99.7481 58.4261 98.9888 54.0393 98.0883 53.0632C97.8742 52.8311 97.6142 52.6415 97.3233 52.5053C97.0324 52.369 96.7161 52.2888 96.3927 52.2692C96.0693 52.2495 95.745 52.2908 95.4383 52.3908C95.1316 52.4907 94.8485 52.6473 94.6053 52.8516C94.362 53.056 94.1633 53.304 94.0205 53.5816C93.8777 53.8591 93.7936 54.1608 93.7731 54.4694C93.7525 54.778 93.7958 55.0874 93.9005 55.38C94.0053 55.6727 94.1694 55.9427 94.3836 56.1748V56.1807Z" fill="#F13F00"/>
<path d="M92.9196 65.6267C93.6343 66.7341 97.8097 68.7112 97.8097 68.7112C97.8097 68.7112 97.8382 64.2641 97.1235 63.1568C96.9548 62.891 96.7326 62.6597 96.4697 62.4762C96.2069 62.2927 95.9085 62.1606 95.5919 62.0876C95.2754 62.0146 94.9468 62.0021 94.6251 62.0508C94.3034 62.0996 93.995 62.2085 93.7176 62.3715C93.4403 62.5344 93.1995 62.7481 93.0091 63.0003C92.8187 63.2524 92.6825 63.538 92.6083 63.8406C92.5342 64.1432 92.5235 64.4568 92.5769 64.7634C92.6303 65.0699 92.7468 65.3633 92.9196 65.6267Z" fill="#F13F00"/>
<path d="M107.185 51.2988C105.923 51.7916 101.33 51.0423 101.33 51.0423C101.33 51.0423 104.055 47.4332 105.314 46.9404C105.917 46.7147 106.589 46.7245 107.185 46.9678C107.781 47.211 108.253 47.6681 108.499 48.2403C108.744 48.8126 108.744 49.454 108.499 50.0263C108.253 50.5985 107.781 51.0556 107.185 51.2988Z" fill="#F13F00"/>
<path d="M105.327 62.3247C103.965 62.4358 99.8203 60.409 99.8203 60.409C99.8203 60.409 103.55 57.7429 104.907 57.6318C105.233 57.6 105.563 57.6305 105.876 57.7214C106.19 57.8123 106.481 57.9618 106.733 58.1612C106.986 58.3607 107.194 58.6061 107.346 58.883C107.498 59.16 107.59 59.4631 107.618 59.7746C107.646 60.0861 107.609 60.3997 107.508 60.6973C107.408 60.9948 107.246 61.2703 107.033 61.5077C106.82 61.745 106.559 61.9395 106.266 62.0798C105.973 62.2201 105.654 62.3033 105.327 62.3247Z" fill="#F13F00"/>
<path d="M101.973 72.806C100.654 73.1334 96.207 71.8051 96.207 71.8051C96.207 71.8051 99.4101 68.5764 100.729 68.2479C101.356 68.1101 102.014 68.2111 102.564 68.5294C103.114 68.8476 103.512 69.358 103.673 69.9519C103.835 70.5459 103.747 71.1765 103.428 71.7095C103.11 72.2425 102.586 72.636 101.968 72.806H101.973Z" fill="#F13F00"/>
<path opacity="0.25" d="M105.628 39.4597C105.12 40.6674 105.936 45.0448 105.936 45.0448C105.936 45.0448 109.701 42.4224 110.208 41.2158C110.329 40.9287 110.39 40.6217 110.386 40.3123C110.383 40.0029 110.315 39.6972 110.188 39.4127C110.061 39.1281 109.876 38.8703 109.644 38.6539C109.412 38.4375 109.138 38.2667 108.837 38.1514C108.536 38.0361 108.214 37.9785 107.89 37.9818C107.566 37.9852 107.246 38.0494 106.947 38.1709C106.649 38.2924 106.379 38.4687 106.152 38.6898C105.925 38.911 105.746 39.1725 105.625 39.4597H105.628Z" fill="black"/>
<path opacity="0.25" d="M99.0275 44.6937C99.2888 45.9701 102.468 49.2211 102.468 49.2211C102.468 49.2211 104.134 45.0684 103.873 43.792C103.741 43.1852 103.364 42.6524 102.823 42.3093C102.282 41.9661 101.621 41.8402 100.983 41.9589C100.346 42.0775 99.7829 42.4311 99.4168 42.9431C99.0507 43.455 98.9108 44.084 99.0275 44.6937Z" fill="black"/>
<path opacity="0.25" d="M94.3836 56.1807C95.284 57.1569 99.7481 58.4261 99.7481 58.4261C99.7481 58.4261 98.9888 54.0393 98.0883 53.0632C97.8742 52.8311 97.6142 52.6415 97.3233 52.5053C97.0324 52.369 96.7161 52.2888 96.3927 52.2692C96.0693 52.2495 95.745 52.2908 95.4383 52.3908C95.1316 52.4907 94.8485 52.6473 94.6053 52.8516C94.362 53.056 94.1633 53.304 94.0205 53.5816C93.8777 53.8591 93.7936 54.1608 93.7731 54.4694C93.7525 54.778 93.7958 55.0874 93.9005 55.38C94.0053 55.6727 94.1694 55.9427 94.3836 56.1748V56.1807Z" fill="black"/>
<path opacity="0.25" d="M92.9196 65.6267C93.6343 66.7341 97.8097 68.7112 97.8097 68.7112C97.8097 68.7112 97.8382 64.2641 97.1235 63.1568C96.9548 62.891 96.7326 62.6597 96.4697 62.4762C96.2069 62.2927 95.9085 62.1606 95.5919 62.0876C95.2754 62.0146 94.9468 62.0021 94.6251 62.0508C94.3034 62.0996 93.995 62.2085 93.7176 62.3715C93.4403 62.5344 93.1995 62.7481 93.0091 63.0003C92.8187 63.2524 92.6825 63.538 92.6083 63.8406C92.5342 64.1432 92.5235 64.4568 92.5769 64.7634C92.6303 65.0699 92.7468 65.3633 92.9196 65.6267Z" fill="black"/>
<path opacity="0.25" d="M107.185 51.2988C105.923 51.7916 101.33 51.0423 101.33 51.0423C101.33 51.0423 104.055 47.4332 105.314 46.9404C105.917 46.7147 106.589 46.7245 107.185 46.9678C107.781 47.211 108.253 47.6681 108.499 48.2403C108.744 48.8126 108.744 49.454 108.499 50.0263C108.253 50.5985 107.781 51.0556 107.185 51.2988Z" fill="black"/>
<path opacity="0.25" d="M105.327 62.3247C103.965 62.4358 99.8203 60.409 99.8203 60.409C99.8203 60.409 103.55 57.7429 104.907 57.6318C105.233 57.6 105.563 57.6305 105.876 57.7214C106.19 57.8123 106.481 57.9618 106.733 58.1612C106.986 58.3607 107.194 58.6061 107.346 58.883C107.498 59.16 107.59 59.4631 107.618 59.7746C107.646 60.0861 107.609 60.3997 107.508 60.6973C107.408 60.9948 107.246 61.2703 107.033 61.5077C106.82 61.745 106.559 61.9395 106.266 62.0798C105.973 62.2201 105.654 62.3033 105.327 62.3247Z" fill="black"/>
<path opacity="0.25" d="M101.973 72.806C100.654 73.1334 96.207 71.8051 96.207 71.8051C96.207 71.8051 99.4101 68.5764 100.729 68.2479C101.356 68.1101 102.014 68.2111 102.564 68.5294C103.114 68.8476 103.512 69.358 103.673 69.9519C103.835 70.5459 103.747 71.1765 103.428 71.7095C103.11 72.2425 102.586 72.636 101.968 72.806H101.973Z" fill="black"/>
<path d="M93.2134 76.1398C93.2134 76.1398 103.469 70.9813 106.625 62.8755C107.951 59.472 110.341 56.5364 113.536 54.5711C115.055 53.6416 116.661 52.8468 118.333 52.1969" stroke="#535461" stroke-width="0.467647" stroke-miterlimit="10"/>
<path d="M120.352 47.0975C119.376 48.004 118.262 52.3222 118.262 52.3222C118.262 52.3222 122.817 51.3768 123.794 50.4739C124.253 50.0362 124.513 49.4437 124.517 48.8246C124.522 48.2055 124.271 47.6095 123.818 47.1657C123.366 46.7219 122.749 46.4659 122.1 46.4531C121.451 46.4404 120.823 46.6719 120.352 47.0975Z" fill="#F13F00"/>
<path d="M112.095 49.3322C111.792 50.6003 113.318 54.8015 113.318 54.8015C113.318 54.8015 116.604 51.6497 116.91 50.3816C116.989 50.0777 117.005 49.7616 116.954 49.452C116.904 49.1424 116.79 48.8454 116.618 48.5784C116.447 48.3114 116.221 48.0798 115.954 47.8972C115.687 47.7145 115.385 47.5845 115.065 47.5147C114.745 47.4449 114.413 47.4367 114.09 47.4906C113.766 47.5445 113.457 47.6595 113.181 47.8288C112.905 47.998 112.667 48.2182 112.481 48.4763C112.294 48.7345 112.164 49.0255 112.098 49.3322H112.095Z" fill="#F13F00"/>
<path d="M102.974 58.0385C103.383 59.2794 106.923 62.1748 106.923 62.1748C106.923 62.1748 108.092 57.8707 107.683 56.6299C107.591 56.3285 107.437 56.0478 107.23 55.8041C107.023 55.5604 106.767 55.3587 106.477 55.2107C106.186 55.0628 105.868 54.9717 105.541 54.9427C105.213 54.9137 104.883 54.9474 104.569 55.0419C104.256 55.1364 103.965 55.2898 103.715 55.493C103.464 55.6961 103.258 55.9451 103.11 56.2251C102.961 56.5051 102.873 56.8106 102.85 57.1237C102.827 57.4367 102.87 57.751 102.976 58.048L102.974 58.0385Z" fill="#F13F00"/>
<path d="M97.6203 66.1089C97.8036 67.397 100.78 70.8183 100.78 70.8183C100.78 70.8183 102.695 66.7648 102.514 65.4755C102.471 65.169 102.364 64.8736 102.201 64.6064C102.038 64.3391 101.821 64.1051 101.563 63.9178C101.305 63.7305 101.011 63.5935 100.697 63.5146C100.384 63.4358 100.057 63.4166 99.7359 63.4582C99.4146 63.4998 99.1051 63.6013 98.825 63.757C98.5449 63.9128 98.2997 64.1196 98.1033 64.3657C97.907 64.6119 97.7634 64.8925 97.6807 65.1916C97.5981 65.4907 97.5779 65.8024 97.6215 66.1089H97.6203Z" fill="#F13F00"/>
<path d="M116.741 58.5217C115.378 58.4851 111.497 56.0235 111.497 56.0235C111.497 56.0235 115.518 53.7781 116.881 53.8135C117.529 53.8398 118.14 54.1084 118.582 54.5613C119.024 55.0141 119.262 55.6148 119.244 56.2335C119.225 56.8521 118.952 57.439 118.484 57.8672C118.016 58.2954 117.39 58.5305 116.741 58.5217Z" fill="#F13F00"/>
<path d="M110.36 67.884C109.071 67.4597 106.14 64.0042 106.14 64.0042C106.14 64.0042 110.68 63.0079 111.97 63.4322C112.575 63.6459 113.068 64.0772 113.344 64.6336C113.62 65.19 113.657 65.8274 113.446 66.4093C113.236 66.9912 112.795 67.4714 112.218 67.747C111.641 68.0226 110.974 68.0718 110.36 67.884Z" fill="#F13F00"/>
<path d="M102.85 76.1694C101.505 75.959 98.002 73.0258 98.002 73.0258C98.002 73.0258 102.302 71.3111 103.648 71.5214C104.284 71.632 104.85 71.9766 105.223 72.4812C105.596 72.9858 105.746 73.6099 105.642 74.2193C105.537 74.8286 105.186 75.3744 104.664 75.7391C104.142 76.1038 103.49 76.2584 102.85 76.1694Z" fill="#F13F00"/>
<path d="M94.1128 76.8607H93.0141L84.9779 37.2792L83.9473 76.8607H82.7805L81.475 37.3454L73.6444 76.8607H72.4082L77.7306 36.1778L77.904 34.8554L88.3445 33.741L88.669 36.1778L94.1128 76.8607Z" fill="#464353"/>
<path d="M71.9348 25.8065H65.2896V29.7383H71.9348V25.8065Z" fill="#464353"/>
<path d="M103.847 24.087L107.865 22.5388H108.746C108.874 22.5388 108.998 22.5875 109.088 22.6742C109.179 22.7608 109.23 22.8783 109.23 23.0009V33.7977C109.23 33.9202 109.179 34.0377 109.088 34.1244C108.998 34.2111 108.874 34.2597 108.746 34.2597H107.865L103.847 32.6632V24.087Z" fill="#464353"/>
<path d="M103.847 24.5785H95.6313V32.1714H103.847V24.5785Z" fill="#464353"/>
<path d="M86.6586 10.3168H81.3696V11.2338H86.6586V10.3168Z" fill="#514E7F"/>
<path d="M90.2221 11.5046H75.335V21.8748H90.2221V11.5046Z" fill="#514E7F"/>
<path opacity="0.1" d="M90.2221 20.6467H75.335V21.8758H90.2221V20.6467Z" fill="black"/>
<path opacity="0.1" d="M95.8371 24.5785H95.5039V32.1714H95.8371V24.5785Z" fill="black"/>
<path opacity="0.1" d="M71.9352 25.8065H69.6685V29.7383H71.9352V25.8065Z" fill="black"/>
<path opacity="0.1" d="M88.6688 36.1778H77.7305L77.9039 34.8554L88.3443 33.741L88.6688 36.1778Z" fill="black"/>
<path d="M94.3048 20.8429H71.1994C70.4674 20.8429 69.874 21.409 69.874 22.1074V34.7158C69.874 35.4142 70.4674 35.9803 71.1994 35.9803H94.3048C95.0368 35.9803 95.6302 35.4142 95.6302 34.7158V22.1074C95.6302 21.409 95.0368 20.8429 94.3048 20.8429Z" fill="#514E7F"/>
<path d="M103.769 24.0869H103.847V32.6631H103.769C103.599 32.6631 103.435 32.5985 103.315 32.4835C103.194 32.3684 103.126 32.2124 103.126 32.0498V24.7003C103.126 24.5376 103.194 24.3816 103.315 24.2666C103.435 24.1515 103.599 24.0869 103.769 24.0869Z" fill="#514E7F"/>
<path d="M107.865 22.5425H108.699C108.84 22.5425 108.975 22.5959 109.075 22.691C109.174 22.7861 109.23 22.915 109.23 23.0495V33.7588C109.23 33.8932 109.174 34.0222 109.075 34.1173C108.975 34.2124 108.84 34.2658 108.699 34.2658H107.865V22.5425Z" fill="#514E7F"/>
<path opacity="0.1" d="M66.4749 25.8065H65.2896V29.7383H66.4749V25.8065Z" fill="black"/>
<path d="M65.3763 24.5785H64.8425C64.35 24.5785 63.9507 24.9594 63.9507 25.4294V30.4118C63.9507 30.8817 64.35 31.2627 64.8425 31.2627H65.3763C65.8689 31.2627 66.2682 30.8817 66.2682 30.4118V25.4294C66.2682 24.9594 65.8689 24.5785 65.3763 24.5785Z" fill="#514E7F"/>
<path d="M75.3352 18.5822C79.4321 18.5822 82.7533 15.4134 82.7533 11.5045C82.7533 7.59555 79.4321 4.42676 75.3352 4.42676C71.2382 4.42676 67.917 7.59555 67.917 11.5045C67.917 15.4134 71.2382 18.5822 75.3352 18.5822Z" fill="#464353"/>
<path d="M75.3349 16.8131C78.4078 16.8131 80.8989 14.4363 80.8989 11.5045C80.8989 8.57265 78.4078 6.19592 75.3349 6.19592C72.2621 6.19592 69.771 8.57265 69.771 11.5045C69.771 14.4363 72.2621 16.8131 75.3349 16.8131Z" fill="#F13F00"/>
<path d="M89.0888 16.813C92.0762 16.813 94.4979 14.5024 94.4979 11.6522C94.4979 8.80192 92.0762 6.49133 89.0888 6.49133C86.1014 6.49133 83.6797 8.80192 83.6797 11.6522C83.6797 14.5024 86.1014 16.813 89.0888 16.813Z" fill="#464353"/>
<path d="M89.0887 15.5227C91.3291 15.5227 93.1453 13.7899 93.1453 11.6523C93.1453 9.51479 91.3291 7.78198 89.0887 7.78198C86.8484 7.78198 85.0322 9.51479 85.0322 11.6523C85.0322 13.7899 86.8484 15.5227 89.0887 15.5227Z" fill="#F13F00"/>
<path d="M88.6692 23.7749C89.0626 23.7749 89.3814 23.4707 89.3814 23.0954C89.3814 22.7201 89.0626 22.4159 88.6692 22.4159C88.2759 22.4159 87.957 22.7201 87.957 23.0954C87.957 23.4707 88.2759 23.7749 88.6692 23.7749Z" fill="#F13F00"/>
<path opacity="0.5" d="M90.9344 23.7749C91.3277 23.7749 91.6466 23.4707 91.6466 23.0954C91.6466 22.7201 91.3277 22.4159 90.9344 22.4159C90.541 22.4159 90.2222 22.7201 90.2222 23.0954C90.2222 23.4707 90.541 23.7749 90.9344 23.7749Z" fill="#F13F00"/>
<path d="M81.9706 25.4401L81.9198 25.3444C82.2339 25.4439 82.5355 25.5763 82.8191 25.7391C82.6952 24.7121 78.5668 21.8286 77.8237 21.8286C77.0805 21.8286 76.2543 20.6042 76.2543 20.6042C76.2543 20.6042 74.1078 20.2887 73.777 19.9543C73.4463 19.6198 71.2168 19.8148 70.6805 19.933C70.1441 20.0512 69.318 19.6175 69.318 19.6175C69.318 19.6175 68.8634 18.9084 68.2862 18.9084C67.709 18.9084 67.0909 18.119 67.0909 18.119C67.0909 18.119 66.5521 17.6462 66.0566 17.5659C65.5612 17.4855 64.9419 16.975 64.652 16.5791C64.3622 16.1832 62.9179 15.9882 62.093 16.1064C61.2681 16.2246 59.0373 15.9457 59.0373 15.9457C59.9452 15.5509 60.1645 14.6031 60.1645 14.6031C59.3519 14.563 57.2165 12.8517 57.2165 12.8517C57.2165 12.8517 57.3045 13.4048 57.406 14.1765L57.2685 14.0075L57.25 14.0217C57.2063 13.4712 57.2001 12.9185 57.2314 12.3672C57.2314 12.3247 57.2388 12.2821 57.2413 12.2384C57.7701 11.7964 58.1622 11.2249 58.3753 10.5856C58.5884 9.9464 58.6143 9.26376 58.4502 8.61151C58.4279 8.52169 58.4019 8.43424 58.3722 8.34797C58.5302 8.41069 58.6972 8.45053 58.8676 8.46615H58.9556C59.058 8.46679 59.1595 8.44669 59.2532 8.40717C59.3469 8.36765 59.4308 8.30961 59.4993 8.23688C59.5225 8.20888 59.5429 8.1788 59.56 8.14707C59.5642 8.14103 59.5679 8.13471 59.5712 8.12816C59.5859 8.09915 59.5983 8.06913 59.6083 8.03834C59.6118 8.02746 59.6147 8.01642 59.617 8.00525C59.6232 7.98109 59.6282 7.95663 59.6318 7.93198C59.6318 7.91189 59.6318 7.89062 59.6318 7.86935C59.6318 7.84808 59.6318 7.83862 59.6318 7.82326C59.6267 7.64157 59.5847 7.46256 59.508 7.29618C59.3779 6.99128 59.1909 6.68993 59.2045 6.36021C59.2045 6.33303 59.2107 6.30703 59.2144 6.28103C59.2491 6.02222 59.3916 5.78232 59.477 5.53296V5.52233C59.4894 5.48569 59.4993 5.44906 59.508 5.41242C59.512 5.4016 59.5153 5.39055 59.5179 5.37933C59.5271 5.33605 59.5333 5.29222 59.5365 5.24815C59.5365 5.24815 59.5365 5.24225 59.5365 5.2387C59.5687 4.74472 59.1513 4.31336 58.6781 4.11364C58.2545 3.93401 57.7702 3.88556 57.3825 3.64093C56.9403 3.36321 56.6975 2.88223 56.3705 2.48396C55.8949 1.90489 55.1505 1.47236 54.3887 1.55508C53.9193 1.6059 53.4932 1.84107 53.0262 1.93207C52.3165 2.0727 51.5659 1.86826 50.8599 2.02543C50.6884 2.05261 50.5324 2.13624 50.4189 2.26179C50.3715 2.32515 50.3409 2.39855 50.3297 2.47569C50.3198 2.54707 50.3198 2.6194 50.3297 2.69078V2.69668C50.3377 2.7648 50.3505 2.83232 50.3681 2.89877L50.3793 2.94013C50.3793 2.95431 50.3855 2.96731 50.3892 2.98149C50.3929 2.99568 50.4053 3.03704 50.4127 3.06422C50.4263 3.11031 50.4375 3.1564 50.4499 3.20367V3.22021C50.461 3.26867 50.4722 3.31712 50.4808 3.36676C50.5008 3.46907 50.5141 3.57249 50.5205 3.67638C50.5496 3.96879 50.4834 4.26264 50.331 4.51781C50.0213 4.99053 49.3636 5.1997 49.0775 5.6925C49.0099 5.81141 48.9677 5.94198 48.9536 6.07658C48.9484 6.12131 48.9464 6.16632 48.9474 6.21131V6.22903C48.9474 6.26803 48.9474 6.30703 48.9585 6.34721C48.958 6.35666 48.958 6.36613 48.9585 6.37557C48.9649 6.41063 48.9732 6.44534 48.9833 6.47957C48.9833 6.49139 48.9895 6.50203 48.9932 6.51266C49.0069 6.55309 49.0234 6.59258 49.0428 6.63084C49.1753 6.89438 49.4255 7.11183 49.4775 7.39782C49.4775 7.40609 49.4775 7.41436 49.4837 7.42382C49.5122 7.6389 49.4193 7.84926 49.371 8.0608C49.3646 8.08653 49.3597 8.11257 49.3561 8.13879C49.3561 8.14707 49.3561 8.15534 49.3561 8.16361C49.3561 8.17189 49.3561 8.19907 49.3561 8.21797C49.3561 8.23688 49.3561 8.23807 49.3561 8.2487C49.3561 8.25934 49.3561 8.28061 49.3561 8.29597C49.3555 8.30699 49.3555 8.31804 49.3561 8.32906C49.3561 8.34442 49.3561 8.35979 49.3561 8.37397C49.3561 8.38815 49.3561 8.39524 49.3561 8.40588C49.3561 8.41651 49.3636 8.43542 49.3685 8.4496L49.3772 8.47915C49.3831 8.49325 49.3897 8.50706 49.397 8.52051L49.4107 8.54651C49.4197 8.56084 49.4296 8.57465 49.4404 8.58787C49.4449 8.59445 49.4499 8.60077 49.4552 8.60678C49.4721 8.62577 49.4912 8.64282 49.5122 8.6576C49.6832 8.77578 49.9495 8.74505 50.0894 8.89395C50.1052 8.91199 50.1185 8.93184 50.1291 8.95304L50.1365 8.96723C50.1467 8.98804 50.1546 9.00983 50.16 9.03222C50.1798 9.12104 50.1798 9.21285 50.16 9.30167C50.1105 9.53802 50.0052 9.75311 49.9495 9.98474C49.9383 10.032 49.9309 10.0805 49.9247 10.1289C49.9247 10.1514 49.9247 10.1726 49.9185 10.1939V10.2081C49.9185 10.2282 49.9185 10.2495 49.9185 10.2695C49.9185 10.2896 49.9185 10.2802 49.9185 10.2861C49.9185 10.3156 49.9185 10.3464 49.9259 10.3759C49.9334 10.4055 49.9259 10.4043 49.9334 10.4173L49.9408 10.4515C49.9408 10.4669 49.9495 10.4823 49.9544 10.4976L49.9656 10.5272C49.9718 10.5437 49.9804 10.5603 49.9879 10.5768C49.9915 10.5845 49.9956 10.592 50.0002 10.5993C50.0127 10.6234 50.0277 10.6464 50.0448 10.6678C50.1947 10.8616 50.4412 10.9266 50.7013 10.9278C50.8488 10.927 50.9958 10.9112 51.1398 10.8805C51.172 10.9526 51.2054 11.0247 51.2414 11.0944C51.4209 11.4394 51.6562 11.7552 51.9387 12.0304C51.9387 12.067 51.9313 12.1025 51.9263 12.1403C51.8978 12.4098 51.8631 12.6993 51.8235 12.9912C51.5027 12.8506 51.255 12.7962 51.1571 12.8978C50.7422 13.3327 51.1571 14.8336 51.1571 14.8336C51.1571 14.8336 49.132 14.8336 48.6365 15.2673C48.1411 15.701 47.2331 15.2673 47.2331 15.2673C47.2331 15.2673 45.3752 15.4658 45.499 15.8216C45.6229 16.1773 44.5081 15.8216 44.5081 15.8216C44.5081 15.8216 43.7228 15.9007 43.765 16.4125C43.8071 16.9242 42.5672 17.1617 42.7319 17.5174C42.8967 17.8731 41.9888 18.1083 41.9888 18.1083C41.9888 18.1083 41.0808 18.0693 41.4116 18.581C41.4116 18.581 40.9161 19.6872 40.5036 19.7628C40.0912 19.8384 39.5536 20.7496 39.5536 20.7496C39.5536 20.7496 37.9632 21.0261 38.035 21.5C38.1069 21.9739 35.59 25.3645 35.59 25.3645C35.59 25.3645 34.7638 26.9894 35.3423 28.1747C35.9207 29.3601 36.3332 30.1495 36.457 30.5832C36.5809 31.0169 38.0821 32.9267 38.0697 33.2824C38.0697 33.3935 38.4413 33.9915 38.9479 34.7502L38.7993 34.8967L38.4735 35.217C38.4735 35.217 37.4405 37.6656 38.6791 37.7838C39.7258 37.8831 40.4776 37.9552 40.8591 37.8559C40.921 37.8421 40.9798 37.8177 41.0325 37.7838L41.0474 37.7732C41.4983 38.4078 41.8178 38.851 41.8178 38.851C41.8178 38.851 41.8624 38.7883 41.9417 38.6808L42.0656 38.8498C42.0656 38.8498 42.1646 38.7151 42.3331 38.4953C42.2786 39.5695 42.2712 40.6284 42.2712 40.6284C42.2712 40.6284 42.8087 40.5492 42.561 42.9187C42.3133 45.2881 44.0474 47.2227 44.0474 47.2227V50.7385C44.0474 50.7385 44.0474 50.8272 44.0647 50.9749C44.1105 51.4795 44.2617 52.6696 44.7076 53.4566C45.286 54.4824 44.7076 57.1686 44.7076 57.1686C44.7076 57.1686 44.6692 59.3596 44.8079 62.0919C44.8079 62.1664 44.8166 62.2432 44.8203 62.3188C42.3158 64.316 39.6292 66.9632 39.6292 66.9632C39.7607 66.9983 39.886 67.0521 40.0008 67.1228L39.8509 67.3059L39.1684 68.1084L38.6407 68.73L39.4768 71.1869L40.3897 70.8466C40.3897 70.8466 40.8851 71.6655 40.7811 72.221C40.7653 72.3214 40.7226 72.4162 40.6572 72.4963C40.6257 72.5366 40.6037 72.583 40.5928 72.6322C40.3538 73.5221 41.3509 77.3594 42.9326 77.526C42.9326 77.526 43.4689 77.695 43.6411 77.2341C43.7241 77.0119 43.7228 76.6432 43.5371 76.044C43.5371 76.044 42.701 75.0821 43.2423 74.0456C43.5593 73.4394 44.0833 72.6275 44.4623 72.0543L44.6184 71.818C44.959 72.2281 45.1683 72.4916 45.1683 72.4916L46.3847 71.2436C46.4107 71.2968 46.4367 71.3488 46.4639 71.3985C46.555 71.5723 46.6602 71.739 46.7786 71.8972L47.6035 75.0182L47.9367 74.9473C47.9292 75.023 47.9243 75.1033 47.9193 75.1837C47.8921 75.7439 47.9193 76.4707 48.1906 76.9895C48.3937 77.3865 48.7368 77.6631 49.2967 77.6501C51.2166 77.6052 51.774 76.6137 51.774 76.6137V74.1319L52.4342 73.9913C52.4342 73.9913 52.3858 68.5385 52.2162 65.4978C52.2162 65.4305 52.2087 65.3654 52.205 65.3016C52.205 65.2922 52.205 65.2827 52.205 65.2745L56.4448 60.9243L56.7706 60.8002C59.4956 59.7733 59.5377 57.1272 59.5377 57.1272C59.5377 57.1272 59.5377 55.6666 59.8672 54.4422C60.1967 53.2179 59.9093 46.8587 59.29 45.2799C58.6707 43.701 58.4638 41.9212 58.4638 41.9212C58.4638 41.9212 59.0831 41.094 58.4638 40.405C58.2889 40.1988 58.1431 39.9715 58.0303 39.729L58.8366 39.6026L59.3011 39.5293L59.5489 39.4891C59.425 40.5338 59.4039 41.3363 59.6975 41.5277C60.6067 42.1186 63.6611 40.145 63.6611 40.145C62.5464 40.145 61.927 32.207 62.1537 32.0096C62.3804 31.8123 62.7185 27.8344 62.4225 27.1253C62.1265 26.4162 63.4617 23.2503 63.4617 23.2503L63.6673 22.9595C63.6673 22.9595 68.5401 24.9887 69.0764 25.3775C69.6128 25.7663 71.306 24.432 71.5946 24.9485C71.8832 25.4649 73.7002 26.2343 73.7002 26.2343C73.7002 26.2343 76.3844 25.9754 76.673 26.6077C76.9616 27.24 78.6969 28.7207 78.6969 28.7207C78.6978 28.3735 78.7197 28.0267 78.7625 27.6819C78.7985 27.7635 78.8331 27.8462 78.8703 27.9301C79.6928 29.7867 81.0614 32.1373 82.3298 30.8728C83.7666 29.4357 82.6729 26.7791 81.9706 25.4401ZM45.2464 33.8308V33.8532L45.2365 33.8438L45.2464 33.8308ZM44.2852 24.7216L43.76 30.0053L42.7282 31.0252L42.6044 31.1505L41.5379 30.0431C41.5379 30.0431 41.0003 29.8068 41.5379 29.3719C42.0755 28.937 40.63 27.9537 40.63 27.9537C40.63 27.9537 40.5879 27.2447 41.1254 27.0461C41.663 26.8476 42.3641 25.5453 42.3641 25.5453L44.305 24.5998L44.2852 24.7216ZM51.1918 51.7655C51.2294 51.7322 51.271 51.7033 51.3157 51.6792C51.5473 51.554 51.6959 51.691 51.7727 51.9321C51.8739 52.3362 51.8432 52.7601 51.6848 53.147C51.3962 53.7793 52.0985 56.3071 52.0985 56.3071C52.0985 56.3071 51.1893 56.7006 51.0246 57.4522C51.0001 57.5446 50.9581 57.6319 50.9007 57.7099C50.8896 57.6437 50.8797 57.5799 50.8698 57.5184C50.7892 57.0457 50.7459 56.7408 50.7459 56.7408C50.5978 56.1326 50.5697 55.5034 50.6629 54.8854C50.7942 54.1255 51.0593 52.5821 51.1584 51.9971C51.1831 51.8553 51.1968 51.7702 51.198 51.7608L51.1918 51.7655Z" fill="url(#paint0_linear)"/>
<path d="M56.9486 13.289L57.2162 13.1188L57.9705 14.6374L57.6807 14.9624H56.8037C56.8037 14.9624 56.8347 14.1351 56.8557 14.1056C56.8768 14.076 56.9486 13.289 56.9486 13.289Z" fill="#464353"/>
<path d="M51.7699 73.4833V76.7332C51.7699 76.7332 51.2125 77.7223 49.2926 77.7672C49.0595 77.7804 48.8278 77.7241 48.6297 77.6061C48.4316 77.4882 48.2767 77.3145 48.1865 77.109C47.919 76.5914 47.888 75.8657 47.9152 75.3068C47.9289 75.0271 47.9599 74.7485 48.0081 74.4724L51.7699 73.4833Z" fill="#3F3D56"/>
<path opacity="0.1" d="M51.7701 73.4833V74.489L47.9155 75.3068C47.9292 75.0271 47.9602 74.7485 48.0084 74.4724L51.7701 73.4833Z" fill="black"/>
<path d="M52.4304 74.1131L47.5997 75.1377L46.7748 72.0249C46.6567 71.867 46.5515 71.7007 46.4602 71.5273C46.4069 71.4281 46.3549 71.3229 46.3054 71.213C45.4061 69.25 45.006 65.7094 44.8351 62.6971C44.8264 62.5446 44.8178 62.3933 44.8103 62.2444C44.6716 59.5192 44.71 57.3329 44.71 57.3329C44.71 57.3329 45.2884 54.6538 44.71 53.6304C44.2641 52.841 44.113 51.6545 44.0671 51.1487C44.0548 50.9986 44.0498 50.9123 44.0498 50.9123L44.139 50.689L44.5031 49.7695H48.5089L50.8375 51.6498L51.1918 51.9357L51.1521 52.1721C51.0518 52.7559 50.7867 54.2993 50.6567 55.0533C50.5635 55.6697 50.5916 56.2974 50.7397 56.904C50.7397 56.904 50.788 57.2041 50.8635 57.6804C50.8821 57.7986 50.9032 57.9238 50.9267 58.0597C51.2227 59.8064 51.7776 62.996 52.0142 63.7583C52.0799 63.9675 52.1381 64.4922 52.1814 65.2024C52.1913 65.3443 52.2 65.492 52.2087 65.6468C52.3821 68.6745 52.4304 74.1131 52.4304 74.1131Z" fill="#514E7F"/>
<path opacity="0.1" d="M51.7699 76.7V76.733C51.7699 76.733 51.2125 77.7222 49.2926 77.7671C49.0595 77.7802 48.8279 77.7239 48.6297 77.606C48.4316 77.4881 48.2767 77.3144 48.1865 77.1089C49.0474 77.3109 50.4445 77.4409 51.7699 76.7Z" fill="black"/>
<path d="M82.3237 31.0962C81.0503 32.3572 79.6878 30.0125 78.8641 28.1607C78.4021 27.1183 78.1123 26.2308 78.1123 26.2308L81.5012 24.8623C81.5012 24.8623 81.7093 25.1778 81.9706 25.6777C82.673 27.0131 83.7667 29.6627 82.3237 31.0962Z" fill="#A1616A"/>
<path d="M57.2349 12.6356C57.1806 13.8055 57.2725 14.9774 57.5086 16.1265C57.5086 16.1265 50.6144 16.8356 51.2337 15.8122C51.5966 15.2118 51.832 13.6271 51.9633 12.4157C52.0586 11.5578 52.1007 10.8877 52.1007 10.8877C52.1007 10.8877 58.7064 8.36696 57.7155 10.4942C57.4194 11.1288 57.2819 11.8804 57.2349 12.6356Z" fill="#A1616A"/>
<path d="M57.8171 29.5598L56.8906 40.1166L61.1429 39.4478L60.3997 30.7416L60.6474 28.417L57.8171 29.5598Z" fill="#464353"/>
<path opacity="0.1" d="M61.1426 39.4644L59.2958 39.7551L56.8892 40.1333L57.0589 38.2069L57.8169 29.5764L58.7818 29.1864L59.4655 28.911L60.6472 28.4336L60.3994 30.7582L61.1426 39.4644Z" fill="black"/>
<path d="M43.2384 74.1603C42.6972 75.1944 43.5332 76.154 43.5332 76.154C43.719 76.7531 43.7203 77.1195 43.6373 77.3357C43.4651 77.7955 42.9288 77.6265 42.9288 77.6265C41.2418 77.4492 40.2199 73.1073 40.6534 72.6098C41.0869 72.1123 40.3896 70.9695 40.3896 70.9695L39.4767 71.3087L38.6406 68.8576L39.1683 68.2372L39.8508 67.436L40.3128 66.8923L44.9267 71.4859C44.9267 71.4859 44.7297 71.7684 44.4585 72.1737C44.0795 72.7422 43.5555 73.5576 43.2384 74.1603Z" fill="#3F3D56"/>
<path opacity="0.1" d="M52.2123 65.6407L46.46 71.5272C45.4518 69.6482 45.0183 65.8783 44.835 62.6957C45.9064 61.8449 46.9406 61.1122 47.7235 60.7588C47.7235 60.7588 50.3717 58.9306 50.9303 58.0537C51.2263 59.8004 51.7812 62.99 52.0178 63.7523C52.0958 64.0028 52.1602 64.706 52.2123 65.6407Z" fill="black"/>
<path opacity="0.1" d="M50.8372 51.6486L44.1387 50.6879L44.5028 49.7684H48.5086L50.8372 51.6486Z" fill="black"/>
<path opacity="0.1" d="M52.1898 65.1965L46.31 71.213C45.4058 69.2501 45.0058 65.7094 44.8348 62.6971C44.8262 62.5446 44.8175 62.3933 44.8101 62.2444C45.8914 61.3841 46.938 60.6443 47.7233 60.2874C47.7233 60.2874 50.1944 58.5821 50.867 57.6757C50.8856 57.7938 50.9066 57.9191 50.9301 58.055C51.2262 59.8017 51.7811 62.9913 52.0177 63.7536C52.0833 63.9616 52.1378 64.4863 52.1898 65.1965Z" fill="black"/>
<path opacity="0.1" d="M44.9265 71.4884C44.9265 71.4884 44.7296 71.7708 44.4583 72.1762C43.4736 70.9885 41.1388 68.2538 39.8506 67.4384L40.3126 66.8948L44.9265 71.4884Z" fill="black"/>
<path d="M59.8621 54.6125C59.5327 55.8345 59.5327 57.2916 59.5327 57.2916C59.5327 57.2916 59.4905 59.9305 56.7656 60.9551L56.4398 61.0733L45.1682 72.6111C45.1682 72.6111 40.9978 67.4112 39.6353 67.0957C39.6353 67.0957 45.1261 61.6985 47.7272 60.5167C47.7272 60.5167 50.8659 58.3505 51.0307 57.6024C51.1954 56.8544 52.1046 56.4596 52.1046 56.4596C52.1046 56.4596 51.4023 53.9389 51.6909 53.3078C51.8493 52.9221 51.88 52.4994 51.7788 52.0965C51.702 51.8601 51.5534 51.7195 51.3218 51.8436C51.2771 51.8676 51.2355 51.8966 51.1979 51.9299L44.0559 50.9053V47.4036C44.0559 47.4036 42.3218 45.4738 42.5696 43.1102C42.8173 40.7467 42.2797 40.8258 42.2797 40.8258C42.2797 40.8258 42.3057 36.8338 42.6588 36.5005C43.0118 36.1672 46.4031 34.6404 46.4031 34.6404L57.0356 36.4426L57.4741 38.3831C57.4741 38.3831 57.8456 39.9265 58.465 40.6119C59.0843 41.2974 58.465 42.1234 58.465 42.1234C58.465 42.1234 58.6718 43.8961 59.2911 45.4738C59.9104 47.0515 60.1929 53.3917 59.8621 54.6125Z" fill="#514E7F"/>
<path opacity="0.1" d="M57.7156 10.4942C57.4195 11.1288 57.2821 11.8851 57.235 12.6356C56.4933 13.2485 55.5337 13.5673 54.5533 13.5265C53.573 13.4856 52.6462 13.0881 51.9634 12.4157C52.0588 11.5578 52.1009 10.8877 52.1009 10.8877C52.1009 10.8877 58.7065 8.36696 57.7156 10.4942Z" fill="black"/>
<path d="M58.5604 9.75315C58.5598 10.6873 58.1852 11.5859 57.5133 12.2653C56.8414 12.9447 55.9228 13.3535 54.9454 13.4082C53.968 13.4629 53.0057 13.1593 52.2551 12.5595C51.5045 11.9597 51.0225 11.109 50.9075 10.1813C50.7924 9.25366 51.0532 8.31913 51.6363 7.5688C52.2195 6.81846 53.0811 6.30901 54.0448 6.1446C55.0086 5.9802 56.0018 6.17326 56.8213 6.68431C57.6409 7.19536 58.2249 7.98579 58.4539 8.894C58.5248 9.17536 58.5606 9.46376 58.5604 9.75315Z" fill="#A1616A"/>
<path opacity="0.1" d="M55.4451 16.1266C55.4451 16.1266 52.6854 14.9058 52.5132 14.7474C52.341 14.5891 46.6161 28.6145 46.6161 28.6145L45.0059 35.587C45.0059 35.587 53.5933 39.0921 55.4512 38.6194C57.3092 38.1467 57.4739 38.6194 57.4739 38.6194C57.4739 38.6194 59.374 28.4561 59.9933 27.5509C60.6126 26.6456 59.4149 17.4265 59.4149 17.4265L57.2683 14.7462L55.4451 16.1266Z" fill="black"/>
<path opacity="0.1" d="M55.4451 15.6538C55.4451 15.6538 52.6854 14.433 52.5132 14.2746C52.341 14.1163 46.6161 28.1417 46.6161 28.1417L45.0059 35.1142C45.0059 35.1142 53.5933 38.6194 55.4512 38.1467C57.3092 37.6739 57.4739 38.1467 57.4739 38.1467C57.4739 38.1467 59.374 27.9833 59.9933 27.0781C60.6126 26.1728 59.4149 16.9537 59.4149 16.9537L57.2683 14.2735L55.4451 15.6538Z" fill="black"/>
<path d="M59.9857 27.3145C59.8618 27.5024 59.6748 28.0862 59.4655 28.8945C59.3193 29.457 59.1608 30.1271 58.9985 30.848C58.2677 34.1014 57.4676 38.3842 57.4676 38.3842C57.4676 38.3842 57.4168 38.24 57.0588 38.1904C56.769 38.1502 56.276 38.1727 55.4486 38.3842C53.5906 38.8569 45.002 35.3506 45.002 35.3506L45.2497 34.287L46.6122 28.3781C46.6122 28.3781 52.352 14.3538 52.5167 14.5122C52.6171 14.6079 53.6897 15.1031 54.5072 15.4706C55.0287 15.707 55.4486 15.8902 55.4486 15.8902L57.1827 14.5831L57.278 14.511L59.4147 17.1901C59.4147 17.1901 60.605 26.408 59.9857 27.3145Z" fill="#F13F00"/>
<path opacity="0.1" d="M53.4213 17.2693C53.6691 18.1781 53.0919 19.6719 53.0919 19.6719C53.0919 19.6719 51.11 24.321 50.5316 26.4695C49.9532 28.618 46.6448 32.948 46.6448 32.948C46.6448 32.948 46.1592 33.4125 45.4792 34.0589C45.4037 34.131 45.3244 34.2054 45.2451 34.2834L46.6076 28.3745C46.6076 28.3745 52.3474 14.3503 52.5122 14.5087C52.6125 14.6044 53.6852 15.0995 54.5027 15.4671C53.9911 15.9114 53.2566 16.6678 53.4213 17.2693Z" fill="black"/>
<path d="M53.1736 17.2693C53.4213 18.178 52.8441 19.6718 52.8441 19.6718C52.8441 19.6718 50.8623 24.321 50.2839 26.4694C49.7054 28.6179 46.3971 32.948 46.3971 32.948C46.3971 32.948 45.9115 33.4124 45.2315 34.0588C45.151 34.1357 45.0668 34.2148 44.9838 34.2952C43.656 35.5562 41.7893 37.3241 41.2059 37.8406C41.1205 37.9174 41.0623 37.967 41.0375 37.9835C40.9848 38.0174 40.926 38.0419 40.8641 38.0556C40.4826 38.1549 39.7307 38.0828 38.6841 37.9835C37.4455 37.8654 38.4785 35.4238 38.4785 35.4238L38.8042 35.1035L39.1015 34.8105L42.4755 31.4979L42.7233 31.2486L43.755 30.2334L44.2802 24.9627L44.2926 24.8362C44.2926 24.8362 44.139 24.5018 43.9024 23.9912C43.272 22.6097 42.0333 19.9436 41.58 19.0821C41.528 18.9817 41.4871 18.9072 41.4561 18.8611C41.4561 18.8552 41.45 18.8493 41.4462 18.8446C41.1155 18.3329 42.0234 18.3719 42.0234 18.3719C42.0234 18.3719 42.9326 18.1355 42.7666 17.781C42.6006 17.4264 43.8405 17.1901 43.7996 16.6784C43.7588 16.1667 44.5428 16.0875 44.5428 16.0875C44.5428 16.0875 45.6576 16.442 45.5337 16.0875C45.4099 15.7329 47.2678 15.5356 47.2678 15.5356C47.2678 15.5356 48.1757 15.9693 48.6712 15.5356C49.1666 15.1019 51.1992 15.103 51.1992 15.103C51.1992 15.103 50.7843 13.6057 51.1992 13.172C51.6142 12.7383 54.7256 15.103 54.7256 15.103C54.7256 15.103 52.9259 16.3616 53.1736 17.2693Z" fill="#464353"/>
<path opacity="0.1" d="M42.8521 37.4377C42.8521 37.4377 46.2793 42.0467 48.6736 40.5505C51.0679 39.0544 45.4532 35.1533 45.4532 35.1533L42.8521 37.4377Z" fill="black"/>
<path d="M42.8521 37.2013C42.8521 37.2013 46.2793 41.8102 48.6736 40.3141C51.0679 38.8179 45.4532 34.9169 45.4532 34.9169L42.8521 37.2013Z" fill="#A1616A"/>
<path opacity="0.1" d="M59.2961 39.7385C59.5574 37.5629 60.3155 34.294 59.6974 33.3025C59.3914 32.8109 59.1648 31.8737 58.9988 30.848C58.9096 30.2961 58.839 29.7182 58.782 29.1698C58.6309 27.7151 58.5826 26.4695 58.5826 26.4695C58.5826 26.4695 57.0962 20.1445 57.3848 18.8446C57.5657 18.0315 57.3576 15.9941 57.1768 14.5831L57.2721 14.511L59.4088 17.1901C59.4088 17.1901 60.6053 26.408 59.986 27.3144C59.8621 27.5023 59.6751 28.0861 59.4658 28.8945L60.6474 28.4218L60.3997 30.7463L61.1429 39.4525L59.2961 39.7385Z" fill="black"/>
<path d="M57.2163 13.1188C57.2163 13.1188 59.3517 14.8264 60.1643 14.8654C60.1643 14.8654 59.945 15.8109 59.0371 16.2056C59.0371 16.2056 61.2666 16.4869 62.0928 16.3651C62.919 16.2434 64.3632 16.4419 64.6518 16.8378C64.9404 17.2337 65.5672 17.7419 66.0626 17.8199C66.5581 17.8979 67.0969 18.3718 67.0969 18.3718L63.4615 23.4925C63.4615 23.4925 62.1399 26.6443 62.4285 27.3533C62.7171 28.0624 62.3864 32.0415 62.1597 32.2376C61.933 32.4338 62.5523 40.3529 63.6671 40.3529C63.6671 40.3529 60.6126 42.323 59.7035 41.7321C58.7943 41.1412 60.8604 34.7596 59.9512 33.3013C59.0421 31.8429 58.8364 26.4682 58.8364 26.4682C58.8364 26.4682 57.3501 20.1445 57.6399 18.8445C57.9298 17.5445 57.2163 13.1188 57.2163 13.1188Z" fill="#464353"/>
<path opacity="0.1" d="M81.9707 25.6777C80.867 25.3492 79.1763 25.3397 78.8642 28.1594C78.4021 27.1171 78.1123 26.2296 78.1123 26.2296L81.5012 24.8611C81.5012 24.8611 81.7093 25.1778 81.9707 25.6777Z" fill="black"/>
<path d="M65.0717 18.1355L67.0969 18.3719C67.0969 18.3719 67.7162 19.1601 68.2921 19.1601C68.8681 19.1601 69.3239 19.8692 69.3239 19.8692C69.3239 19.8692 70.1501 20.3017 70.6864 20.1835C71.2228 20.0654 73.4523 19.8704 73.783 20.2048C74.1137 20.5392 76.2603 20.8536 76.2603 20.8536C76.2603 20.8536 77.0864 22.0744 77.8296 22.0744C78.5728 22.0744 82.7012 24.9508 82.825 25.9743C82.825 25.9743 78.7375 23.4925 78.6967 28.9488C78.6967 28.9488 76.9626 27.4716 76.6727 26.8417C76.3829 26.2118 73.7 26.4682 73.7 26.4682C73.7 26.4682 71.8842 25.6989 71.5943 25.1872C71.3045 24.6755 69.6125 26.0026 69.0762 25.6138C68.5399 25.225 63.6671 23.2018 63.6671 23.2018L62.1597 20.4991L65.0717 18.1355Z" fill="#464353"/>
<path d="M55.7338 22.9217C55.9274 22.9217 56.0844 22.772 56.0844 22.5873C56.0844 22.4025 55.9274 22.2528 55.7338 22.2528C55.5402 22.2528 55.3833 22.4025 55.3833 22.5873C55.3833 22.772 55.5402 22.9217 55.7338 22.9217Z" fill="#3F3D56"/>
<path d="M55.3832 29.905C55.5768 29.905 55.7338 29.7552 55.7338 29.5705C55.7338 29.3858 55.5768 29.2361 55.3832 29.2361C55.1897 29.2361 55.0327 29.3858 55.0327 29.5705C55.0327 29.7552 55.1897 29.905 55.3832 29.905Z" fill="#3F3D56"/>
<path d="M55.7338 26.2297C55.9274 26.2297 56.0844 26.0799 56.0844 25.8952C56.0844 25.7105 55.9274 25.5608 55.7338 25.5608C55.5402 25.5608 55.3833 25.7105 55.3833 25.8952C55.3833 26.0799 55.5402 26.2297 55.7338 26.2297Z" fill="#3F3D56"/>
<path d="M54.7216 33.5803C54.9152 33.5803 55.0722 33.4305 55.0722 33.2458C55.0722 33.0611 54.9152 32.9114 54.7216 32.9114C54.528 32.9114 54.3711 33.0611 54.3711 33.2458C54.3711 33.4305 54.528 33.5803 54.7216 33.5803Z" fill="#3F3D56"/>
<path opacity="0.1" d="M43.6435 77.3418C43.4713 77.8015 42.935 77.6325 42.935 77.6325C41.248 77.4552 40.2261 73.1133 40.6596 72.6158C41.0931 72.1183 40.3896 70.9696 40.3896 70.9696L39.4767 71.3088L38.6406 68.8577L39.1683 68.2373C39.6935 69.1059 40.4453 70.3551 40.6224 70.6741C40.9588 71.3358 41.1183 72.0666 41.0869 72.8013C41.0584 73.5695 41.9924 77.2425 43.6435 77.3418Z" fill="black"/>
<path opacity="0.1" d="M58.4539 8.88925C58.3697 8.86207 58.2854 8.83016 58.2062 8.79825C57.9225 8.68834 57.624 8.56189 57.4518 8.32554C57.2945 8.10572 57.2437 7.7961 56.9985 7.67083C56.7161 7.52665 56.3792 7.72164 56.0732 7.78901C55.7091 7.87055 55.33 7.77364 54.9758 7.64955C54.4481 7.46401 53.7112 7.12248 53.1699 7.47583C52.7487 7.75001 52.9122 8.33144 52.8045 8.74625C52.6373 9.39032 51.9201 9.80986 51.7851 10.461C51.7244 10.7482 51.764 11.0992 51.52 11.2776C51.4488 11.3261 51.3678 11.3599 51.2822 11.3769C51.043 10.9149 50.9087 10.4099 50.8881 9.89491C50.8674 9.37997 50.9608 8.86666 51.1622 8.38851C51.3637 7.91036 51.6685 7.47813 52.057 7.12006C52.4454 6.76199 52.9086 6.48613 53.4164 6.31051C53.9242 6.13488 54.4651 6.06344 55.0038 6.10085C55.5425 6.13826 56.0668 6.28368 56.5426 6.52761C57.0184 6.77155 57.4348 7.1085 57.7648 7.51646C58.0948 7.92442 58.3309 8.39422 58.4576 8.89516L58.4539 8.88925Z" fill="black"/>
<path d="M54.9732 7.4096C55.3237 7.53369 55.7052 7.63059 56.0706 7.54787C56.3815 7.47814 56.7122 7.28315 56.9946 7.42969C57.2424 7.55614 57.2919 7.86459 57.448 8.0844C57.6201 8.32076 57.9186 8.45311 58.2035 8.55711C58.4159 8.65162 58.6431 8.7123 58.8761 8.73674C58.9927 8.74763 59.1103 8.73271 59.2199 8.69315C59.3295 8.65359 59.428 8.59046 59.5078 8.50866C59.7283 8.25457 59.6614 7.87404 59.5301 7.57032C59.3988 7.2666 59.213 6.96407 59.2266 6.63553C59.2427 6.24554 59.5388 5.90637 59.5636 5.51756C59.5958 5.02476 59.1783 4.59459 58.7052 4.39487C58.2816 4.21642 57.7973 4.16679 57.4096 3.92216C56.9674 3.64562 56.7246 3.16581 56.3976 2.76873C55.922 2.19084 55.1775 1.75949 54.4158 1.84222C53.9463 1.89303 53.5203 2.12703 53.0533 2.21802C52.3436 2.35866 51.5929 2.15421 50.8869 2.31138C50.7163 2.33699 50.5604 2.41847 50.446 2.54183C50.2726 2.76401 50.3617 3.07482 50.4385 3.3419C50.576 3.82289 50.6342 4.36769 50.3605 4.79077C50.0508 5.26939 49.3931 5.47147 49.107 5.9631C49.0243 6.10732 48.9785 6.2682 48.9736 6.43254C48.9686 6.59688 49.0046 6.76 49.0785 6.90852C49.2148 7.18033 49.4786 7.40133 49.5195 7.70032C49.548 7.9154 49.4551 8.12458 49.4068 8.33494C49.3584 8.54529 49.3721 8.80765 49.5542 8.92583C49.7362 9.04401 49.9914 9.01446 50.1314 9.16218C50.1737 9.22085 50.2016 9.28789 50.213 9.35828C50.2243 9.42868 50.2189 9.50061 50.197 9.56872C50.1475 9.80507 50.0422 10.019 49.9864 10.2506C49.9507 10.3642 49.9407 10.4838 49.9572 10.6014C49.9736 10.7189 50.0161 10.8318 50.0818 10.9325C50.3221 11.2421 50.8077 11.2232 51.1966 11.1405C51.3088 11.1235 51.4158 11.0831 51.51 11.0223C51.7577 10.8439 51.7143 10.4929 51.775 10.2057C51.91 9.55572 52.6272 9.13382 52.7944 8.49093C52.9022 8.07613 52.7387 7.49351 53.1598 7.21933C53.7073 6.88252 54.4455 7.22406 54.9732 7.4096Z" fill="#464353"/>
<path opacity="0.1" d="M54.3711 50.1617C54.3711 50.1617 58.2592 52.5253 58.383 53.4317L54.3711 50.1617Z" fill="black"/>
<path opacity="0.1" d="M54.1719 52.0526C54.1719 52.0526 58.6309 54.1006 58.3832 54.8097L54.1719 52.0526Z" fill="black"/>
<path opacity="0.1" d="M53.8755 53.8643C53.8755 53.8643 56.3949 55.1252 56.5596 55.8733L53.8755 53.8643Z" fill="black"/>
<path opacity="0.1" d="M54.9497 56.7006C54.9497 56.7006 56.6008 58.0797 56.9315 57.7252C57.2622 57.3706 54.9497 56.7006 54.9497 56.7006Z" fill="black"/>
<path opacity="0.1" d="M52.6372 57.5681C52.6372 57.5681 53.9241 59.537 53.3048 59.6551C52.6855 59.7733 52.6372 57.5681 52.6372 57.5681Z" fill="black"/>
<path opacity="0.1" d="M46.9875 22.5873C46.9875 22.5873 44.7989 23.8471 45.4591 24.1626C46.1193 24.4781 46.9875 22.5873 46.9875 22.5873Z" fill="black"/>
<path opacity="0.1" d="M46.9879 17.9382C46.9879 17.9382 44.7584 21.8381 45.7902 21.5628C46.822 21.2874 46.9879 17.9382 46.9879 17.9382Z" fill="black"/>
<path opacity="0.1" d="M70.68 21.8381C70.68 21.8381 69.3175 23.3674 69.5653 24.2017L70.68 21.8381Z" fill="black"/>
<path opacity="0.1" d="M74.2377 22.5873C74.2377 22.5873 72.1927 24.3198 72.4924 24.5171L74.2377 22.5873Z" fill="black"/>
<path opacity="0.1" d="M75.5112 24.7157C75.5112 24.7157 75.3043 25.8549 75.635 25.8975L75.5112 24.7157Z" fill="black"/>
<path opacity="0.05" d="M53.1946 48.752C52.6682 49.402 52.6682 50.5542 52.4303 51.0269C52.3003 51.2869 52.0104 51.736 51.7751 52.1C51.6983 51.8636 51.5497 51.723 51.318 51.8471C51.1657 50.7634 50.8969 48.8926 50.8102 48.5156C50.6863 47.9838 52.0488 46.5657 52.0488 46.5657C52.0488 46.5657 53.3804 46.8316 53.721 47.4816C54.0616 48.1315 53.721 48.1032 53.1946 48.752Z" fill="black"/>
<path opacity="0.1" d="M46.3202 35.0753C44.8338 35.2714 42.0679 39.0532 42.0679 39.0532C42.0679 39.0532 41.705 38.5497 41.2009 37.8466C40.5667 36.9543 39.7145 35.7383 39.0952 34.8165L42.7244 31.2451L43.3846 31.9235C43.3846 31.9235 44.6654 33.1442 44.6654 33.3806C44.6654 33.4728 44.9131 33.7529 45.2277 34.0589C45.7095 34.5352 46.3202 35.0753 46.3202 35.0753Z" fill="black"/>
<path opacity="0.1" d="M41.5799 19.0821C41.5279 18.9816 41.487 18.9072 41.4561 18.8611L43.0564 18.9627L43.9048 23.9877C43.2719 22.6097 42.0333 19.9436 41.5799 19.0821Z" fill="black"/>
<path opacity="0.1" d="M44.9813 34.2987C43.6535 35.5597 41.7869 37.3277 41.2035 37.8441C41.118 37.9209 41.0598 37.9705 41.035 37.9871C40.9823 38.021 40.9235 38.0454 40.8616 38.0592C40.2782 37.2414 39.4458 36.0631 38.8018 35.1047L39.099 34.8116L42.4755 31.4979L42.893 31.9269C42.893 31.9269 44.1737 33.1477 44.1737 33.384C44.1737 33.4975 44.5738 33.9088 44.9813 34.2987Z" fill="black"/>
<path d="M43.3062 18.9628L41.4482 18.8446C41.4482 18.8446 40.9528 19.9472 40.5403 20.0264C40.1278 20.1056 39.5903 21.0108 39.5903 21.0108C39.5903 21.0108 37.9999 21.2874 38.0692 21.7601C38.1386 22.2328 35.6242 25.6139 35.6242 25.6139C35.6242 25.6139 34.798 27.2353 35.3764 28.417C35.9549 29.5988 36.3673 30.3871 36.4912 30.8196C36.6151 31.2521 38.0816 33.1442 38.0692 33.4987C38.0568 33.8532 41.8173 39.0531 41.8173 39.0531C41.8173 39.0531 44.5832 35.2714 46.0696 35.074C46.0696 35.074 44.4185 33.6169 44.4185 33.3805C44.4185 33.1442 43.1476 31.9234 43.1476 31.9234L41.5374 30.2689C41.5374 30.2689 40.9998 30.0325 41.5374 29.5988C42.075 29.1651 40.6295 28.1807 40.6295 28.1807C40.6295 28.1807 40.5874 27.4716 41.1249 27.2743C41.6625 27.0769 42.3636 25.7781 42.3636 25.7781L44.3045 24.8327L43.3062 18.9628Z" fill="#464353"/>
<path opacity="0.1" d="M36.2119 26.8016C36.2119 26.8016 38.4414 26.3691 38.4823 26.6444C38.5232 26.9198 36.2119 26.8016 36.2119 26.8016Z" fill="black"/>
<path opacity="0.1" d="M38.0698 28.9489C38.0698 28.9489 39.96 29.1852 39.877 29.5705C39.794 29.9557 38.0698 28.9489 38.0698 28.9489Z" fill="black"/>
<path opacity="0.1" d="M39.6313 22.2517C39.6313 22.2517 41.4484 24.7063 41.6962 24.1981L39.6313 22.2517Z" fill="black"/>
<g opacity="0.1">
<path opacity="0.1" d="M50.5501 3.96238C50.5612 3.67604 50.5235 3.38987 50.4386 3.11503C50.4028 2.9988 50.3755 2.88033 50.3569 2.7605C50.341 2.96074 50.3688 3.16194 50.4386 3.35139C50.4974 3.55091 50.5348 3.75563 50.5501 3.96238Z" fill="black"/>
<path opacity="0.1" d="M59.2369 6.56234C59.2852 6.2078 59.5403 5.88517 59.5639 5.52237C59.5676 5.46201 59.5651 5.40144 59.5564 5.34155C59.5081 5.70791 59.2418 6.0329 59.227 6.40516C59.2254 6.45773 59.2287 6.51033 59.2369 6.56234Z" fill="black"/>
<path opacity="0.1" d="M59.5082 8.27582C59.4284 8.35762 59.3298 8.42076 59.2203 8.46032C59.1107 8.49987 58.9931 8.51479 58.8765 8.50391C58.6435 8.47946 58.4163 8.41878 58.2039 8.32428C57.919 8.21437 57.6205 8.08792 57.4483 7.85156C57.291 7.63175 57.2402 7.32331 56.995 7.19685C56.7126 7.05268 56.3757 7.24767 56.0697 7.31503C55.7056 7.39776 55.3266 7.30085 54.9735 7.17676C54.4459 6.99122 53.7077 6.64969 53.1664 7.00186C52.7452 7.27603 52.9087 7.85865 52.801 8.27346C52.6338 8.91635 51.9166 9.33706 51.7816 9.98823C51.7209 10.2754 51.7605 10.6264 51.5165 10.8048C51.422 10.8658 51.3146 10.9062 51.2019 10.923C50.808 11.0057 50.3225 11.0247 50.0871 10.715C50.0191 10.6265 49.9764 10.5227 49.9633 10.4137C49.9313 10.6014 49.9756 10.7937 50.0871 10.9514C50.3274 11.261 50.813 11.2421 51.2019 11.1594C51.3146 11.1425 51.422 11.1022 51.5165 11.0412C51.7642 10.8627 51.7209 10.5118 51.7816 10.2246C51.9166 9.5746 52.6338 9.15271 52.801 8.50982C52.9087 8.09501 52.7452 7.51239 53.1664 7.23822C53.7077 6.88368 54.4459 7.22758 54.9735 7.41312C55.3241 7.53721 55.7056 7.63411 56.0697 7.55139C56.3819 7.48166 56.7126 7.28667 56.995 7.43321C57.2427 7.55966 57.291 7.86811 57.4483 8.08792C57.6205 8.32428 57.919 8.45664 58.2039 8.56063C58.4163 8.65514 58.6435 8.71582 58.8765 8.74026C58.9931 8.75115 59.1107 8.73623 59.2203 8.69667C59.3298 8.65711 59.4284 8.59398 59.5082 8.51218C59.5683 8.43536 59.6112 8.34756 59.6342 8.25424C59.6572 8.16092 59.6599 8.06408 59.642 7.96974C59.6289 8.08186 59.5825 8.18807 59.5082 8.27582Z" fill="black"/>
<path opacity="0.1" d="M49.5196 7.46871C49.4787 7.16972 49.2149 6.94873 49.0786 6.67692C49.0274 6.57457 48.9948 6.46469 48.982 6.35193C48.9583 6.54399 48.9918 6.73853 49.0786 6.91327C49.2112 7.17681 49.4614 7.39426 49.5134 7.67907C49.526 7.60959 49.5281 7.53875 49.5196 7.46871Z" fill="black"/>
<path opacity="0.1" d="M50.2084 9.31473C50.2262 9.25116 50.229 9.18466 50.2168 9.11993C50.2046 9.05519 50.1776 8.9938 50.1378 8.9401C49.9979 8.78765 49.7316 8.82193 49.5606 8.70375C49.5153 8.66955 49.4776 8.62705 49.4497 8.57875C49.4219 8.53045 49.4044 8.47732 49.3984 8.42249C49.3711 8.61512 49.3984 8.82783 49.5606 8.9401C49.7229 9.05237 49.9979 9.02874 50.1378 9.17646C50.1727 9.21644 50.1969 9.26388 50.2084 9.31473Z" fill="black"/>
</g>
<path d="M20.8055 70.5215C20.8055 70.5215 15.6825 70.2261 16.2857 73.6521C16.2857 73.6521 16.1618 74.2571 16.7415 74.5325C16.7415 74.5325 16.7502 74.2784 17.2667 74.3647C17.4504 74.3939 17.6371 74.4023 17.8228 74.3895C18.0742 74.3732 18.3133 74.2794 18.5041 74.1224C18.5041 74.1224 19.9446 73.554 20.5045 71.3086C20.5045 71.3086 20.9182 70.8182 20.9021 70.6929L20.035 71.0474C20.035 71.0474 20.3311 71.6383 20.0982 72.137C20.0982 72.137 20.0697 71.0734 19.9037 71.0935C19.8703 71.0994 19.4541 71.3003 19.4541 71.3003C19.4541 71.3003 19.9632 72.3367 19.578 73.0907C19.578 73.0907 19.7241 71.8132 19.2943 71.3748L18.6862 71.7139C18.6862 71.7139 19.2807 72.7846 18.8769 73.6592C18.8769 73.6592 18.981 72.319 18.5586 71.7967L18.0062 72.2067C18.0062 72.2067 18.5648 73.2621 18.2242 73.9877C18.2242 73.9877 18.1796 72.4266 17.8873 72.3096C17.8873 72.3096 17.4042 72.7149 17.3311 72.8815C17.3311 72.8815 17.7126 73.6485 17.476 74.0527C17.476 74.0527 17.3311 73.0127 17.211 73.008C17.211 73.008 16.7304 73.697 16.6808 74.1685C16.6808 74.1685 16.7019 73.4665 17.0945 72.9418C16.8174 72.9924 16.5618 73.1189 16.3588 73.3058C16.3588 73.3058 16.4331 72.8189 17.2134 72.7764C17.2134 72.7764 17.611 72.254 17.7176 72.2221C17.7176 72.2221 16.9409 72.1607 16.4715 72.3592C16.4715 72.3592 16.8852 71.9007 17.8588 72.1087L18.4038 71.6844C18.4038 71.6844 17.3831 71.552 16.9496 71.6986C16.9496 71.6986 17.4451 71.292 18.5512 71.5887L19.1432 71.2507C19.1432 71.2507 18.2762 71.0711 17.7535 71.1325C17.7535 71.1325 18.301 70.8512 19.3166 71.1561L19.7415 70.9741C19.7415 70.9741 19.1036 70.856 18.9166 70.8359C18.7295 70.8158 18.7196 70.7673 18.7196 70.7673C19.1236 70.7036 19.5381 70.7478 19.9174 70.895C19.9174 70.895 20.8216 70.5747 20.8055 70.5215Z" fill="#F13F00"/>
<path opacity="0.1" d="M17.2766 75.4165C19.2796 75.4165 20.9033 75.1546 20.9033 74.8316C20.9033 74.5085 19.2796 74.2466 17.2766 74.2466C15.2736 74.2466 13.6499 74.5085 13.6499 74.8316C13.6499 75.1546 15.2736 75.4165 17.2766 75.4165Z" fill="#F13F00"/>
<defs>
<linearGradient id="paint0_linear" x1="59.103" y1="77.6631" x2="59.103" y2="1.5409" gradientUnits="userSpaceOnUse">
<stop stop-color="#808080" stop-opacity="0.25"/>
<stop offset="0.54" stop-color="#808080" stop-opacity="0.12"/>
<stop offset="1" stop-color="#808080" stop-opacity="0.1"/>
</linearGradient>
</defs>
</svg>
