<svg width="448" height="314" viewBox="0 0 448 314" fill="none" xmlns="http://www.w3.org/2000/svg">
<g clip-path="url(#clip0)">
<path d="M259.949 306.967C256.621 309.351 253.012 311.318 249.205 312.825C248.207 313.224 247.204 313.595 246.184 313.932H194.135C193.924 313.567 193.719 313.196 193.509 312.825C189.286 305.273 185.457 297.427 184.371 288.895C183.069 278.652 186.721 267.053 195.748 262.02C196.93 261.361 198.183 260.838 199.482 260.459C200.02 260.292 200.568 260.16 201.122 260.043C204.506 259.293 208.029 259.457 211.328 260.517C214.628 261.578 217.585 263.498 219.895 266.079C222.206 268.66 223.787 271.81 224.476 275.204C225.165 278.598 224.936 282.114 223.814 285.39C231.467 277.55 230.037 264.838 227.399 254.213C224.756 243.588 221.553 231.762 226.934 222.216C229.921 216.907 235.18 213.612 241.076 212.284C241.258 212.245 241.441 212.206 241.619 212.173C248.648 210.75 255.956 212.029 262.083 215.755C273.365 222.853 279.155 236.324 281.034 249.513C284.065 270.74 277.36 294.426 259.949 306.967Z" fill="#F2F2F2"/>
<path d="M205.207 266.809C209.373 275.262 210.703 284.832 208.997 294.1C207.71 300.895 204.873 307.302 200.707 312.825C200.424 313.201 200.136 313.572 199.842 313.932H197.787C198.103 313.572 198.413 313.201 198.707 312.825C202.49 308.115 205.234 302.658 206.756 296.813C208.279 290.969 208.545 284.868 207.539 278.913C206.346 272.213 203.585 265.89 199.482 260.459C200.02 260.292 200.568 260.16 201.123 260.043C202.683 262.172 204.05 264.437 205.207 266.809Z" fill="white"/>
<path d="M255.001 272.939C254.556 277.621 253.431 282.213 251.66 286.57C250.027 290.426 247.827 294.017 245.132 297.223C239.629 303.839 232.348 308.817 224.441 312.128C223.864 312.371 223.282 312.604 222.695 312.825C221.675 313.224 220.645 313.589 219.608 313.933H213.995C215.32 313.6 216.638 313.229 217.941 312.825C221.037 311.863 224.058 310.673 226.979 309.265C234.403 305.749 240.849 300.466 245.753 293.879C251.011 286.625 253.333 277.905 253.732 269.041C254.153 259.556 252.918 249.9 250.751 240.671C248.54 231.21 245.177 222.056 240.738 213.413C240.638 213.218 240.618 212.991 240.681 212.781C240.744 212.571 240.885 212.393 241.076 212.284C241.236 212.178 241.43 212.138 241.619 212.173C241.711 212.197 241.797 212.241 241.87 212.302C241.943 212.364 242.001 212.441 242.04 212.527C242.588 213.596 243.126 214.665 243.641 215.744C247.944 224.746 251.114 234.245 253.078 244.026C254.979 253.46 255.998 263.332 255.001 272.939Z" fill="white"/>
<path d="M23.5339 156.689C18.9308 156.689 14.4311 155.325 10.6037 152.77C6.77642 150.215 3.79338 146.583 2.03186 142.334C0.270333 138.085 -0.190555 133.409 0.707462 128.898C1.60548 124.387 3.82207 120.244 7.07694 116.992C10.3318 113.739 14.4788 111.525 18.9934 110.627C23.508 109.73 28.1876 110.191 32.4403 111.951C36.693 113.711 40.3278 116.691 42.8852 120.515C45.4425 124.34 46.8075 128.836 46.8075 133.435C46.8005 139.6 44.3462 145.511 39.9831 149.87C35.6199 154.23 29.7043 156.682 23.5339 156.689ZM23.5339 111.288C19.15 111.288 14.8645 112.587 11.2195 115.02C7.57439 117.454 4.73341 120.913 3.05576 124.96C1.37812 129.006 0.939175 133.459 1.79443 137.756C2.64968 142.052 4.76073 145.998 7.86061 149.095C10.9605 152.192 14.91 154.302 19.2096 155.156C23.5093 156.011 27.966 155.572 32.0162 153.896C36.0663 152.22 39.5281 149.381 41.9637 145.739C44.3992 142.097 45.6992 137.815 45.6992 133.435C45.6926 127.563 43.3551 121.934 39.1998 117.782C35.0444 113.63 29.4104 111.295 23.5339 111.288Z" fill="#3F3D56"/>
<path d="M117.737 81.9436C113.134 81.9436 108.634 80.5797 104.807 78.0245C100.98 75.4693 97.9965 71.8375 96.235 67.5883C94.4735 63.3392 94.0126 58.6635 94.9106 54.1526C95.8086 49.6418 98.0252 45.4982 101.28 42.2461C104.535 38.9939 108.682 36.7792 113.197 35.8819C117.711 34.9846 122.391 35.4451 126.643 37.2052C130.896 38.9653 134.531 41.9458 137.088 45.7699C139.646 49.5941 141.011 54.0901 141.011 58.6893C141.004 64.8546 138.549 70.7653 134.186 75.1248C129.823 79.4843 123.907 81.9366 117.737 81.9436ZM117.737 36.5424C113.353 36.5424 109.068 37.8413 105.423 40.2748C101.778 42.7084 98.9365 46.1672 97.2589 50.2141C95.5813 54.2609 95.1423 58.7139 95.9976 63.01C96.8528 67.3061 98.9639 71.2523 102.064 74.3496C105.164 77.4469 109.113 79.5561 113.413 80.4107C117.712 81.2652 122.169 80.8266 126.219 79.1504C130.269 77.4741 133.731 74.6355 136.167 70.9935C138.602 67.3514 139.902 63.0696 139.902 58.6893C139.896 52.8176 137.558 47.1883 133.403 43.0364C129.248 38.8845 123.614 36.549 117.737 36.5424Z" fill="#3F3D56"/>
<path d="M218.589 46.5085C213.986 46.5085 209.486 45.1447 205.659 42.5895C201.832 40.0343 198.849 36.4024 197.087 32.1533C195.326 27.9041 194.865 23.2285 195.763 18.7176C196.661 14.2067 198.877 10.0632 202.132 6.81102C205.387 3.55885 209.534 1.3441 214.049 0.446834C218.563 -0.450437 223.243 0.0100772 227.495 1.77014C231.748 3.5302 235.383 6.51075 237.94 10.3349C240.498 14.159 241.863 18.655 241.863 23.2543C241.856 29.4195 239.401 35.3303 235.038 39.6898C230.675 44.0493 224.759 46.5015 218.589 46.5085ZM218.589 1.10735C214.205 1.10735 209.92 2.40624 206.275 4.83978C202.63 7.27331 199.789 10.7322 198.111 14.779C196.433 18.8258 195.994 23.2788 196.85 27.5749C197.705 31.871 199.816 35.8172 202.916 38.9145C206.016 42.0118 209.965 44.1211 214.265 44.9756C218.564 45.8302 223.021 45.3916 227.071 43.7153C231.122 42.0391 234.583 39.2005 237.019 35.5584C239.454 31.9164 240.754 27.6345 240.754 23.2543C240.748 17.3826 238.41 11.7533 234.255 7.60135C230.1 3.44943 224.466 1.11398 218.589 1.10735Z" fill="#3F3D56"/>
<path d="M326.091 83.0513C321.487 83.0513 316.988 81.6875 313.16 79.1323C309.333 76.5771 306.35 72.9452 304.589 68.6961C302.827 64.4469 302.366 59.7713 303.264 55.2604C304.162 50.7495 306.379 46.606 309.634 43.3538C312.888 40.1016 317.035 37.8869 321.55 36.9896C326.065 36.0923 330.744 36.5529 334.997 38.3129C339.25 40.073 342.884 43.0535 345.442 46.8777C347.999 50.7018 349.364 55.1978 349.364 59.7971C349.357 65.9623 346.903 71.8731 342.54 76.2326C338.177 80.5921 332.261 83.0443 326.091 83.0513ZM326.091 37.6501C321.707 37.6501 317.421 38.949 313.776 41.3826C310.131 43.8161 307.29 47.275 305.612 51.3218C303.935 55.3686 303.496 59.8216 304.351 64.1177C305.206 68.4138 307.317 72.36 310.417 75.4573C313.517 78.5546 317.467 80.6639 321.766 81.5184C326.066 82.373 330.523 81.9344 334.573 80.2581C338.623 78.5819 342.085 75.7433 344.52 72.1012C346.956 68.4592 348.256 64.1773 348.256 59.7971C348.249 53.9254 345.912 48.2961 341.756 44.1441C337.601 39.9922 331.967 37.6568 326.091 37.6501Z" fill="#3F3D56"/>
<path d="M424.727 138.972C420.124 138.972 415.624 137.608 411.797 135.053C407.969 132.497 404.986 128.865 403.225 124.616C401.463 120.367 401.002 115.692 401.9 111.181C402.798 106.67 405.015 102.526 408.27 99.2741C411.525 96.0219 415.672 93.8072 420.186 92.9099C424.701 92.0126 429.38 92.4732 433.633 94.2332C437.886 95.9933 441.521 98.9738 444.078 102.798C446.635 106.622 448 111.118 448 115.717C447.993 121.883 445.539 127.793 441.176 132.153C436.813 136.512 430.897 138.965 424.727 138.972ZM424.727 93.5704C420.343 93.5704 416.057 94.8693 412.412 97.3029C408.767 99.7364 405.926 103.195 404.249 107.242C402.571 111.289 402.132 115.742 402.987 120.038C403.843 124.334 405.954 128.28 409.053 131.378C412.153 134.475 416.103 136.584 420.403 137.439C424.702 138.293 429.159 137.855 433.209 136.178C437.259 134.502 440.721 131.664 443.157 128.021C445.592 124.379 446.892 120.098 446.892 115.717C446.885 109.846 444.548 104.216 440.393 100.064C436.237 95.9125 430.603 93.5771 424.727 93.5704Z" fill="#3F3D56"/>
<path d="M131.036 52.321L133.806 51.7673C133.806 51.7673 131.479 54.3696 131.036 54.5357C130.994 55.0886 130.994 55.6438 131.036 56.1967C125.716 79.0081 106.1 68.9312 106.1 68.9312C113.248 69.0973 113.857 66.1628 113.857 66.1628C109.701 65.5538 108.87 62.8408 108.87 62.8408C109.243 63.0373 109.675 63.0895 110.084 62.9874C110.493 62.8852 110.85 62.6359 111.087 62.2871C106.598 61.1244 107.208 56.7504 107.208 56.7504C108.008 57.3275 108.943 57.6898 109.923 57.8024C109.424 57.1933 105.213 52.1549 107.762 49.5527C107.762 49.5527 110.865 55.0894 119.011 55.5877L119.565 55.477C119.471 55.0782 119.434 54.6681 119.454 54.2589C119.454 52.717 120.067 51.2383 121.158 50.1481C122.25 49.0578 123.729 48.4453 125.273 48.4453C129.152 48.4453 129.983 50.66 129.983 50.66L132.753 48.999C132.698 48.999 132.421 51.7673 131.036 52.321Z" fill="#3F3D56"/>
<path d="M307.986 298.78L314.087 301.768L328.523 279.68L319.52 275.271L307.986 298.78Z" fill="#FFB8B8"/>
<path d="M307.407 296.028L319.421 301.911L319.421 301.912C320.427 302.404 321.325 303.09 322.065 303.929C322.805 304.768 323.373 305.745 323.735 306.804C324.098 307.862 324.248 308.982 324.177 310.098C324.107 311.215 323.817 312.306 323.324 313.311L323.202 313.559L303.533 303.926L307.407 296.028Z" fill="#2F2E41"/>
<path d="M368.44 309.195L375.233 309.194L378.465 283.013H368.438L368.44 309.195Z" fill="#FFB8B8"/>
<path d="M366.707 304.764L380.085 304.763H380.086C381.206 304.763 382.314 304.983 383.349 305.411C384.383 305.84 385.323 306.467 386.115 307.258C386.907 308.049 387.535 308.988 387.963 310.022C388.392 311.055 388.612 312.163 388.612 313.282V313.559L366.707 313.56L366.707 304.764Z" fill="#2F2E41"/>
<path d="M353.846 128.501C361.363 128.501 367.457 122.413 367.457 114.902C367.457 107.392 361.363 101.304 353.846 101.304C346.33 101.304 340.236 107.392 340.236 114.902C340.236 122.413 346.33 128.501 353.846 128.501Z" fill="#FFB8B8"/>
<path d="M367.4 300.559C366.758 300.559 366.141 300.311 365.677 299.867C365.214 299.423 364.939 298.817 364.911 298.177L359.65 228.214C359.644 228.03 359.578 227.854 359.461 227.713C359.344 227.571 359.184 227.472 359.005 227.432C358.826 227.391 358.639 227.41 358.472 227.487C358.305 227.563 358.168 227.693 358.083 227.856L324.43 292.05C324.124 292.626 323.606 293.06 322.986 293.26C322.365 293.46 321.691 293.411 321.106 293.122L311.724 288.435C311.136 288.14 310.688 287.624 310.478 287C310.268 286.376 310.313 285.695 310.603 285.104L330.685 244.447L343.985 213.992C349.119 203.888 354.571 198.681 360.652 198.074C366.89 197.451 373.552 201.737 381.022 211.178L381.083 211.255L381.082 211.353L379.974 296.816C379.976 297.437 379.744 298.036 379.326 298.494C378.907 298.953 378.332 299.238 377.713 299.293L367.644 300.548C367.562 300.556 367.48 300.56 367.4 300.559Z" fill="#2F2E41"/>
<path d="M339.482 218.91C340.223 218.453 340.854 217.84 341.332 217.113C341.81 216.387 342.122 215.564 342.247 214.703C342.372 213.843 342.307 212.965 342.056 212.133C341.805 211.3 341.375 210.533 340.795 209.884L342.847 155.705L332.873 156.947L332.031 209.656C331.006 210.701 330.4 212.087 330.328 213.549C330.257 215.011 330.725 216.449 331.643 217.59C332.561 218.73 333.867 219.495 335.311 219.738C336.756 219.981 338.24 219.687 339.482 218.91Z" fill="#FFB8B8"/>
<path d="M345.792 165.283L332.397 163.762C332.016 163.719 331.649 163.594 331.32 163.396C330.992 163.198 330.71 162.932 330.494 162.615C330.277 162.299 330.132 161.939 330.067 161.562C330.003 161.184 330.02 160.797 330.119 160.426L333.577 147.45C333.81 145.503 334.806 143.727 336.347 142.513C337.887 141.299 339.847 140.744 341.796 140.971C343.745 141.198 345.525 142.189 346.745 143.725C347.965 145.261 348.525 147.217 348.303 149.165L348.761 162.543C348.774 162.926 348.704 163.307 348.556 163.661C348.408 164.015 348.186 164.332 347.904 164.592C347.622 164.852 347.288 165.049 346.923 165.168C346.559 165.287 346.173 165.326 345.792 165.283V165.283Z" fill="#F13F00"/>
<path d="M403.492 131.177C403.424 131.476 403.38 131.78 403.359 132.086L379.555 145.807L373.769 142.479L367.601 150.547L377.271 157.433C378.052 157.989 378.993 158.278 379.952 158.254C380.911 158.231 381.836 157.897 382.59 157.304L407.136 137.955C408.244 138.365 409.45 138.428 410.594 138.136C411.739 137.844 412.767 137.21 413.543 136.32C414.318 135.43 414.804 134.325 414.936 133.152C415.067 131.979 414.838 130.794 414.279 129.754C413.72 128.715 412.858 127.869 411.806 127.332C410.755 126.794 409.565 126.588 408.394 126.743C407.223 126.897 406.126 127.404 405.251 128.196C404.375 128.989 403.762 130.028 403.492 131.177Z" fill="#FFB8B8"/>
<path d="M378.759 146.457L371.066 156.419C370.847 156.703 370.569 156.936 370.252 157.103C369.935 157.269 369.585 157.366 369.228 157.385C368.87 157.405 368.512 157.347 368.179 157.216C367.845 157.085 367.544 156.884 367.295 156.626L358.586 147.589C357.139 146.462 356.2 144.808 355.972 142.99C355.745 141.171 356.249 139.337 357.374 137.89C358.498 136.442 360.152 135.499 361.971 135.268C363.791 135.037 365.628 135.537 367.079 136.657L378.002 142.76C378.315 142.935 378.586 143.175 378.798 143.464C379.009 143.753 379.156 144.085 379.228 144.435C379.3 144.786 379.295 145.148 379.214 145.497C379.133 145.846 378.978 146.173 378.759 146.457H378.759Z" fill="#F13F00"/>
<path d="M385.035 215.415L370.265 143.532C369.563 140.115 367.563 137.103 364.685 135.13C361.807 133.156 358.276 132.373 354.832 132.946L349.907 133.767C348.196 134.052 346.557 134.671 345.086 135.588C343.614 136.506 342.337 137.704 341.329 139.114C339.727 141.355 338.648 143.927 338.171 146.639C337.694 149.352 337.831 152.136 338.573 154.789L346.726 183.942L340.676 215.176C340.608 215.523 340.624 215.88 340.723 216.219C340.822 216.558 341.001 216.868 341.244 217.124C341.487 217.38 341.788 217.574 342.122 217.689C342.456 217.805 342.812 217.84 343.162 217.79C346.191 217.357 351.184 216.739 356.918 216.402L360.025 204.428L361.289 216.212C368.333 216.015 375.98 216.36 382.288 217.997C382.653 218.095 383.037 218.097 383.403 218.005C383.77 217.913 384.106 217.729 384.381 217.47C384.656 217.211 384.861 216.887 384.975 216.527C385.09 216.167 385.11 215.784 385.035 215.415Z" fill="#F13F00"/>
<path d="M359.084 111.877C362.582 114.269 367.175 116.728 370.748 114.181C373.094 112.508 373.833 109.411 372.881 106.692C371.171 101.804 366.47 99.6523 361.976 98.0027C356.133 95.8583 349.771 94.1524 343.739 95.6881C337.707 97.2238 332.376 103.059 333.465 109.183C334.34 114.107 338.989 118.205 338.329 123.163C337.665 128.152 332.049 130.779 327.091 131.671C322.132 132.563 316.584 132.849 313.021 136.408C308.475 140.947 309.61 149.061 313.888 153.854C318.165 158.646 324.619 160.819 330.874 162.296C339.161 164.252 348.124 165.281 355.994 162.033C363.864 158.786 369.989 150.044 367.709 141.847C366.746 138.384 364.477 135.458 362.285 132.609C360.092 129.76 357.872 126.781 357.036 123.286C356.339 120.373 356.855 116.991 358.788 114.806C359.14 114.424 359.361 113.94 359.42 113.424C359.479 112.908 359.373 112.387 359.117 111.935L359.084 111.877Z" fill="#2F2E41"/>
<path d="M224.928 11.7507C226.478 11.7553 227.964 12.3727 229.06 13.468C230.156 14.5633 230.774 16.0476 230.779 17.5966V29.2873C230.774 30.8363 230.156 32.3206 229.06 33.4159C227.964 34.5112 226.478 35.1286 224.928 35.1332H213.227C211.677 35.1286 210.192 34.5112 209.095 33.4159C207.999 32.3206 207.381 30.8363 207.377 29.2873V17.5966C207.381 16.0476 207.999 14.5633 209.095 13.468C210.192 12.3727 211.677 11.7553 213.227 11.7507H224.928ZM224.928 9.41266H213.227C211.057 9.41897 208.977 10.2832 207.443 11.8167C205.908 13.3501 205.043 15.428 205.037 17.5966V29.2873C205.043 31.4559 205.908 33.5338 207.443 35.0673C208.977 36.6007 211.057 37.4649 213.227 37.4713H224.928C227.098 37.4649 229.178 36.6007 230.713 35.0673C232.247 33.5338 233.112 31.4559 233.119 29.2873V17.5966C233.112 15.428 232.247 13.3501 230.713 11.8167C229.178 10.2832 227.098 9.41897 224.928 9.41266Z" fill="#3F3D56"/>
<path d="M226.683 17.5971C226.218 17.5961 225.774 17.411 225.446 17.0825C225.118 16.7539 224.935 16.3088 224.935 15.8449C224.936 15.3811 225.12 14.9364 225.449 14.6085C225.777 14.2807 226.222 14.0966 226.686 14.0966C227.151 14.0966 227.596 14.2807 227.924 14.6085C228.253 14.9364 228.437 15.3811 228.438 15.8449C228.438 16.3088 228.254 16.7539 227.927 17.0825C227.599 17.411 227.154 17.5961 226.69 17.5971C226.688 17.5971 226.685 17.5971 226.683 17.5971Z" fill="#3F3D56"/>
<path d="M219.078 18.7654C220.003 18.7654 220.908 19.0397 221.678 19.5535C222.448 20.0674 223.048 20.7978 223.402 21.6523C223.756 22.5069 223.849 23.4472 223.668 24.3544C223.488 25.2616 223.042 26.0949 222.387 26.7489C221.733 27.4029 220.899 27.8483 219.991 28.0288C219.083 28.2092 218.142 28.1166 217.286 27.7627C216.431 27.4087 215.7 26.8093 215.186 26.0402C214.672 25.2711 214.397 24.367 214.397 23.442C214.397 22.2017 214.89 21.0122 215.768 20.1351C216.646 19.2581 217.836 18.7654 219.078 18.7654ZM219.078 16.4274C217.689 16.4274 216.332 16.8388 215.177 17.6095C214.023 18.3803 213.123 19.4759 212.592 20.7576C212.06 22.0394 211.921 23.4498 212.192 24.8105C212.463 26.1712 213.132 27.4211 214.113 28.4021C215.095 29.3831 216.346 30.0512 217.708 30.3219C219.07 30.5925 220.481 30.4536 221.764 29.9227C223.047 29.3918 224.143 28.4927 224.915 27.3391C225.686 26.1856 226.098 24.8294 226.098 23.442C226.098 21.5816 225.358 19.7974 224.042 18.4819C222.725 17.1664 220.94 16.4274 219.078 16.4274V16.4274Z" fill="#3F3D56"/>
<path d="M90.4167 306.586L83.8042 305.029L86.6663 278.804L96.4257 281.102L90.4167 306.586Z" fill="#FFB8B8"/>
<path d="M90.5929 313.388L69.2715 308.368L69.335 308.099C69.5917 307.01 70.0606 305.982 70.7148 305.074C71.3691 304.167 72.1959 303.396 73.148 302.808C74.1002 302.219 75.1591 301.824 76.2642 301.644C77.3693 301.464 78.4991 301.504 79.5889 301.76L79.5894 301.76L92.6118 304.826L90.5929 313.388Z" fill="#2F2E41"/>
<path d="M116.185 306.807H109.391L106.16 280.625L116.186 280.626L116.185 306.807Z" fill="#FFB8B8"/>
<path d="M117.917 313.387L96.0122 313.386V313.109C96.0122 311.991 96.2327 310.883 96.6612 309.849C97.0897 308.816 97.7177 307.876 98.5094 307.085C99.3012 306.294 100.241 305.667 101.276 305.239C102.31 304.811 103.419 304.59 104.538 304.59H104.539L117.918 304.591L117.917 313.387Z" fill="#2F2E41"/>
<path d="M152.876 203.262C153.331 202.521 153.618 201.689 153.717 200.825C153.815 199.961 153.723 199.086 153.446 198.262C153.17 197.437 152.716 196.683 152.116 196.053C151.516 195.423 150.786 194.932 149.976 194.614L130.085 144.217L119.019 150.93L142.05 198.358C141.607 199.753 141.691 201.262 142.287 202.6C142.882 203.937 143.949 205.01 145.283 205.614C146.617 206.219 148.127 206.313 149.527 205.88C150.926 205.446 152.118 204.515 152.876 203.262Z" fill="#FFB8B8"/>
<path d="M134.312 152.552L121.67 157.228C121.31 157.361 120.926 157.415 120.544 157.387C120.161 157.358 119.789 157.247 119.454 157.062C119.118 156.877 118.826 156.621 118.598 156.313C118.37 156.005 118.211 155.652 118.132 155.277L115.363 142.136C114.693 140.293 114.781 138.26 115.608 136.482C116.435 134.704 117.935 133.326 119.777 132.651C121.619 131.976 123.654 132.058 125.436 132.879C127.218 133.701 128.601 135.195 129.282 137.034L135.726 148.769C135.911 149.105 136.02 149.477 136.048 149.859C136.076 150.241 136.021 150.625 135.886 150.984C135.752 151.343 135.542 151.669 135.271 151.94C134.999 152.21 134.672 152.419 134.312 152.552V152.552Z" fill="#F13F00"/>
<path d="M115.734 297.409C115.701 297.409 115.667 297.408 115.634 297.407L106.004 297.022C105.354 297 104.738 296.723 104.29 296.25C103.842 295.778 103.598 295.149 103.611 294.498L104.35 241.346C104.353 241.132 104.273 240.925 104.128 240.768C103.982 240.612 103.781 240.517 103.568 240.505C103.354 240.492 103.144 240.562 102.981 240.7C102.818 240.839 102.714 241.035 102.692 241.247L97.1057 294.458C97.0476 295 96.8139 295.508 96.4402 295.905C96.0666 296.301 95.5733 296.565 95.0357 296.656L95.0023 296.661L85.9623 295.952C85.606 296.006 85.2421 295.982 84.8958 295.882C84.5495 295.783 84.2289 295.609 83.9562 295.374C83.6835 295.138 83.4652 294.846 83.3162 294.518C83.1672 294.19 83.0912 293.834 83.0933 293.474L83.6338 203.348L127.993 206.153L118.212 295.189C118.144 295.798 117.853 296.361 117.396 296.77C116.939 297.18 116.347 297.407 115.734 297.409Z" fill="#2F2E41"/>
<path d="M107.626 124.671C115.142 124.671 121.236 118.582 121.236 111.072C121.236 103.561 115.142 97.473 107.626 97.473C100.109 97.473 94.0156 103.561 94.0156 111.072C94.0156 118.582 100.109 124.671 107.626 124.671Z" fill="#FFB8B8"/>
<path d="M125.787 210.12C125.725 210.12 125.662 210.118 125.599 210.114L84.6023 207.117C83.965 207.07 83.3699 206.781 82.9398 206.309C82.5097 205.837 82.2775 205.218 82.2911 204.579L83.372 153.141C83.2996 149.984 83.8725 146.847 85.0557 143.919C86.2389 140.992 88.0075 138.337 90.2532 136.116C92.499 133.895 95.1747 132.156 98.1165 131.004C101.058 129.852 104.204 129.313 107.362 129.418C110.52 129.523 113.623 130.271 116.482 131.615C119.341 132.96 121.894 134.874 123.987 137.239C126.08 139.604 127.668 142.371 128.654 145.371C129.639 148.37 130.002 151.539 129.719 154.683C129.003 162.611 128.432 197.244 128.275 207.67C128.264 208.323 127.998 208.945 127.533 209.404C127.068 209.862 126.441 210.119 125.787 210.12Z" fill="#F13F00"/>
<path d="M52.7275 126.344C52.7955 126.642 52.8398 126.946 52.8601 127.252L76.6642 140.973L82.4502 137.645L88.6183 145.713L78.9485 152.599C78.1673 153.156 77.2266 153.444 76.2676 153.42C75.3085 153.397 74.383 153.064 73.6298 152.47L49.0836 133.121C47.9759 133.531 46.7695 133.594 45.625 133.302C44.4806 133.01 43.4522 132.377 42.6767 131.486C41.9012 130.596 41.4153 129.491 41.2838 128.318C41.1522 127.145 41.3811 125.96 41.9401 124.92C42.4991 123.881 43.3616 123.036 44.413 122.498C45.4644 121.96 46.6547 121.754 47.8258 121.909C48.9969 122.063 50.0931 122.57 50.9687 123.363C51.8443 124.155 52.4577 125.195 52.7275 126.344Z" fill="#FFB8B8"/>
<path d="M76.9907 139.601C77.0624 139.251 77.209 138.919 77.4204 138.63C77.6319 138.341 77.9033 138.101 78.2161 137.926L89.1397 131.823C90.5911 130.705 92.4271 130.207 94.2453 130.439C96.0635 130.67 97.7156 131.613 98.8396 133.06C99.9635 134.506 100.468 136.339 100.241 138.157C100.015 139.974 99.0771 141.628 97.6327 142.755L88.9232 151.792C88.6746 152.05 88.3733 152.251 88.0399 152.382C87.7064 152.513 87.3486 152.571 86.9908 152.551C86.633 152.532 86.2836 152.435 85.9664 152.269C85.6493 152.102 85.3718 151.869 85.1529 151.586L77.4595 141.623C77.2404 141.339 77.0851 141.012 77.0042 140.663C76.9233 140.314 76.9187 139.952 76.9907 139.601Z" fill="#F13F00"/>
<path d="M114.659 121.838C112.564 121.822 110.508 121.277 108.681 120.252C106.855 119.227 105.318 117.757 104.215 115.978C104.095 115.79 103.44 114.829 102.681 113.716C100.55 110.589 100.05 109.845 100.007 109.735C99.4305 108.248 97.5997 107.674 96.1654 107.454C95.8978 107.413 95.6264 107.377 95.3541 107.34C93.334 107.07 91.2452 106.79 90.0999 104.572C89.2598 102.944 87.886 96.3143 88.9411 94.6943C90.2638 92.6624 92.8038 93.322 95.2602 93.9606C96.8319 94.3683 98.4569 94.7906 99.7518 94.5213C105.365 93.3545 111.727 92.0319 117.345 95.4508C121.817 98.171 124.506 103.309 124.364 108.859C124.212 114.819 121.61 119.524 117.405 121.444L116.529 121.699L116.037 121.759C115.579 121.812 115.119 121.838 114.659 121.838Z" fill="#2F2E41"/>
<path d="M425.541 100.658C422.037 100.658 418.639 101.863 415.919 104.071C413.199 106.278 411.322 109.354 410.604 112.781C409.885 116.209 410.369 119.778 411.974 122.891C413.578 126.004 416.206 128.47 419.416 129.876C419.352 128.703 419.441 127.526 419.682 126.377C419.975 125.138 421.644 118.065 421.644 118.065C421.31 117.305 421.143 116.484 421.153 115.655C421.153 113.395 422.461 111.706 424.097 111.706C425.487 111.706 426.154 112.748 426.154 113.994C426.154 115.389 425.262 117.472 424.805 119.406C424.714 119.764 424.709 120.138 424.789 120.499C424.87 120.86 425.034 121.196 425.269 121.482C425.504 121.767 425.802 121.994 426.141 122.143C426.479 122.292 426.848 122.359 427.217 122.34C430.106 122.34 432.054 118.63 432.054 114.232C432.054 110.889 429.799 108.391 425.705 108.391C421.078 108.391 418.19 111.842 418.19 115.696C418.144 116.782 418.503 117.847 419.198 118.684C419.32 118.785 419.407 118.921 419.446 119.074C419.485 119.227 419.474 119.388 419.416 119.535C419.341 119.814 419.177 120.488 419.103 120.76C419.089 120.843 419.057 120.921 419.008 120.988C418.958 121.055 418.894 121.11 418.819 121.147C418.744 121.184 418.662 121.203 418.579 121.202C418.495 121.201 418.413 121.181 418.339 121.142C416.207 120.27 415.212 117.942 415.212 115.314C415.212 110.985 418.871 105.79 426.12 105.79C431.945 105.79 435.781 110.004 435.781 114.525C435.781 120.508 432.45 124.974 427.544 124.974C425.895 124.974 424.349 124.082 423.817 123.075C423.817 123.075 422.932 126.588 422.741 127.268C422.388 128.425 421.872 129.525 421.208 130.536C423.307 131.156 425.515 131.317 427.682 131.009C429.849 130.701 431.924 129.931 433.767 128.751C435.61 127.571 437.177 126.009 438.363 124.171C439.548 122.332 440.324 120.261 440.638 118.096C440.952 115.932 440.796 113.726 440.182 111.627C439.567 109.528 438.508 107.585 437.076 105.931C435.644 104.277 433.873 102.95 431.883 102.04C429.893 101.131 427.73 100.659 425.541 100.658Z" fill="#3F3D56"/>
<path d="M339.599 50.6429L319.969 44.6087C319.72 44.5188 319.456 44.479 319.192 44.4913C318.928 44.5037 318.669 44.5681 318.43 44.6807C318.191 44.7934 317.976 44.9521 317.799 45.1478C317.621 45.3435 317.484 45.5723 317.395 45.8211L311.343 65.4782C311.194 66.0112 311.254 66.5811 311.513 67.0707C311.771 67.5602 312.208 67.9321 312.732 68.1099L332.357 74.1423C332.879 74.2809 333.435 74.2081 333.905 73.9397C334.374 73.6713 334.718 73.2289 334.864 72.7085L340.916 53.0514C340.996 52.807 341.025 52.5489 341.001 52.2929C340.977 52.0369 340.901 51.7884 340.778 51.5628C340.655 51.3372 340.486 51.1393 340.283 50.9811C340.081 50.8229 339.848 50.7078 339.599 50.6429ZM319.218 65.8215L315.849 64.7857L319.072 54.3177L322.441 55.3535L319.218 65.8215ZM321.363 53.2799L321.339 53.2724C320.855 53.1202 320.451 52.7826 320.216 52.3335C319.981 51.8844 319.934 51.3605 320.085 50.8766C320.235 50.3926 320.572 49.9881 321.021 49.7517C321.469 49.5153 321.993 49.4662 322.478 49.6153C322.963 49.7643 323.369 50.0993 323.607 50.5468C323.845 50.9943 323.896 51.5179 323.748 52.0028C323.601 52.4877 323.267 52.8944 322.82 53.1338C322.373 53.3732 321.849 53.4257 321.363 53.2799ZM331.533 69.6071L328.163 68.5713L329.926 62.8476C330.348 61.4763 330.146 60.3887 328.927 60.014C328.545 59.8998 328.136 59.9069 327.758 60.0343C327.38 60.1618 327.051 60.4033 326.816 60.7255C326.645 60.964 326.519 61.2322 326.445 61.5165L324.609 67.4788L321.24 66.443L324.463 55.975L327.833 57.0108L327.384 58.4676C327.854 58.0317 328.433 57.7303 329.06 57.5953C329.687 57.4602 330.339 57.4964 330.947 57.7C333.159 58.3799 334.383 60.351 333.416 63.4917L331.533 69.6071Z" fill="#3F3D56"/>
<path fill-rule="evenodd" clip-rule="evenodd" d="M38.7481 133.526C38.7476 130.621 37.914 127.777 36.3461 125.331C34.7781 122.885 32.5414 120.938 29.9008 119.723C27.2603 118.507 24.3263 118.073 21.4464 118.471C18.5665 118.87 15.8611 120.084 13.6506 121.971C11.4402 123.859 9.81711 126.339 8.97365 129.119C8.13018 131.899 8.10161 134.862 8.89132 137.658C9.68104 140.454 11.256 142.965 13.4297 144.894C15.6033 146.824 18.2848 148.09 21.1565 148.544V137.922H17.2924V133.526H21.1565V130.177C21.1565 126.367 23.4285 124.261 26.9033 124.261C28.0445 124.277 29.1829 124.377 30.3096 124.559V128.3H28.3901C26.5012 128.3 25.9103 129.471 25.9103 130.675V133.527H30.1296L29.4558 137.923H25.9103V148.546C29.4894 147.979 32.7487 146.155 35.102 143.402C37.4554 140.649 38.7482 137.147 38.7481 133.526L38.7481 133.526Z" fill="#3F3D56"/>
<path d="M447.74 313.378C447.739 313.525 447.681 313.665 447.577 313.769C447.473 313.873 447.332 313.931 447.186 313.932H0.554133C0.407168 313.932 0.266222 313.873 0.162301 313.77C0.0583813 313.666 0 313.525 0 313.378C0 313.231 0.0583813 313.091 0.162301 312.987C0.266222 312.883 0.407168 312.825 0.554133 312.825H447.186C447.332 312.825 447.473 312.884 447.577 312.987C447.681 313.091 447.739 313.232 447.74 313.378Z" fill="#3F3D56"/>
</g>
<defs>
<clipPath id="clip0">
<rect width="448" height="313.932" fill="white"/>
</clipPath>
</defs>
</svg>
