<svg width="670" height="484" viewBox="0 0 670 484" fill="none" xmlns="http://www.w3.org/2000/svg">
<path d="M323.615 11.4838C258.171 11.4838 205.118 46.7519 205.118 90.2573C205.118 109.683 215.702 127.462 233.236 141.197V198.37L270.799 160.786C287.854 166.328 305.684 169.111 323.615 169.031C389.059 169.031 442.112 133.763 442.112 90.2573C442.112 46.7519 389.059 11.4838 323.615 11.4838Z" fill="#F2F2F2"/>
<g opacity="0.3">
<path opacity="0.3" d="M522.724 403.577C524.489 404.518 526.449 405.035 528.448 405.089C530.447 405.142 532.431 404.73 534.244 403.886C536.056 403.041 537.648 401.787 538.894 400.222C540.14 398.657 541.005 396.823 541.422 394.867C541.839 392.91 541.795 390.883 541.296 388.945C540.796 387.008 539.853 385.213 538.542 383.703C537.231 382.192 535.587 381.007 533.74 380.24C531.892 379.474 529.893 379.147 527.898 379.286L527.286 385.915L524.971 379.832C521.713 380.835 518.985 383.093 517.389 386.107C516.825 387.162 516.412 388.292 516.164 389.463C515.575 392.21 515.897 395.073 517.081 397.62C518.265 400.167 520.246 402.258 522.724 403.577Z" fill="#57B894"/>
<path opacity="0.3" d="M527.324 482.121C527.018 476.366 532.482 472.077 537.642 469.516C542.803 466.956 548.747 464.564 551.127 459.316C554.547 451.773 548.696 443.593 544.228 436.621C540.913 431.446 538.222 425.897 536.213 420.09C535.408 417.761 534.706 415.346 534.756 412.883C534.828 409.335 536.439 406.022 538.038 402.855C543.365 392.303 548.94 381.881 554.761 371.588" stroke="#3F3D56" stroke-width="0.620351" stroke-miterlimit="10"/>
<path opacity="0.3" d="M523.491 401.957C525.256 402.897 527.215 403.415 529.214 403.468C531.213 403.522 533.197 403.11 535.01 402.265C536.823 401.421 538.415 400.167 539.661 398.601C540.906 397.036 541.772 395.203 542.188 393.246C542.605 391.289 542.562 389.262 542.062 387.325C541.562 385.387 540.62 383.593 539.308 382.082C537.997 380.572 536.353 379.386 534.506 378.62C532.659 377.853 530.659 377.527 528.664 377.665L528.053 384.295L525.738 378.211C522.479 379.215 519.752 381.472 518.156 384.487C517.591 385.542 517.178 386.672 516.931 387.843C516.342 390.589 516.663 393.453 517.847 395.999C519.031 398.546 521.012 400.638 523.491 401.957Z" stroke="#3F3D56" stroke-width="0.620351" stroke-miterlimit="10"/>
<path opacity="0.3" d="M541.954 367.455C542.97 365.543 544.45 363.917 546.259 362.727C548.067 361.537 550.146 360.822 552.304 360.647L552.471 367.055L555.352 360.758C558.056 361.182 560.556 362.455 562.489 364.393C564.423 366.33 565.692 368.833 566.111 371.539C566.531 374.245 566.08 377.015 564.824 379.448C563.568 381.881 561.572 383.852 559.123 385.076C556.675 386.3 553.901 386.713 551.202 386.257C548.504 385.801 546.02 384.498 544.109 382.537C542.199 380.577 540.96 378.059 540.573 375.348C540.185 372.637 540.669 369.873 541.954 367.455Z" fill="#57B894"/>
<path opacity="0.3" d="M542.976 365.295C543.991 363.382 545.472 361.756 547.28 360.566C549.089 359.376 551.168 358.661 553.325 358.486L553.492 364.895L556.374 358.597C559.078 359.021 561.577 360.294 563.511 362.232C565.445 364.17 566.713 366.672 567.133 369.378C567.553 372.085 567.102 374.854 565.846 377.287C564.59 379.72 562.594 381.691 560.145 382.915C557.697 384.139 554.923 384.553 552.224 384.096C549.526 383.64 547.042 382.338 545.131 380.377C543.22 378.416 541.982 375.898 541.595 373.187C541.207 370.476 541.691 367.712 542.976 365.295Z" stroke="#3F3D56" stroke-width="0.620351" stroke-miterlimit="10"/>
<path opacity="0.3" d="M541.967 436.43C544.766 437.919 548.015 438.325 551.095 437.571C554.175 436.817 556.869 434.956 558.666 432.342C560.462 429.728 561.234 426.544 560.834 423.397C560.435 420.25 558.892 417.36 556.5 415.277L554.286 420.117L554.119 413.633C554.109 413.627 554.098 413.621 554.088 413.616C552.59 412.817 550.95 412.322 549.261 412.157C547.572 411.993 545.868 412.164 544.245 412.659C542.621 413.155 541.112 413.965 539.802 415.045C538.493 416.125 537.408 417.452 536.612 418.951C535.815 420.45 535.322 422.092 535.16 423.782C534.998 425.472 535.171 427.178 535.668 428.801C536.165 430.424 536.978 431.934 538.058 433.243C539.139 434.552 540.467 435.635 541.967 436.43Z" fill="#57B894"/>
<path opacity="0.3" d="M542.898 434.227C545.698 435.716 548.947 436.122 552.027 435.368C555.107 434.614 557.801 432.753 559.597 430.138C561.394 427.524 562.166 424.34 561.766 421.193C561.367 418.046 559.824 415.156 557.432 413.074L555.218 417.914L555.05 411.43C555.041 411.424 555.03 411.418 555.02 411.413C553.522 410.616 551.883 410.122 550.195 409.958C548.507 409.795 546.803 409.967 545.181 410.463C543.559 410.958 542.05 411.769 540.742 412.849C539.433 413.928 538.349 415.255 537.553 416.753C536.757 418.252 536.264 419.892 536.102 421.581C535.939 423.27 536.111 424.975 536.608 426.598C537.104 428.22 537.915 429.729 538.995 431.038C540.074 432.347 541.4 433.431 542.898 434.227V434.227Z" stroke="#3F3D56" stroke-width="0.620351" stroke-miterlimit="10"/>
<path opacity="0.3" d="M525.651 455.787C525.749 458.748 526.863 461.585 528.803 463.822C530.744 466.059 533.395 467.56 536.311 468.074C539.227 468.587 542.23 468.082 544.818 466.643C547.406 465.204 549.421 462.918 550.524 460.169C551.628 457.421 551.753 454.376 550.879 451.545C550.005 448.715 548.185 446.271 545.724 444.624C543.263 442.977 540.311 442.227 537.363 442.499C534.414 442.772 531.649 444.05 529.531 446.12L534.014 455.504L526.875 449.849C525.997 451.702 525.578 453.739 525.651 455.787Z" fill="#57B894"/>
<path opacity="0.3" d="M526.417 454.167C526.516 457.128 527.629 459.964 529.57 462.201C531.511 464.438 534.161 465.94 537.077 466.453C539.993 466.967 542.997 466.462 545.584 465.023C548.172 463.584 550.187 461.298 551.29 458.549C552.394 455.8 552.519 452.755 551.645 449.925C550.771 447.094 548.951 444.651 546.49 443.004C544.029 441.357 541.077 440.607 538.129 440.879C535.181 441.151 532.416 442.429 530.298 444.499L534.78 453.884L527.641 448.229C526.764 450.081 526.344 452.118 526.417 454.167V454.167Z" stroke="#3F3D56" stroke-width="0.620351" stroke-miterlimit="10"/>
</g>
<g opacity="0.3">
<path opacity="0.3" d="M181.363 405.44C179.598 406.38 177.639 406.897 175.64 406.951C173.641 407.004 171.656 406.593 169.844 405.748C168.031 404.904 166.439 403.649 165.193 402.084C163.947 400.519 163.082 398.686 162.665 396.729C162.249 394.772 162.292 392.745 162.792 390.808C163.291 388.87 164.234 387.076 165.545 385.565C166.856 384.054 168.5 382.869 170.348 382.103C172.195 381.336 174.195 381.009 176.19 381.148L176.801 387.777L179.116 381.694C182.375 382.698 185.102 384.955 186.698 387.969C187.263 389.024 187.675 390.154 187.923 391.325C188.512 394.072 188.19 396.935 187.006 399.482C185.823 402.029 183.841 404.121 181.363 405.44Z" fill="#FF6584"/>
<path opacity="0.3" d="M176.762 483.983C177.069 478.228 171.604 473.939 166.444 471.379C161.284 468.818 155.339 466.426 152.959 461.178C149.539 453.635 155.39 445.455 159.859 438.483C163.174 433.309 165.864 427.76 167.873 421.952C168.679 419.623 169.38 417.209 169.33 414.745C169.258 411.197 167.647 407.885 166.048 404.717C160.721 394.165 155.147 383.743 149.326 373.451" stroke="#3F3D56" stroke-width="0.620351" stroke-miterlimit="10"/>
<path opacity="0.3" d="M180.596 403.819C178.831 404.759 176.872 405.277 174.873 405.33C172.874 405.384 170.89 404.972 169.077 404.128C167.264 403.283 165.672 402.029 164.427 400.464C163.181 398.898 162.316 397.065 161.899 395.108C161.482 393.151 161.525 391.124 162.025 389.187C162.525 387.25 163.468 385.455 164.779 383.944C166.09 382.434 167.734 381.248 169.581 380.482C171.428 379.716 173.428 379.389 175.423 379.528L176.035 386.157L178.35 380.073C181.608 381.077 184.335 383.334 185.932 386.349C186.496 387.404 186.909 388.534 187.157 389.705C187.746 392.451 187.424 395.315 186.24 397.862C185.056 400.409 183.075 402.5 180.596 403.819V403.819Z" stroke="#3F3D56" stroke-width="0.620351" stroke-miterlimit="10"/>
<path opacity="0.3" d="M162.133 369.317C161.118 367.405 159.637 365.779 157.829 364.589C156.02 363.399 153.941 362.684 151.784 362.509L151.617 368.917L148.735 362.62C146.031 363.044 143.532 364.317 141.598 366.255C139.664 368.193 138.396 370.695 137.976 373.401C137.556 376.107 138.007 378.877 139.263 381.31C140.519 383.743 142.515 385.714 144.964 386.938C147.412 388.162 150.186 388.575 152.885 388.119C155.583 387.663 158.067 386.36 159.978 384.4C161.889 382.439 163.127 379.921 163.514 377.21C163.902 374.499 163.418 371.735 162.133 369.317Z" fill="#FF6584"/>
<path opacity="0.3" d="M161.111 367.157C160.096 365.244 158.616 363.618 156.807 362.428C154.998 361.238 152.919 360.523 150.762 360.349L150.595 366.757L147.713 360.459C145.009 360.883 142.51 362.156 140.576 364.094C138.642 366.032 137.374 368.535 136.954 371.241C136.535 373.947 136.985 376.716 138.241 379.149C139.497 381.583 141.494 383.553 143.942 384.777C146.391 386.001 149.164 386.415 151.863 385.959C154.562 385.502 157.046 384.2 158.956 382.239C160.867 380.278 162.105 377.76 162.493 375.05C162.88 372.339 162.396 369.575 161.111 367.157V367.157Z" stroke="#3F3D56" stroke-width="0.620351" stroke-miterlimit="10"/>
<path opacity="0.3" d="M162.12 438.292C159.321 439.781 156.071 440.187 152.992 439.433C149.912 438.679 147.217 436.818 145.421 434.204C143.625 431.59 142.853 428.406 143.252 425.259C143.652 422.112 145.194 419.222 147.586 417.14L149.801 421.979L149.968 415.495C149.978 415.489 149.988 415.483 149.999 415.478C151.496 414.681 153.136 414.186 154.824 414.023C156.513 413.86 158.216 414.031 159.839 414.526C161.461 415.022 162.97 415.833 164.279 416.912C165.588 417.992 166.671 419.319 167.467 420.817C168.264 422.316 168.757 423.957 168.919 425.646C169.081 427.335 168.909 429.04 168.413 430.663C167.916 432.286 167.105 433.795 166.025 435.104C164.945 436.413 163.618 437.496 162.12 438.292V438.292Z" fill="#FF6584"/>
<path opacity="0.3" d="M161.188 436.089C158.389 437.578 155.139 437.984 152.06 437.23C148.98 436.476 146.285 434.615 144.489 432.001C142.693 429.387 141.921 426.203 142.32 423.056C142.72 419.909 144.262 417.019 146.655 414.936L148.869 419.776L149.036 413.292C149.046 413.286 149.056 413.28 149.067 413.275C150.564 412.478 152.204 411.984 153.892 411.821C155.58 411.658 157.284 411.829 158.906 412.325C160.528 412.821 162.036 413.631 163.345 414.711C164.654 415.79 165.737 417.117 166.533 418.615C167.329 420.114 167.823 421.754 167.985 423.444C168.147 425.133 167.975 426.837 167.479 428.46C166.983 430.083 166.171 431.592 165.092 432.901C164.013 434.21 162.686 435.293 161.188 436.089V436.089Z" stroke="#3F3D56" stroke-width="0.620351" stroke-miterlimit="10"/>
<path opacity="0.3" d="M178.436 457.65C178.337 460.61 177.224 463.447 175.283 465.684C173.342 467.921 170.691 469.422 167.776 469.936C164.86 470.45 161.856 469.944 159.268 468.505C156.68 467.066 154.666 464.78 153.562 462.032C152.459 459.283 152.334 456.238 153.208 453.407C154.082 450.577 155.902 448.134 158.363 446.487C160.824 444.84 163.776 444.089 166.724 444.362C169.672 444.634 172.437 445.912 174.555 447.982L170.073 457.367L177.211 451.711C178.089 453.564 178.509 455.601 178.436 457.65Z" fill="#FF6584"/>
<path opacity="0.3" d="M177.669 456.029C177.571 458.99 176.458 461.826 174.517 464.063C172.576 466.3 169.925 467.802 167.009 468.315C164.093 468.829 161.09 468.324 158.502 466.885C155.914 465.446 153.899 463.16 152.796 460.411C151.693 457.662 151.567 454.617 152.441 451.787C153.315 448.957 155.135 446.513 157.596 444.866C160.057 443.219 163.009 442.469 165.958 442.741C168.906 443.013 171.671 444.292 173.789 446.361L169.306 455.746L176.445 450.091C177.323 451.944 177.743 453.98 177.669 456.029V456.029Z" stroke="#3F3D56" stroke-width="0.620351" stroke-miterlimit="10"/>
</g>
<g opacity="0.3">
<path opacity="0.3" d="M503.972 404.819C502.207 405.759 500.248 406.277 498.249 406.33C496.25 406.384 494.266 405.972 492.453 405.127C490.64 404.283 489.048 403.029 487.802 401.463C486.557 399.898 485.691 398.065 485.274 396.108C484.858 394.151 484.901 392.124 485.401 390.187C485.9 388.249 486.843 386.455 488.154 384.944C489.466 383.434 491.11 382.248 492.957 381.482C494.804 380.715 496.804 380.389 498.799 380.527L499.41 387.157L501.725 381.073C504.984 382.077 507.711 384.334 509.307 387.349C509.872 388.404 510.284 389.534 510.532 390.705C511.121 393.451 510.799 396.315 509.616 398.861C508.432 401.408 506.451 403.5 503.972 404.819Z" fill="#FF6584"/>
<path opacity="0.3" d="M499.371 483.363C499.678 477.608 494.213 473.318 489.053 470.758C483.893 468.197 477.948 465.806 475.568 460.557C472.148 453.015 478 444.834 482.468 437.862C485.783 432.688 488.473 427.139 490.483 421.331C491.288 419.002 491.989 416.588 491.939 414.124C491.868 410.576 490.256 407.264 488.657 404.096C483.33 393.544 477.756 383.122 471.935 372.83" stroke="#3F3D56" stroke-width="0.620351" stroke-miterlimit="10"/>
<path opacity="0.3" d="M503.206 403.198C501.441 404.139 499.481 404.656 497.482 404.71C495.483 404.763 493.499 404.351 491.686 403.507C489.874 402.662 488.282 401.408 487.036 399.843C485.79 398.278 484.925 396.444 484.508 394.487C484.091 392.531 484.135 390.504 484.634 388.566C485.134 386.629 486.077 384.834 487.388 383.324C488.699 381.813 490.343 380.628 492.19 379.861C494.038 379.095 496.037 378.768 498.032 378.907L498.644 385.536L500.959 379.453C504.217 380.456 506.945 382.714 508.541 385.728C509.106 386.783 509.518 387.913 509.766 389.084C510.355 391.83 510.033 394.694 508.849 397.241C507.665 399.788 505.684 401.879 503.206 403.198V403.198Z" stroke="#3F3D56" stroke-width="0.620351" stroke-miterlimit="10"/>
<path opacity="0.3" d="M484.742 368.697C483.727 366.784 482.246 365.158 480.438 363.968C478.629 362.778 476.55 362.063 474.393 361.888L474.226 368.297L471.344 361.999C468.64 362.423 466.141 363.696 464.207 365.634C462.273 367.572 461.005 370.074 460.585 372.781C460.165 375.487 460.616 378.256 461.872 380.689C463.128 383.122 465.125 385.093 467.573 386.317C470.021 387.541 472.795 387.955 475.494 387.498C478.193 387.042 480.677 385.74 482.587 383.779C484.498 381.818 485.736 379.3 486.124 376.589C486.511 373.878 486.027 371.115 484.742 368.697Z" fill="#FF6584"/>
<path opacity="0.3" d="M483.721 366.536C482.705 364.623 481.225 362.997 479.416 361.807C477.608 360.618 475.529 359.902 473.371 359.728L473.204 366.136L470.323 359.839C467.619 360.263 465.119 361.535 463.185 363.473C461.252 365.411 459.983 367.914 459.564 370.62C459.144 373.326 459.595 376.096 460.851 378.529C462.107 380.962 464.103 382.933 466.551 384.156C469 385.38 471.774 385.794 474.472 385.338C477.171 384.882 479.655 383.579 481.566 381.618C483.476 379.657 484.715 377.14 485.102 374.429C485.489 371.718 485.006 368.954 483.721 366.536V366.536Z" stroke="#3F3D56" stroke-width="0.620351" stroke-miterlimit="10"/>
<path opacity="0.3" d="M484.73 437.671C481.93 439.16 478.681 439.567 475.601 438.813C472.521 438.059 469.827 436.197 468.03 433.583C466.234 430.969 465.462 427.785 465.862 424.638C466.261 421.491 467.804 418.601 470.196 416.519L472.41 421.358L472.577 414.875C472.587 414.868 472.598 414.863 472.608 414.858C474.106 414.06 475.745 413.566 477.433 413.402C479.122 413.239 480.826 413.41 482.448 413.906C484.07 414.402 485.579 415.212 486.888 416.292C488.197 417.371 489.28 418.698 490.077 420.197C490.873 421.695 491.366 423.336 491.528 425.025C491.691 426.715 491.518 428.42 491.022 430.043C490.525 431.665 489.714 433.174 488.634 434.483C487.555 435.792 486.228 436.876 484.73 437.671V437.671Z" fill="#FF6584"/>
<path opacity="0.3" d="M483.797 435.468C480.998 436.957 477.749 437.363 474.669 436.609C471.589 435.856 468.894 433.994 467.098 431.38C465.302 428.766 464.53 425.582 464.93 422.435C465.329 419.288 466.872 416.398 469.264 414.316L471.478 419.155L471.645 412.672C471.655 412.665 471.666 412.659 471.676 412.655C473.173 411.857 474.813 411.363 476.501 411.2C478.189 411.037 479.893 411.208 481.515 411.704C483.137 412.2 484.645 413.011 485.954 414.09C487.263 415.169 488.346 416.496 489.143 417.995C489.939 419.493 490.432 421.134 490.594 422.823C490.756 424.512 490.584 426.217 490.088 427.839C489.592 429.462 488.781 430.971 487.701 432.28C486.622 433.589 485.295 434.672 483.797 435.468V435.468Z" stroke="#3F3D56" stroke-width="0.620351" stroke-miterlimit="10"/>
<path opacity="0.3" d="M501.045 457.029C500.946 459.99 499.833 462.826 497.892 465.063C495.951 467.3 493.301 468.801 490.385 469.315C487.469 469.829 484.465 469.324 481.877 467.884C479.289 466.445 477.275 464.16 476.171 461.411C475.068 458.662 474.943 455.617 475.817 452.787C476.691 449.956 478.511 447.513 480.972 445.866C483.433 444.219 486.385 443.468 489.333 443.741C492.281 444.013 495.046 445.291 497.164 447.361L492.682 456.746L499.821 451.091C500.698 452.943 501.118 454.98 501.045 457.029Z" fill="#FF6584"/>
<path opacity="0.3" d="M500.279 455.408C500.18 458.369 499.067 461.206 497.126 463.443C495.185 465.68 492.534 467.181 489.618 467.695C486.703 468.208 483.699 467.703 481.111 466.264C478.523 464.825 476.509 462.539 475.405 459.79C474.302 457.041 474.176 453.996 475.05 451.166C475.924 448.336 477.745 445.892 480.205 444.245C482.666 442.598 485.618 441.848 488.567 442.12C491.515 442.392 494.28 443.671 496.398 445.741L491.915 455.125L499.054 449.47C499.932 451.323 500.352 453.359 500.279 455.408V455.408Z" stroke="#3F3D56" stroke-width="0.620351" stroke-miterlimit="10"/>
</g>
<g opacity="0.3">
<path opacity="0.3" d="M44.8743 404.198C43.1093 405.138 41.15 405.656 39.151 405.709C37.152 405.763 35.1679 405.351 33.3551 404.507C31.5423 403.662 29.9503 402.408 28.7046 400.843C27.4589 399.277 26.5936 397.444 26.1768 395.487C25.7601 393.53 25.8033 391.503 26.303 389.566C26.8028 387.629 27.7454 385.834 29.0567 384.323C30.3679 382.813 32.0119 381.628 33.8591 380.861C35.7062 380.095 37.7061 379.768 39.701 379.907L40.3125 386.536L42.6274 380.452C45.8861 381.456 48.6133 383.713 50.2095 386.728C50.7742 387.783 51.1866 388.913 51.4344 390.084C52.0234 392.83 51.7017 395.694 50.5179 398.241C49.3341 400.788 47.3529 402.879 44.8743 404.198Z" fill="#FF6584"/>
<path opacity="0.3" d="M40.2732 482.742C40.58 476.987 35.1156 472.697 29.9552 470.137C24.7949 467.577 18.8501 465.185 16.4705 459.937C13.0505 452.394 18.9016 444.214 23.37 437.241C26.6849 432.067 29.3753 426.518 31.3847 420.71C32.1901 418.382 32.8914 415.967 32.8415 413.504C32.7697 409.956 31.1585 406.643 29.5594 403.476C24.2321 392.924 18.658 382.502 12.8369 372.209" stroke="#3F3D56" stroke-width="0.620351" stroke-miterlimit="10"/>
<path opacity="0.3" d="M44.108 402.578C42.3429 403.518 40.3837 404.035 38.3847 404.089C36.3857 404.142 34.4016 403.731 32.5887 402.886C30.7759 402.042 29.1839 400.787 27.9382 399.222C26.6926 397.657 25.8272 395.824 25.4105 393.867C24.9937 391.91 25.0369 389.883 25.5367 387.946C26.0364 386.008 26.9791 384.214 28.2903 382.703C29.6016 381.192 31.2456 380.007 33.0927 379.241C34.9399 378.474 36.9397 378.147 38.9346 378.286L39.5461 384.915L41.8611 378.832C45.1198 379.836 47.8469 382.093 49.4432 385.107C50.0079 386.163 50.4203 387.292 50.6681 388.463C51.2571 391.21 50.9353 394.073 49.7515 396.62C48.5678 399.167 46.5865 401.259 44.108 402.578Z" stroke="#3F3D56" stroke-width="0.620351" stroke-miterlimit="10"/>
<path opacity="0.3" d="M25.6446 368.076C24.6291 366.163 23.1488 364.537 21.3402 363.347C19.5315 362.158 17.4527 361.443 15.2952 361.268L15.128 367.676L12.2464 361.379C9.54245 361.803 7.04311 363.075 5.10924 365.013C3.17537 366.951 1.90705 369.454 1.48739 372.16C1.06774 374.866 1.51846 377.636 2.77449 380.069C4.03052 382.502 6.02687 384.473 8.4753 385.696C10.9237 386.92 13.6975 387.334 16.3963 386.878C19.095 386.422 21.579 385.119 23.4896 383.158C25.4002 381.197 26.6386 378.68 27.0259 375.969C27.4133 373.258 26.9296 370.494 25.6446 368.076Z" fill="#FF6584"/>
<path opacity="0.3" d="M24.6229 365.915C23.6074 364.003 22.1271 362.377 20.3185 361.187C18.5098 359.997 16.4309 359.282 14.2734 359.107L14.1063 365.515L11.2247 359.218C8.52073 359.642 6.02138 360.915 4.08751 362.853C2.15364 364.79 0.885323 367.293 0.465666 369.999C0.0460102 372.705 0.496734 375.475 1.75276 377.908C3.00879 380.341 5.00513 382.312 7.45356 383.536C9.90198 384.76 12.6758 385.173 15.3745 384.717C18.0733 384.261 20.5572 382.958 22.4679 380.997C24.3785 379.037 25.6169 376.519 26.0042 373.808C26.3916 371.097 25.9078 368.333 24.6229 365.915V365.915Z" stroke="#3F3D56" stroke-width="0.620351" stroke-miterlimit="10"/>
<path opacity="0.3" d="M25.6316 437.05C22.8321 438.539 19.5828 438.946 16.5031 438.192C13.4234 437.438 10.7287 435.576 8.93253 432.962C7.13637 430.348 6.3644 427.164 6.76374 424.017C7.16309 420.87 8.70583 417.98 11.0979 415.898L13.3122 420.737L13.4796 414.254C13.4894 414.247 13.4997 414.242 13.5104 414.237C15.0076 413.439 16.6473 412.945 18.3356 412.781C20.024 412.618 21.7279 412.789 23.3502 413.285C24.9724 413.781 26.4811 414.592 27.79 415.671C29.099 416.75 30.1825 418.077 30.9788 419.576C31.775 421.074 32.2683 422.715 32.4304 424.405C32.5926 426.094 32.4205 427.799 31.9239 429.422C31.4274 431.044 30.6161 432.554 29.5364 433.862C28.4568 435.171 27.1299 436.255 25.6316 437.05V437.05Z" fill="#FF6584"/>
<path opacity="0.3" d="M24.6995 434.847C21.9 436.336 18.6507 436.743 15.571 435.989C12.4913 435.235 9.79657 433.373 8.0004 430.759C6.20424 428.145 5.43227 424.961 5.83162 421.814C6.23097 418.667 7.77372 415.777 10.1658 413.695L12.3801 418.534L12.5475 412.051C12.5573 412.044 12.5676 412.039 12.5783 412.034C14.0755 411.237 15.715 410.742 17.4032 410.579C19.0914 410.416 20.7951 410.587 22.4171 411.083C24.0391 411.579 25.5476 412.39 26.8563 413.469C28.1651 414.549 29.2485 415.875 30.0446 417.374C30.8407 418.872 31.334 420.513 31.4962 422.202C31.6585 423.891 31.4865 425.596 30.9901 427.219C30.4938 428.841 29.6827 430.35 28.6034 431.659C27.524 432.968 26.1975 434.051 24.6995 434.847V434.847Z" stroke="#3F3D56" stroke-width="0.620351" stroke-miterlimit="10"/>
<path opacity="0.3" d="M41.9472 456.408C41.8485 459.369 40.7354 462.206 38.7945 464.443C36.8535 466.68 34.2029 468.181 31.2871 468.694C28.3712 469.208 25.3675 468.703 22.7797 467.264C20.1918 465.825 18.1773 463.539 17.0738 460.79C15.9704 458.041 15.8452 454.996 16.7192 452.166C17.5932 449.336 19.4133 446.892 21.8742 445.245C24.3351 443.598 27.2872 442.848 30.2353 443.12C33.1835 443.392 35.9485 444.671 38.0665 446.74L33.5841 456.125L40.7228 450.47C41.6005 452.323 42.0204 454.359 41.9472 456.408Z" fill="#FF6584"/>
<path opacity="0.3" d="M41.1809 454.788C41.0822 457.748 39.969 460.585 38.0281 462.822C36.0872 465.059 33.4365 466.56 30.5207 467.074C27.6048 467.588 24.6011 467.082 22.0133 465.643C19.4255 464.204 17.4109 461.918 16.3075 459.17C15.204 456.421 15.0788 453.376 15.9528 450.545C16.8268 447.715 18.6469 445.272 21.1078 443.625C23.5687 441.978 26.5208 441.227 29.469 441.499C32.4172 441.772 35.1821 443.05 37.3001 445.12L32.8177 454.505L39.9565 448.849C40.8341 450.702 41.2541 452.739 41.1809 454.788V454.788Z" stroke="#3F3D56" stroke-width="0.620351" stroke-miterlimit="10"/>
</g>
<g opacity="0.3">
<path opacity="0.3" d="M41.4057 346.878C44.4376 348.494 47.8031 349.382 51.2368 349.474C54.6705 349.566 58.0787 348.859 61.1927 347.408C64.3066 345.958 67.0413 343.803 69.181 341.115C71.3208 338.426 72.8072 335.277 73.5231 331.916C74.2389 328.554 74.1647 325.072 73.3063 321.744C72.4478 318.417 70.8286 315.334 68.5762 312.739C66.3239 310.144 63.4999 308.108 60.327 306.792C57.154 305.475 53.7188 304.914 50.2921 305.152L49.2418 316.539L45.2653 306.09C39.6677 307.814 34.9832 311.691 32.2412 316.869C31.2712 318.682 30.5628 320.623 30.1372 322.634C29.1254 327.351 29.6781 332.27 31.7115 336.645C33.7449 341.02 37.1482 344.613 41.4057 346.878Z" fill="#57B894"/>
<path opacity="0.3" d="M49.3091 481.796C48.7821 471.911 58.1685 464.542 67.0326 460.144C75.8967 455.746 86.1082 451.638 90.1958 442.623C96.0705 429.666 86.0198 415.615 78.3443 403.638C72.6501 394.75 68.0288 385.219 64.5771 375.242C63.1938 371.242 61.989 367.095 62.0747 362.863C62.1982 356.768 64.9657 351.079 67.7126 345.638C76.8634 327.512 86.4383 309.61 96.4373 291.93" stroke="#3F3D56" stroke-width="0.620351" stroke-miterlimit="10"/>
<path opacity="0.3" d="M42.7218 344.095C45.7538 345.71 49.1192 346.599 52.553 346.691C55.9867 346.783 59.3949 346.076 62.5088 344.625C65.6228 343.174 68.3574 341.02 70.4972 338.331C72.6369 335.643 74.1234 332.493 74.8392 329.132C75.5551 325.771 75.4809 322.289 74.6224 318.961C73.764 315.633 72.1448 312.55 69.8924 309.956C67.64 307.361 64.8161 305.325 61.6431 304.008C58.4702 302.691 55.035 302.13 51.6083 302.369L50.558 313.756L46.5814 303.306C40.9838 305.03 36.2993 308.908 33.5574 314.086C32.5874 315.898 31.879 317.839 31.4533 319.851C30.4416 324.568 30.9943 329.487 33.0277 333.862C35.0611 338.237 38.4644 341.829 42.7218 344.095V344.095Z" stroke="#3F3D56" stroke-width="0.620351" stroke-miterlimit="10"/>
<path opacity="0.3" d="M74.4373 284.83C76.1816 281.545 78.7243 278.752 81.8311 276.708C84.9379 274.664 88.5089 273.436 92.2149 273.135L92.502 284.143L97.4518 273.326C102.097 274.054 106.39 276.241 109.712 279.569C113.033 282.898 115.212 287.197 115.933 291.845C116.654 296.494 115.88 301.251 113.722 305.43C111.564 309.61 108.135 312.995 103.93 315.097C99.7239 317.2 94.9592 317.91 90.3235 317.127C85.6878 316.343 81.421 314.105 78.1391 310.737C74.8571 307.369 72.7299 303.045 72.0646 298.388C71.3992 293.731 72.2301 288.984 74.4373 284.83H74.4373Z" fill="#57B894"/>
<path opacity="0.3" d="M76.1924 281.119C77.9367 277.833 80.4795 275.04 83.5863 272.996C86.6931 270.953 90.264 269.724 93.97 269.424L94.2571 280.432L99.207 269.615C103.852 270.343 108.145 272.529 111.467 275.858C114.789 279.187 116.967 283.486 117.688 288.134C118.409 292.782 117.635 297.54 115.477 301.719C113.32 305.898 109.89 309.284 105.685 311.386C101.479 313.488 96.7143 314.199 92.0786 313.415C87.443 312.631 83.1761 310.394 79.8942 307.026C76.6123 303.658 74.4851 299.333 73.8197 294.676C73.1543 290.02 73.9852 285.272 76.1924 281.119H76.1924Z" stroke="#3F3D56" stroke-width="0.620351" stroke-miterlimit="10"/>
<path opacity="0.3" d="M74.4583 403.31C79.2672 405.868 84.8486 406.566 90.1387 405.271C95.4288 403.976 100.058 400.778 103.143 396.288C106.228 391.798 107.554 386.328 106.868 380.923C106.182 375.517 103.532 370.553 99.4234 366.976L95.6198 375.289L95.3323 364.152C95.3155 364.141 95.2978 364.131 95.2794 364.123C92.7077 362.755 89.892 361.907 86.9929 361.628C84.0938 361.349 81.1682 361.644 78.383 362.496C75.5978 363.348 73.0077 364.741 70.7605 366.595C68.5133 368.449 66.653 370.727 65.2859 373.3C63.9188 375.873 63.0716 378.691 62.7926 381.591C62.5137 384.492 62.8085 387.419 63.6602 390.206C64.512 392.993 65.9039 395.584 67.7567 397.833C69.6094 400.081 71.8866 401.942 74.4583 403.31Z" fill="#57B894"/>
<path opacity="0.3" d="M76.0596 399.526C80.8685 402.084 86.4499 402.782 91.74 401.487C97.0301 400.191 101.659 396.994 104.744 392.504C107.83 388.013 109.156 382.544 108.47 377.138C107.784 371.733 105.134 366.768 101.025 363.192L97.2211 371.505L96.9336 360.368C96.9168 360.357 96.8991 360.347 96.8807 360.338C94.3091 358.971 91.4933 358.123 88.5942 357.844C85.6951 357.565 82.7695 357.86 79.9843 358.712C77.1992 359.564 74.609 360.957 72.3618 362.811C70.1146 364.664 68.2544 366.943 66.8872 369.516C65.5201 372.089 64.6729 374.906 64.3939 377.807C64.115 380.708 64.4098 383.635 65.2616 386.422C66.1133 389.208 67.5053 391.8 69.358 394.048C71.2107 396.297 73.4879 398.158 76.0596 399.526V399.526Z" stroke="#3F3D56" stroke-width="0.620351" stroke-miterlimit="10"/>
<path opacity="0.3" d="M46.4337 436.562C46.6032 441.647 48.5153 446.52 51.8493 450.363C55.1833 454.205 59.7364 456.784 64.7451 457.666C69.7538 458.549 74.9133 457.681 79.3585 455.209C83.8037 452.737 87.2642 448.811 89.1597 444.089C91.0551 439.367 91.2702 434.136 89.7689 429.275C88.2676 424.413 85.1411 420.216 80.9139 417.386C76.6867 414.557 71.6158 413.269 66.5516 413.736C61.4875 414.204 56.738 416.4 53.0998 419.955L60.7994 436.076L48.5369 426.361C47.0293 429.544 46.308 433.042 46.4337 436.562Z" fill="#57B894"/>
<path opacity="0.3" d="M47.7499 433.778C47.9194 438.864 49.8315 443.736 53.1655 447.579C56.4995 451.422 61.0526 454 66.0613 454.883C71.0699 455.765 76.2295 454.897 80.6747 452.425C85.1199 449.953 88.5804 446.027 90.4758 441.305C92.3713 436.583 92.5864 431.353 91.085 426.491C89.5837 421.629 86.4573 417.432 82.2301 414.603C78.0029 411.774 72.932 410.485 67.8678 410.953C62.8036 411.42 58.0542 413.616 54.416 417.172L62.1156 433.292L49.8531 423.578C48.3455 426.76 47.6242 430.259 47.7499 433.778V433.778Z" stroke="#3F3D56" stroke-width="0.620351" stroke-miterlimit="10"/>
</g>
<g opacity="0.3">
<path opacity="0.3" d="M572.423 483.108C571.741 470.311 583.892 460.773 595.367 455.079C606.842 449.386 620.061 444.068 625.352 432.397C632.957 415.625 619.946 397.435 610.01 381.931C602.639 370.425 596.656 358.086 592.188 345.172C590.397 339.994 588.838 334.625 588.949 329.146C589.109 321.257 592.691 313.891 596.247 306.848C608.093 283.384 620.488 260.209 633.432 237.322" stroke="#3F3D56" stroke-width="0.620351" stroke-miterlimit="10"/>
<path opacity="0.3" d="M648.37 211.227L635.878 214.799L636.745 209.012C635.646 208.941 634.529 208.901 633.396 208.901C617.121 208.901 603.927 216.405 603.927 225.662C603.927 234.918 617.121 242.422 633.396 242.422C649.672 242.422 662.865 234.918 662.865 225.662C662.865 219.515 657.044 214.144 648.37 211.227Z" fill="#FF6584"/>
<path opacity="0.3" d="M648.37 209.365L635.878 212.936L636.745 207.15C635.646 207.079 634.529 207.039 633.396 207.039C617.121 207.039 603.927 214.543 603.927 223.799C603.927 233.056 617.121 240.559 633.396 240.559C649.672 240.559 662.865 233.056 662.865 223.799C662.865 217.653 657.044 212.282 648.37 209.365Z" stroke="#3F3D56" stroke-width="0.620351" stroke-miterlimit="10"/>
<path opacity="0.3" d="M611.765 424.143L599.273 427.714L600.141 421.928C599.041 421.857 597.925 421.817 596.792 421.817C580.516 421.817 567.323 429.321 567.323 438.577C567.323 447.833 580.516 455.337 596.792 455.337C613.067 455.337 626.261 447.833 626.261 438.577C626.261 432.431 620.44 427.06 611.765 424.143Z" fill="#FF6584"/>
<path opacity="0.3" d="M611.765 422.281L599.273 425.852L600.141 420.065C599.041 419.995 597.925 419.955 596.792 419.955C580.516 419.955 567.323 427.458 567.323 436.715C567.323 445.971 580.516 453.475 596.792 453.475C613.067 453.475 626.261 445.971 626.261 436.715C626.261 430.568 620.44 425.198 611.765 422.281Z" stroke="#3F3D56" stroke-width="0.620351" stroke-miterlimit="10"/>
<path opacity="0.3" d="M655.194 379.449L642.702 383.02L643.57 377.234C642.47 377.163 641.354 377.123 640.221 377.123C623.945 377.123 610.752 384.627 610.752 393.883C610.752 403.14 623.945 410.643 640.221 410.643C656.496 410.643 669.69 403.14 669.69 393.883C669.69 387.737 663.869 382.366 655.194 379.449Z" fill="#FF6584"/>
<path opacity="0.3" d="M655.194 377.587L642.702 381.158L643.57 375.372C642.47 375.301 641.354 375.261 640.221 375.261C623.945 375.261 610.752 382.765 610.752 392.021C610.752 401.277 623.945 408.781 640.221 408.781C656.496 408.781 669.69 401.277 669.69 392.021C669.69 385.875 663.869 380.504 655.194 377.587Z" stroke="#3F3D56" stroke-width="0.620351" stroke-miterlimit="10"/>
<path opacity="0.3" d="M603.843 265.4L591.088 262.931L594.477 258.163C593.529 257.602 592.551 257.061 591.541 256.549C577.026 249.182 561.867 249.903 557.682 258.158C553.497 266.413 561.871 279.077 576.386 286.443C590.901 293.81 606.061 293.089 610.245 284.834C613.024 279.352 610.261 271.928 603.843 265.4Z" fill="#FF6584"/>
<path opacity="0.3" d="M604.685 263.739L591.93 261.27L595.319 256.502C594.371 255.942 593.393 255.401 592.383 254.888C577.868 247.522 562.708 248.242 558.524 256.498C554.339 264.753 562.713 277.416 577.228 284.783C591.743 292.149 606.902 291.428 611.087 283.173C613.866 277.691 611.103 270.267 604.685 263.739Z" stroke="#3F3D56" stroke-width="0.620351" stroke-miterlimit="10"/>
<path opacity="0.3" d="M631.762 330.578L619.006 328.109L622.396 323.341C621.447 322.781 620.47 322.24 619.459 321.727C604.944 314.361 589.785 315.081 585.6 323.337C581.415 331.592 589.789 344.255 604.305 351.622C618.82 358.988 633.979 358.267 638.164 350.012C640.942 344.53 638.179 337.106 631.762 330.578Z" fill="#FF6584"/>
<path opacity="0.3" d="M632.603 328.918L619.848 326.449L623.238 321.681C622.289 321.12 621.311 320.579 620.301 320.066C605.786 312.7 590.627 313.421 586.442 321.676C582.257 329.931 590.631 342.595 605.146 349.961C619.661 357.327 634.821 356.606 639.005 348.351C641.784 342.869 639.021 335.445 632.603 328.918Z" stroke="#3F3D56" stroke-width="0.620351" stroke-miterlimit="10"/>
</g>
<path d="M5.54834 482.96H658.212" stroke="#3F3D56" stroke-width="0.620351" stroke-miterlimit="10"/>
<path d="M331.991 0.310181C266.547 0.310181 213.494 35.5783 213.494 79.0837C213.494 98.5092 224.077 116.289 241.612 130.024V187.196L279.175 149.613C296.23 155.154 314.059 157.938 331.991 157.857C397.435 157.857 450.488 122.589 450.488 79.0837C450.488 35.5783 397.435 0.310181 331.991 0.310181Z" stroke="#3F3D56" stroke-width="0.620351" stroke-miterlimit="10"/>
<path d="M280.504 204.141C280.504 204.141 278.12 172.023 279.243 166.149C280.365 160.275 281.419 143.554 275.249 149.05C269.078 154.547 271.27 167.018 271.27 167.018C271.27 167.018 265.415 200.961 270.831 205.566C276.246 210.171 280.504 204.141 280.504 204.141Z" fill="#A0616A"/>
<path d="M284.948 235.902C284.948 235.902 266.581 219.513 267.574 205.606C267.574 205.606 278.495 197.163 280.977 201.633C283.458 206.103 301.499 223.541 298.435 229.473C295.372 235.406 284.948 235.902 284.948 235.902Z" fill="#F13F00"/>
<path d="M349.974 206.6C349.974 206.6 360.894 176.304 361.39 170.344C361.887 164.384 365.362 147.994 369.829 154.948C374.296 161.901 368.836 173.324 368.836 173.324C368.836 173.324 365.361 207.593 358.909 210.573C352.456 213.553 349.974 206.6 349.974 206.6Z" fill="#A0616A"/>
<path d="M320.191 358.576H349.477L350.966 373.476L344.017 374.966C344.017 374.966 327.636 369.999 318.205 371.489C308.774 372.979 320.191 358.576 320.191 358.576Z" fill="#A0616A"/>
<path d="M339.55 356.59C339.55 356.59 353.449 347.153 355.93 355.1C358.412 363.046 367.347 391.852 364.369 394.832C361.391 397.812 357.916 392.349 357.916 392.349C357.916 392.349 351.959 379.932 347.492 379.436C343.025 378.939 340.543 374.966 340.543 374.966C340.543 374.966 353.449 365.033 339.55 356.59Z" fill="#2F2E41"/>
<path d="M312.745 433.571C312.745 433.571 318.205 455.921 317.213 459.397C316.22 462.874 333.097 460.887 333.097 460.887L334.09 454.431C334.09 454.431 324.162 438.538 324.162 431.585C324.162 424.631 312.745 433.571 312.745 433.571Z" fill="#A0616A"/>
<path d="M333.097 449.961C333.097 449.961 346.499 459.894 339.55 464.861C332.6 469.827 306.788 482.74 306.788 482.74C306.788 482.74 297.357 484.23 304.307 475.787C311.256 467.344 313.241 465.854 313.738 461.384C314.169 458.408 315.211 455.553 316.799 452.999C316.799 452.999 323.665 466.847 333.097 449.961Z" fill="#2F2E41"/>
<path d="M292.393 330.763C292.393 330.763 286.933 382.416 295.372 398.805C303.81 415.195 313.738 437.544 313.242 438.538C312.745 439.531 327.637 437.048 327.637 432.578C327.637 428.108 311.256 383.409 311.256 383.409C311.256 383.409 318.205 325.3 323.666 321.327C329.126 317.354 292.393 330.763 292.393 330.763Z" fill="#2F2E41"/>
<path opacity="0.1" d="M292.393 330.763C292.393 330.763 286.933 382.416 295.372 398.805C303.81 415.195 313.738 437.544 313.242 438.538C312.745 439.531 327.637 437.048 327.637 432.578C327.637 428.108 311.256 383.409 311.256 383.409C311.256 383.409 318.205 325.3 323.666 321.327C329.126 317.354 292.393 330.763 292.393 330.763Z" fill="black"/>
<path d="M303.613 184.995C300.065 185.638 296.549 187.588 294.785 190.919C293.139 194.026 293.034 198.18 290.416 200.411C288.853 201.743 286.73 202.051 284.985 203.097C283.745 203.891 282.736 204.998 282.061 206.307C281.385 207.616 281.067 209.08 281.138 210.551C281.278 213.291 282.722 215.843 282.691 218.587C282.651 222.155 280.186 225.1 277.867 227.682L285.557 229.11C286.719 229.421 287.938 229.453 289.115 229.205C290.443 228.811 291.522 227.717 292.865 227.383C294.79 226.905 296.696 228.077 298.414 229.116C303.304 232.076 308.547 234.31 313.772 236.534C315.309 237.188 317.052 237.843 318.569 237.137C319.793 236.567 320.555 235.235 321.707 234.514C323.771 233.222 326.361 234.194 328.68 234.832C333.923 236.255 339.5 235.78 344.428 233.49C343.365 232.249 341.973 231.38 340.829 230.225C339.684 229.069 338.758 227.432 339.061 225.786C339.369 224.107 340.811 222.986 341.795 221.632C342.521 220.558 343.026 219.351 343.281 218.08C343.536 216.809 343.535 215.5 343.279 214.23C342.763 211.702 341.534 209.376 339.738 207.525C338.713 206.565 337.745 205.544 336.841 204.469C335.032 202.025 334.584 198.788 334.006 195.741C333.427 192.693 332.513 189.45 330.164 187.594C326.421 184.638 320.343 185.646 315.968 185.352C311.797 185.073 307.775 184.995 303.613 184.995Z" fill="#2F2E41"/>
<path d="M278.991 295.501L288.422 318.844C288.422 318.844 245.237 366.026 269.56 372.483C293.883 378.939 302.321 367.516 317.709 376.456C317.709 376.456 325.155 365.033 324.162 358.08C324.162 358.08 302.817 354.106 291.401 354.603C291.401 354.603 322.176 327.784 325.155 326.79C328.133 325.797 338.061 309.904 322.673 296.991C307.285 284.078 311.256 277.125 311.256 277.125L278.991 295.501Z" fill="#2F2E41"/>
<path d="M301.328 214.546C301.328 214.546 302.818 229.942 296.365 231.929C289.912 233.916 321.68 233.419 321.68 233.419C321.68 233.419 314.234 228.949 317.709 219.513C321.184 210.076 301.328 214.546 301.328 214.546Z" fill="#A0616A"/>
<path opacity="0.1" d="M301.328 214.546C301.328 214.546 302.818 229.942 296.365 231.929C289.912 233.916 321.68 233.419 321.68 233.419C321.68 233.419 314.234 228.949 317.709 219.513C321.184 210.076 301.328 214.546 301.328 214.546Z" fill="black"/>
<path d="M335.082 241.366C335.082 241.366 332.104 225.969 326.147 226.963C320.191 227.956 308.278 228.949 306.789 229.943C305.299 230.936 297.357 232.971 297.357 232.971C297.357 232.971 300.336 229.446 297.357 228.949C294.379 228.453 284.948 230.936 283.955 232.922C282.962 234.909 278.991 238.882 278.991 245.835C278.991 252.789 276.013 264.708 277.006 269.675C277.998 274.642 276.509 286.065 273.531 292.521C270.553 298.978 273.035 305.434 277.998 298.978C282.962 292.521 280.48 298.978 284.451 299.474C288.422 299.971 306.292 281.595 311.256 286.065C316.22 290.535 321.184 293.514 322.176 291.031C323.169 288.548 318.205 284.078 318.205 282.091C318.205 280.105 310.263 288.548 318.702 271.165C327.14 253.782 319.198 248.815 335.082 241.366Z" fill="#F13F00"/>
<path d="M331.111 240.372L335.082 241.366C335.082 241.366 349.477 230.936 353.449 223.486C357.42 216.036 360.398 210.076 360.398 210.076C360.398 210.076 353.945 202.13 349.974 205.11C346.003 208.09 328.133 228.452 328.133 228.452L331.111 240.372Z" fill="#F13F00"/>
<path d="M312.745 224.976C321.244 224.976 328.133 218.083 328.133 209.58C328.133 201.077 321.244 194.183 312.745 194.183C304.247 194.183 297.357 201.077 297.357 209.58C297.357 218.083 304.247 224.976 312.745 224.976Z" fill="#A0616A"/>
<path d="M299.133 205.119C301.762 202.937 305.12 201.832 308.531 202.027C314.43 202.39 319.622 206.595 325.53 206.727C325.294 205.449 325.472 204.128 326.038 202.959C326.496 202.019 327.219 201.109 327.122 200.068C326.96 199.242 326.508 198.501 325.848 197.98C322.433 194.74 317.711 193.07 313.009 192.864C309.857 192.726 303.84 192.801 301.395 195.189C299.303 197.233 299.547 202.471 299.133 205.119Z" fill="#2F2E41"/>
<path d="M331.991 126.032C349.808 126.032 364.252 111.58 364.252 93.7534C364.252 75.9264 349.808 61.4747 331.991 61.4747C314.174 61.4747 299.73 75.9264 299.73 93.7534C299.73 111.58 314.174 126.032 331.991 126.032Z" fill="#F13F00"/>
<path d="M324.108 85.6453C325.817 85.6453 327.202 83.8302 327.202 81.5912C327.202 79.3522 325.817 77.5371 324.108 77.5371C322.399 77.5371 321.014 79.3522 321.014 81.5912C321.014 83.8302 322.399 85.6453 324.108 85.6453Z" fill="#444053"/>
<path d="M340.094 85.6453C341.803 85.6453 343.188 83.8302 343.188 81.5912C343.188 79.3522 341.803 77.5371 340.094 77.5371C338.386 77.5371 337 79.3522 337 81.5912C337 83.8302 338.386 85.6453 340.094 85.6453Z" fill="#444053"/>
<path d="M351.329 94.3431C351.329 100.165 341.612 109.97 331.807 109.97C322.001 109.97 312.653 99.9434 312.653 94.122C312.653 88.3005 321.799 93.6244 331.604 93.6244C341.41 93.6244 351.329 88.5217 351.329 94.3431Z" fill="#3F3D56"/>
<path d="M315.743 95.3383C315.743 95.3383 333.368 99.2633 348.176 95.4488C348.176 95.4488 349.988 95.4488 348.75 97.5451C348.427 98.0887 347.956 98.5293 347.392 98.8156C344.538 100.275 333.973 104.587 317.079 99.0871C316.557 98.9222 316.083 98.6307 315.701 98.2385C315.318 97.8463 315.038 97.3656 314.886 96.8391C314.687 96.1194 314.773 95.4377 315.743 95.3383Z" fill="#F6F8FB"/>
</svg>
