<svg width="100" height="100" viewBox="0 0 100 100" fill="none" xmlns="http://www.w3.org/2000/svg">
<circle cx="50" cy="50" r="44" fill="#F13F00" fill-opacity="0.8"/>
<path d="M0 50C0 63.2608 5.26784 75.9785 14.6447 85.3553C19.2876 89.9983 24.7995 93.6812 30.8658 96.194C36.9321 98.7067 43.4339 100 50 100C63.2608 100 75.9785 94.7322 85.3553 85.3553C94.7322 75.9785 100 63.2608 100 50C100 43.4339 98.7067 36.9321 96.194 30.8658C93.6812 24.7995 89.9983 19.2876 85.3553 14.6447C80.7124 10.0017 75.2005 6.31876 69.1342 3.80602C63.0679 1.29329 56.5661 0 50 0C43.4339 0 36.9321 1.29329 30.8658 3.80602C24.7995 6.31876 19.2876 10.0017 14.6447 14.6447C5.26784 24.0215 0 36.7392 0 50ZM10 50C10 39.3913 14.2143 29.2172 21.7157 21.7157C29.2172 14.2143 39.3913 10 50 10C60.6087 10 70.7828 14.2143 78.2843 21.7157C85.7857 29.2172 90 39.3913 90 50C90 60.6087 85.7857 70.7828 78.2843 78.2843C70.7828 85.7857 60.6087 90 50 90C39.3913 90 29.2172 85.7857 21.7157 78.2843C14.2143 70.7828 10 60.6087 10 50ZM40 75L65 50L40 25V75Z" fill="white"/>
<path fill-rule="evenodd" clip-rule="evenodd" d="M77.813 70C77.4649 70 77.1311 70.158 76.885 70.4393C76.6388 70.7206 76.5005 71.1022 76.5005 71.5V87C76.5008 87.198 76.4497 87.3917 76.3536 87.5565C76.2574 87.7213 76.1207 87.8497 75.9606 87.9256C75.8005 88.0014 75.6243 88.0212 75.4544 87.9825C75.2845 87.9437 75.1284 87.8482 75.006 87.708L70.7885 82.886C70.6324 82.7081 70.4248 82.6015 70.2047 82.5862C69.9846 82.571 69.7672 82.648 69.5934 82.803C69.4195 82.958 69.3012 83.1802 69.2605 83.4278C69.2199 83.6755 69.2598 83.9316 69.3728 84.148L73.7688 92.518L75.9248 97.448C75.9975 97.6139 76.1092 97.7534 76.2474 97.8509C76.3855 97.9484 76.5447 98 76.707 98H87.7355C87.8898 97.9999 88.0412 97.9533 88.1746 97.8648C88.308 97.7763 88.4185 97.6491 88.495 97.496L90.9363 92.612C91.2408 92.0031 91.4298 91.3278 91.491 90.63L91.967 85.2C91.9915 84.9219 91.9647 84.641 91.8883 84.3755C91.8119 84.1099 91.6877 83.8656 91.5236 83.6584C91.3596 83.4511 91.1593 83.2854 90.9358 83.172C90.7122 83.0586 90.4704 83 90.2258 83H89.6255V85C89.6255 85.2652 89.5333 85.5196 89.3692 85.7071C89.2052 85.8946 88.9826 86 88.7505 86C88.5185 86 88.2959 85.8946 88.1318 85.7071C87.9677 85.5196 87.8755 85.2652 87.8755 85V82.308C87.7648 82.1295 87.6481 81.9561 87.5255 81.788C87.1983 81.344 86.8815 81.022 86.675 80.928C86.458 80.828 85.989 80.802 85.436 80.85C85.3741 80.8559 85.3123 80.8626 85.2505 80.87V84C85.2505 84.2652 85.1583 84.5196 84.9942 84.7071C84.8302 84.8946 84.6076 85 84.3755 85C84.1435 85 83.9209 84.8946 83.7568 84.7071C83.5927 84.5196 83.5005 84.2652 83.5005 84V79.972C83.5005 79.638 83.3728 79.428 83.238 79.344C82.9937 79.1795 82.7295 79.0569 82.454 78.98C82.1408 78.91 81.579 78.9 81.026 78.926L80.8755 78.934V84C80.8755 84.2652 80.7833 84.5196 80.6192 84.7071C80.4552 84.8946 80.2326 85 80.0005 85C79.7685 85 79.5459 84.8946 79.3818 84.7071C79.2177 84.5196 79.1255 84.2652 79.1255 84V71.5C79.1255 71.1022 78.9872 70.7206 78.7411 70.4393C78.495 70.158 78.1611 70 77.813 70ZM80.8755 76.932V71.5C80.8755 70.5717 80.5529 69.6815 79.9785 69.0251C79.4042 68.3687 78.6253 68 77.813 68C77.0008 68 76.2218 68.3687 75.6475 69.0251C75.0732 69.6815 74.7505 70.5717 74.7505 71.5V84.586L72.0258 81.472C71.5673 80.951 70.9583 80.639 70.3129 80.5947C69.6675 80.5504 69.0301 80.7769 68.5204 81.2315C68.0107 81.6861 67.6637 82.3377 67.5445 83.0639C67.4253 83.7902 67.5421 84.5412 67.873 85.176L72.2323 93.482L74.3585 98.342C74.5766 98.8404 74.9119 99.2595 75.3267 99.5523C75.7415 99.8451 76.2195 100 76.707 100H87.7355C88.1982 99.9998 88.6527 99.8599 89.0528 99.5944C89.4529 99.3288 89.7845 98.9472 90.014 98.488L92.4553 93.606C92.8821 92.7526 93.1468 91.8061 93.2323 90.828L93.7083 85.398C93.7569 84.8419 93.7031 84.2804 93.5502 83.7496C93.3974 83.2187 93.1489 82.7304 92.8208 82.316C92.4927 81.9017 92.0922 81.5705 91.6453 81.3438C91.1983 81.1171 90.7148 81 90.2258 81H89.2073C89.098 80.8307 88.9842 80.6653 88.866 80.504C88.5318 80.046 87.9735 79.368 87.326 79.072C86.689 78.78 85.8455 78.808 85.2995 78.856L85.0685 78.88C84.8822 78.3349 84.5357 77.881 84.0885 77.596C83.6859 77.3307 83.2505 77.1365 82.797 77.02C82.2545 76.896 81.5038 76.904 80.9595 76.928L80.8755 76.932Z" fill="black"/>
<path d="M77.813 70C77.4649 70 77.1311 70.158 76.885 70.4393C76.6388 70.7206 76.5005 71.1022 76.5005 71.5V87C76.5008 87.198 76.4497 87.3917 76.3536 87.5565C76.2574 87.7213 76.1207 87.8497 75.9606 87.9256C75.8005 88.0014 75.6243 88.0212 75.4544 87.9825C75.2845 87.9437 75.1284 87.8482 75.006 87.708L70.7885 82.886C70.6324 82.7081 70.4248 82.6015 70.2047 82.5862C69.9846 82.571 69.7672 82.648 69.5934 82.803C69.4195 82.958 69.3012 83.1802 69.2605 83.4278C69.2199 83.6755 69.2598 83.9316 69.3728 84.148L73.7688 92.518L75.9248 97.448C75.9975 97.6139 76.1092 97.7534 76.2474 97.8509C76.3855 97.9484 76.5447 98 76.707 98H87.7355C87.8898 97.9999 88.0412 97.9533 88.1746 97.8648C88.308 97.7763 88.4185 97.6491 88.495 97.496L90.9363 92.612C91.2408 92.0031 91.4298 91.3278 91.491 90.63L91.967 85.2C91.9915 84.9219 91.9647 84.641 91.8883 84.3755C91.8119 84.1099 91.6877 83.8656 91.5236 83.6584C91.3596 83.4511 91.1593 83.2854 90.9358 83.172C90.7122 83.0586 90.4704 83 90.2258 83H89.6255V85C89.6255 85.2652 89.5333 85.5196 89.3692 85.7071C89.2052 85.8946 88.9826 86 88.7505 86C88.5185 86 88.2959 85.8946 88.1318 85.7071C87.9677 85.5196 87.8755 85.2652 87.8755 85V82.308C87.7648 82.1295 87.6481 81.9561 87.5255 81.788C87.1983 81.344 86.8815 81.022 86.675 80.928C86.458 80.828 85.989 80.802 85.436 80.85C85.3741 80.8559 85.3123 80.8626 85.2505 80.87V84C85.2505 84.2652 85.1583 84.5196 84.9942 84.7071C84.8302 84.8946 84.6076 85 84.3755 85C84.1435 85 83.9209 84.8946 83.7568 84.7071C83.5927 84.5196 83.5005 84.2652 83.5005 84V79.972C83.5005 79.638 83.3728 79.428 83.238 79.344C82.9937 79.1795 82.7295 79.0569 82.454 78.98C82.1408 78.91 81.579 78.9 81.026 78.926L80.8755 78.934V84C80.8755 84.2652 80.7833 84.5196 80.6192 84.7071C80.4552 84.8946 80.2326 85 80.0005 85C79.7685 85 79.5459 84.8946 79.3818 84.7071C79.2177 84.5196 79.1255 84.2652 79.1255 84V71.5C79.1255 71.1022 78.9872 70.7206 78.7411 70.4393C78.495 70.158 78.1611 70 77.813 70Z" fill="white"/>
</svg>
