<svg width="140" height="85" viewBox="0 0 140 85" fill="none" xmlns="http://www.w3.org/2000/svg">
<path d="M135.836 77.1538C135.205 77.3653 134.528 77.4183 133.869 77.3077C133.211 77.197 132.594 76.9265 132.077 76.5221C130.76 75.4677 130.347 73.7312 130.011 72.1229L129.018 67.3657L131.098 68.7321C132.594 69.7146 134.123 70.7288 135.159 72.152C136.194 73.5752 136.646 75.5182 135.814 77.0582" fill="#E6E6E6"/>
<path d="M135.514 83.2444C135.776 81.4248 136.045 79.5817 135.861 77.7425C135.698 76.1092 135.175 74.5141 134.112 73.2057C133.548 72.5127 132.861 71.9189 132.083 71.4511C131.88 71.3289 131.693 71.6357 131.895 71.7574C133.242 72.5693 134.283 73.7684 134.87 75.1816C135.517 76.7531 135.621 78.4663 135.51 80.1357C135.442 81.1453 135.299 82.1482 135.155 83.1499C135.144 83.1952 135.151 83.243 135.175 83.2835C135.199 83.324 135.238 83.3542 135.285 83.3681C135.333 83.3803 135.383 83.3742 135.426 83.351C135.469 83.3278 135.5 83.2894 135.514 83.2442L135.514 83.2444Z" fill="#F2F2F2"/>
<path d="M133.63 80.3246C133.359 80.717 132.988 81.0362 132.55 81.2516C132.113 81.467 131.625 81.5713 131.133 81.5545C129.869 81.4973 128.815 80.6558 127.867 79.8566L125.062 77.4932L126.918 77.4085C128.253 77.3474 129.623 77.2902 130.895 77.6835C132.167 78.0768 133.34 79.0219 133.572 80.278" fill="#E6E6E6"/>
<path d="M136.254 84.2903C134.994 82.1627 133.532 79.7982 130.92 79.0424C130.194 78.833 129.432 78.758 128.677 78.8214C128.438 78.841 128.498 79.1913 128.736 79.1718C130.002 79.0714 131.267 79.3906 132.316 80.0755C133.325 80.7311 134.111 81.6426 134.777 82.6091C135.184 83.2013 135.549 83.8184 135.914 84.4348C136.031 84.6318 136.372 84.4895 136.254 84.2903Z" fill="#F2F2F2"/>
<path d="M86.1514 2.52917H0.64209V41.2425H86.1514V2.52917Z" fill="#E6E6E6"/>
<path d="M83.706 5.84888H3.08691V38.1486H83.706V5.84888Z" fill="white"/>
<path d="M86.1148 0.29248H0.605469V3.75844H86.1148V0.29248Z" fill="#F13F00"/>
<path d="M3.30514 2.97292C3.677 2.97292 3.97845 2.6853 3.97845 2.33051C3.97845 1.97572 3.677 1.68811 3.30514 1.68811C2.93329 1.68811 2.63184 1.97572 2.63184 2.33051C2.63184 2.6853 2.93329 2.97292 3.30514 2.97292Z" fill="white"/>
<path d="M5.8608 2.97292C6.23266 2.97292 6.53411 2.6853 6.53411 2.33051C6.53411 1.97572 6.23266 1.68811 5.8608 1.68811C5.48895 1.68811 5.1875 1.97572 5.1875 2.33051C5.1875 2.6853 5.48895 2.97292 5.8608 2.97292Z" fill="white"/>
<path d="M8.41647 2.97292C8.78833 2.97292 9.08978 2.6853 9.08978 2.33051C9.08978 1.97572 8.78833 1.68811 8.41647 1.68811C8.04461 1.68811 7.74316 1.97572 7.74316 2.33051C7.74316 2.6853 8.04461 2.97292 8.41647 2.97292Z" fill="white"/>
<path d="M79.7491 31.607H39.776C39.7428 31.607 39.711 31.5944 39.6875 31.572C39.6641 31.5496 39.6509 31.5193 39.6509 31.4876V13.2079C39.6509 13.1762 39.6641 13.1458 39.6875 13.1235C39.711 13.1011 39.7428 13.0885 39.776 13.0885C39.8092 13.0885 39.841 13.1011 39.8644 13.1235C39.8879 13.1458 39.9011 13.1762 39.9011 13.2079V31.3683H79.7491C79.7823 31.3683 79.8141 31.3808 79.8376 31.4032C79.861 31.4256 79.8742 31.456 79.8742 31.4876C79.8742 31.5193 79.861 31.5496 79.8376 31.572C79.8141 31.5944 79.7823 31.607 79.7491 31.607V31.607Z" fill="#3F3D56"/>
<path d="M48.3166 30.2941H44.6809C44.5825 30.294 44.4881 30.2566 44.4185 30.1902C44.3488 30.1238 44.3097 30.0337 44.3096 29.9398V25.158C44.3097 25.0641 44.3488 24.974 44.4185 24.9076C44.4881 24.8412 44.5825 24.8038 44.6809 24.8037H48.3166C48.4151 24.8038 48.5094 24.8412 48.5791 24.9076C48.6487 24.974 48.6878 25.0641 48.688 25.158V29.9398C48.6878 30.0337 48.6487 30.1238 48.5791 30.1902C48.5094 30.2566 48.4151 30.294 48.3166 30.2941Z" fill="#F13F00"/>
<path d="M54.946 30.2941H51.3103C51.2119 30.294 51.1175 30.2566 51.0479 30.1902C50.9782 30.1238 50.9391 30.0337 50.939 29.9398V20.6225C50.9391 20.5285 50.9782 20.4385 51.0479 20.3721C51.1175 20.3057 51.2119 20.2683 51.3103 20.2682H54.946C55.0445 20.2683 55.1389 20.3057 55.2085 20.3721C55.2781 20.4385 55.3173 20.5285 55.3174 20.6225V29.9398C55.3173 30.0337 55.2781 30.1238 55.2085 30.1902C55.1389 30.2566 55.0445 30.294 54.946 30.2941Z" fill="#F13F00"/>
<path d="M61.5764 30.2941H57.9407C57.8422 30.294 57.7479 30.2566 57.6782 30.1902C57.6086 30.1238 57.5695 30.0337 57.5693 29.9398V25.158C57.5695 25.0641 57.6086 24.974 57.6782 24.9076C57.7479 24.8412 57.8422 24.8038 57.9407 24.8037H61.5764C61.6748 24.8038 61.7692 24.8412 61.8389 24.9076C61.9085 24.974 61.9476 25.0641 61.9478 25.158V29.9398C61.9476 30.0337 61.9085 30.1238 61.8389 30.1902C61.7692 30.2566 61.6748 30.294 61.5764 30.2941Z" fill="#F13F00"/>
<path d="M68.2068 30.294H64.5711C64.4749 30.296 64.3817 30.2615 64.3121 30.1981C64.2425 30.1347 64.2021 30.0475 64.1997 29.9558V18.816C64.2021 18.7242 64.2425 18.6371 64.3121 18.5737C64.3817 18.5103 64.4749 18.4758 64.5711 18.4777H68.2068C68.303 18.4758 68.3961 18.5103 68.4657 18.5737C68.5353 18.6371 68.5757 18.7242 68.5781 18.816V29.9558C68.5757 30.0475 68.5353 30.1347 68.4657 30.1981C68.3961 30.2615 68.303 30.296 68.2068 30.294Z" fill="#F13F00"/>
<path d="M74.8371 30.294H71.2014C71.103 30.2939 71.0086 30.2565 70.939 30.1901C70.8694 30.1237 70.8302 30.0336 70.8301 29.9397V15.6094C70.8302 15.5155 70.8694 15.4254 70.939 15.359C71.0086 15.2926 71.103 15.2552 71.2014 15.2551H74.8371C74.9356 15.2552 75.03 15.2926 75.0996 15.359C75.1692 15.4254 75.2084 15.5155 75.2085 15.6094V29.9397C75.2084 30.0336 75.1692 30.1237 75.0996 30.1901C75.03 30.2565 74.9356 30.2939 74.8371 30.294Z" fill="#F13F00"/>
<path d="M46.4981 23.3714C46.9127 23.3714 47.2487 23.0507 47.2487 22.6552C47.2487 22.2597 46.9127 21.9391 46.4981 21.9391C46.0836 21.9391 45.7476 22.2597 45.7476 22.6552C45.7476 23.0507 46.0836 23.3714 46.4981 23.3714Z" fill="#3F3D56"/>
<path d="M53.129 18.7164C53.5436 18.7164 53.8796 18.3958 53.8796 18.0003C53.8796 17.6048 53.5436 17.2842 53.129 17.2842C52.7145 17.2842 52.3784 17.6048 52.3784 18.0003C52.3784 18.3958 52.7145 18.7164 53.129 18.7164Z" fill="#3F3D56"/>
<path d="M59.7584 23.3714C60.1729 23.3714 60.509 23.0507 60.509 22.6552C60.509 22.2597 60.1729 21.9391 59.7584 21.9391C59.3439 21.9391 59.0078 22.2597 59.0078 22.6552C59.0078 23.0507 59.3439 23.3714 59.7584 23.3714Z" fill="#3F3D56"/>
<path d="M66.3888 16.4486C66.8033 16.4486 67.1393 16.128 67.1393 15.7325C67.1393 15.337 66.8033 15.0164 66.3888 15.0164C65.9742 15.0164 65.6382 15.337 65.6382 15.7325C65.6382 16.128 65.9742 16.4486 66.3888 16.4486Z" fill="#3F3D56"/>
<path d="M73.0191 13.8229C73.4337 13.8229 73.7697 13.5023 73.7697 13.1068C73.7697 12.7113 73.4337 12.3906 73.0191 12.3906C72.6046 12.3906 72.2686 12.7113 72.2686 13.1068C72.2686 13.5023 72.6046 13.8229 73.0191 13.8229Z" fill="#3F3D56"/>
<path d="M59.7745 22.8158L53.1286 18.0663L46.5733 22.7509L46.4233 22.5598L53.1286 17.768L59.7428 22.4949L66.3158 15.6322L66.3422 15.6219L72.9723 13.0731L73.0659 13.2946L66.4621 15.8331L59.7745 22.8158Z" fill="#3F3D56"/>
<path d="M23.5544 9.79688H12.2002V10.6111H23.5544V9.79688Z" fill="#E6E6E6"/>
<path d="M29.7336 12.187H12.2002V13.0012H29.7336V12.187Z" fill="#F13F00"/>
<path d="M26.6721 14.4636H12.3828V15.2779H26.6721V14.4636Z" fill="#E6E6E6"/>
<path d="M20.5421 16.9614H12.2002V17.7757H20.5421V16.9614Z" fill="#E6E6E6"/>
<path d="M24.7902 19.4012H12.2002V20.2155H24.7902V19.4012Z" fill="#F13F00"/>
<path d="M8.41571 9.54077H7.02539V10.8673H8.41571V9.54077Z" fill="#E6E6E6"/>
<path d="M8.41571 11.931H7.02539V13.2575H8.41571V11.931Z" fill="#F13F00"/>
<path d="M8.41571 14.2074H7.02539V15.5339H8.41571V14.2074Z" fill="#E6E6E6"/>
<path d="M8.41571 16.7053H7.02539V18.0318H8.41571V16.7053Z" fill="#E6E6E6"/>
<path d="M8.41571 19.1451H7.02539V20.4716H8.41571V19.1451Z" fill="#F13F00"/>
<path d="M23.5544 21.8564H12.2002V22.6707H23.5544V21.8564Z" fill="#E6E6E6"/>
<path d="M29.7336 24.2467H12.2002V25.0609H29.7336V24.2467Z" fill="#F13F00"/>
<path d="M26.6721 26.5232H12.3828V27.3374H26.6721V26.5232Z" fill="#E6E6E6"/>
<path d="M20.5421 29.0209H12.2002V29.8351H20.5421V29.0209Z" fill="#E6E6E6"/>
<path d="M24.7902 31.4608H12.2002V32.275H24.7902V31.4608Z" fill="#E6E6E6"/>
<path d="M8.41571 21.6002H7.02539V22.9267H8.41571V21.6002Z" fill="#E6E6E6"/>
<path d="M8.41571 23.9906H7.02539V25.3171H8.41571V23.9906Z" fill="#F13F00"/>
<path d="M8.41571 26.2671H7.02539V27.5936H8.41571V26.2671Z" fill="#E6E6E6"/>
<path d="M8.41571 28.765H7.02539V30.0915H8.41571V28.765Z" fill="#E6E6E6"/>
<path d="M8.41571 31.2047H7.02539V32.5312H8.41571V31.2047Z" fill="#E6E6E6"/>
<path d="M104.386 25.2625C104.864 23.8083 105.952 22.4745 107.456 21.9829C108.96 21.4913 111.584 21.9508 112.293 23.3154C113.315 25.2821 112.856 27.6905 112.314 29.8259C112.031 29.8116 111.746 29.8004 111.46 29.7902L111.055 28.5032V29.7775C108.822 29.7117 106.498 29.7529 104.171 29.7955C103.963 28.2838 103.907 26.7167 104.386 25.2625Z" fill="#2F2E41"/>
<path d="M124.904 80.6757L123.026 81.4267L119.095 74.8714L121.868 73.7628L124.904 80.6757Z" fill="#FFB7B7"/>
<path d="M126.146 82.2215L120.09 84.6433L120.058 84.5702C119.796 83.9737 119.793 83.3023 120.049 82.7037C120.306 82.1051 120.802 81.6283 121.427 81.3783L121.427 81.3782L125.126 79.899L126.146 82.2215Z" fill="#2F2E41"/>
<path d="M97.3573 49.7096C97.24 49.5481 97.1612 49.3639 97.1265 49.1702C97.0919 48.9764 97.1022 48.7778 97.1567 48.5882C97.2112 48.3987 97.3086 48.2228 97.442 48.0731C97.5754 47.9233 97.7417 47.8033 97.929 47.7215L101.966 36.0978L104.67 37.4737L99.8514 48.4668C99.9746 48.7762 99.9746 49.1179 99.8514 49.4272C99.7282 49.7365 99.4904 49.992 99.1829 50.1452C98.8755 50.2984 98.5198 50.3387 98.1834 50.2584C97.8469 50.1781 97.553 49.9828 97.3573 49.7096V49.7096Z" fill="#FFB7B7"/>
<path d="M102.335 82.7597L100.298 82.7595L99.3296 75.2642L102.336 75.2643L102.335 82.7597Z" fill="#FFB7B7"/>
<path d="M102.855 84.6432L96.2876 84.6429V84.5637C96.2876 83.9169 96.557 83.2966 97.0363 82.8392C97.5157 82.3819 98.1658 82.1249 98.8437 82.1249H98.8439L102.855 82.125L102.855 84.6432Z" fill="#2F2E41"/>
<path d="M110.501 40.1276L110.963 41.2724L110.87 42.4172L102.01 41.3606L102.287 40.3919L103.302 39.2471L110.501 40.1276Z" fill="#FFB7B7"/>
<path d="M107.646 29.8254C109.427 29.8254 110.872 28.4474 110.872 26.7476C110.872 25.0478 109.427 23.6698 107.646 23.6698C105.864 23.6698 104.42 25.0478 104.42 26.7476C104.42 28.4474 105.864 29.8254 107.646 29.8254Z" fill="#FFB8B8"/>
<path d="M111.012 41.3544L102.225 40.4627L101.845 39.2749C101.726 39.1202 100.611 37.6122 100.858 36.1047C100.92 35.7495 101.057 35.4102 101.261 35.1078C101.466 34.8053 101.733 34.5463 102.047 34.3466L104.184 31.9601L106.063 30.8927L109.768 30.5393L109.781 30.542L113.107 31.2601L113.066 37.0774L111.012 41.3544Z" fill="#CCCCCC"/>
<path d="M102.447 41.971L99.9849 41.6921L99.9913 41.6184C100.014 41.359 100.552 35.2511 101.104 33.8483C101.667 32.4152 104.107 31.9688 104.21 31.9506L104.24 31.9453L104.782 32.2557L103.286 36.7166L102.447 41.971Z" fill="#CCCCCC"/>
<path d="M110.963 41.9767V43.9328C110.963 43.9328 113.363 46.9081 112.07 49.1978C112.07 49.1978 114.839 54.1292 115.024 55.8905L117.608 63.9922C117.608 63.9922 124.069 70.1565 123.515 74.5596L123.885 75.9686L119.639 77.7299L118.716 76.497L111.517 64.6967L105.425 53.9531L104.317 66.6341C104.317 66.6341 105.056 76.497 103.025 77.5538L102.841 79.1389H98.5317V77.6321C98.5317 77.6321 96.9335 72.27 97.8565 68.2192L97.4873 51.1351C97.4873 51.1351 99.1487 43.914 101.179 42.6812L101.918 40.9199L110.963 41.9767Z" fill="#2F2E41"/>
<path d="M107.894 46.0211C107.968 46.0371 108.041 46.0586 108.112 46.0855L113.744 42.387L113.615 40.8071L116.089 40.3099L116.602 43.0857C116.643 43.3099 116.607 43.5409 116.499 43.744C116.391 43.9471 116.217 44.1114 116.003 44.2121L109.027 47.4945C109.001 47.7737 108.886 48.0387 108.698 48.2541C108.51 48.4694 108.257 48.6251 107.974 48.7003C107.691 48.7755 107.391 48.7666 107.113 48.675C106.835 48.5833 106.594 48.4132 106.42 48.1871C106.246 47.9611 106.148 47.6899 106.14 47.4097C106.131 47.1294 106.213 46.8534 106.373 46.6182C106.533 46.3831 106.764 46.2 107.036 46.0933C107.307 45.9867 107.607 45.9615 107.894 46.0211L107.894 46.0211Z" fill="#FFB7B7"/>
<path d="M113.691 42.5912L112.545 35.2955L111.604 31.5266L113.01 31.2463C113.048 31.2327 114.193 30.8636 115.117 31.458C115.782 31.8858 116.15 32.6978 116.212 33.8713L116.584 42.2196L113.691 42.5912Z" fill="#CCCCCC"/>
<path d="M105.429 22.7397C106.049 22.3792 106.759 22.1841 107.485 22.175C108.211 22.1659 108.926 22.343 109.555 22.6878C110.185 23.0326 110.706 23.5325 111.064 24.1351C111.421 24.7377 111.603 25.421 111.589 26.1135C109.786 26.1926 107.892 26.2132 105.971 26.2168L105.517 25.1568L105.25 26.2176C104.664 26.2175 104.078 26.2168 103.491 26.2154C103.467 25.5248 103.633 24.8404 103.973 24.2305C104.313 23.6205 104.815 23.1065 105.429 22.7397Z" fill="#2F2E41"/>
<path d="M139.234 84.8293H77.9864C77.9438 84.8293 77.9029 84.8132 77.8728 84.7844C77.8426 84.7556 77.8257 84.7166 77.8257 84.676C77.8257 84.6353 77.8426 84.5963 77.8728 84.5675C77.9029 84.5387 77.9438 84.5226 77.9864 84.5226H139.234C139.277 84.5226 139.318 84.5387 139.348 84.5675C139.378 84.5963 139.395 84.6353 139.395 84.676C139.395 84.7166 139.378 84.7556 139.348 84.7844C139.318 84.8132 139.277 84.8293 139.234 84.8293Z" fill="#CBCBCB"/>
</svg>
