<svg width="117" height="98" viewBox="0 0 117 98" fill="none" xmlns="http://www.w3.org/2000/svg">
<path opacity="0.1" d="M94.3003 92.4702C102.493 92.4702 109.135 91.3801 109.135 90.0354C109.135 88.6908 102.493 87.6007 94.3003 87.6007C86.1075 87.6007 79.4658 88.6908 79.4658 90.0354C79.4658 91.3801 86.1075 92.4702 94.3003 92.4702Z" fill="#F13F00"/>
<path opacity="0.1" d="M49.3851 89.1366C61.5145 89.1366 71.3474 88.4729 71.3474 87.6543C71.3474 86.8356 61.5145 86.172 49.3851 86.172C37.2557 86.172 27.4229 86.8356 27.4229 87.6543C27.4229 88.4729 37.2557 89.1366 49.3851 89.1366Z" fill="#F13F00"/>
<path opacity="0.1" d="M36.1512 4.03845C40.0845 0.694102 46.2589 0.0130888 51.8742 0.279779C69.5239 1.11319 85.4553 9.24605 99.2366 18.4409C104.228 21.7745 109.137 25.357 112.375 29.9419C118.968 39.2737 117.012 52.2058 107.846 59.8887C104.726 62.5079 100.946 64.5093 97.0641 66.2868C90.1634 69.4478 82.7137 71.985 74.8847 72.7065C69.2993 73.222 63.644 72.8029 58.091 72.085C42.5777 70.0777 27.3501 65.638 14.5895 58.0433C8.99166 54.7096 3.71448 50.5712 1.40719 45.185C-0.900091 39.7988 0.57737 32.9672 6.29255 29.7776C8.66348 28.4585 11.4836 27.8632 14.2514 27.3036C18.3244 26.4797 22.4635 25.6678 26.1397 23.9938C29.9382 22.2627 34.4305 18.9183 33.6817 15.0918C32.8706 10.9831 32.223 7.37803 36.1512 4.03845Z" fill="#F13F00"/>
<g opacity="0.1">
<path opacity="0.1" d="M51.0036 77.1796C51.4827 77.957 52.234 78.4583 53.08 78.4583C54.525 78.4583 55.7005 76.9974 55.7005 75.1937C55.7005 73.39 54.5213 71.941 53.08 71.941C52.3999 71.941 51.7797 72.2649 51.3143 72.797C51.1378 73.0006 50.9882 73.2242 50.8688 73.4626L50.8438 73.6043C50.8438 73.6043 50.286 74.0591 49.5261 73.6412V63.0664H38.7047C38.6172 62.957 38.5594 62.8287 38.5366 62.6928C38.5137 62.557 38.5264 62.4178 38.5737 62.2878C38.6545 62.0461 38.829 61.8429 39.0616 61.7199C39.8764 61.2627 40.403 60.546 40.403 59.7387C40.403 58.3601 38.8707 57.2385 36.9814 57.2385C35.0922 57.2385 33.5598 58.3565 33.5598 59.7387C33.5598 60.3876 33.9005 60.9805 34.4583 61.4246C34.6714 61.5924 34.9053 61.7347 35.1546 61.8485L35.1695 61.8723C35.3332 62.0233 35.4417 62.2205 35.4792 62.4348C35.5167 62.6491 35.4812 62.8692 35.3779 63.0628H30.4976V82.6455C30.4976 83.877 31.0103 85.058 31.923 85.9288C32.8356 86.7996 34.0735 87.2888 35.3642 87.2888H49.5299V76.8974C49.6453 76.7928 49.7888 76.7208 49.9445 76.6893C50.1003 76.6578 50.2621 76.668 50.4121 76.7188C50.6637 76.7947 50.8753 76.9596 51.0036 77.1796Z" fill="black"/>
<path opacity="0.1" d="M32.791 62.6541H34.4856C34.0736 62.3521 33.7391 61.9645 33.5075 61.5208C33.276 61.077 33.1534 60.5888 33.1491 60.0931C33.1491 58.237 34.8462 56.7333 36.9388 56.7333C39.0315 56.7333 40.7298 58.237 40.7298 60.0931C40.7255 60.5888 40.603 61.077 40.3714 61.5208C40.1398 61.9645 39.8054 62.3521 39.3934 62.6541H49.5509V52.221C49.667 52.1175 49.8105 52.0461 49.966 52.0147C50.1215 51.9832 50.283 51.9928 50.4331 52.0424C50.6871 52.1189 50.9007 52.2856 51.0296 52.5079C51.5076 53.2854 52.2588 53.7866 53.1061 53.7866C54.5511 53.7866 55.7265 52.3258 55.7265 50.5232C55.7265 48.7207 54.5561 47.2586 53.1061 47.2586C52.4247 47.2586 51.8045 47.5837 51.3391 48.1147C51.1631 48.3186 51.0136 48.5421 50.8936 48.7802L50.8699 48.7945C50.7026 48.9611 50.4809 49.0685 50.2412 49.099C50.0015 49.1295 49.7581 49.0813 49.5509 48.9624V38.39H39.1326C39.0451 38.2806 38.9873 38.1523 38.9644 38.0164C38.9416 37.8805 38.9543 37.7414 39.0015 37.6114C39.0818 37.3693 39.2565 37.166 39.4895 37.0434C40.3043 36.5875 40.8297 35.8695 40.8297 35.0623C40.8297 33.6836 39.2985 32.5621 37.4093 32.5621C35.52 32.5621 33.9877 33.68 33.9877 35.0623C33.9877 35.7124 34.3283 36.3041 34.8849 36.7482C35.0987 36.9161 35.3329 37.0588 35.5824 37.1732L35.5974 37.1958C35.761 37.3469 35.8696 37.5441 35.9071 37.7584C35.9446 37.9727 35.9091 38.1928 35.8058 38.3864H32.791V37.8507H35.0171C34.606 37.5491 34.2721 37.1623 34.0408 36.7194C33.8094 36.2765 33.6867 35.7893 33.6819 35.2945C33.6819 33.4384 35.379 31.9335 37.4729 31.9335C39.5668 31.9335 41.2627 33.4384 41.2627 35.2945C41.2577 35.7904 41.1343 36.2786 40.9018 36.7222C40.6694 37.1658 40.334 37.5529 39.9212 37.8542H49.5422V27.2938C49.658 27.1893 49.8017 27.1174 49.9576 27.0859C50.1135 27.0544 50.2754 27.0645 50.4257 27.1152C50.6791 27.1921 50.8921 27.3587 51.0209 27.5807C51.4988 28.3581 52.2513 28.8594 53.0973 28.8594C54.5423 28.8594 55.7178 27.3985 55.7178 25.5948C55.7178 23.7911 54.5473 22.3314 53.0973 22.3314C52.416 22.3314 51.7958 22.6553 51.3304 23.1874C51.1538 23.391 51.0042 23.6146 50.8849 23.853L50.8612 23.9947C50.8612 23.9947 50.3034 24.4495 49.5422 24.0316V14.1819H35.3828C34.0921 14.1819 32.8542 14.6711 31.9415 15.5419C31.0289 16.4126 30.5161 17.5937 30.5161 18.8252V23.8518H30.4425C30.3667 23.8518 30.294 23.8805 30.2404 23.9316C30.1868 23.9828 30.1567 24.0521 30.1567 24.1244V26.5056C30.1571 26.5778 30.1873 26.647 30.2408 26.698C30.2943 26.7491 30.3668 26.7779 30.4425 26.7782H30.5161V29.2094H30.42C30.3441 29.2094 30.2713 29.2381 30.2175 29.2892C30.1637 29.3403 30.1334 29.4096 30.133 29.4821V34.0289C30.1334 34.1013 30.1637 34.1707 30.2175 34.2218C30.2713 34.2728 30.3441 34.3015 30.42 34.3015H30.5161V36.0874H30.4375C30.3617 36.0874 30.289 36.1161 30.2355 36.1673C30.1819 36.2184 30.1518 36.2877 30.1518 36.3601V37.8245H30.0894V40.9105C30.0892 40.9463 30.0965 40.9818 30.1108 41.015C30.1251 41.0481 30.1461 41.0782 30.1727 41.1036C30.1993 41.1289 30.2308 41.149 30.2656 41.1627C30.3003 41.1763 30.3375 41.1833 30.3751 41.1831H30.46V62.6541H32.791Z" fill="black"/>
<path opacity="0.1" d="M69.8187 31.0445C69.8187 30.9721 69.7886 30.9026 69.7351 30.8513C69.6815 30.8 69.6088 30.771 69.5329 30.7707H69.3607V30.4718H69.2671V18.5958C69.2673 18.0094 69.1464 17.4288 68.9113 16.887C68.6762 16.3453 68.3315 15.853 67.8969 15.4384C67.4624 15.0238 66.9464 14.695 66.3786 14.4706C65.8108 14.2463 65.2022 14.1309 64.5877 14.1311H50.5493V23.1795C50.87 22.7735 51.2845 22.4435 51.7607 22.2154C52.2368 21.9872 52.7618 21.8669 53.2946 21.8639C55.255 21.8639 56.8447 23.4843 56.8447 25.4821C56.8447 27.4799 55.255 29.1003 53.2946 29.1003C52.7617 29.0975 52.2367 28.9773 51.7605 28.7491C51.2844 28.5209 50.8698 28.1909 50.5493 27.7847V37.8249H61.9048C61.4934 37.522 61.1595 37.1339 60.9284 36.6898C60.6973 36.2457 60.575 35.7573 60.5708 35.2616C60.5708 33.4031 62.2642 31.897 64.3543 31.897C65.2833 31.892 66.184 32.2017 66.8962 32.7709C67.2871 33.0689 67.6028 33.447 67.8197 33.8772C68.0366 34.3075 68.1492 34.7788 68.1492 35.2562C68.1492 35.7336 68.0366 36.2049 67.8197 36.6351C67.6028 37.0654 67.2871 37.4435 66.8962 37.7415V37.8213H69.3607V37.813H69.8187V31.0445Z" fill="black"/>
<path opacity="0.1" d="M66.0489 62.1199V60.9294C66.1004 60.8578 66.1474 60.7835 66.1899 60.7067C66.3571 60.4166 66.4454 60.0912 66.447 59.7602C66.4466 59.5395 66.4069 59.3205 66.3297 59.1125C66.2616 58.9273 66.1671 58.7518 66.0489 58.5911C65.4737 57.8017 64.3369 57.2635 63.0266 57.2635C61.1361 57.2635 59.605 58.3815 59.605 59.7638C59.605 60.4138 59.9457 61.0056 60.5022 61.4496C60.716 61.6175 60.9502 61.7602 61.1998 61.8747L61.2147 61.8973C61.3782 62.0485 61.4866 62.2456 61.5241 62.4599C61.5616 62.6741 61.5262 62.8942 61.4231 63.0879H50.4146V72.8507C50.7307 72.4471 51.1404 72.1189 51.6117 71.8916C52.083 71.6644 52.6031 71.5444 53.1311 71.541C55.0765 71.541 56.6526 73.1602 56.6526 75.1568C56.6526 77.1534 55.0765 78.7738 53.1311 78.7738C52.6031 78.7704 52.083 78.6504 51.6117 78.4232C51.1404 78.196 50.7307 77.8677 50.4146 77.4642V85.3446H63.0466C63.8416 85.3446 64.6041 85.0438 65.1669 84.5081C65.7298 83.9725 66.0469 83.2457 66.0489 82.4872V63.0915V82.4741C66.0489 83.2339 65.7326 83.9625 65.1696 84.4997C64.6065 85.0369 63.8429 85.3387 63.0466 85.3387H50.4146V87.2436H63.517C64.8077 87.2436 66.0456 86.7544 66.9583 85.8836C67.8709 85.0128 68.3837 83.8318 68.3837 82.6003V63.0915V62.5795H66.0489V62.1199Z" fill="black"/>
</g>
<path d="M35.9591 84.9016C35.1629 84.9016 34.3992 84.5998 33.8362 84.0626C33.2731 83.5254 32.9568 82.7968 32.9568 82.0371V62.5901H30.6221V82.1692C30.6221 83.4007 31.1348 84.5817 32.0475 85.4525C32.9601 86.3233 34.198 86.8125 35.4887 86.8125H49.6544V84.9076L35.9591 84.9016Z" fill="#3A3768"/>
<path d="M50.5276 76.2425C50.7814 76.3188 50.9947 76.4855 51.1228 76.708C51.602 77.4855 52.3532 77.9867 53.1993 77.9867C54.6443 77.9867 55.8198 76.5259 55.8198 74.7221C55.8198 72.9184 54.6455 71.4647 53.2043 71.4647C52.5242 71.4647 51.904 71.7886 51.4385 72.3207C51.262 72.5243 51.1124 72.7479 50.993 72.9863L50.9681 73.128C50.9681 73.128 50.4103 73.5828 49.6504 73.1649V62.5901H38.829C38.7414 62.4807 38.6837 62.3524 38.6608 62.2165C38.6379 62.0806 38.6507 61.9415 38.6979 61.8115C38.7788 61.5697 38.9533 61.3666 39.1858 61.2436C40.0007 60.7864 40.5273 60.0696 40.5273 59.2624C40.5273 57.8837 38.9949 56.7622 37.1057 56.7622C35.2164 56.7622 33.684 57.8802 33.684 59.2624C33.684 59.9113 34.0247 60.5042 34.5825 60.9483C34.7957 61.116 35.0295 61.2584 35.2788 61.3721L35.2938 61.396C35.4574 61.547 35.566 61.7442 35.6035 61.9585C35.641 62.1728 35.6055 62.3929 35.5022 62.5865H32.9565V82.0371C32.9565 82.7968 33.2729 83.5254 33.8359 84.0626C34.399 84.5998 35.1626 84.9016 35.9589 84.9016H49.6541V76.4211C49.7687 76.3181 49.9107 76.247 50.0647 76.2155C50.2187 76.184 50.3788 76.1933 50.5276 76.2425Z" fill="#F13F00"/>
<path d="M30.5811 37.3391H30.2104V37.9154H30.5811V37.3391Z" fill="#3A3768"/>
<path d="M32.9159 37.3391H30.8906V37.9154H32.9159V37.3391Z" fill="#3A3768"/>
<path d="M30.8905 37.3391H30.5811V37.9154H30.8905V37.3391Z" fill="#3A3768"/>
<path d="M30.496 40.6976H30.5809V37.9141H30.2065V40.425C30.2064 40.4612 30.2138 40.497 30.2283 40.5304C30.2428 40.5637 30.2642 40.594 30.2912 40.6194C30.3182 40.6448 30.3502 40.6648 30.3853 40.6783C30.4205 40.6917 30.4582 40.6983 30.496 40.6976Z" fill="#3A3768"/>
<path d="M32.9158 37.9141H30.8905V40.425C30.8905 40.4609 30.8831 40.4965 30.8687 40.5296C30.8542 40.5628 30.8331 40.5929 30.8064 40.6182C30.7797 40.6435 30.7481 40.6636 30.7133 40.6772C30.6784 40.6909 30.6411 40.6978 30.6035 40.6976H30.5811V62.1781H32.9158V37.9141Z" fill="#3A3768"/>
<path d="M30.5811 40.6976H30.6035C30.6411 40.6978 30.6784 40.6909 30.7133 40.6772C30.7481 40.6636 30.7797 40.6435 30.8064 40.6182C30.8331 40.5929 30.8542 40.5628 30.8687 40.5296C30.8831 40.4965 30.8905 40.4609 30.8905 40.425V37.9141H30.5811V40.6976Z" fill="#3A3768"/>
<path d="M33.2742 59.6124C33.2742 57.7563 34.9712 56.2526 37.0639 56.2526C39.1565 56.2526 40.8549 57.7563 40.8549 59.6124C40.8514 60.1089 40.7291 60.5981 40.4975 61.0427C40.2659 61.4873 39.9311 61.8757 39.5184 62.1781H49.676V51.7451C49.7921 51.6416 49.9356 51.5702 50.0911 51.5387C50.2465 51.5073 50.408 51.5169 50.5582 51.5665C50.8122 51.643 51.0257 51.8097 51.1547 52.032C51.6326 52.8095 52.3838 53.3107 53.2311 53.3107C54.6761 53.3107 55.8516 51.8498 55.8516 50.0473C55.8516 48.2448 54.6811 46.7827 53.2311 46.7827C52.5498 46.7827 51.9296 47.1078 51.4641 47.6388C51.2882 47.8427 51.1386 48.0662 51.0187 48.3043L50.995 48.3186C50.8277 48.4852 50.606 48.5926 50.3663 48.6231C50.1266 48.6536 49.8832 48.6054 49.676 48.4865V37.9141H39.2576C39.1701 37.8047 39.1123 37.6763 39.0895 37.5405C39.0666 37.4046 39.0794 37.2655 39.1266 37.1354C39.2069 36.8934 39.3815 36.6901 39.6145 36.5675C40.4294 36.1115 40.9547 35.3936 40.9547 34.5864C40.9547 33.2077 39.4236 32.0862 37.5343 32.0862C35.6451 32.0862 34.1127 33.2041 34.1127 34.5864C34.1127 35.2365 34.4534 35.8282 35.0099 36.2723C35.2237 36.4402 35.4579 36.5829 35.7075 36.6973L35.7224 36.7199C35.8861 36.871 35.9946 37.0682 36.0322 37.2825C36.0697 37.4968 36.0341 37.7169 35.9308 37.9105H32.916V62.1781H34.6106C34.198 61.8757 33.8631 61.4873 33.6315 61.0427C33.3999 60.5981 33.2777 60.1089 33.2742 59.6124Z" fill="#F13F00"/>
<path d="M30.9525 35.8354C30.9525 35.7995 30.9451 35.7639 30.9307 35.7308C30.9162 35.6976 30.8951 35.6675 30.8684 35.6422C30.8417 35.6168 30.8101 35.5968 30.7753 35.5832C30.7405 35.5695 30.7032 35.5626 30.6655 35.5627H30.6431V37.3391H30.9525V35.8354Z" fill="#3A3768"/>
<path d="M30.6323 23.3735H30.5699C30.5324 23.3735 30.4953 23.3806 30.4606 23.3943C30.4259 23.408 30.3944 23.4281 30.3679 23.4534C30.3413 23.4787 30.3203 23.5088 30.3059 23.5418C30.2916 23.5749 30.2842 23.6104 30.2842 23.6462V26.0273C30.2845 26.0995 30.3147 26.1687 30.3682 26.2198C30.4218 26.2708 30.4943 26.2997 30.5699 26.3H30.6436V23.3747L30.6323 23.3735Z" fill="#3A3768"/>
<path d="M30.5473 28.7288C30.4714 28.7288 30.3985 28.7574 30.3448 28.8085C30.291 28.8596 30.2606 28.929 30.2603 29.0014V33.5482C30.2606 33.6207 30.291 33.69 30.3448 33.7411C30.3985 33.7922 30.4714 33.8209 30.5473 33.8209H30.6433V28.7288H30.5473Z" fill="#3A3768"/>
<path d="M30.6432 35.6021H30.5621C30.4863 35.6021 30.4137 35.6308 30.3601 35.6819C30.3065 35.733 30.2764 35.8024 30.2764 35.8747V37.3784H30.6507L30.6432 35.6021Z" fill="#3A3768"/>
<path d="M30.6431 18.348V23.3747C30.7168 23.3771 30.7867 23.4068 30.8379 23.4575C30.8891 23.5081 30.9177 23.5757 30.9176 23.6461V26.0273C30.9174 26.0976 30.8887 26.165 30.8375 26.2156C30.7864 26.2662 30.7167 26.296 30.6431 26.2987V28.7299H30.6868C30.7243 28.7299 30.7615 28.7369 30.7961 28.7506C30.8308 28.7643 30.8623 28.7844 30.8889 28.8097C30.9154 28.8351 30.9364 28.8651 30.9508 28.8982C30.9652 28.9313 30.9726 28.9667 30.9726 29.0025V33.5494C30.9726 33.6217 30.9424 33.691 30.8889 33.7422C30.8353 33.7933 30.7626 33.822 30.6868 33.822H30.6406V35.6079H30.6631C30.739 35.6079 30.8118 35.6366 30.8656 35.6877C30.9194 35.7388 30.9498 35.8081 30.9501 35.8805V37.3783H32.9754V18.4837C32.9754 17.7242 33.2915 16.9958 33.8543 16.4586C34.4171 15.9215 35.1804 15.6195 35.9765 15.6192H40.0457V16.1169C40.0457 16.7424 40.3061 17.3423 40.7697 17.7846C41.2333 18.2269 41.8621 18.4754 42.5177 18.4754H49.6767V16.9181H46.3811C46.2536 16.9175 46.1315 16.8691 46.0412 16.7833C45.9508 16.6976 45.8995 16.5813 45.8981 16.4598V16.3597C45.8985 16.2376 45.9495 16.1206 46.04 16.0343C46.1304 15.9479 46.2531 15.8993 46.3811 15.899H49.6704V13.7059H35.5073C34.2172 13.7066 32.9802 14.1959 32.0681 15.0663C31.156 15.9368 30.6434 17.1172 30.6431 18.348Z" fill="#3A3768"/>
<path d="M30.9176 26.0262V23.645C30.9176 23.5746 30.889 23.507 30.8378 23.4563C30.7866 23.4057 30.7168 23.376 30.6431 23.3735V26.2964C30.7165 26.2937 30.7859 26.264 30.837 26.2137C30.8882 26.1634 30.917 26.0962 30.9176 26.0262Z" fill="#3A3768"/>
<path d="M30.975 33.5482V29.0014C30.975 28.9656 30.9676 28.9301 30.9532 28.8971C30.9389 28.864 30.9178 28.8339 30.8913 28.8086C30.8648 28.7833 30.8333 28.7632 30.7986 28.7495C30.7639 28.7358 30.7268 28.7288 30.6892 28.7288H30.6431V33.8209H30.6867C30.7245 33.8212 30.7619 33.8144 30.7969 33.8008C30.8318 33.7873 30.8636 33.7672 30.8904 33.7419C30.9172 33.7165 30.9385 33.6864 30.953 33.6531C30.9675 33.6199 30.975 33.5842 30.975 33.5482Z" fill="#3A3768"/>
<path d="M33.8066 34.8186C33.8066 32.9625 35.5037 31.4576 37.5976 31.4576C39.6915 31.4576 41.3873 32.9625 41.3873 34.8186C41.3824 35.3145 41.259 35.8028 41.0265 36.2463C40.7941 36.6899 40.4587 37.077 40.0459 37.3784H49.6669V26.8179C49.7826 26.7135 49.9264 26.6415 50.0823 26.61C50.2382 26.5785 50.4001 26.5887 50.5503 26.6393C50.8038 26.7162 51.0168 26.8828 51.1456 27.1048C51.6235 27.8823 52.376 28.3835 53.222 28.3835C54.667 28.3835 55.8425 26.9227 55.8425 25.1189C55.8425 23.3152 54.672 21.8556 53.222 21.8556C52.5407 21.8556 51.9205 22.1794 51.455 22.7116C51.2785 22.9152 51.1289 23.1387 51.0096 23.3771L50.9858 23.5188C50.9858 23.5188 50.4281 23.9736 49.6669 23.5557V18.4719H42.5117C41.8571 18.4704 41.23 18.2212 40.7677 17.779C40.3055 17.3369 40.0459 16.7379 40.0459 16.1134V15.6157H35.9791C35.5846 15.6159 35.1941 15.6902 34.8297 15.8345C34.4653 15.9787 34.1343 16.19 33.8556 16.4564C33.5769 16.7228 33.356 17.0389 33.2054 17.3868C33.0548 17.7347 32.9775 18.1075 32.978 18.4838V37.3784H35.1418C34.7302 37.0764 34.396 36.689 34.1646 36.2455C33.9333 35.802 33.8108 35.314 33.8066 34.8186Z" fill="#F13F00"/>
<path d="M46.3814 15.8955C46.2534 15.8958 46.1307 15.9445 46.0402 16.0308C45.9498 16.1171 45.8988 16.2342 45.8984 16.3563V16.4598C45.8988 16.5821 45.9497 16.6992 46.0402 16.7857C46.1306 16.8723 46.2533 16.9212 46.3814 16.9218H49.6707V15.8991L46.3814 15.8955Z" fill="#E6E8EC"/>
<path d="M68.6431 30.28V37.3473H69.4854V29.9955H69.0299C68.8165 29.9955 68.6431 30.1229 68.6431 30.28Z" fill="#3A3768"/>
<path d="M51.6721 13.6548H50.6738V15.7978H51.6721V13.6548Z" fill="#3A3768"/>
<path d="M51.6721 16.8694H50.6738V18.4171H51.6721V16.8694Z" fill="#3A3768"/>
<path d="M51.6721 15.7979H50.6738V16.8694H51.6721V15.7979Z" fill="#E6E8EC"/>
<path d="M69.6574 30.2943H69.4229V37.339H69.9432V30.5681C69.9432 30.4957 69.9131 30.4263 69.8596 30.3749C69.806 30.3236 69.7334 30.2946 69.6574 30.2943Z" fill="#3A3768"/>
<path d="M51.6709 15.7978C51.9367 15.855 52.17 16.3169 52.17 16.3169V16.4169C52.17 16.4169 51.9354 16.8777 51.6709 16.8694V18.4171H57.31C57.9657 18.4168 58.5945 18.168 59.058 17.7255C59.5216 17.283 59.782 16.683 59.782 16.0574V15.5597H64.0247C64.8195 15.5613 65.5813 15.8637 66.1427 16.4005C66.7042 16.9373 67.0195 17.6647 67.0195 18.4231V32.2945C67.4104 32.5926 67.7261 32.9707 67.943 33.4009C68.1599 33.8312 68.2725 34.3025 68.2725 34.7799C68.2725 35.2573 68.1599 35.7286 67.943 36.1588C67.7261 36.5891 67.4104 36.9672 67.0195 37.2652V37.345H68.7665V30.3575C68.7665 30.3528 68.7675 30.3482 68.7694 30.344C68.7713 30.3397 68.7741 30.3358 68.7776 30.3326C68.7811 30.3294 68.7852 30.3269 68.7897 30.3252C68.7943 30.3235 68.7991 30.3228 68.804 30.3229H69.3904V18.1195C69.3906 17.5331 69.2697 16.9525 69.0346 16.4107C68.7995 15.869 68.4548 15.3767 68.0202 14.9621C67.5857 14.5475 67.0698 14.2186 66.5019 13.9943C65.9341 13.77 65.3256 13.6546 64.711 13.6548H51.5474V15.7978H51.6709ZM53.5602 15.7871C53.6803 15.7871 53.7978 15.8211 53.8978 15.8848C53.9977 15.9485 54.0756 16.0391 54.1216 16.145C54.1676 16.251 54.1796 16.3676 54.1562 16.48C54.1327 16.5925 54.0749 16.6958 53.9899 16.7769C53.9049 16.858 53.7966 16.9132 53.6787 16.9356C53.5608 16.958 53.4386 16.9465 53.3276 16.9026C53.2166 16.8587 53.1216 16.7844 53.0549 16.6891C52.9881 16.5937 52.9524 16.4816 52.9524 16.3669C52.9524 16.2132 53.0165 16.0657 53.1304 15.9569C53.2444 15.8482 53.399 15.7871 53.5602 15.7871Z" fill="#3A3768"/>
<path d="M53.4128 21.3864C55.3731 21.3864 56.9629 23.0068 56.9629 25.0046C56.9629 27.0024 55.3731 28.6228 53.4128 28.6228C52.8799 28.62 52.3549 28.4998 51.8787 28.2716C51.4025 28.0434 50.988 27.7133 50.6675 27.3072V37.3473H62.023C61.6115 37.0445 61.2776 36.6564 61.0465 36.2123C60.8154 35.7682 60.6932 35.2798 60.689 34.784C60.689 32.9255 62.3824 31.4194 64.4725 31.4194C65.4038 31.4134 66.307 31.7236 67.0206 32.2945V18.423C67.0206 17.6647 66.7053 16.9373 66.1438 16.4005C65.5824 15.8636 64.8206 15.5613 64.0258 15.5597H59.7831V16.0574C59.7831 16.683 59.5227 17.283 59.0591 17.7255C58.5956 18.168 57.9668 18.4168 57.3111 18.4171H50.6737V22.7032C50.9936 22.2977 51.4071 21.968 51.8821 21.7397C52.3571 21.5113 52.8809 21.3904 53.4128 21.3864Z" fill="#F13F00"/>
<path d="M51.6712 16.8694C51.7993 16.8695 51.9227 16.8226 52.0156 16.7384C52.1085 16.6542 52.1639 16.5391 52.1703 16.417V16.3169C52.1558 16.191 52.0996 16.0728 52.0099 15.9794C51.9201 15.886 51.8014 15.8224 51.6712 15.7979H51.5464V16.8694H51.6712Z" fill="#E6E8EC"/>
<path d="M53.6574 16.9366C53.9887 16.8853 54.2137 16.5875 54.1599 16.2714C54.1061 15.9553 53.7939 15.7407 53.4626 15.792C53.1314 15.8433 52.9064 16.1411 52.9602 16.4572C53.0139 16.7733 53.3261 16.9879 53.6574 16.9366Z" fill="#E6E8EC"/>
<path d="M66.1738 61.6436V60.4531C66.4325 60.1132 66.5719 59.7039 66.5719 59.2839C66.5719 58.8639 66.4325 58.4546 66.1738 58.1147V61.6436Z" fill="#3A3768"/>
<path d="M68.5081 62.1031H66.1733V62.6151H68.5081V62.1031Z" fill="#3A3768"/>
<path d="M65.2312 61.2674C64.9985 61.3902 64.8239 61.5934 64.7433 61.8353C64.6958 61.9655 64.683 62.1048 64.7058 62.2409C64.7287 62.377 64.7866 62.5056 64.8743 62.6151H66.1733V62.1032H65.6742C65.8551 61.965 66.0222 61.8112 66.1733 61.6436V60.453C65.9249 60.7865 65.6035 61.0643 65.2312 61.2674Z" fill="#F13F00"/>
<path d="M65.6719 62.1031H66.171V61.6436C66.0199 61.8111 65.8528 61.965 65.6719 62.1031Z" fill="#F13F00"/>
<path d="M66.5719 59.2863C66.5689 58.8668 66.4298 58.4584 66.1738 58.1172V60.4543C66.4293 60.1133 66.5683 59.7055 66.5719 59.2863Z" fill="#3A3768"/>
<path d="M68.5082 62.6151V82.1299C68.5082 83.3614 67.9955 84.5424 67.0828 85.4132C66.1701 86.284 64.9323 86.7732 63.6416 86.7732H50.5391V84.8683H63.1711C63.9674 84.8683 64.731 84.5665 65.2941 84.0293C65.8571 83.4921 66.1735 82.7635 66.1735 82.0037V62.6151H68.5082Z" fill="#3A3768"/>
<path d="M64.7434 61.8352C64.824 61.5934 64.9986 61.3902 65.2313 61.2673C65.6034 61.0647 65.9249 60.7872 66.1734 60.4542V58.1171C65.5982 57.3277 64.4614 56.7896 63.1511 56.7896C61.2606 56.7896 59.7295 57.9075 59.7295 59.2898C59.7295 59.9398 60.0702 60.5316 60.6267 60.9756C60.8405 61.1435 61.0747 61.2862 61.3243 61.4007L61.3393 61.4233C61.5027 61.5745 61.6112 61.7716 61.6487 61.9859C61.6862 62.2001 61.6508 62.4202 61.5476 62.6139H50.5391V72.3767C50.8552 71.9731 51.265 71.6449 51.7363 71.4176C52.2076 71.1904 52.7276 71.0704 53.2556 71.067C55.201 71.067 56.7771 72.6862 56.7771 74.6828C56.7771 76.6794 55.201 78.2998 53.2556 78.2998C52.7276 78.2964 52.2076 78.1764 51.7363 77.9492C51.265 77.722 50.8552 77.3937 50.5391 76.9902V84.8706H63.1711C63.9661 84.8706 64.7286 84.5698 65.2914 84.0341C65.8543 83.4985 66.1715 82.7717 66.1734 82.0132V62.6151H64.8782C64.7898 62.5059 64.7313 62.3775 64.7077 62.2414C64.6842 62.1053 64.6965 61.9657 64.7434 61.8352Z" fill="#F13F00"/>
<path d="M88.4854 32.2708C89.1817 31.972 89.697 31.4684 89.873 30.8231C89.8943 30.7448 89.9101 30.6653 89.9204 30.585C89.9515 30.5107 89.9781 30.4347 90.0003 30.3576C90.1762 29.7099 89.9828 29.0396 89.5236 28.4669L88.6114 31.8006L88.4854 32.2708Z" fill="url(#paint0_linear)"/>
<path d="M109.542 31.0195C109.399 30.223 106.764 28.4978 106.764 28.4978C106.764 28.4978 105.6 27.9025 104.983 27.2144C104.589 26.7762 104.465 26.781 104.428 26.8405C104.402 26.825 104.373 26.8156 104.343 26.8131C104.318 26.7965 104.294 26.781 104.272 26.7631C104.276 26.7295 104.268 26.6957 104.25 26.6664C104.233 26.6371 104.206 26.6139 104.173 26.6C104.144 26.5834 104.114 26.5619 104.084 26.5417C103.884 26.2214 103.813 25.7678 103.789 25.3725C103.759 24.8737 103.165 24.9987 102.962 25.0547C102.822 24.8046 102.686 24.5451 102.557 24.2855C102.614 24.2013 102.662 24.1115 102.698 24.0177C103.065 23.2569 102.985 22.3842 103.145 21.5794C103.26 20.9972 103.5 20.3888 103.452 19.8221C103.452 19.809 103.452 19.7947 103.452 19.7804C103.452 19.7804 103.452 19.7863 103.452 19.7887C103.439 19.6467 103.405 19.5072 103.351 19.3744C103.245 19.1196 103.06 18.8982 102.977 18.635C102.843 18.2505 102.928 17.8266 102.817 17.4373C102.679 16.9444 102.242 16.5634 101.748 16.3456C101.253 16.1277 100.703 16.0527 100.162 15.9884C98.8077 15.8265 97.3689 15.73 96.1335 16.2729C96.0202 16.337 95.8908 16.3703 95.7592 16.3694C95.6372 16.3373 95.5217 16.2862 95.4172 16.2182C95.0853 16.061 94.6685 16.161 94.3715 16.3706C94.0745 16.5801 93.8724 16.8825 93.6765 17.1754C93.4806 17.4683 93.2659 17.7707 92.959 17.9624C92.5983 18.1921 92.1217 18.2695 91.8359 18.5791C91.7086 18.7258 91.628 18.9043 91.6038 19.0934C91.6038 19.0934 91.6038 19.0875 91.6038 19.0851C91.6026 19.1077 91.6026 19.1303 91.6038 19.1529C91.6038 19.1708 91.6038 19.1899 91.6038 19.2077C91.6038 19.2256 91.6038 19.2375 91.6038 19.2518C91.6038 19.303 91.6038 19.353 91.6038 19.403C91.6437 19.6938 91.7247 19.9782 91.8446 20.2483C91.9022 20.4498 92.0151 20.6331 92.1716 20.7793C92.6058 21.1162 93.2946 20.7983 93.8187 20.9864C93.8649 21.0019 93.9086 21.0222 93.9523 21.0412C93.9523 21.0603 93.9385 21.0793 93.9323 21.0995C93.8201 21.4633 93.7633 21.8407 93.7638 22.2199C93.7638 24.4558 95.7092 26.2679 98.1089 26.2679C98.1987 26.2679 98.2873 26.2679 98.3759 26.2583C98.3884 26.3024 98.4021 26.3476 98.4133 26.3905C98.5469 26.8845 98.5891 27.397 98.5381 27.9049L98.5119 27.6835C98.4537 27.6568 98.3931 27.6349 98.331 27.618C98.1573 27.5628 97.975 27.5362 97.7919 27.5394C97.2017 27.5323 96.3132 27.7585 95.3648 28.8562C95.3648 28.8562 94.1544 29.4979 93.7988 29.6527C93.7696 29.6695 93.7465 29.6944 93.7326 29.7241C93.7326 29.7241 92.1142 32.0565 91.947 32.9435C91.7797 33.8304 91.5726 34.8484 91.5726 34.8484C91.5726 34.8484 91.1683 35.9985 90.9075 36.5081C90.6467 37.0176 90.4083 37.5034 90.3859 37.7248C90.3634 37.9463 90.4807 38.432 89.9816 38.7416C89.4824 39.0511 89.3577 39.8917 89.3577 39.8917C89.3577 39.8917 89.1081 40.1155 88.7549 40.3989H88.7425L90.0465 35.6282L90.2798 35.6842C90.3356 35.6974 90.3943 35.695 90.4487 35.6773C90.5032 35.6595 90.5511 35.6272 90.5868 35.5842C90.6109 35.555 90.6283 35.5213 90.638 35.4853L90.9012 34.5186L91.0073 34.134L91.0285 34.0555L91.182 33.4947L90.6629 33.3756L90.0552 33.2316L88.3382 32.8184L88.4879 32.2708L88.6127 31.8065L89.3976 28.9324L89.5224 28.4692C89.0232 27.8525 88.2283 27.3513 87.2513 27.1191C85.367 26.6727 83.5426 27.3989 83.1758 28.7407C83.154 28.819 83.1378 28.8985 83.1271 28.9788C83.0955 29.0524 83.0692 29.128 83.0485 29.205C82.9849 29.438 82.968 29.6804 82.9986 29.9194C83.0036 29.9583 83.0098 29.998 83.0173 30.0384C83.0921 30.4091 83.2557 30.7583 83.4952 31.0588C83.6638 31.2734 83.8595 31.4674 84.078 31.6362L84.0867 31.6624C84.1793 31.8068 84.2353 31.9699 84.2502 32.1386C84.2502 32.1624 84.2502 32.1874 84.2502 32.2124C84.2083 32.2843 84.1581 32.3514 84.1004 32.4125L72.5877 29.6825L72.4629 30.1456L69.8699 39.6524C70.2079 39.4045 70.5877 39.2132 70.9929 39.0869C71.1521 39.0366 71.3147 38.9968 71.4796 38.9678L71.5383 38.9583C72.0024 38.8864 72.477 38.905 72.9334 39.013C74.3884 39.3583 75.3941 40.5406 75.5813 41.9312C75.6056 42.1068 75.616 42.2839 75.6125 42.461C75.6089 42.6869 75.5839 42.912 75.5376 43.1336C74.9137 44.941 72.997 46.0327 71.1352 45.591C70.6135 45.4654 70.1291 45.2266 69.7201 44.893C69.311 44.5595 68.9881 44.1404 68.7768 43.6682L68.652 44.1325L65.9766 53.8894L76.1728 56.3086L76.2826 55.8407H76.2988C75.9968 55.4839 75.7779 55.0698 75.6565 54.626C75.5352 54.1822 75.5142 53.7188 75.595 53.2667C75.595 53.2512 75.605 53.2369 75.6113 53.2214C75.6237 53.1869 75.6375 53.1536 75.6512 53.1203C75.721 52.9574 75.8045 52.8001 75.9008 52.65C75.9507 52.5726 76.0031 52.4976 76.0592 52.4249C76.0942 52.3797 76.1304 52.3357 76.1678 52.2928C76.3474 52.0854 76.5522 51.8991 76.778 51.738L76.8504 51.688C76.9327 51.632 77.0176 51.5784 77.1 51.5284C77.1511 51.4999 77.2035 51.4713 77.2559 51.4451C77.8599 51.1407 78.5347 50.9871 79.2176 50.9986C79.5457 51.0028 79.8723 51.0428 80.1909 51.1177C81.1747 51.3432 82.0338 51.913 82.598 52.7143C82.6726 52.8217 82.741 52.933 82.8027 53.0476C82.9864 53.3878 83.1059 53.7561 83.1558 54.1358C83.1948 54.4389 83.1864 54.7459 83.1308 55.0466C82.8883 55.7124 82.4248 56.2847 81.8106 56.6765L81.6858 57.1242H81.6996L81.6808 57.1373L81.5561 57.5837L83.8846 58.1362L87.1826 46.1053C88.0724 46.0065 88.5278 45.6291 88.5278 45.5743C88.5278 45.5196 89.5972 44.954 90.19 44.7993C90.4845 44.7231 90.8251 44.6683 91.0959 44.6135C90.7765 46.1268 90.472 47.59 90.4994 47.6757C90.5082 47.7091 90.5656 47.6567 90.6529 47.5424C90.6443 47.5863 90.6406 47.631 90.6417 47.6757C90.6417 47.6983 90.6754 47.6817 90.7191 47.6352L90.7128 47.6638C90.7128 47.6638 88.861 51.082 88.7163 51.4737C88.5715 51.8654 88.7512 52.8678 89.3215 53.2C89.432 53.2667 89.5306 53.3499 89.6135 53.4465L89.5461 53.5739C89.3339 53.9846 89.1455 54.4418 89.1792 54.7263C89.2238 55.0865 89.1355 55.4502 88.9296 55.755C88.9296 55.755 87.3261 60.4828 87.3623 61.8436C87.3985 63.2045 86.7921 66.1905 86.7921 66.1905C86.7921 66.1905 86.1332 68.1144 86.525 68.6621C86.9168 69.2098 87.3623 71.5993 87.3623 71.5993C87.3623 71.5993 87.6656 72.1469 87.6468 72.6113C87.6281 73.0756 87.9326 73.9209 87.9326 73.9209L88.9309 77.3545C88.9309 77.3545 88.8236 78.2677 89.1979 78.9142C89.5723 79.5607 89.5361 79.3619 89.3577 80.4905C89.1792 81.6192 89.5723 82.6634 90.2124 82.9908C90.462 83.1193 90.4745 83.3158 90.3971 83.5075C90.2336 83.4468 90.0976 83.7694 90.0165 84.0301L89.9342 84.1051L89.9891 84.1182C89.9541 84.2373 89.9342 84.3373 89.9342 84.3373C89.9342 84.3373 88.2608 85.6648 88.1535 86.1458C88.0462 86.6268 86.8707 86.8756 86.8707 86.8756C86.8707 86.8756 85.09 87.34 84.6245 87.5721C84.4913 87.6299 84.376 87.7196 84.2899 87.8325C84.2038 87.9453 84.1497 88.0775 84.1329 88.2162C84.112 88.4349 84.134 88.6553 84.1978 88.8663C84.375 89.5461 86.8682 89.6128 88.0661 89.4306C89.2641 89.2485 91.7336 88.5841 91.7336 88.5841C91.7336 88.5841 94.3341 88.346 95.1028 88.0531C95.8715 87.7602 95.2625 86.9911 95.2625 86.9911C95.2625 86.9911 95.2625 86.9661 95.2625 86.9197C95.2812 86.6423 95.3349 85.6362 95.1502 85.3719C95.0117 85.1671 95.0154 84.6576 95.0354 84.3337C95.5558 83.4408 94.4389 80.762 94.4389 80.762C94.4389 80.762 94.6523 78.1427 94.5101 77.7593C94.3678 77.376 93.7613 74.1257 93.7613 74.1257C93.7613 74.1257 93.387 72.6494 93.5305 72.4005C93.674 72.1517 93.4406 71.4374 93.4406 71.4374C93.4406 71.4374 92.8304 70.6432 92.8853 70.3932C92.9402 70.1432 92.7069 69.6967 92.7069 69.6967C92.7069 69.6967 94.5238 67.1084 94.3628 66.6274C94.2018 66.1464 94.4352 65.3666 94.4352 65.3666C94.4352 65.3666 94.6635 64.9999 94.9343 64.5606C95.2712 64.0224 95.683 63.3783 95.8178 63.1771C95.9925 62.9211 96.413 61.8317 96.6476 61.2043C96.7475 60.9376 96.8148 60.7543 96.8148 60.7543C96.8148 60.7543 97.0994 65.6356 97.3489 66.1297C97.5985 66.6238 97.9729 70.5599 97.9729 70.5599C98.1113 70.9093 98.1721 71.2823 98.1513 71.6552C98.1164 72.2684 98.7216 74.94 98.7216 74.94C98.7216 74.94 98.9886 76.8307 98.8102 77.3284C98.6317 77.826 98.7752 81.4954 98.7752 81.4954C98.7752 81.4954 97.7957 82.2097 97.5461 82.7562C97.2965 83.3027 97.581 84.7969 97.581 84.7969L97.6958 84.8481C97.604 85.0556 97.5358 85.2719 97.4924 85.4934C97.4575 85.8089 96.9222 87.2364 96.9758 87.4352C97.0295 87.634 96.745 88.2484 96.7088 88.5627C96.6726 88.877 96.2283 89.3425 96.1922 89.5092C96.1359 89.6584 96.0704 89.8043 95.9962 89.9461C95.8994 90.1641 95.8221 90.3895 95.7654 90.62C95.587 91.3177 97.7058 91.4332 97.7058 91.4332C100.84 91.9808 101.411 89.7414 101.411 89.7414C101.411 89.7414 101.803 87.7507 101.945 87.5983C101.962 87.57 101.973 87.5386 101.977 87.506C101.981 87.4735 101.978 87.4404 101.968 87.409C101.887 87.0703 101.733 86.7514 101.517 86.472C101.417 86.3613 101.411 86.0768 101.427 85.822C101.518 85.8135 101.607 85.7976 101.695 85.7743C102.959 85.4267 102.444 83.4182 102.444 83.4182C102.444 83.4182 103.299 82.0919 103.299 81.5775C103.299 81.0632 103.602 79.4869 103.602 79.4869C104.689 77.6284 104.261 73.1161 104.439 72.7506C104.618 72.3851 104.065 71.0254 103.619 70.4111C103.174 69.7967 103.352 68.1383 103.619 67.6573C103.886 67.1763 103.352 65.5142 103.352 65.5142C103.352 65.5142 103.869 62.2996 103.852 61.7972C103.834 61.2948 104.297 59.8232 104.297 59.8232C104.297 59.8232 104.76 59.0601 104.653 58.8279C104.545 58.5957 105.008 57.9945 104.885 57.7326C104.761 57.4706 104.991 56.6539 105.223 56.1729C105.341 55.9264 105.489 55.2478 105.597 54.6442C105.61 54.5775 105.622 54.5108 105.633 54.4454C106.153 54.7585 106.632 54.9918 106.801 54.9287C107.12 54.8097 106.613 53.2619 106.266 52.2976C106.326 52.2547 106.351 52.2225 106.326 52.2083C106.113 52.0749 106.35 51.4772 106.35 51.4772C107.609 50.77 107.181 50.239 106.778 49.9295C106.375 49.6199 106.635 48.7389 106.516 48.3817C106.396 48.0246 106.659 46.4137 106.873 45.241C106.917 44.9862 106.915 44.726 106.866 44.4719C107.095 44.1397 107.331 43.792 107.538 43.4706C108.249 42.3645 109.769 37.0998 109.769 37.0998L109.759 37.0724C109.907 36.7926 110.018 36.5652 110.078 36.414C110.539 35.271 109.684 31.8184 109.542 31.0195ZM98.4757 27.9883L98.5082 27.974C98.5082 27.9823 98.5082 27.9906 98.5082 27.999L98.4757 27.9883ZM91.5664 84.4635C91.4888 84.464 91.4119 84.4494 91.3405 84.4207L91.5664 84.4635Z" fill="url(#paint1_linear)"/>
<path d="M78.3738 46.0922C79.4008 46.4637 81.7879 46.5042 82.8486 46.5042C83.1705 46.5042 83.3702 46.5042 83.3702 46.5042L84.0503 45.1826L83.3702 44.0814C83.3702 44.0814 82.7462 43.9171 81.9177 43.7742C80.6948 43.5646 79.0214 43.4003 78.224 43.8718C76.8863 44.6612 77.0361 45.6077 78.3738 46.0922Z" fill="#FEC2BE"/>
<path opacity="0.1" d="M82.8476 46.5042C83.1696 46.5042 83.3692 46.5042 83.3692 46.5042L84.0493 45.1826L83.3705 44.0813C83.3705 44.0813 82.7465 43.917 81.918 43.7742C82.5906 44.2456 84.2078 45.2719 82.8476 46.5042Z" fill="black"/>
<path d="M94.1116 30.2848L93.8121 29.9539C93.8121 29.9539 92.266 32.2874 92.1038 33.1684C91.9416 34.0495 91.7294 35.0615 91.7294 35.0615C91.7294 35.0615 91.3376 36.2068 91.083 36.7128C90.8285 37.2188 90.5989 37.7034 90.5764 37.9236C90.5539 38.1439 90.6687 38.6284 90.1833 38.9368C89.6979 39.2452 89.5844 40.0821 89.5844 40.0821C89.5844 40.0821 87.8299 41.7109 86.9065 41.749C85.983 41.7871 83.3301 42.2335 83.4224 42.674C83.5148 43.1146 82.3156 43.3777 81.8302 43.4884C81.3448 43.5991 84.9498 44.9171 82.8459 46.6149C82.8459 46.6149 84.1836 46.8792 84.3221 47.1863C84.4607 47.4935 85.8682 47.0113 85.8682 47.0113C85.8682 47.0113 86.169 46.3279 87.2072 46.2839C88.2454 46.2398 88.7757 45.7993 88.7757 45.7338C88.7757 45.6684 89.814 45.1171 90.398 44.9635C90.982 44.8099 91.7357 44.7433 91.7594 44.5885C91.7831 44.4337 95.2209 30.2789 95.2209 30.2789L94.1116 30.2848Z" fill="#4C4981"/>
<path opacity="0.05" d="M94.1116 30.2848L93.8121 29.9539C93.8121 29.9539 92.266 32.2874 92.1038 33.1684C91.9416 34.0495 91.7294 35.0615 91.7294 35.0615C91.7294 35.0615 91.3376 36.2068 91.083 36.7128C90.8285 37.2188 90.5989 37.7034 90.5764 37.9236C90.5539 38.1439 90.6687 38.6284 90.1833 38.9368C89.6979 39.2452 89.5844 40.0821 89.5844 40.0821C89.5844 40.0821 87.8299 41.7109 86.9065 41.749C85.983 41.7871 83.3301 42.2335 83.4224 42.674C83.5148 43.1146 82.3156 43.3777 81.8302 43.4884C81.3448 43.5991 84.9498 44.9171 82.8459 46.6149C82.8459 46.6149 84.1836 46.8792 84.3221 47.1863C84.4607 47.4935 85.8682 47.0113 85.8682 47.0113C85.8682 47.0113 86.169 46.3279 87.2072 46.2839C88.2454 46.2398 88.7757 45.7993 88.7757 45.7338C88.7757 45.6684 89.814 45.1171 90.398 44.9635C90.982 44.8099 91.7357 44.7433 91.7594 44.5885C91.7831 44.4337 95.2209 30.2789 95.2209 30.2789L94.1116 30.2848Z" fill="black"/>
<path d="M97.7054 91.3796C100.751 91.9249 101.306 89.6949 101.306 89.6949C101.306 89.6949 101.686 87.7138 101.825 87.565C101.842 87.5369 101.853 87.5056 101.857 87.4733C101.861 87.4409 101.858 87.4081 101.848 87.3769C101.768 87.041 101.619 86.7237 101.409 86.4435C101.219 86.2292 101.374 85.3374 101.374 85.3374L97.844 84.479C97.844 84.479 97.532 85.1553 97.4983 85.4696C97.4646 85.7839 96.9443 87.2031 96.9992 87.4019C97.0541 87.6007 96.7745 88.2103 96.7396 88.5246C96.7047 88.8389 96.2729 89.3009 96.2405 89.4652C96.1861 89.614 96.1224 89.7595 96.0495 89.9009C95.9559 90.1182 95.8808 90.3424 95.8249 90.5712C95.6465 91.2641 97.7054 91.3796 97.7054 91.3796Z" fill="#CA8496"/>
<path opacity="0.1" d="M97.7056 91.3796C100.752 91.9248 101.306 89.6949 101.306 89.6949C101.306 89.6949 101.686 87.7138 101.825 87.5649C101.842 87.5368 101.853 87.5056 101.857 87.4732C101.861 87.4409 101.858 87.4081 101.848 87.3768L101.115 89.3818C101.115 89.3818 100.51 90.5866 98.2596 90.4057C96.9793 90.3021 96.3492 90.0759 96.0434 89.8997C95.9498 90.117 95.8746 90.3411 95.8188 90.57C95.6466 91.2641 97.7056 91.3796 97.7056 91.3796Z" fill="black"/>
<path opacity="0.1" d="M100.076 88.2424C100.076 88.2424 99.3151 88.259 99.2627 87.6649L100.076 88.2424Z" fill="black"/>
<path d="M76.3973 55.8359L76.8802 55.9538L76.7741 56.4217L76.3262 56.3134L76.3973 55.8359Z" fill="#F13F00"/>
<path opacity="0.1" d="M76.3973 55.8359L76.8802 55.9538L76.7741 56.4217L76.3262 56.3134L76.3973 55.8359Z" fill="black"/>
<path d="M90.7295 34.0507L90.5806 34.6091L91.0849 34.7316L91.2338 34.1732L90.7295 34.0507Z" fill="#3A3768"/>
<path d="M88.4654 33.5003L88.3164 34.0587L89.9889 34.4649L90.1378 33.9064L88.4654 33.5003Z" fill="#3A3768"/>
<path d="M90.1368 33.9077L89.9878 34.4662L90.5791 34.6098L90.7281 34.0513L90.1368 33.9077Z" fill="#3A3768"/>
<path d="M88.4914 33.428C88.4514 33.4459 88.4127 33.4649 88.3741 33.4804L88.4714 33.5042L88.3216 34.0626L87.5817 33.8828C87.5256 33.7562 87.5031 33.6183 87.5164 33.4814C87.5297 33.3445 87.5783 33.2129 87.6578 33.0982C87.7987 32.8813 88.0224 32.7251 88.2817 32.6625C88.4402 32.619 88.595 32.5641 88.7447 32.4982L88.4914 33.428Z" fill="#F13F00"/>
<path d="M90.2568 35.8389L90.4827 35.8949C90.5192 35.9038 90.5571 35.9058 90.5944 35.9007C90.6316 35.8956 90.6675 35.8835 90.6998 35.8651C90.7322 35.8468 90.7604 35.8225 90.7829 35.7937C90.8054 35.7649 90.8217 35.7321 90.8308 35.6973L91.0829 34.7353L90.5838 34.6162L90.2568 35.8389Z" fill="#3A3768"/>
<path d="M90.0853 31.0576C89.9131 31.7005 89.4127 32.2018 88.7363 32.4982L89.6223 29.1765C90.0715 29.7468 90.26 30.4147 90.0853 31.0576Z" fill="#3A3768"/>
<path d="M89.943 35.7628C89.8698 35.7448 89.807 35.6999 89.7684 35.6379C89.7298 35.5758 89.7185 35.5017 89.7371 35.4318L89.9942 34.4686L88.322 34.0626L83.222 53.1762C83.5929 53.8649 83.6871 54.6592 83.4869 55.4096C83.2867 56.16 82.806 56.8146 82.1351 57.2504L82.0166 57.6957L84.279 58.2493L90.2574 35.8437L89.943 35.7628Z" fill="#3A3768"/>
<path d="M89.7368 35.4318C89.7182 35.5017 89.7295 35.5758 89.768 35.6379C89.8066 35.6999 89.8694 35.7448 89.9427 35.7628L90.2571 35.839L90.584 34.6127L89.9938 34.4686L89.7368 35.4318Z" fill="#3A3768"/>
<path d="M87.6568 33.0982C87.7985 32.882 88.0219 32.726 88.2807 32.6625C88.4387 32.6187 88.593 32.5638 88.7424 32.4982L89.6297 29.1765C89.0743 28.5034 88.2961 28.0299 87.4222 27.8335C85.5916 27.3882 83.8171 28.1109 83.4615 29.4467C83.293 30.0765 83.4702 30.7302 83.8958 31.2921C84.0587 31.5052 84.2486 31.6983 84.461 31.8672L84.4698 31.8934C84.59 32.0789 84.6445 32.2965 84.6252 32.5139C84.6058 32.7313 84.5137 32.937 84.3625 33.1006L73.1742 30.3825L70.6498 39.8453C71.0592 39.5289 71.5396 39.3069 72.0537 39.1967C72.5677 39.0864 73.1015 39.0908 73.6134 39.2095C75.4989 39.6679 76.6083 41.6085 76.0917 43.5432C75.5751 45.4779 73.6334 46.6768 71.7479 46.2244C71.2369 46.0959 70.7641 45.8564 70.3664 45.5244C69.9687 45.1925 69.657 44.7772 69.4556 44.3111L66.8638 54.0215L76.7742 56.4277C76.4528 56.0384 76.2286 55.5842 76.1188 55.0998C76.0089 54.6154 76.0163 54.1135 76.1403 53.6322C76.6208 51.8344 78.6535 50.7748 80.6825 51.2677C81.2242 51.3942 81.7311 51.6301 82.1691 51.9593C82.6071 52.2885 82.9661 52.7035 83.2219 53.1762L88.3219 34.0626L87.5894 33.8828C87.532 33.7569 87.5081 33.6193 87.5199 33.4825C87.5316 33.3456 87.5787 33.2136 87.6568 33.0982Z" fill="#F13F00"/>
<path d="M88.4701 33.5042L88.4913 33.428C88.4526 33.4458 88.414 33.4649 88.374 33.4816L88.4701 33.5042Z" fill="#F13F00"/>
<g opacity="0.1">
<path opacity="0.1" d="M90.7328 34.0543L90.1425 33.9102L88.4716 33.5042L88.4929 33.428L88.7424 32.4982C88.5927 32.5641 88.4379 32.619 88.2795 32.6625C88.0202 32.7251 87.7965 32.8813 87.6556 33.0982C87.6189 33.1582 87.588 33.2211 87.5632 33.2863C87.5875 33.2211 87.618 33.1582 87.6543 33.0982C87.796 32.882 88.0194 32.726 88.2782 32.6625C88.4362 32.6187 88.5905 32.5638 88.7399 32.4982L89.6272 29.1765C89.0718 28.5034 88.2936 28.0299 87.4197 27.8335C85.5891 27.3882 83.8146 28.1109 83.459 29.4467C83.2906 30.0765 83.4677 30.7302 83.8933 31.2921C84.0562 31.5052 84.2461 31.6983 84.4585 31.8672L84.4673 31.8934C84.5875 32.0789 84.642 32.2965 84.6227 32.5139C84.6033 32.7313 84.5112 32.937 84.36 33.1006L73.1717 30.3825L70.6473 39.8453C71.057 39.5285 71.5378 39.3064 72.0523 39.1961C72.5668 39.0858 73.1011 39.0904 73.6134 39.2095C75.4989 39.6679 76.6083 41.6085 76.0917 43.5432C75.5751 45.4779 73.6334 46.6768 71.7479 46.2244C71.2369 46.0959 70.7641 45.8564 70.3664 45.5244C69.9687 45.1925 69.657 44.7772 69.4556 44.3111L66.8638 54.0215L76.7742 56.4277C76.4528 56.0384 76.2286 55.5842 76.1188 55.0998C76.0089 54.6154 76.0163 54.1135 76.1403 53.6322C76.6208 51.8344 78.6535 50.7748 80.6825 51.2677C81.2242 51.3942 81.7311 51.6301 82.1691 51.9593C82.6071 52.2885 82.9661 52.7035 83.2219 53.1762C83.5928 53.8649 83.687 54.6592 83.4868 55.4096C83.2866 56.16 82.8059 56.8146 82.135 57.2504L82.0165 57.6957L84.2788 58.2493L90.2573 35.8437L90.4832 35.8997C90.5197 35.9086 90.5576 35.9106 90.5949 35.9054C90.6321 35.9003 90.668 35.8883 90.7003 35.8699C90.7327 35.8515 90.7609 35.8272 90.7834 35.7984C90.8059 35.7696 90.8222 35.7369 90.8313 35.702L91.0834 34.7353L91.2319 34.1769L90.7328 34.0543ZM88.4317 33.459C88.413 33.4673 88.3943 33.4768 88.3756 33.484L88.4317 33.459ZM87.5832 33.8864L88.3232 34.0662L87.5832 33.8864Z" fill="black"/>
<path opacity="0.1" d="M90.0852 31.0576C90.2562 30.4147 90.0678 29.748 89.6223 29.1765L88.7363 32.4982C89.4164 32.2018 89.9168 31.6994 90.0852 31.0576Z" fill="black"/>
</g>
<path d="M90.8521 33.5904L90.7031 34.1488L91.2074 34.2713L91.3564 33.7128L90.8521 33.5904Z" fill="#3A3768"/>
<path d="M88.5879 33.0399L88.439 33.5984L90.1114 34.0045L90.2604 33.4461L88.5879 33.0399Z" fill="#3A3768"/>
<path d="M90.2603 33.445L90.1113 34.0034L90.7027 34.147L90.8517 33.5886L90.2603 33.445Z" fill="#3A3768"/>
<path d="M88.6149 32.9661L88.4976 33.0196L88.5937 33.0423L88.4452 33.6042L87.7052 33.4244C87.6482 33.2981 87.6253 33.1601 87.6383 33.0231C87.6514 32.8861 87.7001 32.7543 87.7801 32.6398C87.9215 32.4234 88.145 32.2673 88.404 32.2041C88.5621 32.1606 88.7164 32.1057 88.8657 32.0398L88.6149 32.9661Z" fill="#F13F00"/>
<path d="M90.3794 35.3782L90.6065 35.433C90.6432 35.4424 90.6815 35.4448 90.7192 35.44C90.7569 35.4351 90.7932 35.4231 90.826 35.4047C90.8588 35.3863 90.8874 35.3619 90.9101 35.3328C90.9328 35.3037 90.9493 35.2706 90.9584 35.2353L91.2155 34.2734L90.7163 34.1543L90.3794 35.3782Z" fill="#3A3768"/>
<path d="M90.2097 30.5968C90.0388 31.2385 89.5384 31.7397 88.8608 32.0362L89.748 28.7145C90.1948 29.2848 90.3832 29.9527 90.2097 30.5968Z" fill="#3A3768"/>
<path d="M90.0662 35.302C90.0299 35.2931 89.9956 35.2775 89.9656 35.256C89.9355 35.2345 89.9102 35.2075 89.8911 35.1767C89.872 35.1458 89.8594 35.1117 89.8541 35.0762C89.8489 35.0407 89.851 35.0046 89.8604 34.9698L90.1099 34.0079L88.4453 33.6042L83.3465 52.7155C83.7181 53.4039 83.8127 54.1982 83.6125 54.9486C83.4123 55.699 82.931 56.3534 82.2597 56.7885L82.1411 57.2337L84.4047 57.7838L90.382 35.3782L90.0662 35.302Z" fill="#3A3768"/>
<path d="M89.8601 34.9698C89.8507 35.0045 89.8486 35.0406 89.8539 35.0761C89.8592 35.1116 89.8717 35.1458 89.8909 35.1766C89.91 35.2075 89.9353 35.2344 89.9654 35.2559C89.9954 35.2774 90.0296 35.2931 90.066 35.302L90.3792 35.3782L90.7086 34.1507L90.1172 34.0078L89.8601 34.9698Z" fill="#3A3768"/>
<path d="M87.7803 32.6362C87.9217 32.4197 88.1452 32.2636 88.4042 32.2005C88.5623 32.157 88.7167 32.1021 88.8659 32.0362L89.7519 28.7144C89.197 28.0415 88.4192 27.568 87.5457 27.3715C85.7139 26.9274 83.9407 27.6489 83.5838 28.9859C83.4166 29.6145 83.5925 30.2682 84.0193 30.8301C84.1822 31.0436 84.3721 31.2371 84.5846 31.4063L84.5933 31.4313C84.7131 31.6171 84.7674 31.8345 84.7481 32.0518C84.7288 32.2691 84.6369 32.4748 84.486 32.6386L73.2965 29.9217L70.7683 39.3832C71.1785 39.066 71.66 38.8437 72.1752 38.7336C72.6905 38.6235 73.2254 38.6286 73.7382 38.7487C75.6225 39.2059 76.7331 41.1465 76.2164 43.0824C75.6998 45.0183 73.7569 46.2148 71.8664 45.7576C71.3561 45.6283 70.8841 45.3882 70.4871 45.0561C70.0901 44.724 69.7789 44.3089 69.5778 43.8432L66.9873 53.5536L76.8965 55.9609C76.5753 55.5715 76.3514 55.1173 76.2417 54.6329C76.1321 54.1485 76.1397 53.6466 76.2639 53.1654C76.743 51.3665 78.777 50.308 80.8061 50.8009C81.3487 50.9275 81.8564 51.1639 82.2948 51.4943C82.7332 51.8246 83.0919 52.2411 83.3467 52.7154L88.4454 33.6042L87.7054 33.4244C87.6485 33.2974 87.6255 33.1589 87.6386 33.0213C87.6516 32.8837 87.7004 32.7514 87.7803 32.6362Z" fill="#F13F00"/>
<path d="M88.5936 33.0435L88.6136 32.9661C88.5749 32.9839 88.5362 33.003 88.4976 33.0196L88.5936 33.0435Z" fill="#F13F00"/>
<path d="M86.8406 68.7265C87.215 69.2706 87.6542 71.6493 87.6542 71.6493C87.6542 71.6493 87.9487 72.1934 87.9313 72.6566C87.9138 73.1197 88.2083 73.9662 88.2083 73.9662L89.1779 77.3844C89.1779 77.3844 89.073 78.2928 89.4374 78.9321C89.8018 79.5715 89.7656 79.3774 89.5934 80.5001C89.4212 81.6228 89.8006 82.6634 90.4232 83.0004C91.0459 83.3373 90.1462 84.1064 90.1462 84.1064C90.1462 84.1064 94.1269 85.1303 94.9579 84.5029C95.789 83.8754 94.5249 80.7704 94.5249 80.7704C94.5249 80.7704 94.7333 78.1618 94.5948 77.782C94.4563 77.4022 93.8673 74.1662 93.8673 74.1662C93.8673 74.1662 93.5042 72.6959 93.6427 72.4482C93.7812 72.2006 93.5566 71.4958 93.5566 71.4958C93.5566 71.4958 92.9676 70.7028 93.02 70.4552C93.0724 70.2075 92.8466 69.7623 92.8466 69.7623C92.8466 69.7623 94.6085 67.1787 94.4526 66.6941C94.2966 66.2096 94.5212 65.4393 94.5212 65.4393L95.0128 64.6368C95.341 64.101 95.7378 63.4593 95.8714 63.2593C96.0411 63.0045 96.4504 61.9211 96.6787 61.296L96.8409 60.8484C96.8409 60.8484 97.118 65.7036 97.3601 66.1989C97.6021 66.6941 97.9653 70.604 97.9653 70.604C98.0998 70.9522 98.1589 71.3228 98.1387 71.6934C98.1038 72.3042 98.6928 74.9627 98.6928 74.9627C98.6928 74.9627 98.9523 76.845 98.7789 77.3439C98.6054 77.8427 98.7439 81.4895 98.7439 81.4895C98.7439 81.4895 97.7918 82.2038 97.5497 82.7444C97.3076 83.2849 97.5847 84.7684 97.5847 84.7684C97.5847 84.7684 100.354 86.0899 101.578 85.7435C102.802 85.397 102.304 83.398 102.304 83.398C102.304 83.398 103.135 82.0777 103.135 81.5657C103.135 81.0538 103.437 79.4905 103.437 79.4905C104.493 77.6415 104.077 73.1507 104.251 72.7875C104.424 72.4244 103.886 71.0695 103.455 70.4588C103.023 69.848 103.195 68.1966 103.455 67.7204C103.714 67.2442 103.188 65.5881 103.188 65.5881C103.188 65.5881 103.687 62.3842 103.672 61.8889C103.657 61.3937 104.105 59.9245 104.105 59.9245C104.105 59.9245 104.554 59.1649 104.45 58.9327C104.347 58.7006 104.796 58.1077 104.675 57.8433C104.554 57.579 104.78 56.7718 105.004 56.2956C105.119 56.0503 105.263 55.3741 105.379 54.7752C105.485 54.2049 105.563 53.7037 105.563 53.7037L102.707 51.5071L95.5769 49.7212L92.8952 48.8961L90.281 52.825C90.0962 53.1116 89.9267 53.4068 89.7731 53.7096C89.5672 54.118 89.3838 54.5728 89.4162 54.8562C89.4598 55.2138 89.3744 55.5749 89.1741 55.8801C89.1741 55.8801 87.6156 60.5853 87.6505 61.9401C87.6854 63.295 87.0964 66.2655 87.0964 66.2655C87.0964 66.2655 86.4563 68.18 86.8406 68.7265Z" fill="#CEDDF9"/>
<path d="M97.3801 30.4491C97.4899 30.4063 105.018 27.4393 103.981 26.85C103.366 26.4999 102.609 25.0165 102.09 23.8557C101.728 23.0449 101.482 22.3912 101.482 22.3912C101.482 22.3912 95.4397 21.3673 97.6022 24.901C97.9431 25.4431 98.1999 26.0293 98.3647 26.6416C98.9811 29.049 97.43 30.4051 97.3801 30.4491Z" fill="#FEC2BE"/>
<path opacity="0.1" d="M97.6022 24.901C97.9431 25.443 98.1999 26.0293 98.3647 26.6416C99.1313 26.5907 99.8687 26.341 100.497 25.9195C101.126 25.498 101.622 24.9206 101.932 24.2497C101.992 24.1212 102.045 23.9897 102.09 23.8557C101.728 23.0449 101.482 22.3912 101.482 22.3912C101.482 22.3912 95.4397 21.3673 97.6022 24.901Z" fill="black"/>
<path d="M93.8462 22.4901C93.8466 23.5095 94.252 24.4908 94.9808 25.2362C95.7096 25.9815 96.7075 26.4355 97.7733 26.5066C98.839 26.5777 99.8934 26.2606 100.724 25.6192C101.554 24.9779 102.099 24.0599 102.248 23.0506C102.397 22.0412 102.139 21.0154 101.527 20.1801C100.915 19.3448 99.993 18.7621 98.9482 18.5495C97.9033 18.3369 96.8128 18.5102 95.8965 19.0345C94.9803 19.5588 94.3064 20.395 94.0109 21.3746C93.9015 21.7372 93.8461 22.1128 93.8462 22.4901Z" fill="#FEC2BE"/>
<path opacity="0.1" d="M89.7729 53.7084C90.2147 54.0917 90.3844 54.8215 90.3844 54.8215C90.3844 54.8215 92.4621 56.1752 92.3236 55.3168C92.1851 54.4584 93.3967 50.9903 93.3967 50.9903L93.2582 55.7133C93.2582 55.7133 99.9031 55.4156 100.388 54.9537C100.874 54.4918 103.712 53.606 103.712 53.606C103.712 53.606 104.585 54.2715 105.379 54.7763C105.485 54.206 105.563 53.7048 105.563 53.7048L102.707 51.5082L95.5767 49.7223L92.8951 48.8972L90.2808 52.8261C90.0961 53.1119 89.9266 53.4063 89.7729 53.7084Z" fill="black"/>
<path d="M89.5547 53.3358C90.1087 53.6656 90.3159 54.5573 90.3159 54.5573C90.3159 54.5573 92.3923 55.911 92.2538 55.0526C92.1153 54.1942 93.327 50.726 93.327 50.726L93.1885 55.449C93.1885 55.449 99.8345 55.1538 100.317 54.6895C100.8 54.2251 103.641 53.3358 103.641 53.3358C103.641 53.3358 106.099 55.2181 106.548 55.0526C106.997 54.8871 105.752 51.6844 105.752 51.6844L104.473 32.9268C104.473 32.9268 104.818 27.3453 104.299 27.1465C104.219 27.1156 104.145 27.0717 104.081 27.0167C103.739 26.7239 103.637 26.1286 103.607 25.6285C103.573 25.0332 102.742 25.3309 102.742 25.3309L103.226 25.9262L98.9373 28.4145L98.8999 28.4359C98.7329 28.352 98.5608 28.2776 98.3845 28.2133C98.0102 28.074 97.4998 27.943 97.1691 28.0728C96.9843 28.1625 96.8276 28.2972 96.7149 28.4633C96.4703 28.8141 96.274 29.1934 96.1309 29.592L94.5773 32.1005C94.5773 32.1005 93.7812 35.4342 93.7812 35.5687C93.7812 35.7032 93.5391 38.7392 93.2621 39.069C92.9851 39.3988 92.708 41.0501 92.8116 41.5454C92.9152 42.0407 92.6382 43.8909 92.6382 43.8909C91.4964 44.7826 90.9086 47.8198 90.9086 47.8198C90.9086 47.8198 89.1042 51.2249 88.962 51.6177C88.8197 52.0106 89.0007 53.0107 89.5547 53.3358Z" fill="white"/>
<path opacity="0.1" d="M98.937 28.5454C99.3575 29.1407 100.573 29.9741 100.573 29.9741L104.081 27.1465C103.739 26.8536 103.636 26.2583 103.606 25.7571C103.573 25.1618 102.742 25.4606 102.742 25.4606L102.843 25.5797C102.891 25.639 102.926 25.7074 102.944 25.7804C102.963 25.8533 102.965 25.9292 102.951 26.003C102.936 26.0769 102.906 26.147 102.861 26.2088C102.817 26.2707 102.759 26.3228 102.692 26.3619L98.937 28.5454Z" fill="black"/>
<path d="M98.937 28.4134C99.3575 29.0086 100.573 29.8421 100.573 29.8421L104.081 27.0144C103.739 26.7215 103.636 26.1263 103.606 25.6262C103.573 25.0309 102.742 25.3286 102.742 25.3286L102.843 25.4476C102.891 25.5069 102.925 25.5752 102.944 25.648C102.963 25.7209 102.965 25.7967 102.951 25.8704C102.936 25.9441 102.906 26.0142 102.861 26.0759C102.817 26.1376 102.759 26.1897 102.692 26.2286L98.937 28.4134Z" fill="white"/>
<path opacity="0.1" d="M97.3149 28.8585C97.7679 29.3752 98.4106 29.9622 98.3806 29.6681C98.3507 29.374 98.7637 28.7251 99.027 28.4346C98.6157 28.3103 98.1725 28.322 97.7692 28.468C97.584 28.5573 97.4272 28.6921 97.3149 28.8585Z" fill="black"/>
<path d="M97.2466 28.6598C97.6995 29.1777 98.3409 29.7635 98.311 29.4706C98.281 29.1777 98.6517 28.7003 98.9149 28.4098C98.5406 28.2705 98.0315 28.1395 97.6995 28.2705C97.5149 28.3594 97.3585 28.4938 97.2466 28.6598Z" fill="white"/>
<path d="M98.3806 31.4075C98.5336 31.4075 98.6576 31.2892 98.6576 31.1432C98.6576 30.9972 98.5336 30.8789 98.3806 30.8789C98.2276 30.8789 98.1035 30.9972 98.1035 31.1432C98.1035 31.2892 98.2276 31.4075 98.3806 31.4075Z" fill="#FF718D"/>
<path d="M96.2804 38.5403C96.4334 38.5403 96.5575 38.422 96.5575 38.276C96.5575 38.1301 96.4334 38.0117 96.2804 38.0117C96.1274 38.0117 96.0034 38.1301 96.0034 38.276C96.0034 38.422 96.1274 38.5403 96.2804 38.5403Z" fill="#FF718D"/>
<path d="M93.9045 45.7625C94.0575 45.7625 94.1815 45.6442 94.1815 45.4982C94.1815 45.3522 94.0575 45.2339 93.9045 45.2339C93.7515 45.2339 93.6274 45.3522 93.6274 45.4982C93.6274 45.6442 93.7515 45.7625 93.9045 45.7625Z" fill="#FF718D"/>
<path d="M93.8347 53.6215C93.9877 53.6215 94.1117 53.5032 94.1117 53.3572C94.1117 53.2112 93.9877 53.0929 93.8347 53.0929C93.6817 53.0929 93.5576 53.2112 93.5576 53.3572C93.5576 53.5032 93.6817 53.6215 93.8347 53.6215Z" fill="#FF718D"/>
<path d="M97.1579 34.7757C97.3109 34.7757 97.4349 34.6574 97.4349 34.5114C97.4349 34.3654 97.3109 34.2471 97.1579 34.2471C97.0049 34.2471 96.8809 34.3654 96.8809 34.5114C96.8809 34.6574 97.0049 34.7757 97.1579 34.7757Z" fill="#FF718D"/>
<path d="M95.2887 42.1074C95.4417 42.1074 95.5658 41.989 95.5658 41.843C95.5658 41.6971 95.4417 41.5787 95.2887 41.5787C95.1357 41.5787 95.0117 41.6971 95.0117 41.843C95.0117 41.989 95.1357 42.1074 95.2887 42.1074Z" fill="#FF718D"/>
<path d="M93.4655 49.3068C93.6185 49.3068 93.7425 49.1885 93.7425 49.0425C93.7425 48.8965 93.6185 48.7782 93.4655 48.7782C93.3125 48.7782 93.1885 48.8965 93.1885 49.0425C93.1885 49.1885 93.3125 49.3068 93.4655 49.3068Z" fill="#FF718D"/>
<path d="M93.881 54.5025C94.034 54.5025 94.1581 54.3842 94.1581 54.2382C94.1581 54.0922 94.034 53.9739 93.881 53.9739C93.728 53.9739 93.604 54.0922 93.604 54.2382C93.604 54.3842 93.728 54.5025 93.881 54.5025Z" fill="#FF718D"/>
<path opacity="0.1" d="M104.081 27.1752C104.081 27.1752 104.035 26.7787 104.634 27.4621C105.233 28.1455 106.364 28.7384 106.364 28.7384C106.364 28.7384 108.926 30.4564 109.065 31.2481C109.203 32.0399 110.033 35.4759 109.595 36.62C109.157 37.7642 105.808 43.248 105.808 43.248C105.808 43.248 106.681 44.2398 106.478 45.4065C106.275 46.5733 106.016 48.1806 106.131 48.533C106.246 48.8854 105.993 49.7653 106.381 50.0736C106.769 50.382 107.188 50.907 105.965 51.6142C105.965 51.6142 105.734 52.2095 105.941 52.3417C106.149 52.4738 102.873 53.8383 101.574 53.112C100.275 52.3857 97.9551 46.5733 97.9052 45.2744C97.8552 43.9755 98.6202 39.6787 99.0357 38.669C99.4513 37.6594 100.698 33.715 101.228 32.8352C101.759 31.9553 104.081 27.1752 104.081 27.1752Z" fill="black"/>
<path d="M104.218 27.1752C104.218 27.1752 104.172 26.7787 104.772 27.4621C105.372 28.1455 106.503 28.7384 106.503 28.7384C106.503 28.7384 109.065 30.4564 109.203 31.2481C109.342 32.0399 110.172 35.4759 109.734 36.62C109.296 37.7642 105.949 43.248 105.949 43.248C105.949 43.248 106.822 44.2398 106.619 45.4065C106.416 46.5733 106.157 48.1806 106.272 48.533C106.387 48.8854 106.134 49.7653 106.522 50.0736C106.91 50.382 107.329 50.907 106.106 51.6142C106.106 51.6142 105.875 52.2095 106.082 52.3417C106.29 52.4738 103.014 53.8383 101.715 53.112C100.416 52.3857 98.0962 46.5733 98.0463 45.2744C97.9964 43.9755 98.7613 39.6787 99.1768 38.669C99.5924 37.6594 100.839 33.715 101.369 32.8352C101.9 31.9553 104.218 27.1752 104.218 27.1752Z" fill="#4C4981"/>
<path opacity="0.1" d="M105.142 30.923C105.142 30.923 103.158 33.0148 103.226 34.4019C103.226 34.4019 103.204 32.1552 105.142 30.923Z" fill="black"/>
<path opacity="0.1" d="M102.396 34.3579C102.396 34.4234 101.057 39.1786 101.127 39.7739C101.197 40.3692 100.734 42.1288 100.734 42.1288L100.11 41.9753C100.11 41.9753 100.595 39.531 100.687 38.6285C100.779 37.7261 102.396 34.3579 102.396 34.3579Z" fill="black"/>
<path opacity="0.1" d="M101.865 47.9198C101.911 47.9853 105.027 51.3534 104.15 51.5963C103.272 51.8392 101.865 47.9198 101.865 47.9198Z" fill="black"/>
<path opacity="0.1" d="M104.427 47.0579C104.495 47.1019 105.675 49.4795 105.811 48.8437C105.947 48.208 104.796 50.5832 104.611 48.8223L104.427 47.0579Z" fill="black"/>
<path opacity="0.1" d="M98.4455 27.9287C98.4455 27.9287 97.159 27.1799 95.543 29.0955C95.543 29.0955 94.3663 29.7337 94.0206 29.8884C93.675 30.0432 93.2819 34.1376 93.2819 34.1376C93.2819 34.1376 92.5207 35.8985 92.7279 36.9117C92.935 37.9249 92.1289 41.4025 92.1289 41.4025C92.1289 41.4025 90.7887 47.6531 90.8336 47.8317C90.8785 48.0103 92.195 45.872 92.1726 44.8148C92.1501 43.7575 93.2794 40.456 93.4416 40.2572C93.6039 40.0584 94.7107 34.4019 94.7107 34.4019C94.7107 34.4019 95.6104 32.0017 96.1869 31.2088C96.7634 30.4159 97.4797 28.9193 97.7792 28.655C97.9947 28.477 98.2354 28.3287 98.4942 28.2145L98.4455 27.9287Z" fill="black"/>
<path d="M98.4619 27.9287C98.4619 27.9287 97.0194 27.1799 95.4046 29.0955C95.4046 29.0955 94.2267 29.7337 93.881 29.8884C93.5353 30.0432 93.1423 34.1376 93.1423 34.1376C93.1423 34.1376 92.3811 35.8985 92.5882 36.9117C92.7954 37.9249 91.9893 41.4025 91.9893 41.4025C91.9893 41.4025 90.6503 47.6555 90.6965 47.8317C90.7427 48.0079 92.0579 45.872 92.0354 44.8148C92.013 43.7575 93.1423 40.456 93.3045 40.2572C93.4667 40.0584 94.5773 34.4019 94.5773 34.4019C94.5773 34.4019 95.477 32.0017 96.0535 31.2088C96.63 30.4159 97.3463 28.9193 97.6458 28.655C97.9453 28.3907 98.4993 28.2145 98.4993 28.2145L98.4619 27.9287Z" fill="#4C4981"/>
<path d="M92.1277 41.6883C92.1277 41.6883 89.3824 39.9714 88.0547 40.8191C86.727 41.6668 84.5607 42.8669 86.6933 43.7361C88.8259 44.6052 91.7808 44.4385 91.7808 44.4385L92.1277 41.6883Z" fill="#FEC2BE"/>
<path opacity="0.1" d="M94.0369 58.2564C94.4462 59.0898 94.7856 63.3021 95.0127 64.6367C95.3409 64.101 95.7377 63.4592 95.8713 63.2592C96.041 63.0044 96.4503 61.921 96.6786 61.2959C96.4178 60.6911 95.6978 58.9576 95.6978 58.3195C95.6978 57.5432 94.3826 56.5693 94.3826 56.5693C94.3826 56.5693 93.5528 57.2658 94.0369 58.2564Z" fill="black"/>
<path opacity="0.1" d="M102.863 71.185C102.863 71.185 99.8168 69.9468 98.9171 70.8278C98.0174 71.7089 102.863 71.185 102.863 71.185Z" fill="black"/>
<path opacity="0.1" d="M101.149 71.6803C101.149 71.6803 104.23 73.3316 103.175 73.6079C102.119 73.8841 101.149 71.6803 101.149 71.6803Z" fill="black"/>
<path opacity="0.1" d="M91.9429 70.2444C91.9429 70.2444 93.2581 70.3265 92.7565 70.5742C92.2548 70.8218 91.9429 70.2444 91.9429 70.2444Z" fill="black"/>
<path opacity="0.1" d="M90.2983 70.6241C90.3158 70.7063 94.123 71.879 93.3793 72.41C92.6356 72.941 90.2983 70.6241 90.2983 70.6241Z" fill="black"/>
<path opacity="0.1" d="M102.413 80.7298C101.842 80.6465 98.6578 79.2428 99.9031 80.2536C101.148 81.2644 102.413 80.7298 102.413 80.7298Z" fill="black"/>
<path opacity="0.1" d="M100.838 81.8359C100.838 81.8359 100.561 82.8598 99.5052 82.7277C98.4495 82.5955 100.838 81.8359 100.838 81.8359Z" fill="black"/>
<path opacity="0.1" d="M101.721 83.9158C101.53 83.867 99.263 82.8764 99.2118 83.3384C99.1606 83.8003 101.374 84.6099 101.548 84.3623C101.647 84.2314 101.707 84.077 101.721 83.9158Z" fill="black"/>
<path opacity="0.1" d="M94.3824 82.7275C94.1054 82.7109 91.5123 81.9179 90.9907 82.6275L94.3824 82.7275Z" fill="black"/>
<path opacity="0.1" d="M92.0289 83.1896C92.0289 83.1896 91.5784 82.8098 91.1292 83.0074C90.68 83.2051 92.0289 83.1896 92.0289 83.1896Z" fill="black"/>
<path opacity="0.1" d="M97.7755 87.2852C97.7464 87.4254 97.6752 87.5547 97.5707 87.6572C97.4662 87.7596 97.3327 87.831 97.1865 87.8626L97.7755 87.2852Z" fill="black"/>
<path d="M84.5696 88.8364C84.7431 89.5139 87.1664 89.5794 88.3257 89.3984C89.4849 89.2174 91.8908 88.5555 91.8908 88.5555C91.8908 88.5555 94.4177 88.3245 95.1614 88.028C95.9052 87.7316 95.3174 86.9708 95.3174 86.9708C95.3174 86.9708 95.3174 86.9446 95.3174 86.8994C95.3349 86.6232 95.3873 85.6219 95.2088 85.3516C95.0017 85.0373 95.1227 84.0134 95.1227 84.0134C95.1227 84.0134 91.5402 84.6742 91.4703 84.361C91.4004 84.0479 90.8463 83.6015 90.588 83.5026C90.3297 83.4038 90.1376 84.3277 90.1376 84.3277C90.1376 84.3277 88.5153 85.6493 88.4068 86.1279C88.2982 86.6065 87.1589 86.8541 87.1589 86.8541C87.1589 86.8541 85.4282 87.3161 84.9777 87.547C84.847 87.6057 84.7344 87.6956 84.6508 87.808C84.5673 87.9205 84.5157 88.0517 84.501 88.1888C84.4821 88.4068 84.5054 88.6264 84.5696 88.8364Z" fill="#CA8496"/>
<path opacity="0.1" d="M84.5696 88.8365C84.7431 89.5139 87.1664 89.5794 88.3257 89.3984C89.4849 89.2175 91.8908 88.5555 91.8908 88.5555C91.8908 88.5555 94.4177 88.3245 95.1614 88.0281C95.9051 87.7316 95.3174 86.9708 95.3174 86.9708C95.3174 86.9708 95.3174 86.9447 95.3174 86.8994L91.6986 87.665C91.6986 87.665 89.9154 88.3912 88.7736 88.3912C87.7753 88.3912 85.5417 88.7805 84.506 88.19C84.4856 88.4074 84.5072 88.6265 84.5696 88.8365Z" fill="black"/>
<path opacity="0.1" d="M89.4673 86.228C89.4673 86.228 89.6407 87.3174 90.3333 87.6805L89.4673 86.228Z" fill="black"/>
<path opacity="0.1" d="M94.0107 21.3745C94.0766 21.4078 94.1455 21.4353 94.2166 21.4567C94.5411 21.54 94.858 21.3305 95.1463 21.1638C95.4345 20.9971 95.8326 20.8733 96.0822 21.09C96.4079 21.3722 96.172 21.9746 96.5077 22.2472C96.7198 22.4199 97.0568 22.3604 97.2926 22.502C97.5284 22.6437 97.5996 22.9545 97.6595 23.2223C97.7194 23.4902 97.8392 23.7962 98.1137 23.8748C98.3882 23.9534 98.644 23.7807 98.9148 23.7902C98.971 23.7902 99.0396 23.7986 99.0745 23.7605C99.0993 23.7256 99.1087 23.6828 99.1007 23.6414C99.0669 23.3214 99.097 22.9982 99.1893 22.689C99.3004 22.3842 99.5637 22.1091 99.8931 22.0603C100.379 21.9889 100.787 22.3949 101.072 22.7747C101.373 23.1769 101.646 23.5968 101.891 24.0319C101.906 24.0601 101.92 24.0891 101.932 24.1188C102.167 23.6136 102.29 23.0677 102.293 22.5152C102.297 21.9627 102.182 21.4153 101.955 20.9071C101.728 20.3988 101.393 19.9406 100.973 19.5609C100.552 19.1812 100.054 18.8882 99.5093 18.7C98.9648 18.5117 98.3856 18.4324 97.8076 18.4668C97.2296 18.5013 96.6652 18.6488 96.1495 18.9002C95.6338 19.1516 95.1778 19.5015 94.8099 19.9282C94.4419 20.3549 94.1699 20.8492 94.0107 21.3805V21.3745Z" fill="black"/>
<path d="M101.072 22.708C100.786 22.3246 100.378 21.9198 99.8917 21.9936C99.5585 22.0424 99.3014 22.3174 99.1891 22.621C99.0966 22.9303 99.067 23.2536 99.1018 23.5735C99.1087 23.6151 99.0989 23.6576 99.0743 23.6926C99.0356 23.7319 98.9708 23.7259 98.9146 23.7235C98.6438 23.714 98.3743 23.8819 98.1135 23.8081C97.8527 23.7342 97.7192 23.4235 97.6593 23.1556C97.5994 22.8877 97.5345 22.5818 97.2924 22.4353C97.0503 22.2889 96.7196 22.3532 96.5075 22.1793C96.1718 21.9079 96.4089 21.3043 96.082 21.0221C95.8324 20.8066 95.4343 20.9304 95.1461 21.0971C94.8578 21.2638 94.5409 21.4721 94.2152 21.3888C94.1054 21.3602 94.0068 21.3007 93.8995 21.2614C93.3866 21.0745 92.7215 21.3912 92.2997 21.0554C92.1467 20.9093 92.0365 20.7275 91.9803 20.528C91.8645 20.2583 91.7861 19.9753 91.7469 19.6863C91.7096 19.3941 91.7939 19.0996 91.9815 18.866C92.2561 18.5576 92.7203 18.4802 93.0709 18.2528C93.3691 18.0575 93.57 17.7611 93.7672 17.4694C93.9644 17.1777 94.1553 16.8741 94.4435 16.6681C94.7318 16.4622 95.1361 16.3598 95.458 16.5157C95.5596 16.5833 95.6722 16.6344 95.7912 16.6669C95.921 16.6685 96.0486 16.6351 96.1593 16.5705C97.3598 16.0312 98.7574 16.1264 100.074 16.2871C100.6 16.3514 101.135 16.4264 101.615 16.6443C102.095 16.8622 102.52 17.2396 102.654 17.7301C102.762 18.1183 102.679 18.5409 102.809 18.9207C102.896 19.1803 103.076 19.397 103.184 19.6577C103.464 20.3542 103.129 21.1185 102.986 21.8519C102.832 22.6532 102.909 23.5187 102.552 24.2783C102.482 24.4272 102.404 24.6879 102.228 24.5903C102.103 24.5176 101.971 24.095 101.896 23.9628C101.65 23.5282 101.374 23.109 101.072 22.708Z" fill="#9A5E7F"/>
<path opacity="0.1" d="M108.678 35.6128L109.302 37.3082C109.302 37.3082 107.824 42.5467 107.132 43.648C106.439 44.7493 105.425 46.1578 105.425 46.1578C105.425 46.1578 103.718 46.9733 101.732 46.5983C99.7469 46.2232 93.9531 45.2339 93.9531 45.2339C93.9531 45.2339 93.4677 45.322 93.2144 44.9696C92.9611 44.6171 91.6421 44.4386 91.6421 44.4386C91.6421 44.4386 90.1197 42.3253 91.989 41.4442C91.989 41.4442 92.2198 41.9288 93.2119 41.599C94.2039 41.2692 94.5034 41.8621 94.5034 41.8621C94.5034 41.8621 96.1256 42.1705 97.0191 42.061C97.9126 41.9514 100.157 41.9062 100.388 41.73C100.447 41.681 100.523 41.656 100.601 41.6602C100.679 41.6645 100.752 41.6976 100.804 41.7526C100.804 41.7526 101.357 41.555 101.541 41.3561C101.726 41.1573 101.981 41.5764 101.981 41.5764C101.981 41.5764 102.304 41.4002 102.211 41.1799C102.119 40.9597 102.511 40.1239 102.511 40.1239C102.511 40.1239 102.696 39.5727 102.581 39.1321C102.466 38.6916 103.157 37.1081 103.157 37.1081C103.166 36.841 103.135 36.574 103.065 36.3152C102.949 35.9199 103.938 35.1246 103.938 35.1246C103.938 35.1246 104.907 30.6326 106.961 32.1077C109.015 33.5828 108.678 35.6128 108.678 35.6128Z" fill="black"/>
<path d="M108.81 35.6128L109.434 37.3082C109.434 37.3082 107.957 42.5467 107.264 43.648C106.572 44.7493 105.558 46.1578 105.558 46.1578C105.558 46.1578 103.851 46.9733 101.866 46.5983C99.8806 46.2232 94.0893 45.2339 94.0893 45.2339C94.0893 45.2339 93.6051 45.322 93.3518 44.9696C93.0985 44.6171 91.7807 44.4386 91.7807 44.4386C91.7807 44.4386 90.2584 42.3253 92.1276 41.4442C92.1276 41.4442 92.3585 41.9288 93.3505 41.599C94.3426 41.2692 94.6421 41.8621 94.6421 41.8621C94.6421 41.8621 96.2643 42.1705 97.1577 42.061C98.0512 41.9514 100.296 41.9062 100.527 41.73C100.586 41.681 100.662 41.656 100.74 41.6602C100.817 41.6645 100.89 41.6976 100.942 41.7526C100.942 41.7526 101.495 41.555 101.68 41.3561C101.865 41.1573 102.119 41.5764 102.119 41.5764C102.119 41.5764 102.442 41.4002 102.35 41.1799C102.258 40.9597 102.65 40.1239 102.65 40.1239C102.65 40.1239 102.834 39.5727 102.718 39.1321C102.602 38.6916 103.296 37.1081 103.296 37.1081C103.305 36.841 103.274 36.574 103.204 36.3152C103.088 35.9199 104.077 35.1246 104.077 35.1246C104.077 35.1246 105.045 30.6326 107.099 32.1077C109.153 33.5828 108.81 35.6128 108.81 35.6128Z" fill="#4C4981"/>
<path opacity="0.1" d="M93.8122 42.7014C93.8346 42.8562 94.3425 43.4717 94.1578 43.5824C93.9732 43.6932 93.6737 43.6265 93.9507 43.9789C94.2277 44.3313 94.2003 44.8588 94.0193 44.7933C93.8384 44.7278 93.5352 43.9349 93.5352 43.6265C93.5352 43.3181 93.8122 42.7014 93.8122 42.7014Z" fill="black"/>
<path opacity="0.1" d="M100.666 42.3491C100.666 42.3491 100.804 43.8909 101.94 44.3314C103.075 44.7719 100.666 42.3491 100.666 42.3491Z" fill="black"/>
<path opacity="0.1" d="M103.019 41.8192C103.088 41.8418 104.634 42.6348 103.942 43.0967C103.251 43.5587 103.019 41.8192 103.019 41.8192Z" fill="black"/>
<path opacity="0.1" d="M103.111 40.7202C103.111 40.7202 105.372 41.1607 104.609 41.5346C103.845 41.9084 103.111 40.7202 103.111 40.7202Z" fill="black"/>
<g opacity="0.1">
<path opacity="0.1" d="M99.1943 22.2437C99.3066 21.9401 99.5686 21.6651 99.8968 21.6163C100.383 21.5448 100.792 21.9508 101.077 22.3306C101.378 22.7328 101.651 23.1527 101.896 23.5879C101.971 23.72 102.098 24.1415 102.228 24.2141C102.404 24.3129 102.477 24.0522 102.552 23.9034C102.909 23.1462 102.832 22.2782 102.987 21.477C103.078 21.0091 103.246 20.5245 103.284 20.0602C103.337 20.6364 103.1 21.2424 102.987 21.8282C102.832 22.6295 102.909 23.495 102.552 24.2558C102.482 24.4046 102.404 24.6654 102.228 24.5665C102.103 24.4939 101.971 24.0724 101.896 23.9403C101.651 23.5051 101.378 23.0852 101.077 22.683C100.792 22.3009 100.383 21.8949 99.8968 21.9687C99.5636 22.0175 99.3066 22.2925 99.1943 22.5961C99.1386 22.7561 99.1075 22.9229 99.1019 23.0914C99.0772 22.8058 99.1085 22.5183 99.1943 22.2437Z" fill="black"/>
<path opacity="0.1" d="M91.9806 20.1506C92.0366 20.3505 92.1468 20.5328 92.3001 20.6792C92.7219 21.0149 93.387 20.6982 93.8998 20.8851C94.0072 20.9232 94.1057 20.984 94.2155 21.0125C94.5412 21.0947 94.8594 20.8863 95.1464 20.7197C95.4335 20.553 95.834 20.4303 96.0823 20.6458C96.4093 20.928 96.1722 21.5304 96.5079 21.8031C96.72 21.9757 97.0569 21.9221 97.2928 22.0591C97.5286 22.196 97.5997 22.5103 97.6596 22.7734C97.7195 23.0365 97.8381 23.3473 98.1139 23.4259C98.3896 23.5044 98.6442 23.333 98.915 23.3425C98.9711 23.3425 99.0398 23.3508 99.0747 23.3116C99.0829 23.3015 99.0892 23.2903 99.0934 23.2782C99.0934 23.3675 99.0934 23.4556 99.1022 23.5437C99.109 23.5853 99.0992 23.6278 99.0747 23.6628C99.036 23.7009 98.9711 23.6949 98.915 23.6925C98.6442 23.6842 98.3747 23.8509 98.1139 23.7771C97.8531 23.7033 97.7195 23.3937 97.6596 23.1246C97.5997 22.8556 97.5348 22.5508 97.2928 22.4103C97.0507 22.2698 96.72 22.3269 96.5079 22.1543C96.1722 21.8817 96.4093 21.278 96.0823 20.9971C95.8328 20.7804 95.4347 20.9042 95.1464 21.0709C94.8582 21.2376 94.5412 21.4459 94.2155 21.3638C94.1057 21.3352 94.0072 21.2745 93.8998 21.2364C93.387 21.0494 92.7219 21.3661 92.3001 21.0304C92.147 20.8839 92.0369 20.7016 91.9806 20.5018C91.865 20.2324 91.7866 19.9499 91.7473 19.6612C91.7385 19.5628 91.7411 19.4638 91.7548 19.366C91.7982 19.6349 91.874 19.8982 91.9806 20.1506Z" fill="black"/>
</g>
<path d="M12.7103 86.7327C12.7103 86.7327 7.43433 86.4291 8.05577 89.9557C8.05577 89.9557 7.93098 90.5795 8.52496 90.8629C8.52496 90.8629 8.53369 90.601 9.06653 90.6891C9.2557 90.7193 9.4479 90.7285 9.63929 90.7165C9.8979 90.6994 10.1436 90.6024 10.3393 90.4402C10.3393 90.4402 11.823 89.8557 12.3995 87.5423C12.3995 87.5423 12.8263 87.0387 12.8088 86.909L11.9191 87.2661C11.9191 87.2661 12.2236 87.8793 11.984 88.3889C11.984 88.3889 11.9553 87.2888 11.7844 87.3173C11.7494 87.3173 11.3214 87.5292 11.3214 87.5292C11.3214 87.5292 11.8455 88.6008 11.4462 89.3735C11.4462 89.3735 11.5959 88.0579 11.1542 87.6066L10.5303 87.9555C10.5303 87.9555 11.1417 89.058 10.7274 89.958C10.7274 89.958 10.8335 88.5782 10.398 88.0412L9.83022 88.4639C9.83022 88.4639 10.4055 89.5497 10.0548 90.2962C10.0548 90.2962 10.0087 88.6901 9.70793 88.5686C9.70793 88.5686 9.20878 88.9865 9.13516 89.1639C9.13516 89.1639 9.52823 89.9533 9.28365 90.37C9.28365 90.37 9.13391 89.2985 9.01162 89.2985C9.01162 89.2985 8.51248 90.0069 8.46506 90.489C8.46506 90.489 8.48628 89.7664 8.89183 89.2258C8.60635 89.2775 8.34301 89.4079 8.13438 89.6009C8.13438 89.6009 8.2105 89.0996 9.01412 89.0556C9.01412 89.0556 9.42342 88.5174 9.53198 88.4853C9.53198 88.4853 8.73335 88.421 8.24918 88.6258C8.24918 88.6258 8.67595 88.1495 9.67922 88.3686L10.2395 87.9317C10.2395 87.9317 9.18757 87.7948 8.74209 87.946C8.74209 87.946 9.25496 87.5281 10.3905 87.8328L11.0007 87.484C11.0007 87.484 10.1047 87.2995 9.57066 87.3649C9.57066 87.3649 10.1334 87.0756 11.1804 87.39L11.6159 87.203C11.6159 87.203 10.9595 87.084 10.7674 87.0602C10.5752 87.0363 10.564 86.9899 10.564 86.9899C10.9801 86.9237 11.4073 86.9691 11.7981 87.1209C11.7981 87.1209 12.7252 86.7875 12.7103 86.7327Z" fill="#F13F00"/>
<path opacity="0.1" d="M9.07636 91.7725C11.1384 91.7725 12.8099 91.5028 12.8099 91.1701C12.8099 90.8373 11.1384 90.5676 9.07636 90.5676C7.01436 90.5676 5.34277 90.8373 5.34277 91.1701C5.34277 91.5028 7.01436 91.7725 9.07636 91.7725Z" fill="#F13F00"/>
<path d="M22.8256 77.4379C22.8256 77.4379 19.8507 77.2665 20.2051 79.2559C20.1872 79.3568 20.2032 79.4605 20.2507 79.5522C20.2982 79.6439 20.3748 79.719 20.4696 79.7667C20.4696 79.7667 20.4697 79.6191 20.7754 79.6691C20.8822 79.6856 20.9906 79.6908 21.0986 79.6845C21.2441 79.6741 21.3823 79.6194 21.4929 79.5286C21.4929 79.5286 22.3265 79.2035 22.6559 77.8939C22.6559 77.8939 22.8967 77.6094 22.8867 77.5367L22.3876 77.7403C22.3876 77.7403 22.5586 78.0868 22.4238 78.3737C22.4238 78.3737 22.4076 77.7534 22.3115 77.7677C22.2915 77.7677 22.0507 77.8868 22.0507 77.8868C22.0507 77.8868 22.3452 78.4821 22.1231 78.9261C22.1231 78.9261 22.2067 78.1844 21.9583 77.9296L21.6027 78.132C21.6027 78.132 21.9471 78.7535 21.7138 79.2607C21.7138 79.2607 21.7737 78.4821 21.5278 78.1796L21.2084 78.4178C21.2084 78.4178 21.5316 79.0309 21.3332 79.4512C21.3332 79.4512 21.307 78.5452 21.1373 78.4773C21.016 78.5754 20.9076 78.6869 20.8141 78.8095C20.8141 78.8095 21.0362 79.2547 20.8989 79.4893C20.8989 79.4893 20.8141 78.8857 20.7454 78.8833C20.7454 78.8833 20.4659 79.2821 20.4372 79.5571C20.4501 79.3031 20.5328 79.0568 20.6768 78.8428C20.516 78.8725 20.3678 78.9462 20.25 79.0547C20.25 79.0547 20.2937 78.7714 20.7492 78.7476C20.7492 78.7476 20.9788 78.444 21.0412 78.4261C21.0412 78.4261 20.5907 78.3892 20.3174 78.5047C20.3174 78.5047 20.5582 78.238 21.1235 78.3594L21.4392 78.113C21.4392 78.113 20.8465 78.0356 20.5957 78.1213C20.5957 78.1213 20.8852 77.8832 21.5253 78.057L21.8685 77.8618C21.604 77.8058 21.333 77.7834 21.0624 77.7951C21.0624 77.7951 21.3806 77.6308 21.9696 77.8082L22.2191 77.7034C22.2191 77.7034 21.8448 77.6332 21.7412 77.6224C21.6376 77.6117 21.6264 77.5832 21.6264 77.5832C21.8612 77.5459 22.1022 77.5715 22.3227 77.657C22.3227 77.657 22.8393 77.4689 22.8256 77.4379Z" fill="#F13F00"/>
<path opacity="0.1" d="M20.7814 80.2786C21.944 80.2786 22.8865 80.1267 22.8865 79.9393C22.8865 79.7519 21.944 79.6 20.7814 79.6C19.6188 79.6 18.6763 79.7519 18.6763 79.9393C18.6763 80.1267 19.6188 80.2786 20.7814 80.2786Z" fill="#F13F00"/>
<path d="M5.27443 79.1642C5.27443 79.1642 1.6831 78.957 2.11111 81.3584C2.08938 81.4802 2.10858 81.6054 2.16595 81.7162C2.22333 81.827 2.31595 81.9176 2.43056 81.9751C2.43056 81.9751 2.43056 81.7965 2.79868 81.8561C2.92766 81.8769 3.05879 81.8828 3.18926 81.8739C3.36546 81.8627 3.53293 81.7966 3.66594 81.6858C3.66594 81.6858 4.67546 81.2881 5.06853 79.7142C5.06853 79.7142 5.35803 79.3713 5.3468 79.2832L4.73161 79.5309C4.73161 79.5309 4.93751 79.9476 4.77529 80.294C4.77529 80.294 4.75532 79.5463 4.63927 79.5642C4.61556 79.5642 4.32481 79.7082 4.32481 79.7082C4.32481 79.7082 4.68045 80.4345 4.41216 80.9631C4.41216 80.9631 4.51324 80.0678 4.2125 79.7606L3.78698 79.9988C3.78698 79.9988 4.20252 80.7488 3.9205 81.3608C3.9205 81.3608 3.99288 80.4214 3.69714 80.0511L3.3103 80.3393C3.3103 80.3393 3.70088 81.0786 3.46254 81.587C3.46254 81.587 3.43135 80.4928 3.2267 80.4107C3.2267 80.4107 2.88853 80.6952 2.83612 80.8119C2.83612 80.8119 3.10441 81.3489 2.93844 81.6322C2.93844 81.6322 2.83612 80.9036 2.75251 80.9C2.75251 80.9 2.41559 81.3834 2.37815 81.7144C2.39486 81.4086 2.49509 81.1122 2.66891 80.8548C2.47423 80.8895 2.29457 80.9781 2.15229 81.1096C2.15229 81.1096 2.2047 80.7679 2.75251 80.7381C2.75251 80.7381 3.03078 80.3726 3.10441 80.35C3.10441 80.35 2.56159 80.3059 2.23091 80.4452C2.23091 80.4452 2.52166 80.1238 3.20423 80.2702L3.58608 79.9726C3.58608 79.9726 2.86981 79.8797 2.56658 79.9833C2.56658 79.9833 2.91598 79.6975 3.68965 79.9059L4.10519 79.6678C4.10519 79.6678 3.49498 79.5416 3.13186 79.5868C3.13186 79.5868 3.51495 79.3892 4.22748 79.6035L4.52447 79.4761C4.52447 79.4761 4.07774 79.3927 3.94671 79.3796C3.81569 79.3666 3.8082 79.332 3.8082 79.332C4.09127 79.2862 4.38212 79.3168 4.64801 79.4201C4.64801 79.4201 5.28566 79.2034 5.27443 79.1642Z" fill="#F13F00"/>
<path opacity="0.1" d="M2.80116 82.5943C4.205 82.5943 5.34304 82.4109 5.34304 82.1847C5.34304 81.9585 4.205 81.7751 2.80116 81.7751C1.39732 81.7751 0.259277 81.9585 0.259277 82.1847C0.259277 82.4109 1.39732 82.5943 2.80116 82.5943Z" fill="#F13F00"/>
<path opacity="0.1" d="M76.0939 97.698C78.1559 97.698 79.8275 97.4283 79.8275 97.0956C79.8275 96.7629 78.1559 96.4932 76.0939 96.4932C74.0319 96.4932 72.3604 96.7629 72.3604 97.0956C72.3604 97.4283 74.0319 97.698 76.0939 97.698Z" fill="#F13F00"/>
<path d="M73.5869 94.2978C73.5869 94.2978 75.717 94.2347 76.3584 93.7989C76.9998 93.3632 79.634 92.8465 79.7938 93.5418C79.9535 94.2371 82.9945 97.0195 80.5899 97.0385C78.1853 97.0576 75.0032 96.6813 74.3618 96.3087C73.7204 95.936 73.5869 94.2978 73.5869 94.2978Z" fill="#A8A8A8"/>
<path opacity="0.2" d="M80.6326 96.7944C78.228 96.8135 75.0459 96.4373 74.4058 96.0658C73.9179 95.7813 73.7232 94.7645 73.6571 94.2954H73.5859C73.5859 94.2954 73.7207 95.9337 74.3609 96.3063C75.001 96.679 78.1843 97.054 80.5889 97.0361C81.2827 97.0361 81.5223 96.798 81.5098 96.4408C81.415 96.6587 81.1492 96.7909 80.6326 96.7944Z" fill="black"/>
<defs>
<linearGradient id="paint0_linear" x1="89.2752" y1="32.2708" x2="89.2752" y2="28.4693" gradientUnits="userSpaceOnUse">
<stop stop-color="#808080" stop-opacity="0.25"/>
<stop offset="0.54" stop-color="#808080" stop-opacity="0.12"/>
<stop offset="1" stop-color="#808080" stop-opacity="0.1"/>
</linearGradient>
<linearGradient id="paint1_linear" x1="37183.6" y1="61105.1" x2="37183.6" y2="13024.5" gradientUnits="userSpaceOnUse">
<stop stop-color="#808080" stop-opacity="0.25"/>
<stop offset="0.54" stop-color="#808080" stop-opacity="0.12"/>
<stop offset="1" stop-color="#808080" stop-opacity="0.1"/>
</linearGradient>
</defs>
</svg>
