<svg width="145" height="80" viewBox="0 0 145 80" fill="none" xmlns="http://www.w3.org/2000/svg">
<path d="M74.4456 74.8382L74.2664 74.7741C74.227 74.7599 70.3061 73.3267 68.4694 70.0768C66.6326 66.8267 67.532 62.9137 67.5413 62.8746L67.5836 62.6964L67.7628 62.7605C67.8022 62.7747 71.723 64.208 73.5598 67.4578C75.3966 70.7079 74.4972 74.6209 74.4879 74.66L74.4456 74.8382ZM68.7635 69.9255C70.3163 72.6733 73.4147 74.0818 74.1998 74.4034C74.3491 73.6006 74.8171 70.3543 73.2657 67.6091C71.7143 64.8643 68.6147 63.4536 67.8293 63.1313C67.68 63.9345 67.2121 67.1805 68.7635 69.9255V69.9255Z" fill="#3F3D56"/>
<path d="M69.8729 68.9367C73.1738 70.8314 74.445 74.5949 74.445 74.5949C74.445 74.5949 70.3646 75.2864 67.0638 73.3917C63.7629 71.4969 62.4917 67.7335 62.4917 67.7335C62.4917 67.7335 66.5721 67.042 69.8729 68.9367Z" fill="#D0CDE1"/>
<path d="M132.707 74.66C132.697 74.6209 131.798 70.7079 133.635 67.4579C135.472 64.208 139.392 62.7747 139.432 62.7605L139.611 62.6964L139.653 62.8746C139.663 62.9137 140.562 66.8267 138.725 70.0768C136.889 73.3267 132.968 74.7599 132.928 74.7741L132.749 74.8382L132.707 74.66ZM139.365 63.1313C138.58 63.4536 135.48 64.8643 133.929 67.6091C132.378 70.3543 132.846 73.6006 132.995 74.4034C133.78 74.0818 136.878 72.6733 138.431 69.9255C139.983 67.1805 139.515 63.9345 139.365 63.1313Z" fill="#3F3D56"/>
<path d="M137.322 68.9367C134.021 70.8314 132.75 74.5949 132.75 74.5949C132.75 74.5949 136.83 75.2864 140.131 73.3917C143.432 71.4969 144.703 67.7335 144.703 67.7335C144.703 67.7335 140.623 67.042 137.322 68.9367Z" fill="#F13F00"/>
<path d="M139.688 74.4999H61.0122V74.8186H139.688V74.4999Z" fill="#3F3D56"/>
<path d="M85.5593 0.324951H0.956543V43.6544H85.5593V0.324951Z" fill="#3F3D56"/>
<path d="M82.3052 38.9299H5.20068V40.6847H82.3052V38.9299Z" fill="#D0CDE1"/>
<path d="M49.6242 38.9299H5.20068V40.6847H49.6242V38.9299Z" fill="#F13F00"/>
<path d="M5.20094 37.6403L5.19727 35.2095L8.08139 36.4209L5.20094 37.6403Z" fill="#F13F00"/>
<path d="M10.7184 35.1504H9.72803V37.5801H10.7184V35.1504Z" fill="#F13F00"/>
<path d="M12.6993 35.1504H11.709V37.5801H12.6993V35.1504Z" fill="#F13F00"/>
<path d="M80.8908 34.0707H5.62549V4.2395H80.8908V34.0707ZM5.90844 33.8007H80.6079V4.50947H5.90844V33.8007Z" fill="#D0CDE1"/>
<path d="M43.3994 25.7017C47.0717 25.7017 50.0488 22.8613 50.0488 19.3575C50.0488 15.8537 47.0717 13.0133 43.3994 13.0133C39.727 13.0133 36.75 15.8537 36.75 19.3575C36.75 22.8613 39.727 25.7017 43.3994 25.7017Z" fill="#F13F00"/>
<path d="M59.9554 14.6558H51.4668V14.9257H59.9554V14.6558Z" fill="#D0CDE1"/>
<path d="M34.6311 25.3195H26.1426V25.5894H34.6311V25.3195Z" fill="#D0CDE1"/>
<path d="M63.0682 16.0056C62.8164 16.0056 62.5702 15.9344 62.3608 15.8009C62.1514 15.6674 61.9882 15.4777 61.8918 15.2557C61.7955 15.0337 61.7703 14.7894 61.8194 14.5538C61.8685 14.3181 61.9898 14.1016 62.1679 13.9317C62.3459 13.7618 62.5728 13.6461 62.8198 13.5993C63.0668 13.5524 63.3228 13.5765 63.5555 13.6684C63.7881 13.7604 63.987 13.9161 64.1269 14.1158C64.2668 14.3156 64.3415 14.5505 64.3415 14.7908C64.3415 15.113 64.2073 15.422 63.9686 15.6498C63.7298 15.8776 63.4059 16.0056 63.0682 16.0056ZM63.0682 13.8459C62.8723 13.8459 62.6809 13.9013 62.518 14.0051C62.3552 14.109 62.2282 14.2565 62.1533 14.4292C62.0783 14.6018 62.0587 14.7918 62.0969 14.9751C62.1351 15.1584 62.2294 15.3268 62.3679 15.4589C62.5064 15.591 62.6829 15.681 62.875 15.7175C63.0671 15.754 63.2662 15.7352 63.4472 15.6637C63.6281 15.5922 63.7828 15.4711 63.8916 15.3157C64.0005 15.1603 64.0585 14.9777 64.0585 14.7908C64.0585 14.5402 63.9542 14.2998 63.7685 14.1226C63.5828 13.9454 63.3309 13.8459 63.0682 13.8459Z" fill="#D0CDE1"/>
<path d="M63.0682 28.019C62.8164 28.019 62.5702 27.9478 62.3608 27.8143C62.1514 27.6808 61.9882 27.4911 61.8918 27.2691C61.7955 27.0471 61.7703 26.8029 61.8194 26.5672C61.8685 26.3315 61.9898 26.1151 62.1679 25.9452C62.3459 25.7753 62.5728 25.6596 62.8198 25.6127C63.0668 25.5658 63.3228 25.5899 63.5555 25.6818C63.7881 25.7738 63.987 25.9295 64.1269 26.1293C64.2668 26.3291 64.3415 26.5639 64.3415 26.8042C64.3415 27.1264 64.2073 27.4354 63.9686 27.6632C63.7298 27.8911 63.4059 28.019 63.0682 28.019ZM63.0682 25.8593C62.8723 25.8593 62.6809 25.9147 62.518 26.0186C62.3552 26.1224 62.2282 26.27 62.1533 26.4426C62.0783 26.6153 62.0587 26.8052 62.0969 26.9885C62.1351 27.1718 62.2294 27.3402 62.3679 27.4723C62.5064 27.6045 62.6829 27.6945 62.875 27.7309C63.0671 27.7674 63.2662 27.7487 63.4472 27.6772C63.6281 27.6056 63.7828 27.4845 63.8916 27.3292C64.0005 27.1738 64.0585 26.9911 64.0585 26.8042C64.0585 26.5536 63.9542 26.3133 63.7685 26.1361C63.5828 25.9589 63.3309 25.8593 63.0682 25.8593Z" fill="#D0CDE1"/>
<path d="M67.5956 28.019C67.3437 28.019 67.0975 27.9478 66.8882 27.8143C66.6788 27.6808 66.5156 27.4911 66.4192 27.2691C66.3228 27.0471 66.2976 26.8029 66.3467 26.5672C66.3959 26.3315 66.5171 26.1151 66.6952 25.9452C66.8733 25.7753 67.1002 25.6596 67.3472 25.6127C67.5941 25.5658 67.8502 25.5899 68.0828 25.6818C68.3155 25.7738 68.5143 25.9295 68.6543 26.1293C68.7942 26.3291 68.8688 26.5639 68.8688 26.8042C68.8688 27.1264 68.7347 27.4354 68.4959 27.6632C68.2571 27.8911 67.9333 28.019 67.5956 28.019ZM67.5956 25.8593C67.3997 25.8593 67.2082 25.9147 67.0454 26.0186C66.8825 26.1224 66.7556 26.27 66.6806 26.4426C66.6056 26.6153 66.586 26.8052 66.6243 26.9885C66.6625 27.1718 66.7568 27.3402 66.8953 27.4723C67.0338 27.6045 67.2102 27.6945 67.4023 27.7309C67.5945 27.7674 67.7936 27.7487 67.9745 27.6772C68.1555 27.6056 68.3102 27.4845 68.419 27.3292C68.5278 27.1738 68.5859 26.9911 68.5859 26.8042C68.5859 26.5536 68.4816 26.3133 68.2958 26.1361C68.1101 25.9589 67.8582 25.8593 67.5956 25.8593Z" fill="#D0CDE1"/>
<path d="M58.5409 28.019C58.289 28.019 58.0429 27.9478 57.8335 27.8143C57.6241 27.6808 57.4609 27.4911 57.3645 27.2691C57.2681 27.0471 57.2429 26.8029 57.292 26.5672C57.3412 26.3315 57.4624 26.1151 57.6405 25.9452C57.8186 25.7753 58.0455 25.6596 58.2925 25.6127C58.5394 25.5658 58.7955 25.5899 59.0281 25.6818C59.2608 25.7738 59.4596 25.9295 59.5996 26.1293C59.7395 26.3291 59.8141 26.5639 59.8141 26.8042C59.8141 27.1264 59.68 27.4354 59.4412 27.6632C59.2024 27.8911 58.8786 28.019 58.5409 28.019ZM58.5409 25.8593C58.345 25.8593 58.1535 25.9147 57.9907 26.0186C57.8278 26.1224 57.7009 26.27 57.6259 26.4426C57.551 26.6153 57.5313 26.8052 57.5696 26.9885C57.6078 27.1718 57.7021 27.3402 57.8406 27.4723C57.9791 27.6045 58.1556 27.6945 58.3477 27.7309C58.5398 27.7674 58.7389 27.7487 58.9198 27.6772C59.1008 27.6056 59.2555 27.4845 59.3643 27.3292C59.4731 27.1738 59.5312 26.9911 59.5312 26.8042C59.5312 26.5536 59.4268 26.3133 59.2411 26.1361C59.0554 25.9589 58.8035 25.8593 58.5409 25.8593Z" fill="#D0CDE1"/>
<path d="M22.6058 26.6693C22.354 26.6693 22.1078 26.5981 21.8984 26.4646C21.689 26.3311 21.5258 26.1414 21.4294 25.9194C21.3331 25.6974 21.3079 25.4531 21.357 25.2175C21.4061 24.9818 21.5274 24.7653 21.7055 24.5954C21.8835 24.4255 22.1104 24.3098 22.3574 24.263C22.6044 24.2161 22.8604 24.2401 23.0931 24.3321C23.3257 24.424 23.5246 24.5798 23.6645 24.7795C23.8044 24.9793 23.8791 25.2142 23.8791 25.4545C23.8791 25.7767 23.7449 26.0857 23.5062 26.3135C23.2674 26.5413 22.9435 26.6693 22.6058 26.6693ZM22.6058 24.5096C22.4099 24.5096 22.2185 24.565 22.0556 24.6688C21.8927 24.7727 21.7658 24.9202 21.6909 25.0929C21.6159 25.2655 21.5963 25.4555 21.6345 25.6388C21.6727 25.8221 21.767 25.9905 21.9055 26.1226C22.044 26.2547 22.2205 26.3447 22.4126 26.3812C22.6047 26.4177 22.8038 26.3989 22.9848 26.3274C23.1657 26.2559 23.3204 26.1348 23.4292 25.9794C23.5381 25.824 23.5961 25.6413 23.5961 25.4545C23.5958 25.204 23.4914 24.9638 23.3057 24.7867C23.1201 24.6095 22.8684 24.5099 22.6058 24.5096Z" fill="#D0CDE1"/>
<path d="M18.0785 26.6693C17.8266 26.6693 17.5805 26.5981 17.3711 26.4646C17.1617 26.3311 16.9985 26.1414 16.9021 25.9194C16.8057 25.6974 16.7805 25.4531 16.8296 25.2175C16.8788 24.9818 17 24.7653 17.1781 24.5954C17.3562 24.4255 17.5831 24.3098 17.8301 24.263C18.0771 24.2161 18.3331 24.2401 18.5657 24.3321C18.7984 24.424 18.9973 24.5798 19.1372 24.7795C19.2771 24.9793 19.3517 25.2142 19.3517 25.4545C19.3517 25.7767 19.2176 26.0857 18.9788 26.3135C18.74 26.5413 18.4162 26.6693 18.0785 26.6693ZM18.0785 24.5096C17.8826 24.5096 17.6911 24.565 17.5283 24.6688C17.3654 24.7727 17.2385 24.9202 17.1635 25.0929C17.0886 25.2655 17.0689 25.4555 17.1072 25.6388C17.1454 25.8221 17.2397 25.9905 17.3782 26.1226C17.5167 26.2547 17.6932 26.3447 17.8853 26.3812C18.0774 26.4177 18.2765 26.3989 18.4574 26.3274C18.6384 26.2559 18.7931 26.1348 18.9019 25.9794C19.0107 25.824 19.0688 25.6413 19.0688 25.4545C19.0685 25.204 18.9641 24.9638 18.7784 24.7867C18.5927 24.6095 18.341 24.5099 18.0785 24.5096Z" fill="#D0CDE1"/>
<path d="M63.2092 17.0854H62.9263V23.8346H63.2092V17.0854Z" fill="#D0CDE1"/>
<path d="M108.767 18.5825C108.767 18.5825 106.426 18.2634 105.256 22.4107C104.085 26.558 103.751 26.877 103.751 26.877C103.751 26.877 110.606 27.8341 110.773 27.5151C110.94 27.1961 112.277 19.5395 108.767 18.5825Z" fill="#2F2E41"/>
<path d="M107.429 16.9875C109.922 16.9875 111.943 15.0593 111.943 12.6807C111.943 10.3021 109.922 8.3739 107.429 8.3739C104.936 8.3739 102.915 10.3021 102.915 12.6807C102.915 15.0593 104.936 16.9875 107.429 16.9875Z" fill="#FFB8B8"/>
<path d="M105.423 16.1899C105.423 16.1899 106.928 19.8587 106.426 20.3372C105.924 20.8157 112.612 21.4538 112.612 21.4538C112.612 21.4538 113.113 19.0611 111.107 17.6255C111.107 17.6255 110.271 15.2328 110.438 14.7543C110.606 14.2758 105.423 16.1899 105.423 16.1899Z" fill="#FFB8B8"/>
<path d="M109.435 17.785C107.721 18.4024 106.178 19.3844 104.921 20.6562C102.915 22.7299 101.912 23.3679 101.912 23.3679C101.912 23.3679 99.5713 24.1655 100.407 27.9937C100.825 29.9079 100.533 32.0613 100.136 33.7361C99.5291 36.3353 99.2277 38.9908 99.237 41.6536V43.3068C99.237 43.3068 83.856 74.0925 89.0387 76.1661C94.2214 78.2397 98.9026 78.8778 99.237 78.3993C99.5713 77.9207 105.59 53.037 105.59 53.037C105.59 53.037 107.262 79.6753 111.441 79.6753C115.621 79.6753 122.476 78.5588 122.476 78.5588L113.949 46.6565C113.949 46.6565 115.955 41.2331 110.94 37.4049L110.271 35.6503C113.045 35.6516 114.313 18.903 111.441 17.466C111.441 17.466 110.773 16.9874 109.435 17.785Z" fill="#2F2E41"/>
<path d="M105.256 26.3986L102.915 32.3005L97.3981 43.3068C97.3981 43.3068 94.8904 50.4848 96.8966 50.4848C98.9028 50.4848 100.407 43.6258 100.407 43.6258L106.593 34.3742L110.104 26.0796L105.256 26.3986Z" fill="#FFB8B8"/>
<path d="M94.1376 79.6753C95.7535 79.6753 97.0634 78.9612 97.0634 78.0802C97.0634 77.1993 95.7535 76.4851 94.1376 76.4851C92.5218 76.4851 91.2119 77.1993 91.2119 78.0802C91.2119 78.9612 92.5218 79.6753 94.1376 79.6753Z" fill="#2F2E41"/>
<path d="M116.54 79.6753C118.156 79.6753 119.466 78.9612 119.466 78.0802C119.466 77.1993 118.156 76.4851 116.54 76.4851C114.925 76.4851 113.615 77.1993 113.615 78.0802C113.615 78.9612 114.925 79.6753 116.54 79.6753Z" fill="#2F2E41"/>
<path d="M109.172 6.64117H109.172C108.939 6.6416 108.707 6.66359 108.479 6.70684C108.068 6.51608 107.616 6.41674 107.158 6.41626H107.038C104.726 6.41626 102.851 8.41267 102.851 10.8754V10.8754H103.626L103.751 9.96664L103.934 10.8754H104.58C104.379 11.6045 104.278 12.3555 104.28 13.1094V17.648H105.452L106.13 15.9664L105.96 17.648H113.49L114.107 16.1193L113.953 17.648H114.8V14.0844C114.8 9.97362 112.28 6.64117 109.172 6.64117Z" fill="#2F2E41"/>
<path d="M107.512 5.646H108.617C108.845 5.646 109.065 5.73267 109.226 5.88694C109.388 6.04122 109.479 6.25047 109.479 6.46865V11.3025C109.479 11.5207 109.388 11.7299 109.226 11.8842C109.065 12.0385 108.845 12.1252 108.617 12.1252H107.512C107.398 12.1252 107.286 12.1039 107.182 12.0625C107.077 12.0212 106.982 11.9606 106.902 11.8842C106.822 11.8078 106.758 11.7171 106.715 11.6173C106.672 11.5175 106.649 11.4106 106.649 11.3025V6.46865C106.649 6.25047 106.74 6.04122 106.902 5.88695C107.064 5.73267 107.283 5.646 107.512 5.646Z" fill="#D0CDE1"/>
<path d="M108.064 15.7697C109.471 15.7697 110.611 14.6819 110.611 13.34C110.611 11.9981 109.471 10.9103 108.064 10.9103C106.658 10.9103 105.518 11.9981 105.518 13.34C105.518 14.6819 106.658 15.7697 108.064 15.7697Z" fill="#F13F00"/>
<path d="M108.064 14.5548C108.767 14.5548 109.337 14.0109 109.337 13.34C109.337 12.669 108.767 12.1251 108.064 12.1251C107.361 12.1251 106.791 12.669 106.791 13.34C106.791 14.0109 107.361 14.5548 108.064 14.5548Z" fill="#D0CDE1"/>
<path d="M108.064 13.8799C108.377 13.8799 108.63 13.6382 108.63 13.34C108.63 13.0418 108.377 12.8 108.064 12.8C107.751 12.8 107.498 13.0418 107.498 13.34C107.498 13.6382 107.751 13.8799 108.064 13.8799Z" fill="#F13F00"/>
</svg>
