<svg width="448" height="347" viewBox="0 0 448 347" fill="none" xmlns="http://www.w3.org/2000/svg">
<path d="M222.38 342.222H217.61L215.34 323.835L222.38 323.836L222.38 342.222Z" fill="#FFB8B8"/>
<path d="M223.596 346.843L208.216 346.842V346.648C208.216 345.862 208.371 345.084 208.671 344.359C208.972 343.633 209.413 342.973 209.969 342.418C210.525 341.862 211.185 341.422 211.911 341.121C212.638 340.82 213.416 340.666 214.202 340.666H214.203L223.596 340.666L223.596 346.843Z" fill="#2F2E41"/>
<path d="M275.664 337.762L271.168 339.354L262.887 322.779L269.523 320.431L275.664 337.762Z" fill="#FFB8B8"/>
<path d="M278.354 341.711L263.857 346.842L263.792 346.659C263.529 345.918 263.415 345.133 263.456 344.349C263.498 343.564 263.693 342.795 264.031 342.086C264.37 341.377 264.845 340.741 265.429 340.216C266.013 339.69 266.695 339.284 267.436 339.022L267.436 339.022L276.291 335.888L278.354 341.711Z" fill="#2F2E41"/>
<path d="M222.247 336.048C222.14 336.048 222.033 336.038 221.928 336.019L216.095 334.959C215.698 334.886 215.338 334.678 215.076 334.371C214.814 334.064 214.666 333.676 214.656 333.273C213.809 294.035 217.977 267.667 227.046 248.768C227.207 248.433 227.471 248.159 227.799 247.986C228.128 247.812 228.503 247.748 228.871 247.803L249.846 250.829C250.229 250.885 250.583 251.065 250.852 251.343C251.121 251.621 251.291 251.98 251.335 252.364L253.185 268.657C253.195 268.745 253.213 268.831 253.24 268.916L273.35 329.132C273.488 329.571 273.448 330.045 273.239 330.454C273.031 330.863 272.671 331.175 272.235 331.322L266.801 333.132C266.401 333.264 265.967 333.247 265.578 333.086C265.189 332.925 264.871 332.63 264.681 332.255L237.478 280.994C237.424 280.886 237.338 280.797 237.232 280.74C237.125 280.683 237.004 280.661 236.884 280.676C236.764 280.691 236.652 280.742 236.563 280.824C236.474 280.905 236.412 281.012 236.386 281.13L223.951 334.672C223.867 335.062 223.652 335.411 223.342 335.661C223.032 335.911 222.646 336.048 222.247 336.048Z" fill="#2F2E41"/>
<path d="M205.67 216.989C205.717 217.199 205.748 217.412 205.763 217.627L222.476 227.263L226.538 224.926L230.869 230.592L224.08 235.428C223.531 235.818 222.871 236.021 222.197 236.004C221.524 235.988 220.874 235.754 220.345 235.337L203.111 221.749C202.333 222.037 201.486 222.081 200.683 221.876C199.879 221.671 199.157 221.226 198.613 220.601C198.068 219.976 197.727 219.2 197.635 218.376C197.542 217.552 197.703 216.72 198.096 215.99C198.488 215.26 199.094 214.666 199.832 214.289C200.57 213.911 201.406 213.766 202.228 213.875C203.05 213.983 203.82 214.34 204.435 214.896C205.049 215.452 205.48 216.182 205.67 216.989Z" fill="#FFB8B8"/>
<path d="M222.706 226.3C222.756 226.054 222.859 225.821 223.007 225.618C223.156 225.415 223.346 225.246 223.566 225.124L231.236 220.838C232.255 220.052 233.544 219.702 234.821 219.864C236.098 220.027 237.258 220.689 238.048 221.705C238.837 222.721 239.191 224.009 239.032 225.285C238.873 226.562 238.213 227.723 237.199 228.515L231.084 234.861C230.909 235.042 230.697 235.183 230.463 235.275C230.229 235.367 229.978 235.408 229.727 235.394C229.476 235.38 229.23 235.313 229.008 235.196C228.785 235.079 228.59 234.915 228.436 234.716L223.035 227.72C222.881 227.521 222.772 227.291 222.715 227.046C222.658 226.801 222.655 226.546 222.706 226.3Z" fill="#F13F00"/>
<path d="M240.566 216.029C245.843 216.029 250.121 211.754 250.121 206.48C250.121 201.205 245.843 196.93 240.566 196.93C235.288 196.93 231.01 201.205 231.01 206.48C231.01 211.754 235.288 216.029 240.566 216.029Z" fill="#FFB8B8"/>
<path d="M249.871 252.867C249.776 252.867 249.682 252.86 249.588 252.844L228.908 249.456C228.674 249.418 228.451 249.333 228.251 249.206C228.051 249.078 227.879 248.912 227.746 248.717C227.612 248.522 227.519 248.301 227.474 248.069C227.428 247.837 227.429 247.598 227.478 247.367L228.484 242.626C227.969 241.858 223.776 235.182 228.883 228.911C228.785 226.683 229.562 224.505 231.046 222.84C232.531 221.176 234.608 220.156 236.833 219.998L247.521 219.187C248.896 219.083 250.275 219.31 251.544 219.85C252.813 220.389 253.933 221.226 254.811 222.288C255.689 223.351 256.298 224.608 256.588 225.956C256.878 227.303 256.84 228.7 256.478 230.029L251.578 251.507C251.489 251.893 251.272 252.237 250.962 252.485C250.652 252.732 250.268 252.867 249.871 252.867Z" fill="#F13F00"/>
<path d="M269.182 270.827C269.533 270.327 269.77 269.756 269.876 269.154C269.982 268.553 269.955 267.936 269.797 267.346C269.638 266.756 269.352 266.208 268.959 265.741C268.566 265.273 268.075 264.898 267.521 264.641L255.746 228.462L248.923 231.698L261.806 266.924C261.435 267.883 261.429 268.945 261.79 269.908C262.15 270.871 262.851 271.669 263.76 272.15C264.669 272.631 265.723 272.762 266.723 272.518C267.722 272.274 268.597 271.672 269.182 270.827Z" fill="#FFB8B8"/>
<path d="M258.351 234.486L249.29 237.221C249.032 237.299 248.761 237.32 248.494 237.284C248.227 237.247 247.971 237.154 247.744 237.01C247.517 236.865 247.323 236.674 247.176 236.448C247.03 236.222 246.934 235.968 246.894 235.701L245.519 226.372C245.129 225.051 245.278 223.631 245.934 222.42C246.591 221.21 247.7 220.309 249.02 219.915C250.34 219.521 251.762 219.666 252.975 220.317C254.188 220.969 255.093 222.075 255.492 223.393L259.504 231.895C259.619 232.138 259.68 232.403 259.683 232.672C259.686 232.942 259.631 233.208 259.521 233.454C259.412 233.7 259.251 233.919 259.049 234.098C258.847 234.276 258.609 234.408 258.351 234.486Z" fill="#F13F00"/>
<path d="M231.277 206.848C233.398 207.656 235.707 207.838 237.929 207.371C240.151 206.905 242.192 205.81 243.809 204.218C242.807 206.864 243.087 218.089 243.087 218.089C243.087 218.089 251.976 213.871 253.182 213.134C260.304 208.777 250.481 189.826 242.309 192.815C240.925 193.321 239.769 193.917 239.209 195.279C237.988 193.775 235.679 193.449 233.902 194.222C232.125 194.994 230.862 196.669 230.183 198.482C229.647 199.946 229.438 201.509 229.572 203.062C229.706 204.614 230.179 206.119 230.958 207.469L231.277 206.848Z" fill="black"/>
<path d="M357.535 227.257C407.498 227.257 448 176.384 448 113.628C448 50.8732 407.498 0 357.535 0C307.573 0 267.071 50.8732 267.071 113.628C267.071 176.384 307.573 227.257 357.535 227.257Z" fill="#F2F2F2"/>
<path d="M424.829 37.7334C444.47 95.4415 423.147 162.222 377.203 186.892C341.458 206.086 299.947 194.453 274.088 157.994C293.727 215.704 346.893 242.49 392.839 217.823C438.784 193.155 460.109 126.375 440.47 68.6653C436.773 57.6561 431.505 47.238 424.829 37.7334Z" fill="#E6E6E6"/>
<path d="M357.784 90.4082H358.032L362.506 346.73H353.062L357.784 90.4082Z" fill="#CCCCCC"/>
<path d="M372.172 258.68L357.218 266.548L359.302 270.504L374.256 262.636L372.172 258.68Z" fill="#CCCCCC"/>
<path d="M69.8583 253.753C108.44 253.753 139.717 214.629 139.717 166.366C139.717 118.104 108.44 78.9795 69.8583 78.9795C31.2766 78.9795 0 118.104 0 166.366C0 214.629 31.2766 253.753 69.8583 253.753Z" fill="#F2F2F2"/>
<path d="M121.823 107.999C136.991 152.379 120.525 203.738 85.0462 222.711C57.4434 237.472 25.3879 228.525 5.41895 200.486C20.5844 244.868 61.6405 265.468 97.1202 246.498C132.6 227.527 149.068 176.169 133.902 131.787C131.045 123.317 126.977 115.304 121.823 107.999Z" fill="#E6E6E6"/>
<path d="M70.0503 148.794H70.242L73.6969 346.73H66.4043L70.0503 148.794Z" fill="#CCCCCC"/>
<path d="M81.1611 281.579L69.6133 287.655L71.2226 290.71L82.7704 284.634L81.1611 281.579Z" fill="#CCCCCC"/>
<path d="M409.037 346.999H11.3429C11.2076 346.999 11.078 346.945 10.9823 346.85C10.8867 346.754 10.833 346.625 10.833 346.49C10.833 346.355 10.8867 346.225 10.9823 346.13C11.078 346.034 11.2076 345.98 11.3429 345.98H409.037C409.172 345.98 409.301 346.034 409.397 346.13C409.493 346.225 409.546 346.355 409.546 346.49C409.546 346.625 409.493 346.754 409.397 346.85C409.301 346.945 409.172 346.999 409.037 346.999Z" fill="#CCCCCC"/>
<path fill-rule="evenodd" clip-rule="evenodd" d="M218.837 88.4586C218.837 86.6737 218.325 84.9263 217.362 83.4232C216.398 81.9201 215.024 80.7243 213.402 79.9774C211.78 79.2304 209.978 78.9636 208.209 79.2084C206.44 79.4533 204.778 80.1997 203.42 81.3591C202.062 82.5185 201.065 84.0425 200.547 85.7507C200.029 87.4588 200.011 89.2795 200.496 90.9973C200.981 92.7151 201.949 94.258 203.284 95.4434C204.62 96.6287 206.267 97.4069 208.031 97.6858V91.1593H205.657V88.4586H208.031V86.4004C208.031 84.06 209.426 82.7661 211.561 82.7661C212.262 82.7759 212.961 82.8369 213.653 82.9487V85.2475H212.474C212.273 85.2209 212.069 85.2399 211.877 85.3029C211.684 85.3659 211.508 85.4713 211.362 85.6114C211.216 85.7516 211.103 85.9228 211.032 86.1124C210.96 86.302 210.933 86.5052 210.951 86.7069V88.459H213.543L213.129 91.1598H210.951V97.6866C213.15 97.3386 215.152 96.2181 216.597 94.5264C218.043 92.8348 218.837 90.6832 218.837 88.4586H218.837Z" fill="#3F3D56"/>
<path d="M175.618 116.206L177.32 115.865C176.796 116.474 176.227 117.043 175.618 117.566C175.592 117.906 175.592 118.247 175.618 118.587C172.35 132.602 160.3 126.411 160.3 126.411C164.691 126.513 165.065 124.71 165.065 124.71C162.512 124.336 162.002 122.669 162.002 122.669C162.231 122.79 162.496 122.822 162.748 122.759C162.999 122.696 163.218 122.543 163.363 122.329C162.614 122.159 161.955 121.716 161.515 121.088C161.074 120.459 160.884 119.689 160.981 118.927C161.472 119.282 162.046 119.504 162.649 119.573C162.342 119.199 159.755 116.103 161.321 114.505C161.321 114.505 163.227 117.906 168.231 118.213L168.571 118.145C168.514 117.9 168.491 117.648 168.503 117.396C168.503 116.449 168.88 115.54 169.55 114.87C170.221 114.201 171.13 113.824 172.078 113.824C174.46 113.824 174.971 115.185 174.971 115.185L176.673 114.164C176.639 114.164 176.469 115.865 175.618 116.206Z" fill="#3F3D56"/>
<path d="M217.579 138.891H210.392C209.059 138.895 207.781 139.426 206.838 140.368C205.896 141.31 205.364 142.587 205.36 143.919V151.102C205.364 152.434 205.896 153.711 206.838 154.653C207.781 155.595 209.059 156.126 210.392 156.13H217.579C218.913 156.126 220.19 155.595 221.133 154.653C222.076 153.711 222.607 152.434 222.611 151.102V143.919C222.607 142.587 222.076 141.31 221.133 140.368C220.19 139.426 218.913 138.895 217.579 138.891Z" fill="#3F3D56"/>
<path d="M218.658 143.919C218.372 143.918 218.099 143.805 217.898 143.603C217.697 143.401 217.584 143.128 217.584 142.843C217.584 142.558 217.698 142.284 217.9 142.083C218.101 141.882 218.375 141.769 218.66 141.769C218.945 141.769 219.218 141.882 219.42 142.083C219.622 142.284 219.735 142.558 219.736 142.843C219.736 143.128 219.623 143.401 219.422 143.603C219.22 143.805 218.947 143.918 218.662 143.919H218.658Z" fill="white"/>
<path d="M213.985 144.637C214.554 144.637 215.11 144.806 215.583 145.121C216.056 145.437 216.424 145.886 216.642 146.411C216.859 146.936 216.916 147.514 216.805 148.071C216.694 148.629 216.421 149.141 216.019 149.542C215.616 149.944 215.104 150.218 214.546 150.329C213.989 150.44 213.411 150.383 212.885 150.165C212.36 149.948 211.911 149.579 211.595 149.107C211.279 148.634 211.11 148.079 211.11 147.511C211.11 147.133 211.185 146.76 211.329 146.411C211.474 146.062 211.685 145.746 211.952 145.479C212.219 145.212 212.536 145 212.885 144.856C213.234 144.712 213.608 144.637 213.985 144.637ZM213.985 143.201C213.133 143.201 212.299 143.453 211.59 143.927C210.88 144.401 210.328 145.074 210.001 145.861C209.675 146.649 209.589 147.515 209.756 148.351C209.922 149.187 210.333 149.955 210.936 150.558C211.539 151.161 212.308 151.571 213.144 151.738C213.981 151.904 214.848 151.819 215.636 151.492C216.424 151.166 217.097 150.614 217.571 149.905C218.045 149.196 218.298 148.363 218.298 147.511C218.298 146.368 217.844 145.271 217.035 144.463C216.226 143.655 215.129 143.201 213.985 143.201V143.201Z" fill="white"/>
<path d="M189.929 181.434C187.776 181.434 185.689 182.174 184.018 183.531C182.347 184.887 181.194 186.777 180.753 188.883C180.312 190.988 180.609 193.182 181.594 195.094C182.58 197.007 184.195 198.522 186.166 199.386C186.127 198.665 186.182 197.942 186.33 197.236C186.51 196.475 187.535 192.129 187.535 192.129C187.33 191.662 187.227 191.157 187.234 190.648C187.234 189.259 188.037 188.222 189.042 188.222C189.221 188.219 189.398 188.255 189.563 188.327C189.727 188.398 189.874 188.504 189.993 188.637C190.113 188.771 190.203 188.928 190.257 189.099C190.311 189.269 190.327 189.45 190.306 189.627C190.306 190.485 189.757 191.765 189.477 192.953C189.421 193.173 189.418 193.403 189.467 193.624C189.517 193.846 189.618 194.053 189.762 194.228C189.906 194.404 190.089 194.543 190.297 194.634C190.505 194.726 190.732 194.767 190.958 194.755C192.733 194.755 193.93 192.476 193.93 189.774C193.93 187.72 192.545 186.185 190.029 186.185C189.427 186.162 188.827 186.26 188.264 186.476C187.702 186.692 187.189 187.019 186.757 187.439C186.326 187.859 185.984 188.362 185.753 188.918C185.521 189.474 185.406 190.071 185.413 190.673C185.385 191.341 185.606 191.995 186.032 192.509C186.107 192.571 186.161 192.655 186.185 192.749C186.209 192.843 186.202 192.942 186.166 193.032C186.12 193.204 186.02 193.618 185.974 193.785C185.966 193.836 185.946 193.884 185.915 193.925C185.885 193.966 185.845 194 185.8 194.023C185.754 194.046 185.703 194.057 185.652 194.057C185.601 194.056 185.55 194.043 185.505 194.019C184.195 193.484 183.584 192.053 183.584 190.439C183.584 187.779 185.831 184.587 190.285 184.587C193.863 184.587 196.219 187.176 196.219 189.954C196.219 193.63 194.173 196.374 191.159 196.374C190.711 196.386 190.266 196.285 189.866 196.082C189.466 195.878 189.124 195.577 188.87 195.207C188.87 195.207 188.326 197.365 188.209 197.784C187.992 198.494 187.675 199.171 187.267 199.791C188.556 200.172 189.913 200.271 191.244 200.082C192.575 199.893 193.85 199.419 194.982 198.695C196.114 197.97 197.077 197.01 197.805 195.88C198.533 194.751 199.01 193.478 199.203 192.148C199.396 190.819 199.3 189.463 198.923 188.173C198.545 186.884 197.894 185.69 197.015 184.674C196.135 183.658 195.047 182.842 193.825 182.283C192.602 181.724 191.273 181.434 189.929 181.434L189.929 181.434Z" fill="#3F3D56"/>
<path d="M209.491 105.218C206.163 105.218 202.91 104.232 200.143 102.385C197.376 100.537 195.22 97.9107 193.946 94.8382C192.673 91.7657 192.34 88.3848 192.989 85.123C193.638 81.8612 195.241 78.865 197.594 76.5134C199.947 74.1618 202.945 72.5603 206.209 71.9115C209.472 71.2627 212.855 71.5957 215.93 72.8683C219.004 74.141 221.632 76.2962 223.481 79.0615C225.33 81.8267 226.317 85.0777 226.317 88.4034C226.311 92.8614 224.537 97.1354 221.383 100.288C218.229 103.44 213.952 105.213 209.491 105.218ZM209.491 72.6075C206.365 72.6075 203.309 73.5339 200.71 75.2695C198.111 77.0052 196.085 79.4722 194.888 82.3585C193.692 85.2448 193.379 88.4208 193.989 91.4849C194.599 94.5491 196.104 97.3636 198.315 99.5727C200.525 101.782 203.341 103.286 206.407 103.896C209.473 104.505 212.651 104.192 215.54 102.997C218.428 101.801 220.896 99.7767 222.633 97.1791C224.37 94.5815 225.297 91.5275 225.297 88.4034C225.292 84.2155 223.625 80.2005 220.662 77.2393C217.699 74.278 213.682 72.6122 209.491 72.6075Z" fill="#3F3D56"/>
<path d="M168.81 137.614C165.482 137.614 162.229 136.628 159.462 134.78C156.695 132.933 154.539 130.307 153.265 127.234C151.992 124.162 151.658 120.781 152.308 117.519C152.957 114.257 154.559 111.261 156.912 108.909C159.266 106.558 162.264 104.956 165.527 104.307C168.791 103.659 172.174 103.992 175.249 105.264C178.323 106.537 180.951 108.692 182.8 111.457C184.649 114.223 185.635 117.474 185.635 120.799C185.63 125.257 183.856 129.531 180.702 132.684C177.547 135.836 173.271 137.609 168.81 137.614ZM168.81 105.003C165.684 105.003 162.628 105.93 160.029 107.666C157.429 109.401 155.404 111.868 154.207 114.755C153.011 117.641 152.698 120.817 153.308 123.881C153.918 126.945 155.423 129.76 157.634 131.969C159.844 134.178 162.66 135.682 165.726 136.292C168.792 136.901 171.97 136.588 174.858 135.393C177.747 134.197 180.215 132.173 181.952 129.575C183.689 126.977 184.616 123.923 184.616 120.799C184.611 116.611 182.944 112.596 179.981 109.635C177.018 106.674 173 105.008 168.81 105.003Z" fill="#3F3D56"/>
<path d="M213.986 164.325C210.658 164.325 207.405 163.339 204.638 161.491C201.871 159.644 199.714 157.018 198.441 153.945C197.167 150.873 196.834 147.492 197.483 144.23C198.133 140.968 199.735 137.972 202.088 135.62C204.441 133.269 207.439 131.667 210.703 131.018C213.967 130.37 217.35 130.703 220.424 131.975C223.499 133.248 226.127 135.403 227.976 138.168C229.824 140.934 230.811 144.185 230.811 147.51C230.806 151.968 229.032 156.242 225.878 159.395C222.723 162.547 218.447 164.32 213.986 164.325ZM213.986 131.714C210.86 131.714 207.804 132.641 205.204 134.376C202.605 136.112 200.579 138.579 199.383 141.465C198.187 144.352 197.874 147.528 198.484 150.592C199.093 153.656 200.599 156.471 202.809 158.68C205.02 160.889 207.836 162.393 210.902 163.003C213.968 163.612 217.146 163.299 220.034 162.104C222.922 160.908 225.391 158.884 227.128 156.286C228.864 153.688 229.791 150.634 229.791 147.51C229.787 143.322 228.12 139.307 225.157 136.346C222.194 133.385 218.176 131.719 213.986 131.714Z" fill="#3F3D56"/>
<path d="M189.928 207.621C186.6 207.621 183.347 206.635 180.58 204.787C177.813 202.94 175.656 200.314 174.383 197.241C173.109 194.168 172.776 190.788 173.425 187.526C174.075 184.264 175.677 181.268 178.03 178.916C180.383 176.565 183.381 174.963 186.645 174.314C189.909 173.666 193.292 173.998 196.366 175.271C199.441 176.544 202.069 178.699 203.917 181.464C205.766 184.229 206.753 187.481 206.753 190.806C206.748 195.264 204.974 199.538 201.819 202.691C198.665 205.843 194.388 207.616 189.928 207.621ZM189.928 175.01C186.801 175.01 183.746 175.937 181.146 177.672C178.547 179.408 176.521 181.875 175.325 184.761C174.129 187.648 173.816 190.824 174.425 193.888C175.035 196.952 176.541 199.766 178.751 201.976C180.962 204.185 183.778 205.689 186.844 206.299C189.91 206.908 193.088 206.595 195.976 205.4C198.864 204.204 201.333 202.18 203.07 199.582C204.806 196.984 205.733 193.93 205.733 190.806C205.729 186.618 204.062 182.603 201.099 179.642C198.136 176.681 194.118 175.015 189.928 175.01Z" fill="#3F3D56"/>
</svg>
