<svg width="123" height="87" viewBox="0 0 123 87" fill="none" xmlns="http://www.w3.org/2000/svg">
<path opacity="0.1" d="M71.1774 13.6695C63.3329 13.4101 55.8609 10.9925 48.7268 8.34956C41.5927 5.70666 34.5246 2.77755 26.8686 1.37654C21.9436 0.475598 16.3114 0.350582 12.3437 2.86744C8.52431 5.29131 7.29089 9.47988 6.62816 13.3595C6.12894 16.2814 5.83548 19.352 7.20209 22.091C8.15179 23.989 9.83786 25.5853 11.0041 27.4037C15.0596 33.7331 12.1953 41.5368 7.7966 47.7153C5.7391 50.6144 3.34265 53.3792 1.75188 56.4654C0.161107 59.5515 -0.575262 63.0861 0.816259 66.2332C2.19695 69.3534 5.48462 71.6967 9.04627 73.3447C16.2811 76.6922 24.8067 77.651 33.1201 78.1934C51.5239 79.3899 70.0252 78.8733 88.4767 78.3567C95.3054 78.1635 102.163 77.9682 108.882 76.9608C112.611 76.4019 116.462 75.5144 119.169 73.3705C122.607 70.6491 123.46 66.041 121.155 62.6253C117.291 56.9024 106.606 55.4807 103.906 49.3384C102.419 45.9578 103.946 42.1918 106.106 39.0561C110.741 32.3289 118.51 26.4284 118.919 18.7394C119.201 13.4587 115.466 8.16979 109.692 5.67153C103.638 3.05238 95.2458 3.38197 90.78 7.71725C86.1842 12.1817 78.1036 13.8988 71.1774 13.6695Z" fill="#F13F00"/>
<path d="M72.0047 78.8844L50.8882 78.6261L50.9499 78.1095L51.9711 69.5857H70.5157L71.8801 78.1095L71.9841 78.7553L72.0047 78.8844Z" fill="#D0D2D5"/>
<path opacity="0.1" d="M71.9841 78.7554H61.4464L50.8882 78.6262L50.9499 78.1096H71.8801L71.9841 78.7554Z" fill="black"/>
<path d="M75.3886 78.2388H47.3687V78.8845H75.3886V78.2388Z" fill="#D0D2D5"/>
<path d="M102.122 18.389C102.124 18.1682 102.079 17.9494 101.992 17.7451C101.904 17.5407 101.775 17.3548 101.612 17.1979C101.45 17.041 101.256 16.9163 101.043 16.8308C100.829 16.7453 100.601 16.7008 100.369 16.6997H22.1181C21.8866 16.7007 21.6576 16.7451 21.4442 16.8305C21.2307 16.9159 21.037 17.0407 20.8741 17.1975C20.7112 17.3544 20.5822 17.5404 20.4947 17.7448C20.4071 17.9492 20.3627 18.1681 20.3638 18.389V63.6428H102.122V18.389Z" fill="#444053"/>
<path d="M20.3638 63.1934V68.4936C20.3638 68.9376 20.5486 69.3633 20.8776 69.6772C21.2066 69.9911 21.6528 70.1674 22.1181 70.1674H100.369C100.834 70.1671 101.28 69.9907 101.609 69.6768C101.938 69.363 102.122 68.9374 102.122 68.4936V63.1934H20.3638Z" fill="#D0D2D5"/>
<path opacity="0.1" d="M99.1442 19.541H23.7476V60.223H99.1442V19.541Z" fill="#F13F00"/>
<path d="M61.6491 68.1556C61.926 68.1558 62.1993 68.096 62.4484 67.9807C62.6975 67.8655 62.9159 67.6977 63.0872 67.4902C63.1392 67.4269 63.1866 67.3603 63.2291 67.2908L62.2263 67.1338L63.3092 67.142C63.4137 66.9261 63.4706 66.692 63.4766 66.4543C63.4825 66.2165 63.4374 65.9801 63.3439 65.7596L61.8895 66.4829L63.2312 65.5426C63.1052 65.3363 62.936 65.1569 62.7343 65.0156C62.5325 64.8742 62.3025 64.774 62.0584 64.721C61.8144 64.668 61.5615 64.6634 61.3155 64.7075C61.0695 64.7516 60.8356 64.8435 60.6284 64.9774C60.4212 65.1114 60.245 65.2845 60.1108 65.4861C59.9767 65.6877 59.8873 65.9135 59.8484 66.1494C59.8095 66.3853 59.8218 66.6263 59.8845 66.8575C59.9473 67.0887 60.0592 67.3051 60.2132 67.4933C60.3845 67.7001 60.6027 67.8671 60.8514 67.9819C61.1001 68.0966 61.3729 68.156 61.6491 68.1556Z" fill="#F13F00"/>
<path opacity="0.1" d="M63.4766 70.1672L71.9004 78.2385L70.6085 70.1672H63.4766Z" fill="black"/>
<path d="M75.1692 26.8806H26.244C26.0885 26.8806 25.9624 27.0009 25.9624 27.1492V54.9215C25.9624 55.0698 26.0885 55.1901 26.244 55.1901H75.1692C75.3247 55.1901 75.4507 55.0698 75.4507 54.9215V27.1492C75.4507 27.0009 75.3247 26.8806 75.1692 26.8806Z" fill="white"/>
<path d="M99.1659 19.5449H23.7964V21.9213H99.1659V19.5449Z" fill="white"/>
<path d="M26.2024 19.9583H24.2056C24.1589 19.9583 24.1211 19.9943 24.1211 20.0388V21.3241C24.1211 21.3686 24.1589 21.4047 24.2056 21.4047H26.2024C26.2491 21.4047 26.2869 21.3686 26.2869 21.3241V20.0388C26.2869 19.9943 26.2491 19.9583 26.2024 19.9583Z" fill="#F13F00"/>
<path opacity="0.3" d="M72.572 19.9583H49.9568C49.9222 19.9583 49.894 19.9851 49.894 20.0182V21.3448C49.894 21.3779 49.9222 21.4047 49.9568 21.4047H72.572C72.6067 21.4047 72.6348 21.3779 72.6348 21.3448V20.0182C72.6348 19.9851 72.6067 19.9583 72.572 19.9583Z" fill="#F13F00"/>
<path d="M71.9603 20.8304H71.9051L71.8845 20.8138C71.954 20.7351 71.9924 20.6357 71.9928 20.5328C71.9922 20.4483 71.9653 20.3659 71.9156 20.2959C71.8659 20.2259 71.7956 20.1716 71.7136 20.1397C71.6315 20.1079 71.5414 20.0999 71.4547 20.1168C71.3679 20.1338 71.2883 20.1749 71.226 20.2349C71.1636 20.2949 71.1214 20.3713 71.1044 20.4542C71.0875 20.5372 71.0967 20.623 71.1309 20.701C71.1651 20.779 71.2228 20.8455 71.2966 20.8923C71.3704 20.939 71.457 20.9638 71.5456 20.9636C71.6534 20.963 71.7576 20.9265 71.8401 20.8603L71.8607 20.8768V20.9306L72.2072 21.2612L72.3155 21.1579L71.9603 20.8304ZM71.5445 20.8304C71.4825 20.8306 71.4219 20.8132 71.3702 20.7805C71.3186 20.7477 71.2783 20.7011 71.2545 20.6465C71.2307 20.5919 71.2244 20.5318 71.2364 20.4738C71.2485 20.4157 71.2783 20.3624 71.3221 20.3206C71.366 20.2788 71.4218 20.2503 71.4826 20.2389C71.5434 20.2274 71.6065 20.2334 71.6637 20.2561C71.7209 20.2788 71.7698 20.3173 71.8041 20.3665C71.8384 20.4158 71.8566 20.4737 71.8564 20.5328C71.8567 20.5719 71.8488 20.6108 71.8332 20.647C71.8177 20.6832 71.7947 20.7161 71.7657 20.7438C71.7367 20.7715 71.7022 20.7934 71.6642 20.8083C71.6262 20.8231 71.5855 20.8306 71.5445 20.8304Z" fill="#444053"/>
<path d="M98.0827 21.4047C98.5014 21.4047 98.8408 21.0809 98.8408 20.6815C98.8408 20.2821 98.5014 19.9583 98.0827 19.9583C97.6641 19.9583 97.3247 20.2821 97.3247 20.6815C97.3247 21.0809 97.6641 21.4047 98.0827 21.4047Z" fill="#F13F00"/>
<path d="M85.7996 24.5044H79.2871C79.1417 24.5044 79.0239 24.6168 79.0239 24.7555V28.7994C79.0239 28.938 79.1417 29.0504 79.2871 29.0504H85.7996C85.9449 29.0504 86.0628 28.938 86.0628 28.7994V24.7555C86.0628 24.6168 85.9449 24.5044 85.7996 24.5044Z" fill="white"/>
<path d="M96.9341 24.5044H87.9699C87.9334 24.5044 87.9038 24.5326 87.9038 24.5674V25.1646C87.9038 25.1994 87.9334 25.2276 87.9699 25.2276H96.9341C96.9706 25.2276 97.0001 25.1994 97.0001 25.1646V24.5674C97.0001 24.5326 96.9706 24.5044 96.9341 24.5044Z" fill="white"/>
<path d="M96.9341 26.0542H87.9699C87.9334 26.0542 87.9038 26.0824 87.9038 26.1172V26.7144C87.9038 26.7492 87.9334 26.7774 87.9699 26.7774H96.9341C96.9706 26.7774 97.0001 26.7492 97.0001 26.7144V26.1172C97.0001 26.0824 96.9706 26.0542 96.9341 26.0542Z" fill="white"/>
<path d="M96.9341 27.604H87.9699C87.9334 27.604 87.9038 27.6322 87.9038 27.667V28.2642C87.9038 28.299 87.9334 28.3272 87.9699 28.3272H96.9341C96.9706 28.3272 97.0001 28.299 97.0001 28.2642V27.667C97.0001 27.6322 96.9706 27.604 96.9341 27.604Z" fill="white"/>
<path d="M85.7996 31.6333H79.2871C79.1417 31.6333 79.0239 31.7457 79.0239 31.8844V35.9283C79.0239 36.0669 79.1417 36.1793 79.2871 36.1793H85.7996C85.9449 36.1793 86.0628 36.0669 86.0628 35.9283V31.8844C86.0628 31.7457 85.9449 31.6333 85.7996 31.6333Z" fill="white"/>
<path d="M96.9341 31.6333H87.9699C87.9334 31.6333 87.9038 31.6615 87.9038 31.6963V32.2935C87.9038 32.3283 87.9334 32.3565 87.9699 32.3565H96.9341C96.9706 32.3565 97.0001 32.3283 97.0001 32.2935V31.6963C97.0001 31.6615 96.9706 31.6333 96.9341 31.6333Z" fill="white"/>
<path d="M96.9341 33.1831H87.9699C87.9334 33.1831 87.9038 33.2113 87.9038 33.2461V33.8433C87.9038 33.8781 87.9334 33.9063 87.9699 33.9063H96.9341C96.9706 33.9063 97.0001 33.8781 97.0001 33.8433V33.2461C97.0001 33.2113 96.9706 33.1831 96.9341 33.1831Z" fill="white"/>
<path d="M96.9287 34.7329H87.9753C87.9358 34.7329 87.9038 34.7634 87.9038 34.8011V35.388C87.9038 35.4256 87.9358 35.4561 87.9753 35.4561H96.9287C96.9681 35.4561 97.0001 35.4256 97.0001 35.388V34.8011C97.0001 34.7634 96.9681 34.7329 96.9287 34.7329Z" fill="white"/>
<path d="M85.7996 38.7625H79.2871C79.1417 38.7625 79.0239 38.8749 79.0239 39.0135V43.0574C79.0239 43.1961 79.1417 43.3085 79.2871 43.3085H85.7996C85.9449 43.3085 86.0628 43.1961 86.0628 43.0574V39.0135C86.0628 38.8749 85.9449 38.7625 85.7996 38.7625Z" fill="white"/>
<path d="M96.9287 38.7625H87.9753C87.9358 38.7625 87.9038 38.793 87.9038 38.8306V39.4175C87.9038 39.4552 87.9358 39.4857 87.9753 39.4857H96.9287C96.9681 39.4857 97.0001 39.4552 97.0001 39.4175V38.8306C97.0001 38.793 96.9681 38.7625 96.9287 38.7625Z" fill="white"/>
<path d="M96.9287 40.3123H87.9753C87.9358 40.3123 87.9038 40.3428 87.9038 40.3804V40.9673C87.9038 41.005 87.9358 41.0355 87.9753 41.0355H96.9287C96.9681 41.0355 97.0001 41.005 97.0001 40.9673V40.3804C97.0001 40.3428 96.9681 40.3123 96.9287 40.3123Z" fill="white"/>
<path d="M96.9287 41.8621H87.9753C87.9358 41.8621 87.9038 41.8926 87.9038 41.9303V42.5171C87.9038 42.5548 87.9358 42.5853 87.9753 42.5853H96.9287C96.9681 42.5853 97.0001 42.5548 97.0001 42.5171V41.9303C97.0001 41.8926 96.9681 41.8621 96.9287 41.8621Z" fill="white"/>
<path d="M85.7996 45.8916H79.2871C79.1417 45.8916 79.0239 46.004 79.0239 46.1427V50.1866C79.0239 50.3252 79.1417 50.4377 79.2871 50.4377H85.7996C85.9449 50.4377 86.0628 50.3252 86.0628 50.1866V46.1427C86.0628 46.004 85.9449 45.8916 85.7996 45.8916Z" fill="white"/>
<path d="M96.9287 45.8916H87.9753C87.9358 45.8916 87.9038 45.9221 87.9038 45.9598V46.5466C87.9038 46.5843 87.9358 46.6148 87.9753 46.6148H96.9287C96.9681 46.6148 97.0001 46.5843 97.0001 46.5466V45.9598C97.0001 45.9221 96.9681 45.8916 96.9287 45.8916Z" fill="white"/>
<path d="M96.9287 47.4414H87.9753C87.9358 47.4414 87.9038 47.4719 87.9038 47.5096V48.0964C87.9038 48.1341 87.9358 48.1646 87.9753 48.1646H96.9287C96.9681 48.1646 97.0001 48.1341 97.0001 48.0964V47.5096C97.0001 47.4719 96.9681 47.4414 96.9287 47.4414Z" fill="white"/>
<path d="M96.9287 48.991H87.9753C87.9358 48.991 87.9038 49.0215 87.9038 49.0592V49.646C87.9038 49.6837 87.9358 49.7142 87.9753 49.7142H96.9287C96.9681 49.7142 97.0001 49.6837 97.0001 49.646V49.0592C97.0001 49.0215 96.9681 48.991 96.9287 48.991Z" fill="white"/>
<path d="M85.7996 53.0205H79.2871C79.1417 53.0205 79.0239 53.1329 79.0239 53.2716V57.3155C79.0239 57.4541 79.1417 57.5665 79.2871 57.5665H85.7996C85.9449 57.5665 86.0628 57.4541 86.0628 57.3155V53.2716C86.0628 53.1329 85.9449 53.0205 85.7996 53.0205Z" fill="white"/>
<path d="M96.9287 53.0205H87.9753C87.9358 53.0205 87.9038 53.051 87.9038 53.0887V53.6756C87.9038 53.7132 87.9358 53.7437 87.9753 53.7437H96.9287C96.9681 53.7437 97.0001 53.7132 97.0001 53.6756V53.0887C97.0001 53.051 96.9681 53.0205 96.9287 53.0205Z" fill="white"/>
<path d="M96.9287 54.5703H87.9753C87.9358 54.5703 87.9038 54.6008 87.9038 54.6385V55.2254C87.9038 55.263 87.9358 55.2935 87.9753 55.2935H96.9287C96.9681 55.2935 97.0001 55.263 97.0001 55.2254V54.6385C97.0001 54.6008 96.9681 54.5703 96.9287 54.5703Z" fill="white"/>
<path d="M96.9287 56.1201H87.9753C87.9358 56.1201 87.9038 56.1506 87.9038 56.1883V56.7752C87.9038 56.8128 87.9358 56.8433 87.9753 56.8433H96.9287C96.9681 56.8433 97.0001 56.8128 97.0001 56.7752V56.1883C97.0001 56.1506 96.9681 56.1201 96.9287 56.1201Z" fill="white"/>
<path opacity="0.1" d="M44.236 34.3828H33.1006V34.9335H44.236V34.3828Z" fill="#F13F00"/>
<path opacity="0.1" d="M35.1629 31.4712H34.0908V34.3827H35.1629V31.4712Z" fill="#F13F00"/>
<path opacity="0.1" d="M36.7293 31.4712H35.6572V34.3827H36.7293V31.4712Z" fill="#F13F00"/>
<path opacity="0.1" d="M38.2962 31.4712H37.2241V34.3827H38.2962V31.4712Z" fill="#F13F00"/>
<path opacity="0.1" d="M39.8631 31.4712H38.791V34.3827H39.8631V31.4712Z" fill="#F13F00"/>
<path opacity="0.1" d="M41.43 31.4712H40.3579V34.3827H41.43V31.4712Z" fill="#F13F00"/>
<path opacity="0.1" d="M42.9983 31.4712H41.9263V34.3827H42.9983V31.4712Z" fill="#F13F00"/>
<path opacity="0.1" d="M35.1629 32.0217H34.0908V32.3368H35.1629V32.0217Z" fill="#F13F00"/>
<path opacity="0.1" d="M36.7293 32.0217H35.6572V32.3368H36.7293V32.0217Z" fill="#F13F00"/>
<path opacity="0.1" d="M38.2962 32.0217H37.2241V32.3368H38.2962V32.0217Z" fill="#F13F00"/>
<path opacity="0.1" d="M39.8631 32.0217H38.791V32.3368H39.8631V32.0217Z" fill="#F13F00"/>
<path opacity="0.1" d="M41.43 32.0217H40.3579V32.3368H41.43V32.0217Z" fill="#F13F00"/>
<path opacity="0.1" d="M42.9983 32.0217H41.9263V32.3368H42.9983V32.0217Z" fill="#F13F00"/>
<path opacity="0.1" d="M35.1629 33.4385H34.0908V33.7536H35.1629V33.4385Z" fill="#F13F00"/>
<path opacity="0.1" d="M36.7293 33.4385H35.6572V33.7536H36.7293V33.4385Z" fill="#F13F00"/>
<path opacity="0.1" d="M38.2962 33.4385H37.2241V33.7536H38.2962V33.4385Z" fill="#F13F00"/>
<path opacity="0.1" d="M39.8631 33.4385H38.791V33.7536H39.8631V33.4385Z" fill="#F13F00"/>
<path opacity="0.1" d="M41.43 33.4385H40.3579V33.7536H41.43V33.4385Z" fill="#F13F00"/>
<path opacity="0.1" d="M42.9983 33.4385H41.9263V33.7536H42.9983V33.4385Z" fill="#F13F00"/>
<path opacity="0.1" d="M68.6501 35.7993H57.5146V36.35H68.6501V35.7993Z" fill="#F13F00"/>
<path opacity="0.1" d="M59.5765 32.8877H58.5044V35.7992H59.5765V32.8877Z" fill="#F13F00"/>
<path opacity="0.1" d="M61.1429 32.8877H60.0708V35.7992H61.1429V32.8877Z" fill="#F13F00"/>
<path opacity="0.1" d="M62.7102 32.8877H61.6382V35.7992H62.7102V32.8877Z" fill="#F13F00"/>
<path opacity="0.1" d="M64.2786 32.8877H63.2065V35.7992H64.2786V32.8877Z" fill="#F13F00"/>
<path opacity="0.1" d="M65.8455 32.8877H64.7734V35.7992H65.8455V32.8877Z" fill="#F13F00"/>
<path opacity="0.1" d="M67.4119 32.8877H66.3398V35.7992H67.4119V32.8877Z" fill="#F13F00"/>
<path opacity="0.1" d="M59.5765 33.4385H58.5044V33.7536H59.5765V33.4385Z" fill="#F13F00"/>
<path opacity="0.1" d="M61.1429 33.4385H60.0708V33.7536H61.1429V33.4385Z" fill="#F13F00"/>
<path opacity="0.1" d="M62.7102 33.4385H61.6382V33.7536H62.7102V33.4385Z" fill="#F13F00"/>
<path opacity="0.1" d="M64.2786 33.4385H63.2065V33.7536H64.2786V33.4385Z" fill="#F13F00"/>
<path opacity="0.1" d="M65.8455 33.4385H64.7734V33.7536H65.8455V33.4385Z" fill="#F13F00"/>
<path opacity="0.1" d="M67.4119 33.4385H66.3398V33.7536H67.4119V33.4385Z" fill="#F13F00"/>
<path opacity="0.1" d="M59.5765 34.855H58.5044V35.1701H59.5765V34.855Z" fill="#F13F00"/>
<path opacity="0.1" d="M61.1429 34.855H60.0708V35.1701H61.1429V34.855Z" fill="#F13F00"/>
<path opacity="0.1" d="M62.7102 34.855H61.6382V35.1701H62.7102V34.855Z" fill="#F13F00"/>
<path opacity="0.1" d="M64.2786 34.855H63.2065V35.1701H64.2786V34.855Z" fill="#F13F00"/>
<path opacity="0.1" d="M65.8455 34.855H64.7734V35.1701H65.8455V34.855Z" fill="#F13F00"/>
<path opacity="0.1" d="M67.4119 34.855H66.3398V35.1701H67.4119V34.855Z" fill="#F13F00"/>
<path opacity="0.1" d="M68.6501 39.8123H57.5146V40.3629H68.6501V39.8123Z" fill="#F13F00"/>
<path opacity="0.1" d="M59.5765 36.9006H58.5044V39.8122H59.5765V36.9006Z" fill="#F13F00"/>
<path opacity="0.1" d="M61.1429 36.9006H60.0708V39.8122H61.1429V36.9006Z" fill="#F13F00"/>
<path opacity="0.1" d="M62.7102 36.9006H61.6382V39.8122H62.7102V36.9006Z" fill="#F13F00"/>
<path opacity="0.1" d="M64.2786 36.9006H63.2065V39.8122H64.2786V36.9006Z" fill="#F13F00"/>
<path opacity="0.1" d="M65.8455 36.9006H64.7734V39.8122H65.8455V36.9006Z" fill="#F13F00"/>
<path opacity="0.1" d="M67.4119 36.9006H66.3398V39.8122H67.4119V36.9006Z" fill="#F13F00"/>
<path opacity="0.1" d="M59.5765 37.4514H58.5044V37.7665H59.5765V37.4514Z" fill="#F13F00"/>
<path opacity="0.1" d="M61.1429 37.4514H60.0708V37.7665H61.1429V37.4514Z" fill="#F13F00"/>
<path opacity="0.1" d="M62.7102 37.4514H61.6382V37.7665H62.7102V37.4514Z" fill="#F13F00"/>
<path opacity="0.1" d="M64.2786 37.4514H63.2065V37.7665H64.2786V37.4514Z" fill="#F13F00"/>
<path opacity="0.1" d="M65.8455 37.4514H64.7734V37.7665H65.8455V37.4514Z" fill="#F13F00"/>
<path opacity="0.1" d="M67.4119 37.4514H66.3398V37.7665H67.4119V37.4514Z" fill="#F13F00"/>
<path opacity="0.1" d="M59.5765 38.8677H58.5044V39.1828H59.5765V38.8677Z" fill="#F13F00"/>
<path opacity="0.1" d="M61.1429 38.8677H60.0708V39.1828H61.1429V38.8677Z" fill="#F13F00"/>
<path opacity="0.1" d="M62.7102 38.8677H61.6382V39.1828H62.7102V38.8677Z" fill="#F13F00"/>
<path opacity="0.1" d="M64.2786 38.8677H63.2065V39.1828H64.2786V38.8677Z" fill="#F13F00"/>
<path opacity="0.1" d="M65.8455 38.8677H64.7734V39.1828H65.8455V38.8677Z" fill="#F13F00"/>
<path opacity="0.1" d="M67.4119 38.8677H66.3398V39.1828H67.4119V38.8677Z" fill="#F13F00"/>
<path opacity="0.1" d="M39.9318 40.6097C39.8487 40.5081 39.7728 40.4015 39.7044 40.2904L41.3081 40.0394L39.5755 40.0518C39.4093 39.7065 39.3186 39.3326 39.3089 38.9528C39.2993 38.573 39.3708 38.1953 39.5192 37.8428L41.842 38.9917L39.6968 37.4874C39.8964 37.1533 40.1662 36.8622 40.4893 36.6323C40.8124 36.4025 41.1818 36.2388 41.5744 36.1517C41.9669 36.0645 42.3741 36.0558 42.7704 36.1259C43.1666 36.1961 43.5434 36.3436 43.8771 36.5593C44.2107 36.775 44.4941 37.0542 44.7092 37.3794C44.9244 37.7045 45.0668 38.0686 45.1275 38.4487C45.1882 38.8289 45.1658 39.2169 45.0618 39.5884C44.9579 39.9599 44.7745 40.3069 44.5233 40.6076C44.6538 40.7648 44.7657 40.9353 44.8568 41.116L42.7755 42.1491L44.9943 41.4393C45.1495 41.8783 45.1878 42.3472 45.1055 42.8037C45.0233 43.2603 44.8232 43.6901 44.5233 44.0544C44.8633 44.4657 45.075 44.96 45.1343 45.4807C45.1935 46.0015 45.0979 46.5277 44.8584 46.999C44.6188 47.4704 44.245 47.8678 43.7797 48.1459C43.3145 48.424 42.7766 48.5715 42.2275 48.5715C41.6785 48.5715 41.1406 48.424 40.6753 48.1459C40.21 47.8678 39.8362 47.4704 39.5967 46.999C39.3571 46.5277 39.2615 46.0015 39.3208 45.4807C39.3801 44.96 39.5918 44.4657 39.9318 44.0544C39.5268 43.5628 39.3067 42.9557 39.3067 42.3305C39.3067 41.7053 39.5268 41.0981 39.9318 40.6066V40.6097Z" fill="#F13F00"/>
<path opacity="0.1" d="M45.1492 42.3331C45.1493 42.9577 44.9288 43.5641 44.5233 44.0544C44.8633 44.4657 45.075 44.96 45.1343 45.4808C45.1935 46.0016 45.0979 46.5277 44.8584 46.9991C44.6188 47.4704 44.245 47.8679 43.7797 48.146C43.3145 48.4241 42.7766 48.5715 42.2275 48.5715C41.6785 48.5715 41.1406 48.4241 40.6753 48.146C40.21 47.8679 39.8362 47.4704 39.5967 46.9991C39.3571 46.5277 39.2615 46.0016 39.3208 45.4808C39.3801 44.96 39.5918 44.4657 39.9318 44.0544C39.5387 43.5822 45.1492 42.0201 45.1492 42.3331Z" fill="#F13F00"/>
<path opacity="0.2" d="M42.6951 49.3114C42.7002 49.3187 42.7049 49.3263 42.7092 49.3341H41.7173C41.7227 49.3269 41.7259 49.3186 41.7313 49.3114C41.646 49.1697 41.6019 49.0088 41.6036 48.8454C41.6031 48.7334 41.6233 48.6222 41.6631 48.5168C41.7184 48.5251 41.7866 48.5344 41.8656 48.5427C42.0957 48.5646 42.3275 48.5646 42.5576 48.5427C42.624 48.5365 42.6922 48.5282 42.7623 48.5179C42.7618 48.5196 42.7618 48.5214 42.7623 48.523C42.8017 48.6267 42.8215 48.7362 42.8207 48.8464C42.8229 49.0093 42.7796 49.1698 42.6951 49.3114Z" fill="#3F3D56"/>
<path opacity="0.1" d="M39.13 49.334H33.6072C33.5953 49.3041 33.5845 49.272 33.5747 49.241C33.3801 48.644 33.4027 48.0018 33.6386 47.4185C33.0995 47.0628 32.7012 46.5447 32.5078 45.9471C32.3143 45.3496 32.3369 44.7074 32.5719 44.1236C32.461 44.0507 32.3557 43.9703 32.2568 43.8829L33.7101 43.1917L32.0576 43.6918C31.7919 43.4089 31.5895 43.0772 31.4629 42.7171C31.3362 42.357 31.288 41.976 31.3212 41.5975L33.8996 42.0417L31.3851 41.208C31.4718 40.832 31.6392 40.4772 31.8766 40.166C32.1141 39.8548 32.4165 39.5938 32.7648 39.3995C33.1131 39.2052 33.4998 39.0818 33.9005 39.037C34.3013 38.9922 34.7074 39.0271 35.0933 39.1394C35.4792 39.2516 35.8366 39.4389 36.143 39.6894C36.4494 39.9399 36.6981 40.2481 36.8735 40.5948C37.049 40.9415 37.1473 41.319 37.1623 41.7037C37.1774 42.0884 37.1088 42.4719 36.9609 42.8301C37.1353 42.9459 37.2962 43.0792 37.4406 43.2279L35.7708 44.7993L37.6713 43.4955C37.9561 43.8714 38.1381 44.3093 38.2009 44.7693C38.2637 45.2293 38.2052 45.6971 38.0308 46.1301C38.5553 46.4766 38.9466 46.9773 39.145 47.5557C39.3435 48.1342 39.3382 48.7587 39.13 49.334Z" fill="#F13F00"/>
<path opacity="0.1" d="M39.1302 49.334H33.6075C33.5955 49.304 33.5847 49.272 33.575 49.241C33.3804 48.644 33.4029 48.0017 33.6389 47.4184C33.1191 47.0754 37.9954 44.0017 38.0917 44.3013C38.2863 44.8987 38.2638 45.5412 38.0278 46.1249C38.554 46.4712 38.9467 46.9726 39.1458 47.5522C39.3449 48.1318 39.3394 48.7576 39.1302 49.334Z" fill="#F13F00"/>
<path opacity="0.1" d="M64.118 45.5588C63.7826 46.0959 63.2671 46.5095 62.655 46.7326C62.6812 46.9313 62.6852 47.1322 62.6669 47.3318L60.3268 47.1975L62.6127 47.6707C62.5455 47.968 62.4277 48.2528 62.2641 48.5138C62.0648 48.8334 61.7995 49.1111 61.4844 49.33H58.2985V49.4096H55.0498C55.0563 49.3827 55.0628 49.3569 55.0704 49.33C55.1889 48.9025 55.4123 48.5081 55.722 48.1792C56.0317 47.8502 56.4189 47.5963 56.8517 47.4382C56.7686 46.818 56.9063 46.1891 57.2427 45.6525C57.5791 45.1159 58.0947 44.7027 58.7067 44.4792C58.6896 44.3514 58.6816 44.2226 58.6829 44.0938L60.1936 44.6631L58.6992 43.8251C58.7432 43.4475 58.8677 43.0825 59.0649 42.7524C59.2621 42.4223 59.5279 42.1341 59.846 41.9055L61.2223 44.0318L60.1903 41.6906C60.7525 41.3938 61.4014 41.2819 62.0369 41.3723C62.6723 41.4626 63.2589 41.7501 63.7059 42.1904C64.1529 42.6307 64.4355 43.1992 64.51 43.808C64.5845 44.4169 64.4467 45.0322 64.118 45.5588Z" fill="#F13F00"/>
<path opacity="0.1" d="M62.2641 48.5178C62.0648 48.8375 61.7995 49.1152 61.4844 49.334H58.2985V49.4136H55.0498C55.0563 49.3867 55.0628 49.3609 55.0704 49.334C55.1889 48.9066 55.4123 48.5121 55.722 48.1832C56.0317 47.8543 56.4189 47.6003 56.8517 47.4423C56.8247 47.2356 57.4538 47.2666 58.2931 47.4009C59.938 47.6644 62.3756 48.3401 62.2641 48.5178Z" fill="#F13F00"/>
<path d="M48.4548 41.0779C48.4548 41.0779 48.8555 43.1443 47.961 43.819C47.0666 44.4937 48.7191 48.5376 51.4458 48.0654C54.1725 47.5933 55.2836 44.2013 55.2836 44.2013C55.2836 44.2013 52.5525 43.662 53.565 40.9209L48.4548 41.0779Z" fill="#EE8E9E"/>
<path opacity="0.1" d="M48.4548 41.0779C48.4548 41.0779 48.8555 43.1443 47.961 43.819C47.0666 44.4937 48.7191 48.5376 51.4458 48.0654C54.1725 47.5933 55.2836 44.2013 55.2836 44.2013C55.2836 44.2013 52.5525 43.662 53.565 40.9209L48.4548 41.0779Z" fill="black"/>
<path d="M50.8687 42.5944C53.3657 42.5944 55.3898 40.6632 55.3898 38.2809C55.3898 35.8985 53.3657 33.9673 50.8687 33.9673C48.3718 33.9673 46.3477 35.8985 46.3477 38.2809C46.3477 40.6632 48.3718 42.5944 50.8687 42.5944Z" fill="#EE8E9E"/>
<path d="M58.2984 46.4814V49.4136H43.3696V46.6146C43.3696 46.2597 43.4792 45.9127 43.6847 45.6168C43.8902 45.321 44.1825 45.0895 44.5251 44.9512L44.9528 44.7776C46.0357 44.3375 47.3514 43.7909 47.7813 43.5636C47.8284 43.5412 47.8727 43.5138 47.9135 43.482C48.1484 43.2578 48.1019 43.5492 48.1019 43.5492C48.1019 43.5492 48.0954 43.605 48.0911 43.701C48.0651 44.3613 48.1647 46.9556 51.3517 46.7397C54.4606 46.533 54.6003 44.5266 54.5689 43.9366C54.5672 43.882 54.5625 43.8275 54.5549 43.7734C54.7699 43.8222 54.9803 43.8878 55.184 43.9697C55.8338 44.199 56.7932 44.5669 57.0499 44.7404C57.13 44.7942 57.2275 44.85 57.3336 44.9068C57.454 44.9708 57.5666 45.0474 57.6693 45.1351C57.8673 45.3048 58.0257 45.5124 58.1341 45.7443C58.2425 45.9763 58.2985 46.2274 58.2984 46.4814Z" fill="#F13F00"/>
<path opacity="0.1" d="M55.1839 43.9697C54.9207 45.133 54.0945 47.3121 51.1165 47.3689C47.9436 47.4288 47.7595 44.4181 47.7801 43.5636C47.8279 43.5418 47.8726 43.5144 47.9133 43.482C48.1494 43.2578 48.1017 43.5492 48.1017 43.5492C48.1017 43.5492 47.7021 46.9866 51.3504 46.7397C54.9987 46.4927 54.5504 43.7744 54.5504 43.7744C54.5504 43.7579 54.8222 43.8478 55.1839 43.9697Z" fill="black"/>
<path d="M45.5173 38.4969C45.6674 38.4611 45.8253 38.4691 45.9707 38.5197C46.116 38.5703 46.2421 38.6614 46.3327 38.7811C46.4973 39.0011 46.5222 39.2667 46.5428 39.5208C46.7388 39.5601 46.8493 39.3483 46.8677 39.1881C46.9402 38.5362 46.9457 37.8718 47.1752 37.2416C47.4048 36.6113 47.9062 36.0018 48.6761 35.761C48.9392 35.6741 49.2203 35.6486 49.4959 35.6866C49.6594 35.7125 49.8132 35.7672 49.9756 35.79C50.5387 35.8788 51.1505 35.6246 51.6779 35.8013C52.0093 35.9129 52.2194 36.1702 52.3742 36.4274C52.4416 36.5662 52.5331 36.693 52.6449 36.8025C52.8691 36.9947 53.22 37.0443 53.5416 37.1042C53.8632 37.1641 54.2141 37.2685 54.3516 37.5051C54.475 37.7189 54.3841 37.9659 54.3429 38.1973C54.2793 38.5639 54.3436 38.9403 54.5259 39.2687C54.5855 39.372 54.7068 39.4971 54.8508 39.463C54.9153 39.4422 54.9698 39.4 55.0046 39.3441C55.3738 38.8503 55.3641 38.2076 55.8276 37.7623C55.9824 37.6135 56.1828 37.4978 56.3333 37.349C56.4472 37.2388 56.5308 37.1033 56.5765 36.9548C56.6222 36.8063 56.6287 36.6492 56.5953 36.4977C56.512 36.1567 56.2261 35.8778 55.9954 35.5782C55.6959 35.1986 55.4777 34.7664 55.3533 34.3063C55.3316 34.2528 55.3316 34.1935 55.3533 34.14C55.397 34.0857 55.4534 34.0418 55.5179 34.0118C55.6434 33.9315 55.734 33.8104 55.7726 33.671C55.8113 33.5316 55.7954 33.3835 55.7279 33.2545C55.5969 32.9993 55.3089 32.8051 54.984 32.6893C54.6545 32.5861 54.3143 32.5168 53.9693 32.4827C53.7419 32.5137 53.4755 32.3908 53.4051 32.2172C53.3737 32.1397 53.3737 32.056 53.3423 31.9785C53.2997 31.9007 53.2381 31.8338 53.1627 31.7834C53.0874 31.7331 53.0004 31.7008 52.9092 31.6892C52.7155 31.6593 52.5171 31.6728 52.3298 31.7285C52.1132 31.7863 51.8674 31.8731 51.6801 31.7719C51.5815 31.7192 51.5274 31.6231 51.4213 31.5797C51.2047 31.4929 50.9816 31.6685 50.8268 31.8132C50.6775 31.965 50.4943 32.0826 50.2907 32.1573C50.1832 32.1963 50.0682 32.2128 49.9534 32.2054C49.8387 32.1981 49.7269 32.1672 49.6258 32.1149C49.4775 32.025 49.4028 31.8804 49.2847 31.7657C49.0618 31.576 48.7765 31.4664 48.478 31.4557C48.171 31.4402 47.8634 31.4723 47.5672 31.5508C47.0019 31.6822 46.4621 31.8984 45.9678 32.1913C45.7192 32.3217 45.5082 32.5088 45.3538 32.7358C45.2624 32.9099 45.2153 33.1021 45.2163 33.2969C45.1924 33.9075 45.4047 34.5501 45.9581 34.9779C45.6202 35.1122 45.5065 35.4418 45.4274 35.7342C45.3007 36.2012 45.174 36.6754 45.2217 37.1507C45.2455 37.3966 45.3159 37.6425 45.278 37.8873C45.2476 38.0026 45.2309 38.1208 45.2282 38.2397C45.2441 38.3051 45.2801 38.3646 45.3316 38.4104C45.3831 38.4562 45.4478 38.4863 45.5173 38.4969Z" fill="#454B69"/>
<g opacity="0.1">
<path opacity="0.1" d="M56.5251 36.3054C56.4765 36.4067 56.4106 36.4995 56.3302 36.5803C56.1797 36.7311 55.9793 36.8478 55.8245 36.9935C55.361 37.4357 55.3707 38.0825 55.0015 38.5764C54.967 38.6322 54.9123 38.6741 54.8477 38.6942C54.7069 38.7293 54.5856 38.6074 54.5228 38.4999C54.4513 38.3691 54.3971 38.2303 54.3615 38.0866C54.3539 38.1228 54.3463 38.159 54.3398 38.19C54.2762 38.5566 54.3405 38.933 54.5228 39.2614C54.5824 39.3647 54.7037 39.4897 54.8477 39.4556C54.9122 39.4348 54.9667 39.3927 55.0015 39.3368C55.3707 38.8429 55.361 38.2003 55.8245 37.755C55.9793 37.6062 56.1797 37.4905 56.3302 37.3417C56.4441 37.2315 56.5276 37.096 56.5734 36.9475C56.6191 36.7989 56.6256 36.6419 56.5922 36.4904C56.5756 36.4269 56.5531 36.3651 56.5251 36.3054Z" fill="black"/>
<path opacity="0.1" d="M55.5158 33.2472C55.4511 33.2769 55.3947 33.3208 55.3512 33.3753C55.3296 33.4285 55.3296 33.4875 55.3512 33.5406C55.3939 33.7012 55.4486 33.8586 55.5147 34.0118C55.6402 33.9315 55.7308 33.8103 55.7695 33.6709C55.8081 33.5315 55.7923 33.3835 55.7248 33.2544C55.7037 33.2119 55.6783 33.1714 55.649 33.1335C55.6105 33.1773 55.5657 33.2156 55.5158 33.2472Z" fill="black"/>
<path opacity="0.1" d="M45.9651 34.205C45.5814 33.9034 45.3287 33.4767 45.2558 33.0076C45.2364 33.1002 45.2255 33.1942 45.2233 33.2886C45.1985 33.7397 45.3231 34.1869 45.5796 34.5667C45.6572 34.405 45.7944 34.2763 45.9651 34.205Z" fill="black"/>
<path opacity="0.1" d="M54.3432 37.4357C54.3843 37.2033 54.4753 36.9563 54.3518 36.7435C54.2143 36.5059 53.8634 36.4025 53.5418 36.3426C53.2202 36.2827 52.8693 36.2321 52.6452 36.0409C52.5334 35.9314 52.4418 35.8046 52.3745 35.6659C52.2218 35.4086 52.0095 35.1493 51.6782 35.0398C51.1508 34.8631 50.5389 35.1162 49.9758 35.0284C49.8134 35.0026 49.6596 34.9489 49.4961 34.9251C49.2206 34.8867 48.9394 34.9122 48.6764 34.9995C47.9064 35.2412 47.405 35.8508 47.1755 36.48C46.9459 37.1093 46.9405 37.7736 46.8679 38.4266C46.8495 38.5857 46.7391 38.7985 46.5431 38.7593C46.5225 38.5041 46.4976 38.2427 46.333 38.0185C46.2422 37.899 46.1161 37.8081 45.9707 37.7577C45.8254 37.7072 45.6676 37.6995 45.5176 37.7354C45.4266 37.716 45.3457 37.6666 45.2891 37.5959C45.301 37.6906 45.301 37.7863 45.2891 37.881C45.2587 37.9963 45.242 38.1145 45.2393 38.2334C45.2532 38.2995 45.2876 38.3601 45.338 38.4074C45.3883 38.4548 45.4524 38.4866 45.5219 38.4989C45.672 38.4631 45.8299 38.471 45.9753 38.5217C46.1206 38.5723 46.2467 38.6634 46.3373 38.783C46.5019 39.0031 46.5268 39.2686 46.5474 39.5228C46.7434 39.5621 46.8539 39.3502 46.8723 39.1901C46.9448 38.5382 46.9502 37.8738 47.1798 37.2436C47.4094 36.6133 47.9108 36.0037 48.6807 35.763C48.9438 35.676 49.2249 35.6505 49.5004 35.6886C49.664 35.7144 49.8177 35.7692 49.9802 35.7919C50.5433 35.8808 51.1551 35.6266 51.6825 35.8033C52.0138 35.9149 52.2239 36.1722 52.3788 36.4294C52.4461 36.5681 52.5377 36.695 52.6495 36.8045C52.8737 36.9966 53.2245 37.0462 53.5461 37.1062C53.8678 37.1661 54.1959 37.2632 54.3399 37.4822C54.3345 37.4667 54.3399 37.4512 54.3432 37.4357Z" fill="black"/>
<path opacity="0.1" d="M45.2844 37.1145C45.3022 36.9221 45.2902 36.7282 45.2486 36.5391C45.2169 36.7387 45.21 36.9412 45.2281 37.1424C45.2281 37.1941 45.24 37.2458 45.2476 37.2964C45.2595 37.2354 45.2757 37.1755 45.2844 37.1145Z" fill="black"/>
</g>
<path d="M39.9844 53.5827V51.7178C39.9844 51.7038 39.9902 51.6904 40.0006 51.6805C40.0109 51.6707 40.025 51.6651 40.0396 51.6651H40.2616C40.2762 51.6651 40.2903 51.6707 40.3006 51.6805C40.311 51.6904 40.3168 51.7038 40.3168 51.7178V52.4937L41.2178 51.6971C41.239 51.6803 41.2647 51.6694 41.292 51.6659C41.3193 51.6623 41.3472 51.6661 41.3723 51.6769C41.3975 51.6876 41.419 51.7049 41.4344 51.7268C41.4497 51.7486 41.4584 51.7741 41.4593 51.8004V53.4897C41.4584 53.516 41.4497 53.5415 41.4344 53.5634C41.419 53.5852 41.3975 53.6025 41.3723 53.6133C41.3472 53.6241 41.3193 53.6279 41.292 53.6243C41.2647 53.6207 41.239 53.6099 41.2178 53.593L40.3168 52.8016V53.5734C40.3168 53.5874 40.311 53.6008 40.3006 53.6107C40.2903 53.6205 40.2762 53.6261 40.2616 53.6261H40.0396C40.0265 53.6263 40.0137 53.622 40.0036 53.6141C39.9935 53.6061 39.9867 53.595 39.9844 53.5827Z" fill="#444053"/>
<path d="M61.7539 51.7176V53.5825C61.7539 53.5895 61.7524 53.5964 61.7496 53.6029C61.7467 53.6094 61.7426 53.6152 61.7373 53.6201C61.7321 53.625 61.7259 53.6289 61.719 53.6315C61.7122 53.6341 61.7049 53.6353 61.6976 53.6352H61.481C61.4664 53.6352 61.4523 53.6296 61.4419 53.6198C61.4316 53.6099 61.4258 53.5965 61.4258 53.5825V52.8066L60.5248 53.6021C60.5035 53.6189 60.4777 53.6296 60.4504 53.6332C60.423 53.6367 60.3952 53.6329 60.37 53.6221C60.3448 53.6114 60.3232 53.5942 60.3077 53.5724C60.2922 53.5506 60.2834 53.5251 60.2822 53.4988V51.8034C60.2834 51.777 60.2922 51.7516 60.3077 51.7298C60.3232 51.708 60.3448 51.6908 60.37 51.68C60.3952 51.6693 60.423 51.6655 60.4504 51.669C60.4777 51.6725 60.5035 51.6833 60.5248 51.7L61.4258 52.4915V51.7207C61.4258 51.7067 61.4316 51.6933 61.4419 51.6834C61.4523 51.6736 61.4664 51.668 61.481 51.668H61.6976C61.7119 51.6677 61.7257 51.6727 61.7362 51.682C61.7467 51.6912 61.7531 51.704 61.7539 51.7176Z" fill="#444053"/>
<path d="M50.5016 53.6632H50.0608C50.0034 53.6632 49.9483 53.6414 49.9077 53.6026C49.8671 53.5639 49.8442 53.5113 49.8442 53.4565V51.9129C49.8442 51.8581 49.8671 51.8056 49.9077 51.7668C49.9483 51.7281 50.0034 51.7063 50.0608 51.7063H50.5016C50.559 51.7063 50.6141 51.7281 50.6547 51.7668C50.6953 51.8056 50.7181 51.8581 50.7181 51.9129V53.4565C50.7181 53.5113 50.6953 53.5639 50.6547 53.6026C50.6141 53.6414 50.559 53.6632 50.5016 53.6632ZM51.8985 53.4565V51.9129C51.8985 51.8581 51.8757 51.8056 51.8351 51.7668C51.7944 51.7281 51.7394 51.7063 51.6819 51.7063H51.2368C51.1794 51.7063 51.1243 51.7281 51.0837 51.7668C51.0431 51.8056 51.0203 51.8581 51.0203 51.9129V53.4565C51.0203 53.5113 51.0431 53.5639 51.0837 53.6026C51.1243 53.6414 51.1794 53.6632 51.2368 53.6632H51.6776C51.7064 53.6637 51.735 53.6588 51.7618 53.6486C51.7886 53.6385 51.813 53.6234 51.8335 53.6041C51.8541 53.5849 51.8704 53.5619 51.8816 53.5366C51.8928 53.5112 51.8985 53.484 51.8985 53.4565Z" fill="#444053"/>
<path opacity="0.6" d="M63.8635 49.2039H37.874V49.4797H63.8635V49.2039Z" fill="#444053"/>
<path d="M45.8993 49.9953C46.2779 49.9953 46.5848 49.7025 46.5848 49.3413C46.5848 48.9801 46.2779 48.6873 45.8993 48.6873C45.5208 48.6873 45.2139 48.9801 45.2139 49.3413C45.2139 49.7025 45.5208 49.9953 45.8993 49.9953Z" fill="#444053"/>
<path d="M45.8994 49.2039H37.874V49.4797H45.8994V49.2039Z" fill="#444053"/>
<path d="M103.723 80.3403C107.279 80.3403 110.163 79.8111 110.163 79.1583C110.163 78.5055 107.279 77.9763 103.723 77.9763C100.166 77.9763 97.2827 78.5055 97.2827 79.1583C97.2827 79.8111 100.166 80.3403 103.723 80.3403Z" fill="#F13F00"/>
<path d="M103.616 79.5921C104.029 79.5921 104.365 79.173 104.365 78.656C104.365 78.1391 104.029 77.72 103.616 77.72C103.202 77.72 102.866 78.1391 102.866 78.656C102.866 79.173 103.202 79.5921 103.616 79.5921Z" fill="#3F3D56"/>
<path d="M103.616 78.4473C104.029 78.4473 104.365 78.0282 104.365 77.5113C104.365 76.9943 104.029 76.5752 103.616 76.5752C103.202 76.5752 102.866 76.9943 102.866 77.5113C102.866 78.0282 103.202 78.4473 103.616 78.4473Z" fill="#3F3D56"/>
<path d="M103.616 77.3035C104.029 77.3035 104.365 76.8845 104.365 76.3675C104.365 75.8505 104.029 75.4314 103.616 75.4314C103.202 75.4314 102.866 75.8505 102.866 76.3675C102.866 76.8845 103.202 77.3035 103.616 77.3035Z" fill="#3F3D56"/>
<path d="M103.616 76.1588C104.029 76.1588 104.365 75.7397 104.365 75.2227C104.365 74.7057 104.029 74.2866 103.616 74.2866C103.202 74.2866 102.866 74.7057 102.866 75.2227C102.866 75.7397 103.202 76.1588 103.616 76.1588Z" fill="#3F3D56"/>
<path d="M103.616 75.014C104.029 75.014 104.365 74.5949 104.365 74.0779C104.365 73.5609 104.029 73.1418 103.616 73.1418C103.202 73.1418 102.866 73.5609 102.866 74.0779C102.866 74.5949 103.202 75.014 103.616 75.014Z" fill="#3F3D56"/>
<path d="M103.616 73.8692C104.029 73.8692 104.365 73.4501 104.365 72.9331C104.365 72.4162 104.029 71.9971 103.616 71.9971C103.202 71.9971 102.866 72.4162 102.866 72.9331C102.866 73.4501 103.202 73.8692 103.616 73.8692Z" fill="#3F3D56"/>
<path d="M103.616 72.7244C104.029 72.7244 104.365 72.3054 104.365 71.7884C104.365 71.2714 104.029 70.8523 103.616 70.8523C103.202 70.8523 102.866 71.2714 102.866 71.7884C102.866 72.3054 103.202 72.7244 103.616 72.7244Z" fill="#3F3D56"/>
<path d="M106.422 63.9569C106.524 63.8321 106.617 63.7009 106.701 63.5642L104.73 63.2543L106.861 63.2698C107.065 62.8453 107.177 62.3857 107.188 61.9189C107.2 61.452 107.112 60.9878 106.93 60.5545L104.073 61.97L106.709 60.1216C106.462 59.7143 106.129 59.3598 105.733 59.0803C105.336 58.8008 104.883 58.6023 104.402 58.4971C103.921 58.3919 103.423 58.3823 102.938 58.4689C102.454 58.5555 101.993 58.7364 101.584 59.0004C101.176 59.2644 100.829 59.6058 100.565 60.0033C100.301 60.4008 100.126 60.8459 100.05 61.3109C99.9742 61.7759 99.9996 62.2508 100.125 62.706C100.25 63.1613 100.472 63.587 100.777 63.9569C100.618 64.1492 100.481 64.357 100.367 64.5768L102.925 65.8445L100.198 64.9714C100.007 65.5113 99.9594 66.0882 100.06 66.65C100.161 67.2117 100.407 67.7406 100.777 68.1888C100.36 68.6942 100.101 69.3012 100.029 69.9404C99.9573 70.5796 100.075 71.2252 100.37 71.8034C100.664 72.3816 101.123 72.8691 101.694 73.2102C102.266 73.5513 102.926 73.7321 103.6 73.7321C104.273 73.7321 104.934 73.5513 105.505 73.2102C106.076 72.8691 106.535 72.3816 106.829 71.8034C107.124 71.2252 107.242 70.5796 107.17 69.9404C107.098 69.3012 106.839 68.6942 106.423 68.1888C106.92 67.5848 107.191 66.8389 107.191 66.0708C107.191 65.3026 106.92 64.5567 106.423 63.9527L106.422 63.9569Z" fill="#F13F00"/>
<path opacity="0.1" d="M100.008 66.0748C100.007 66.8432 100.277 67.5896 100.776 68.1929C100.36 68.6983 100.101 69.3053 100.029 69.9445C99.9569 70.5837 100.075 71.2293 100.369 71.8075C100.664 72.3857 101.123 72.8732 101.694 73.2143C102.265 73.5553 102.925 73.7362 103.599 73.7362C104.273 73.7362 104.933 73.5553 105.504 73.2143C106.075 72.8732 106.534 72.3857 106.829 71.8075C107.123 71.2293 107.241 70.5837 107.17 69.9445C107.098 69.3053 106.839 68.6983 106.422 68.1929C106.903 67.6112 100.008 65.6905 100.008 66.0748Z" fill="black"/>
<path opacity="0.1" d="M31.4848 86.7027C37.4057 86.7027 42.2055 85.7313 42.2055 84.533C42.2055 83.3347 37.4057 82.3633 31.4848 82.3633C25.564 82.3633 20.7642 83.3347 20.7642 84.533C20.7642 85.7313 25.564 86.7027 31.4848 86.7027Z" fill="#F13F00"/>
<path d="M35.0748 84.2807C34.8582 84.2053 34.6265 84.2177 34.4002 84.194C33.9302 84.1421 33.4927 83.9396 33.1592 83.6195C32.9447 83.4126 32.776 83.1666 32.6632 82.8963C32.7347 82.9211 32.8061 82.9469 32.8798 82.9748C32.6632 82.4923 32.8906 81.9509 33.0899 81.4632C33.4277 80.6367 33.7472 79.8056 34.0482 78.9701C34.8062 76.8531 35.456 74.6514 35.4419 72.399C35.4419 71.5849 35.2849 70.8151 35.2546 70.002C35.2318 69.3986 35.3293 68.7963 35.325 68.1918C35.325 68.1071 35.325 68.0234 35.3185 67.9387C35.5122 67.7769 35.6644 67.5748 35.7633 67.3481C35.8623 67.1213 35.9053 66.8759 35.8891 66.6307C35.8781 66.503 35.859 66.376 35.8317 66.2505C35.7934 66.0324 35.7428 65.8165 35.6801 65.6037C35.6087 65.3795 35.5112 65.1646 35.4278 64.9456C35.2665 64.5209 35.1571 64.0787 35.0196 63.6468C35.0705 63.6518 35.1203 63.6647 35.1668 63.6851C35.1322 63.6462 35.1083 63.5997 35.0975 63.5497C35.0167 63.2748 34.973 62.9911 34.9676 62.7056L35.0596 62.6663C35.1011 62.3876 35.086 62.1038 35.0152 61.8305C35.0672 61.3872 35.1484 60.9409 35.1983 60.4997C35.2167 60.3344 35.2091 60.1267 35.0499 60.0864C35.0174 59.8498 35.0044 59.6101 34.9914 59.3715C34.9459 58.5387 34.9008 57.7063 34.8561 56.8742C34.8106 56.0384 34.7651 55.2036 34.7478 54.3667C34.7359 53.8356 34.7294 53.286 34.5972 52.7776C34.6201 52.5341 34.594 52.2886 34.5204 52.0544C34.3189 51.4458 33.693 50.9633 33.0584 50.9974C32.8692 50.7391 32.6352 50.5134 32.3665 50.33C32.4932 50.0593 32.6448 49.7803 32.7693 49.5613C33.7851 49.2462 34.5279 48.2905 34.5279 47.154C34.5294 46.7379 34.4274 46.3275 34.2301 45.9565C34.2488 45.9109 34.2647 45.8643 34.2778 45.817C34.3322 45.5939 34.3152 45.3603 34.2291 45.1465C34.1986 45.0644 34.1624 44.9843 34.1208 44.9068C34.0926 44.8551 34.0623 44.8034 34.0309 44.7538L33.9757 44.6743C33.9421 44.6257 33.9074 44.5792 33.8674 44.5338C33.7905 44.4353 33.708 44.3407 33.6205 44.2507C33.5126 44.1393 33.3937 44.0383 33.2653 43.949C33.0911 43.8255 32.892 43.7379 32.6805 43.6917C32.5582 43.6687 32.4337 43.6579 32.3091 43.6597C32.2344 43.6597 32.1586 43.6597 32.0838 43.6659C31.9322 43.6742 31.7817 43.6845 31.6312 43.6835C31.5814 43.6835 31.5305 43.6835 31.4807 43.6762C31.2157 43.6425 30.9537 43.5904 30.6967 43.5202L30.5667 43.4944C30.5223 43.4861 30.479 43.4789 30.4346 43.4737C30.3158 43.4586 30.196 43.4517 30.0762 43.4531H29.956C29.8359 43.4586 29.7162 43.4703 29.5975 43.4882L29.4784 43.5057C29.1776 43.5507 28.8844 43.6337 28.6067 43.7527C28.5709 43.7682 28.5341 43.7857 28.4984 43.8043L28.4767 43.8157C28.4475 43.8302 28.4182 43.8457 28.3901 43.8622L28.3738 43.8715L28.2818 43.9273L28.2742 43.9325C27.4144 44.4842 26.9065 45.5298 26.7776 46.5671C26.6336 47.7315 26.8859 48.9052 27.1383 50.051L27.3657 51.0842C27.3754 51.1307 27.3862 51.1762 27.396 51.2227C27.0762 51.473 26.8303 51.7985 26.6824 52.167C26.4658 52.6836 26.4604 53.2426 26.4777 53.8026C26.4777 53.9162 26.4842 54.0299 26.4961 54.1435C26.469 54.3584 26.4452 54.5744 26.43 54.7913C26.3618 55.7935 26.4896 56.8009 26.456 57.8052C26.43 58.579 26.3077 59.3549 26.3672 60.1236C26.4192 60.8055 26.6109 61.4668 26.8004 62.1249L27.0733 63.0631C27.0821 63.1116 27.1059 63.1566 27.1415 63.1922C27.1863 63.2209 27.2411 63.2317 27.2942 63.2222C27.1167 63.6069 26.9683 64.0033 26.8502 64.4083C26.7686 64.6563 26.7149 64.9119 26.6899 65.1708C26.6542 65.644 26.769 66.1141 26.8838 66.5739C27.057 67.2627 27.2296 67.9542 27.4014 68.6485C27.5227 69.1341 27.6436 69.6194 27.7642 70.1043C28.0024 71.061 28.2417 72.024 28.2861 73.0086C28.3109 73.5031 28.2745 73.9986 28.1778 74.485C27.8654 75.9416 27.82 77.4388 28.0436 78.9102C28.2243 80.1516 28.5174 81.3757 28.9196 82.5687C29.0073 82.5243 29.0961 82.483 29.1871 82.4448L29.1492 82.5119C29.0243 82.7186 28.9088 82.9304 28.8027 83.1473C28.7311 83.2883 28.6693 83.4336 28.6175 83.5823C28.4789 83.9956 28.4572 84.4357 28.4377 84.8707C28.4278 84.9543 28.4355 85.039 28.4605 85.1197C28.52 85.2757 28.6911 85.3553 28.8503 85.3987C29.3181 85.5257 29.8043 85.4803 30.2906 85.4204C30.2928 85.4306 30.2961 85.4406 30.3003 85.4503C30.3599 85.6063 30.5299 85.6859 30.6902 85.7293C31.3594 85.9111 32.0654 85.7396 32.7552 85.6776C33.445 85.6156 34.1229 85.6611 34.7868 85.5092C34.8857 85.489 34.9807 85.4542 35.0683 85.4059C35.239 85.292 35.3642 85.1263 35.4235 84.9358C35.4443 84.8864 35.4581 84.8347 35.4646 84.7818C35.4917 84.5556 35.2892 84.3562 35.0748 84.2807ZM32.7845 74.7123C32.7471 74.9544 32.6742 75.1902 32.5679 75.4128C32.047 76.4697 31.6734 77.5872 31.4568 78.7366C31.3147 79.496 31.2325 80.2644 31.211 81.0355C31.2002 81.6037 31.2229 82.1989 30.975 82.7093L31.0648 82.6958C31.0367 82.7454 31.0096 82.7991 30.9836 82.8384L30.9706 82.8611C30.8206 82.6175 30.7203 82.3489 30.675 82.0697C30.675 82.0604 30.6263 82.0532 30.5515 82.049C30.2454 80.417 30.1393 78.7565 30.2353 77.1011C30.2368 76.9003 30.2659 76.7005 30.322 76.507C30.3772 76.3406 30.4703 76.1888 30.5386 76.0276C30.6467 75.7568 30.7195 75.4743 30.7551 75.1866C30.8731 74.4511 30.9188 73.7067 30.8916 72.9631C30.8656 72.2616 31.0356 71.5642 31.1807 70.8658C31.25 70.5341 31.3139 70.2014 31.3486 69.8687L31.3551 69.8016C31.9993 70.8157 32.4496 71.931 32.6848 73.0954C32.8156 73.6248 32.8494 74.1719 32.7845 74.7123ZM28.1497 59.7806L28.1843 59.8095C28.289 59.8974 28.3854 59.9939 28.4724 60.0978C28.5157 60.1431 28.5469 60.1977 28.5633 60.2569C28.5958 60.4078 28.4648 60.5359 28.3576 60.6464C28.311 60.6944 28.2673 60.7447 28.2266 60.7973C28.2035 60.4584 28.1789 60.1195 28.1529 59.7806H28.1497Z" fill="url(#paint0_linear)"/>
<path d="M26.6509 53.3047L26.5318 54.1819C26.4917 54.4794 26.4516 54.776 26.43 55.0745C26.3574 56.0685 26.4917 57.0665 26.457 58.0625C26.4289 58.8292 26.3011 59.5948 26.3628 60.3604C26.4181 61.0361 26.6195 61.6932 26.8209 62.3441L27.1068 63.274C27.1166 63.3226 27.1415 63.3672 27.1783 63.4021C27.2333 63.4332 27.2988 63.4432 27.3613 63.43L28.6304 63.3205C28.5492 62.965 28.4593 62.5972 28.4138 62.2325C28.3792 61.9474 28.3586 61.6601 28.337 61.3729C28.2698 60.4782 28.1929 59.5834 28.1204 58.6866L27.985 57.1161C27.9276 56.4342 27.8681 55.7492 27.6883 55.0869C27.5079 54.418 27.1507 53.8044 26.6509 53.3047Z" fill="#F13F00"/>
<path opacity="0.1" d="M26.6509 53.3047L26.5318 54.1819C26.4917 54.4794 26.4516 54.776 26.43 55.0745C26.3574 56.0685 26.4917 57.0665 26.457 58.0625C26.4289 58.8292 26.3011 59.5948 26.3628 60.3604C26.4181 61.0361 26.6195 61.6932 26.8209 62.3441L27.1068 63.274C27.1166 63.3226 27.1415 63.3672 27.1783 63.4021C27.2333 63.4332 27.2988 63.4432 27.3613 63.43L28.6304 63.3205C28.5492 62.965 28.4593 62.5972 28.4138 62.2325C28.3792 61.9474 28.3586 61.6601 28.337 61.3729C28.2698 60.4782 28.1929 59.5834 28.1204 58.6866L27.985 57.1161C27.9276 56.4342 27.8681 55.7492 27.6883 55.0869C27.5079 54.418 27.1507 53.8044 26.6509 53.3047Z" fill="black"/>
<path d="M28.9121 83.1661C28.8376 83.3059 28.7725 83.4502 28.7172 83.5979C28.5721 84.006 28.5505 84.4441 28.5288 84.875C28.5192 84.958 28.5273 85.0419 28.5526 85.1219C28.6154 85.2769 28.7952 85.3554 28.963 85.3978C29.6658 85.5786 30.4065 85.4091 31.1288 85.3471C31.8511 85.2851 32.5647 85.3306 33.2621 85.1808C33.3651 85.1618 33.4647 85.1288 33.5578 85.0826C33.7343 84.973 33.8662 84.8089 33.9314 84.6177C33.9524 84.5687 33.9666 84.5173 33.9736 84.4648C33.9963 84.2375 33.7895 84.0412 33.5643 83.9668C33.339 83.8924 33.0932 83.9038 32.856 83.881C32.3676 83.8333 31.9093 83.6333 31.5522 83.3118C31.1951 82.9903 30.9591 82.5654 30.8808 82.1029C30.8722 82.0533 29.707 82.0833 29.5814 82.1473C29.4384 82.2228 29.3518 82.4098 29.2706 82.5369C29.1428 82.7414 29.0233 82.9512 28.9121 83.1661Z" fill="#A26565"/>
<path opacity="0.1" d="M28.9121 83.1661C28.8376 83.3059 28.7725 83.4502 28.7172 83.5979C28.5721 84.006 28.5505 84.4441 28.5288 84.875C28.5192 84.958 28.5273 85.0419 28.5526 85.1219C28.6154 85.2769 28.7952 85.3554 28.963 85.3978C29.6658 85.5786 30.4065 85.4091 31.1288 85.3471C31.8511 85.2851 32.5647 85.3306 33.2621 85.1808C33.3651 85.1618 33.4647 85.1288 33.5578 85.0826C33.7343 84.973 33.8662 84.8089 33.9314 84.6177C33.9524 84.5687 33.9666 84.5173 33.9736 84.4648C33.9963 84.2375 33.7895 84.0412 33.5643 83.9668C33.339 83.8924 33.0932 83.9038 32.856 83.881C32.3676 83.8333 31.9093 83.6333 31.5522 83.3118C31.1951 82.9903 30.9591 82.5654 30.8808 82.1029C30.8722 82.0533 29.707 82.0833 29.5814 82.1473C29.4384 82.2228 29.3518 82.4098 29.2706 82.5369C29.1428 82.7414 29.0233 82.9512 28.9121 83.1661Z" fill="black"/>
<path d="M30.8451 83.4945C30.7701 83.6338 30.705 83.7778 30.6502 83.9254C30.504 84.3386 30.4823 84.7716 30.4617 85.2024C30.4516 85.2854 30.4597 85.3695 30.4856 85.4493C30.5473 85.6043 30.727 85.6828 30.8949 85.7262C31.5977 85.906 32.3395 85.7366 33.0607 85.6746C33.7819 85.6126 34.4977 85.658 35.194 85.5082C35.2974 85.4883 35.3971 85.4534 35.4896 85.4049C35.6664 85.2955 35.7984 85.1313 35.8632 84.94C35.8842 84.891 35.8984 84.8396 35.9054 84.787C35.9282 84.5608 35.7213 84.3634 35.4961 84.289C35.2709 84.2147 35.025 84.2271 34.7879 84.2033C34.2997 84.1555 33.8416 83.9555 33.4845 83.6342C33.1275 83.313 32.8913 82.8884 32.8127 82.4262C32.804 82.3766 31.6388 82.4055 31.5132 82.4696C31.3692 82.545 31.2826 82.732 31.2013 82.8591C31.0779 83.0688 30.9566 83.2796 30.8451 83.4945Z" fill="#A26565"/>
<path d="M35.8836 72.519C35.8988 74.7518 35.2187 76.9339 34.4206 79.0281C34.1044 79.8588 33.7691 80.6823 33.4146 81.4985C33.2046 81.982 32.9674 82.5193 33.1926 82.9966C32.5429 82.7611 31.8823 82.6226 31.199 82.7311C31.4589 82.2248 31.434 81.6359 31.4459 81.078C31.468 80.3134 31.5534 79.5516 31.7015 78.7998C31.9309 77.6556 32.324 76.547 32.8699 75.505C32.9803 75.2852 33.0565 75.0513 33.0963 74.8106C33.1851 74.2796 33.1158 73.7341 32.9999 73.2082C32.7506 72.0466 32.2769 70.9394 31.6029 69.9433L31.5965 70.0094C31.556 70.3417 31.4974 70.6717 31.421 70.9982C31.2683 71.6894 31.0897 72.3816 31.1167 73.0769C31.145 73.8142 31.0971 74.5524 30.9738 75.2807C30.9341 75.5667 30.8558 75.8466 30.741 76.1135C30.6662 76.2736 30.5688 76.4235 30.5103 76.5898C30.4518 76.7812 30.4212 76.9794 30.4193 77.1787C30.3327 78.8597 30.4193 80.5666 30.7789 82.2145C30.1757 82.1691 29.5725 82.3354 29.0332 82.5937C28.6116 81.414 28.3035 80.2002 28.1128 78.9672C27.8778 77.509 27.9255 76.022 28.2536 74.5802C28.3558 74.0994 28.394 73.6082 28.3673 73.1183C28.3207 72.1419 28.0695 71.1872 27.8193 70.2388L27.4381 68.7923C27.2577 68.1035 27.0772 67.4178 26.8967 66.7352C26.7765 66.2796 26.6552 65.8136 26.6931 65.3445C26.7195 65.0872 26.7762 64.8335 26.862 64.5882C27.1324 63.754 27.5368 62.9649 28.0608 62.2491C30.1475 62.3607 32.2592 62.1747 34.3416 62.0218C34.4426 62.0028 34.5473 62.0197 34.6361 62.0693C34.7071 62.1381 34.7495 62.2292 34.7553 62.3255L35.5382 66.5616C35.665 67.1504 35.7392 67.7483 35.7602 68.3491C35.7602 68.9483 35.6627 69.5455 35.6865 70.1437C35.719 70.9496 35.8793 71.7121 35.8836 72.519Z" fill="#454B69"/>
<path opacity="0.1" d="M31.5989 70.0093C31.5584 70.3416 31.4999 70.6716 31.4234 70.9981C30.9697 70.249 30.4803 69.5185 30.0623 68.7509C29.954 68.5535 29.8522 68.3531 29.7493 68.1526L29.4407 67.5534C29.3833 67.4408 29.3259 67.3282 29.2739 67.2135C29.1893 67.0487 29.1243 66.8754 29.0801 66.6969C29.2317 66.67 29.6064 67.0606 29.719 67.1628C29.9487 67.3799 30.1656 67.6089 30.3687 67.8489C30.6154 68.1156 30.8419 68.3988 31.0466 68.6961C31.3087 69.1002 31.4955 69.5445 31.5989 70.0093Z" fill="black"/>
<path d="M33.3368 49.4581C33.3368 49.4581 32.1781 51.2197 32.3925 51.5885C32.6069 51.9574 28.7432 51.261 28.7432 51.261C28.7432 51.261 30.8472 49.4994 30.6317 48.7617C30.4162 48.024 33.3368 49.4581 33.3368 49.4581Z" fill="#EFB7B9"/>
<path d="M32.307 49.9913C33.7537 49.9913 34.9266 48.8723 34.9266 47.492C34.9266 46.1117 33.7537 44.9927 32.307 44.9927C30.8603 44.9927 29.6875 46.1117 29.6875 47.492C29.6875 48.8723 30.8603 49.9913 32.307 49.9913Z" fill="#EFB7B9"/>
<path d="M33.3759 51.3053C33.0954 50.934 32.7148 50.642 32.2745 50.4602C32.0209 50.3735 31.7585 50.3119 31.4916 50.2763L30.4466 50.1006C30.1911 50.0572 29.9171 50.0169 29.6788 50.1172C29.5584 50.1761 29.4487 50.2532 29.354 50.3455C28.9912 50.6668 28.6393 51.0191 28.1834 51.2051C28.0588 51.2558 27.9289 51.2929 27.8044 51.3436C27.2943 51.5502 26.9131 51.9903 26.6976 52.4801C26.4702 52.9905 26.4637 53.5453 26.4811 54.1001C26.4808 54.2917 26.5007 54.4827 26.5406 54.6705C26.5927 54.8492 26.659 55.024 26.7388 55.1933C26.8828 55.5555 27.0036 55.9257 27.1005 56.3019C27.3712 57.2903 27.5964 58.289 27.7762 59.2981C27.7914 59.4427 27.8359 59.583 27.9072 59.7114C28.0082 59.8399 28.1303 59.9519 28.2689 60.0431C28.3788 60.1292 28.48 60.225 28.571 60.3293C28.6164 60.3718 28.6502 60.4243 28.6696 60.4822C28.7032 60.631 28.5613 60.7591 28.453 60.8676C28.22 61.0944 28.0515 61.3743 27.9635 61.6807C27.9092 61.7436 27.8814 61.8235 27.8856 61.9049C27.9081 61.9615 27.9167 62.0223 27.9105 62.0826C27.8892 62.1374 27.8555 62.1872 27.8119 62.2283C27.762 62.2904 27.7265 62.362 27.7078 62.4382C27.6891 62.5145 27.6877 62.5937 27.7036 62.6705C28.5153 63.007 29.384 63.2009 30.2679 63.2429C30.4845 63.2532 30.7011 63.2532 30.9177 63.278C31.0715 63.2966 31.2231 63.3266 31.3768 63.3441C31.6 63.3641 31.8243 63.3696 32.0482 63.3607C33.2145 63.3379 34.4144 63.31 35.4853 62.8689C35.586 62.345 35.3684 61.8109 35.2319 61.2943C35.0154 60.4677 34.9612 59.6215 34.7988 58.7877C34.6905 58.2184 34.5281 57.6574 34.436 57.084C34.344 56.5106 34.3277 55.9165 34.488 55.3586C34.6342 54.8647 34.6786 54.3605 34.8302 53.8677C34.9818 53.3748 35.0879 52.8407 34.9168 52.353C34.7002 51.7496 34.0429 51.2712 33.3759 51.3053Z" fill="#F13F00"/>
<path d="M34.662 46.1664C34.7898 45.7231 34.5386 45.2613 34.2397 44.9007C33.9148 44.5133 33.5012 44.1641 32.9933 44.0669C32.5807 43.9874 32.1529 44.0835 31.7328 44.0514C31.3613 44.0235 31.004 43.8954 30.6347 43.8448C30.2997 43.8103 29.9612 43.8225 29.6298 43.881C29.3153 43.9256 29.0079 44.0075 28.7147 44.1248C27.5994 44.597 26.9464 45.7603 26.7948 46.9144C26.6432 48.0685 26.9085 49.2319 27.1727 50.3673L27.412 51.3943C27.6611 52.4637 27.9102 53.5372 27.9762 54.6303C28.0423 55.7234 27.9188 56.8455 27.4478 57.8435C28.9711 57.0628 30.1515 55.7878 30.7755 54.249C30.9444 53.8265 31.07 53.3874 31.2585 52.972C31.4198 52.6145 31.6267 52.2756 31.7696 51.9109C31.9312 51.4993 32.0087 51.062 31.9981 50.6225C31.9894 50.2919 31.932 49.9634 31.9418 49.6327C31.9515 49.3021 32.0403 48.9581 32.2796 48.7184C32.4962 48.5066 32.794 48.4084 33.068 48.271C33.4993 48.0596 33.8761 47.7597 34.1715 47.3928C34.3436 47.1779 34.3534 47.0828 34.3967 46.839C34.44 46.5952 34.5949 46.4009 34.662 46.1664Z" fill="#A26565"/>
<path d="M34.6656 64.9404C34.6927 65.1977 34.6439 65.457 34.7024 65.7122C34.7468 65.9023 34.8497 66.0738 34.9103 66.2598C34.9703 66.4745 35.0012 66.6957 35.0024 66.9179C35.011 67.1039 34.9959 67.3312 34.8226 67.418C34.7468 67.4562 34.6558 67.4562 34.5768 67.4893C34.4977 67.5223 34.4306 67.6122 34.4761 67.6825C34.5216 67.7527 34.5995 67.7414 34.671 67.7548C34.7425 67.7682 34.8194 67.8385 34.7793 67.8953C34.763 67.9139 34.741 67.9273 34.7165 67.9336C34.6442 67.9548 34.5756 67.9861 34.5129 68.0265C34.4823 68.0478 34.4583 68.0767 34.4436 68.11C34.4289 68.1433 34.424 68.1798 34.4295 68.2156C34.4339 68.2327 34.4422 68.2487 34.454 68.2623C34.4657 68.2759 34.4805 68.2867 34.4973 68.2941C34.5141 68.3014 34.5324 68.3051 34.5508 68.3047C34.5693 68.3044 34.5874 68.3001 34.6039 68.2921C34.5721 68.3569 34.5547 68.4272 34.553 68.4987C34.8302 68.6124 35.141 68.4636 35.4009 68.32C35.5133 68.2602 35.6217 68.1939 35.7257 68.1216C35.936 67.9676 36.1035 67.7668 36.2138 67.5369C36.324 67.3069 36.3736 67.0547 36.3582 66.8022C36.3458 66.6754 36.3252 66.5495 36.2964 66.4251C36.2564 66.2085 36.2033 65.9942 36.1372 65.7835C36.0625 65.5613 35.9607 65.3495 35.873 65.1315C35.6868 64.6676 35.5666 64.182 35.3976 63.7119C35.3863 63.6632 35.3576 63.6197 35.3164 63.589C35.2791 63.5715 35.2376 63.564 35.1962 63.5673C35.0066 63.5578 34.8166 63.5745 34.632 63.6169C34.5237 63.6479 34.3385 63.7202 34.2877 63.8235C34.2368 63.9268 34.318 64.0136 34.3667 64.0994C34.5223 64.3587 34.6238 64.6443 34.6656 64.9404Z" fill="#EFB7B9"/>
<path opacity="0.1" d="M34.4888 52.3862C34.5444 52.4406 34.5911 52.5025 34.6274 52.5701C34.9999 53.2159 35.0042 53.9877 35.0216 54.7243C35.0411 55.5509 35.0887 56.3775 35.1364 57.2092L35.2782 59.6888C35.2923 59.9254 35.3053 60.162 35.341 60.3966C35.5078 60.4369 35.5143 60.6435 35.4959 60.8099C35.3757 61.8203 35.0779 62.8607 35.3876 63.833C35.3995 63.8829 35.4245 63.9291 35.4601 63.9673C35.3029 63.9203 35.1346 63.9181 34.9761 63.9611C34.8212 63.9921 34.6718 64.0469 34.5159 64.081C34.3188 64.1233 34.0957 64.1419 33.9614 64.2876C33.8092 63.8509 33.688 63.4049 33.5986 62.9527C33.525 62.5394 33.5044 62.1138 33.329 61.7315C33.2586 61.5775 33.1633 61.4349 33.0767 61.2872C32.623 60.5144 32.3999 59.6413 32.1822 58.7796C32.0845 58.3711 32.0611 57.9497 32.1129 57.5336C32.1444 57.3438 32.1625 57.1523 32.1671 56.9602C32.1539 56.7575 32.126 56.5558 32.0837 56.3568C31.9917 55.7726 32.0349 55.1762 32.2104 54.6097C32.3728 54.0838 32.5158 53.53 32.8601 53.0878C33.2045 52.6456 33.9138 52.3935 34.4888 52.3862Z" fill="black"/>
<path d="M34.618 52.3035C34.6736 52.3582 34.7203 52.4205 34.7566 52.4884C35.1291 53.1331 35.1334 53.9059 35.1508 54.6426C35.1703 55.4692 35.2179 56.2957 35.2656 57.1223L35.4074 59.6019C35.4215 59.8385 35.4345 60.0751 35.4702 60.3097C35.637 60.35 35.6435 60.5566 35.624 60.723C35.5049 61.7334 35.2071 62.7728 35.5157 63.7461C35.5276 63.796 35.5526 63.8422 35.5883 63.8804C35.431 63.8334 35.2627 63.8312 35.1042 63.8742C34.9493 63.9052 34.7999 63.96 34.644 63.993C34.4469 64.0364 34.2238 64.054 34.0895 64.1997C33.9378 63.761 33.8177 63.3129 33.73 62.8586C33.6564 62.4453 33.6358 62.0206 33.4604 61.6384C33.3842 61.4863 33.3 61.338 33.2081 61.1941C32.7532 60.4213 32.5312 59.5472 32.3136 58.6855C32.2159 58.277 32.1924 57.8555 32.2443 57.4395C32.3258 57.05 32.3158 56.648 32.215 56.2627C32.123 55.6788 32.1663 55.0828 32.3417 54.5166C32.5042 53.9907 32.6471 53.4369 32.9915 52.9947C33.3358 52.5525 34.043 52.3117 34.618 52.3035Z" fill="#F13F00"/>
<g opacity="0.1">
<path opacity="0.1" d="M34.2402 44.9007C33.9153 44.5133 33.5016 44.1641 32.9938 44.0669C32.5812 43.9874 32.1534 44.0835 31.7333 44.0514C31.3618 44.0235 31.0045 43.8954 30.6352 43.8448C30.3002 43.8103 29.9617 43.8225 29.6303 43.881C29.3158 43.9256 29.0084 44.0075 28.7152 44.1248C28.5569 44.1925 28.4057 44.2745 28.2637 44.3697C28.5246 44.2729 28.7959 44.2036 29.0726 44.163C29.4036 44.1045 29.7418 44.0923 30.0764 44.1269C30.4468 44.1723 30.8031 44.2994 31.1756 44.3273C31.5947 44.3593 32.0224 44.2643 32.4361 44.3428C32.9439 44.4399 33.3598 44.7902 33.6814 45.1776C33.9814 45.5372 34.2315 45.999 34.1048 46.4433C34.0377 46.6768 33.8817 46.8813 33.8395 47.1221C33.7973 47.3628 33.7864 47.461 33.6132 47.6759C33.391 47.9515 33.1224 48.1899 32.8183 48.3815C32.9017 48.3443 32.9873 48.3071 33.0685 48.2669C33.4998 48.0555 33.8766 47.7555 34.1719 47.3886C34.3441 47.1737 34.3539 47.0787 34.3972 46.8349C34.4405 46.591 34.5954 46.3906 34.6625 46.156C34.7903 45.7231 34.539 45.2613 34.2402 44.9007Z" fill="black"/>
<path opacity="0.1" d="M32.2801 48.7244C32.325 48.68 32.3739 48.6396 32.4263 48.6035C32.1762 48.7192 31.913 48.8205 31.7213 49.0168C31.482 49.2555 31.3965 49.6005 31.3835 49.9312C31.3705 50.2618 31.4322 50.5903 31.4398 50.9199C31.4504 51.3597 31.3729 51.7974 31.2113 52.2094C31.0684 52.5741 30.8615 52.9119 30.7002 53.2705C30.5128 53.6837 30.3872 54.1239 30.2183 54.5464C29.6769 55.8806 28.7156 57.0219 27.4667 57.8134C27.4602 57.8268 27.4547 57.8413 27.4482 57.8547C28.9716 57.074 30.152 55.799 30.776 54.2603C30.9449 53.8377 31.0705 53.3986 31.2589 52.9832C31.4203 52.6257 31.6271 52.2869 31.7701 51.9221C31.9316 51.5105 32.0092 51.0732 31.9986 50.6337C31.9899 50.3031 31.9325 49.9746 31.9422 49.6439C31.952 49.3133 32.0408 48.9641 32.2801 48.7244Z" fill="black"/>
</g>
<defs>
<linearGradient id="paint0_linear" x1="31.1255" y1="85.8068" x2="31.1255" y2="43.4562" gradientUnits="userSpaceOnUse">
<stop stop-color="#808080" stop-opacity="0.25"/>
<stop offset="0.54" stop-color="#808080" stop-opacity="0.12"/>
<stop offset="1" stop-color="#808080" stop-opacity="0.1"/>
</linearGradient>
</defs>
</svg>
