<svg width="117" height="76" viewBox="0 0 117 76" fill="none" xmlns="http://www.w3.org/2000/svg">
<path d="M74.9009 75.1484V65.636C74.9009 65.636 78.7863 72.3799 74.9009 75.1484Z" fill="#F1F1F1"/>
<path d="M75.1408 75.1466L67.7964 68.7136C67.7964 68.7136 75.6309 70.5435 75.1408 75.1466Z" fill="#F1F1F1"/>
<path d="M116.799 3.38159H0.779297V55.9081H116.799V3.38159Z" fill="#E5E5E5"/>
<path d="M113.481 7.88574H4.09668V51.7102H113.481V7.88574Z" fill="white"/>
<path d="M116.749 0.34668H0.729492V5.04931H116.749V0.34668Z" fill="#F13F00"/>
<path d="M4.39255 3.56086C4.89709 3.56086 5.3061 3.17062 5.3061 2.68924C5.3061 2.20786 4.89709 1.81763 4.39255 1.81763C3.88801 1.81763 3.479 2.20786 3.479 2.68924C3.479 3.17062 3.88801 3.56086 4.39255 3.56086Z" fill="white"/>
<path d="M7.85983 3.56086C8.36437 3.56086 8.77338 3.17062 8.77338 2.68924C8.77338 2.20786 8.36437 1.81763 7.85983 1.81763C7.3553 1.81763 6.94629 2.20786 6.94629 2.68924C6.94629 3.17062 7.3553 3.56086 7.85983 3.56086Z" fill="white"/>
<path d="M11.3276 3.56086C11.8321 3.56086 12.2411 3.17062 12.2411 2.68924C12.2411 2.20786 11.8321 1.81763 11.3276 1.81763C10.8231 1.81763 10.4141 2.20786 10.4141 2.68924C10.4141 3.17062 10.8231 3.56086 11.3276 3.56086Z" fill="white"/>
<path d="M22.0178 17.8623C21.8983 17.8623 21.7838 17.9076 21.6993 17.9882C21.6148 18.0688 21.5674 18.1781 21.5674 18.292C21.5674 18.406 21.6148 18.5153 21.6993 18.5959C21.7838 18.6765 21.8983 18.7218 22.0178 18.7218H34.3243C34.4437 18.7218 34.5583 18.6765 34.6427 18.5959C34.7272 18.5153 34.7747 18.406 34.7747 18.292C34.7747 18.1781 34.7272 18.0688 34.6427 17.9882C34.5583 17.9076 34.4437 17.8623 34.3243 17.8623H22.0178Z" fill="#3F3D56"/>
<path d="M15.0573 23.7795C14.9379 23.7795 14.8233 23.8248 14.7388 23.9054C14.6544 23.986 14.6069 24.0953 14.6069 24.2093C14.6069 24.3232 14.6544 24.4325 14.7388 24.5131C14.8233 24.5937 14.9379 24.639 15.0573 24.639H41.2838C41.4032 24.639 41.5178 24.5937 41.6023 24.5131C41.6867 24.4325 41.7342 24.3232 41.7342 24.2093C41.7342 24.0953 41.6867 23.986 41.6023 23.9054C41.5178 23.8248 41.4032 23.7795 41.2838 23.7795H15.0573Z" fill="#CCCCCC"/>
<path d="M15.0573 27.1985C14.9379 27.1985 14.8233 27.2438 14.7388 27.3244C14.6544 27.4049 14.6069 27.5142 14.6069 27.6282C14.6069 27.7422 14.6544 27.8515 14.7388 27.9321C14.8233 28.0127 14.9379 28.0579 15.0573 28.0579H41.2838C41.4032 28.0579 41.5178 28.0127 41.6023 27.9321C41.6867 27.8515 41.7342 27.7422 41.7342 27.6282C41.7342 27.5142 41.6867 27.4049 41.6023 27.3244C41.5178 27.2438 41.4032 27.1985 41.2838 27.1985H15.0573Z" fill="#CCCCCC"/>
<path d="M15.0573 30.6174C14.9379 30.6174 14.8233 30.6627 14.7388 30.7433C14.6544 30.8239 14.6069 30.9332 14.6069 31.0472C14.6069 31.1611 14.6544 31.2704 14.7388 31.351C14.8233 31.4316 14.9379 31.4769 15.0573 31.4769H41.2838C41.4032 31.4769 41.5178 31.4316 41.6023 31.351C41.6867 31.2704 41.7342 31.1611 41.7342 31.0472C41.7342 30.9332 41.6867 30.8239 41.6023 30.7433C41.5178 30.6627 41.4032 30.6174 41.2838 30.6174H15.0573Z" fill="#CCCCCC"/>
<path d="M15.0573 34.0361C14.9379 34.0361 14.8233 34.0814 14.7388 34.162C14.6544 34.2426 14.6069 34.3519 14.6069 34.4659C14.6069 34.5798 14.6544 34.6891 14.7388 34.7697C14.8233 34.8503 14.9379 34.8956 15.0573 34.8956H41.2838C41.4032 34.8956 41.5178 34.8503 41.6023 34.7697C41.6867 34.6891 41.7342 34.5798 41.7342 34.4659C41.7342 34.3519 41.6867 34.2426 41.6023 34.162C41.5178 34.0814 41.4032 34.0361 41.2838 34.0361H15.0573Z" fill="#CCCCCC"/>
<path d="M15.0573 37.4553C14.9379 37.4553 14.8233 37.5006 14.7388 37.5812C14.6544 37.6618 14.6069 37.7711 14.6069 37.885C14.6069 37.999 14.6544 38.1083 14.7388 38.1889C14.8233 38.2695 14.9379 38.3148 15.0573 38.3148H41.2838C41.4032 38.3148 41.5178 38.2695 41.6023 38.1889C41.6867 38.1083 41.7342 37.999 41.7342 37.885C41.7342 37.7711 41.6867 37.6618 41.6023 37.5812C41.5178 37.5006 41.4032 37.4553 41.2838 37.4553H15.0573Z" fill="#CCCCCC"/>
<path d="M15.0573 40.874C14.9379 40.874 14.8233 40.9193 14.7388 40.9999C14.6544 41.0805 14.6069 41.1898 14.6069 41.3038C14.6069 41.4177 14.6544 41.527 14.7388 41.6076C14.8233 41.6882 14.9379 41.7335 15.0573 41.7335H41.2838C41.4032 41.7335 41.5178 41.6882 41.6023 41.6076C41.6867 41.527 41.7342 41.4177 41.7342 41.3038C41.7342 41.1898 41.6867 41.0805 41.6023 40.9999C41.5178 40.9193 41.4032 40.874 41.2838 40.874H15.0573Z" fill="#CCCCCC"/>
<path d="M101.574 41.9174H61.8677C61.6023 41.9171 61.3479 41.8164 61.1602 41.6374C60.9725 41.4583 60.867 41.2156 60.8667 40.9623V18.6775C60.867 18.4243 60.9725 18.1815 61.1602 18.0025C61.3479 17.8234 61.6023 17.7227 61.8677 17.7224H101.574C101.84 17.7227 102.094 17.8234 102.282 18.0025C102.47 18.1815 102.575 18.4243 102.575 18.6775V40.9623C102.575 41.2156 102.47 41.4583 102.282 41.6374C102.094 41.8164 101.84 41.9171 101.574 41.9174Z" fill="#F1F1F1"/>
<path d="M106.799 47.0146H67.0918C66.8264 47.0143 66.572 46.9136 66.3843 46.7345C66.1967 46.5555 66.0911 46.3127 66.0908 46.0595V23.7746C66.0911 23.5214 66.1967 23.2787 66.3843 23.0996C66.572 22.9206 66.8264 22.8199 67.0918 22.8196H106.799C107.064 22.8199 107.318 22.9206 107.506 23.0996C107.694 23.2787 107.799 23.5214 107.8 23.7746V46.0595C107.799 46.3127 107.694 46.5555 107.506 46.7345C107.318 46.9136 107.064 47.0143 106.799 47.0146Z" fill="white"/>
<path d="M106.798 47.3396H67.0916C66.7359 47.3392 66.3949 47.2042 66.1434 46.9643C65.8919 46.7243 65.7504 46.3989 65.75 46.0595V23.7747C65.7504 23.4353 65.8919 23.11 66.1434 22.87C66.3949 22.63 66.7359 22.495 67.0916 22.4946H106.798C107.154 22.495 107.495 22.63 107.747 22.87C107.998 23.11 108.14 23.4353 108.14 23.7747V46.0595C108.14 46.3989 107.998 46.7243 107.747 46.9643C107.495 47.2043 107.154 47.3392 106.798 47.3396ZM67.0916 23.1446C66.9166 23.1448 66.7487 23.2113 66.6249 23.3294C66.5011 23.4475 66.4315 23.6077 66.4313 23.7747V46.0595C66.4315 46.2266 66.5011 46.3867 66.6249 46.5049C66.7487 46.623 66.9166 46.6894 67.0916 46.6896H106.798C106.973 46.6894 107.141 46.623 107.265 46.5049C107.389 46.3867 107.459 46.2266 107.459 46.0595V23.7747C107.459 23.6077 107.389 23.4475 107.265 23.3294C107.141 23.2113 106.973 23.1448 106.798 23.1446H67.0916Z" fill="#3F3D56"/>
<path d="M86.8913 41.1671C88.7943 41.1671 90.3369 39.6953 90.3369 37.8797C90.3369 36.0641 88.7943 34.5923 86.8913 34.5923C84.9884 34.5923 83.4458 36.0641 83.4458 37.8797C83.4458 39.6953 84.9884 41.1671 86.8913 41.1671Z" fill="#FF6583"/>
<path d="M93.5383 34.7169C93.3354 34.5117 93.0916 34.3472 92.8212 34.2331C92.5508 34.119 92.2592 34.0576 91.9636 34.0526C91.6679 34.0475 91.3742 34.0989 91.0997 34.2037C90.8252 34.3085 90.5754 34.4646 90.365 34.6628L79.1905 45.3245C77.7591 46.6966 76.2648 44.598 75.3099 43.7518C73.0138 41.5851 70.5337 45.6478 68.9902 46.8113H104.9V46.3751L93.5383 34.7169Z" fill="#F13F00"/>
<path d="M49.2744 47.6405L48.6701 39.6516L49.7553 32.1653L46.6733 31.9668L46.0649 40.2364L47.7843 48.013C47.6379 48.2062 47.5575 48.4378 47.5543 48.6761C47.5511 48.9145 47.6251 49.148 47.7663 49.3447C47.9075 49.5414 48.1089 49.6917 48.3429 49.775C48.577 49.8583 48.8324 49.8706 49.0741 49.8101C49.3158 49.7497 49.532 49.6195 49.6932 49.4374C49.8544 49.2552 49.9526 49.03 49.9746 48.7926C49.9965 48.5551 49.941 48.317 49.8156 48.1108C49.6903 47.9045 49.5013 47.7403 49.2744 47.6405Z" fill="#9F616A"/>
<path d="M46.2803 33.0429L47.004 30.0546C47.1426 29.4823 47.5053 28.9823 48.0178 28.657C48.5303 28.3316 49.1538 28.2056 49.7606 28.3047C50.3674 28.4039 50.9114 28.7207 51.2813 29.1902C51.6511 29.6597 51.8188 30.2464 51.7499 30.83L51.3514 34.2067L46.2803 33.0429Z" fill="#CBCBCB"/>
<path d="M51.9856 73.6684H53.4385L54.1297 68.3213L51.9854 68.3214L51.9856 73.6684Z" fill="#9F616A"/>
<path d="M51.6152 73.2157L54.4766 73.2156H54.4767C54.9604 73.2156 55.4242 73.3989 55.7661 73.7252C56.1081 74.0514 56.3002 74.494 56.3003 74.9554V75.0119L51.6153 75.0121L51.6152 73.2157Z" fill="#2F2E41"/>
<path d="M59.2245 73.623L60.6213 73.2412L59.7427 67.9192L57.6812 68.4827L59.2245 73.623Z" fill="#9F616A"/>
<path d="M58.7373 73.2851L61.4881 72.5333L61.4882 72.5333C61.9531 72.4063 62.4519 72.4607 62.8748 72.6845C63.2977 72.9083 63.6101 73.2832 63.7433 73.7268L63.7596 73.7811L59.2558 75.0121L58.7373 73.2851Z" fill="#2F2E41"/>
<path d="M51.2004 71.7277L51.8762 55.5302L50.121 48.2001C47.7589 44.4216 50.3071 38.3944 50.3332 38.334L50.3427 38.3119L50.3674 38.3087L56.5462 37.51L56.633 37.7C59.0498 42.9718 59.7205 48.8223 58.5553 54.4679L57.9122 57.6061L61.0905 69.8497L58.0825 71.2847L55.7746 65.5746L54.2146 71.4168L51.2004 71.7277Z" fill="#2F2E41"/>
<path d="M49.5192 39.8361L47.5034 34.2009C46.2503 32.0954 47.0451 30.2261 47.9326 29.0287C48.891 27.7358 48.9486 27.0107 48.9613 27.0027L48.9715 26.9962L51.6199 26.9197L54.071 29.296C54.2252 29.2385 55.5275 32.3006 55.4171 32.4546L57.129 37.7344L49.5192 39.8361Z" fill="#CBCBCB"/>
<path d="M65.8414 40.8106L59.2011 35.91L54.0804 30.144L51.8691 32.202L57.9195 38.1517L65.1381 42.1182C65.1912 42.3511 65.3184 42.5627 65.5023 42.7241C65.6863 42.8854 65.918 42.9885 66.1657 43.0194C66.4135 43.0503 66.6652 43.0075 66.8864 42.8967C67.1076 42.7859 67.2876 42.6126 67.4016 42.4005C67.5157 42.1884 67.5583 41.9479 67.5237 41.7118C67.489 41.4758 67.3787 41.2557 67.208 41.0817C67.0372 40.9076 66.8143 40.7882 66.5696 40.7397C66.325 40.6912 66.0707 40.716 65.8414 40.8106V40.8106Z" fill="#9F616A"/>
<path d="M51.2404 34.287L49.3902 31.7789C49.0359 31.2986 48.8875 30.7072 48.9754 30.1259C49.0634 29.5446 49.381 29.0174 49.8632 28.6523C50.3454 28.2872 50.9557 28.1119 51.5691 28.1623C52.1824 28.2127 52.7523 28.4849 53.162 28.9233L55.5324 31.4594L51.2404 34.287Z" fill="#CBCBCB"/>
<path d="M49.9843 26.2287C51.7212 26.2287 53.1292 24.8853 53.1292 23.2281C53.1292 21.571 51.7212 20.2275 49.9843 20.2275C48.2474 20.2275 46.8394 21.571 46.8394 23.2281C46.8394 24.8853 48.2474 26.2287 49.9843 26.2287Z" fill="#9F616A"/>
<path d="M53.1823 21.706H48.1885V19.6291C49.2846 19.2137 50.3571 18.8603 51.0055 19.6291C51.5828 19.6291 52.1365 19.8479 52.5447 20.2374C52.9529 20.6269 53.1823 21.1552 53.1823 21.706Z" fill="#2F2E41"/>
<path d="M48.8769 19.1311C44.3015 19.0119 45.1679 26.2037 45.1679 26.2037C45.1679 26.2037 46.0311 26.3126 46.425 26.3766L46.9007 26.121L47.4126 26.4413C47.6476 26.4424 47.8945 26.4381 48.1505 26.4335L48.3851 25.9726L48.9084 26.4253C49.8608 26.4266 52.4457 26.4517 52.4457 26.4517C52.4457 26.4517 54.0035 19.2647 48.8769 19.1311Z" fill="#2F2E41"/>
<path d="M85.928 75.0928H33.4181C33.3815 75.0928 33.3465 75.079 33.3206 75.0543C33.2948 75.0297 33.2803 74.9962 33.2803 74.9613C33.2803 74.9265 33.2948 74.893 33.3206 74.8683C33.3465 74.8437 33.3815 74.8298 33.4181 74.8298H85.928C85.9646 74.8298 85.9996 74.8437 86.0255 74.8683C86.0513 74.893 86.0659 74.9265 86.0659 74.9613C86.0659 74.9962 86.0513 75.0297 86.0255 75.0543C85.9996 75.079 85.9646 75.0928 85.928 75.0928Z" fill="#CBCBCB"/>
</svg>
